<svg width="902" height="207" viewBox="0 0 902 207" fill="none" xmlns="http://www.w3.org/2000/svg">
<path d="M221.646 16.7788L305.733 10.7788H342.521H364.068H390.345H463.395C472.645 5.97882 521.555 6.11215 544.854 6.77882C553.683 3.57882 633.67 5.44548 672.56 6.77882H698.312L733.523 9.27882L755.596 6.77882H798.165H814.982L838.631 13.2788C878.993 23.6788 893.988 79.9455 896.441 106.779C887.612 145.179 827.245 162.779 798.165 166.779H744.56L711.451 171.779H700.94L635.773 179.779H601.087L512.796 184.779L419.25 191.279L325.703 195.279C289.126 201.279 264.916 200.112 257.383 198.779C143.866 207.979 65.7355 193.279 40.8599 184.779C-23.2562 145.779 16.685 74.2788 31.4001 52.7788C43.1722 35.5788 98.6694 23.6122 124.946 19.7788H142.815L186.96 16.7788H206.405H221.646Z" fill="#FF3892" stroke="black" stroke-width="10"/>
<path d="M80 146.654C85.6502 129.371 88.8713 111.414 92.2222 93.654C93.5012 86.8754 94.6537 79.9236 97.5 73.5984C101.005 65.8104 100.523 65.755 106.222 71.8762C111.804 77.8719 113.806 87.0513 117.556 94.2095C121.35 101.453 121.808 109.471 125 116.654C127.612 122.532 128.731 130.174 130.5 136.543C131.366 139.66 129.877 147.093 133 148.654" stroke="black" stroke-width="10" stroke-linecap="round"/>
<path d="M86.9204 117.775C93.0151 117.775 116.031 122.609 119.92 116.775" stroke="black" stroke-width="10" stroke-linecap="round"/>
<path d="M157.96 139.346C157.96 149.287 159.239 140.519 159.96 136.013C160.631 131.824 161.758 127.486 162.738 123.346C164.323 116.654 163.608 108.2 166.96 102.124C169.083 98.2764 169.087 93.1434 171.46 89.346C171.921 88.609 171.908 82.7353 172.405 82.7905C175.087 83.0885 182.414 95.1913 183.349 97.7905C185.161 102.822 187.044 108.468 187.96 113.735C188.959 119.479 191.89 126.326 195.405 130.846C198.106 134.318 202.771 140.907 204.516 133.679C206.883 123.873 211.097 113.894 211.905 103.79C212.313 98.692 214.393 93.7665 215.738 88.7905C216.734 85.1069 216.87 80.4823 218.96 77.346" stroke="black" stroke-width="10" stroke-linecap="round"/>
<path d="M253.736 75.846C259.979 77.8047 265.255 77.846 271.68 77.846C272.54 77.846 279.4 77.5138 276.736 78.846" stroke="black" stroke-width="10" stroke-linecap="round"/>
<path d="M265 77.7138C266.773 85.7897 266.272 91.5133 264.222 99.7138C262.705 105.783 262.3 111.983 261 118.158C259.962 123.087 259 127.199 259 132.269C259 136.796 257 140.42 257 144.714" stroke="black" stroke-width="10" stroke-linecap="round"/>
<path d="M247 150H267" stroke="black" stroke-width="10" stroke-linecap="round"/>
<path d="M306.921 132.188C307.477 128.156 307.921 124.249 307.921 120.188C307.921 117.245 306.698 114.333 307.143 111.41C307.903 106.417 308.921 101.489 308.921 96.41C308.921 91.4028 308.467 83.4948 312.143 79.41C314.738 76.5272 318.799 85.057 319.921 87.1878C322.392 91.8831 325.563 95.5959 328.476 99.9656C329.928 102.142 332.332 104.259 334.921 104.966C340.467 106.478 342.375 102.942 345.921 99.1878C353.05 91.6391 355.821 80.8604 362.699 73.41C365.927 69.9125 366.192 71.4783 368.699 75.1878C371.76 79.7186 374.193 86.6968 375.699 91.9656C376.855 96.0142 375.706 101.228 377.921 104.966C379.834 108.194 377.713 111.971 379.143 115.188C380.18 117.52 380.495 119.913 381.699 122.188C383.485 125.563 383.018 127.816 385.921 124.188" stroke="black" stroke-width="10" stroke-linecap="round"/>
<path d="M411.647 124.321C413.153 116.42 412.907 108.333 413.703 100.377C414.235 95.0539 416.206 89.9833 416.703 84.7659C417.189 79.6635 419.73 74.8883 422.647 70.877C428.241 63.1858 433.496 64.5205 438.536 72.7104C444.567 82.5101 448.855 93.1365 453.647 103.321C454.761 105.687 453.976 108.892 455.647 110.877C456.617 112.029 458.567 114.8 458.647 116.321C458.749 118.253 460.13 123.563 461.647 124.321" stroke="black" stroke-width="10" stroke-linecap="round"/>
<path d="M416.647 100.321C427.477 100.321 438.088 101.21 448.647 103.321" stroke="black" stroke-width="10" stroke-linecap="round"/>
<path d="M484 68C497.984 68.237 511.946 69 526 69C534.453 69 541.724 66 550 66" stroke="black" stroke-width="10" stroke-linecap="round"/>
<path d="M517 74.933C521.358 81.0341 523.043 88.0547 525.5 94.933C527.038 99.2385 526.355 103.854 528 108.377C529.202 111.683 530.805 115.431 531 118.933C531.119 121.071 533 122.006 533 124.489C533 131.234 535.366 127.567 539 123.933" stroke="black" stroke-width="10" stroke-linecap="round"/>
<path d="M584.598 62.2545C589.881 62.2545 594.409 61.2545 599.598 61.2545C602.513 61.2545 608.583 62.2694 610.598 60.2545" stroke="black" stroke-width="10" stroke-linecap="round"/>
<path d="M601.654 62C604.504 70.7296 601.654 77.7035 601.654 86.5556C601.654 91.4444 601.654 96.3333 601.654 101.222C601.654 103.739 601.596 106.262 601.654 108.778C601.717 111.569 603.654 113.367 603.654 116.056C603.654 119.797 605.654 122.465 605.654 126" stroke="black" stroke-width="10" stroke-linecap="round"/>
<path d="M593.598 133.254C597.378 133.254 617.677 132.096 619.598 128.254" stroke="black" stroke-width="10" stroke-linecap="round"/>
<path d="M677 123C681.307 122.914 687.075 122.983 690 119.222C692.786 115.64 698.491 111.706 699 107C699.655 100.945 702.632 89.1771 698 84C693.062 78.4809 681.811 78 675 78C668.661 78 661.679 76.0842 658.333 82.1667C652.495 92.7819 646.338 108.447 659.556 116C664.837 119.018 677.272 123.819 683 120" stroke="black" stroke-width="10" stroke-linecap="round"/>
<path d="M750 126C751.449 119.077 753.89 112.567 756.444 106C757.802 102.509 757 97.649 757 93.9444C757 88.1271 756.402 81.8422 757.944 76.4444C758.014 76.2027 758.74 71.1844 759.222 71.6667C761.339 73.7835 762.052 77.5076 764 79.8889C766.004 82.3379 767.634 84.4739 769.222 87.2222C773.657 94.8985 777.974 102.231 782.556 109.778C783.741 111.73 792.234 124.242 793 121.944C795.936 113.137 801.098 104.604 804.444 96C806.803 89.9363 804.901 81.7529 807.778 76C809.276 73.0042 809.035 66.4824 812 65" stroke="black" stroke-width="10" stroke-linecap="round"/>
</svg>
