<svg id="ef2b523e-70db-42f7-a75e-9e65f3d84b55" data-name="Layer 1" xmlns="http://www.w3.org/2000/svg" viewBox="0 0 300 293.94"><defs><style>.a71bd6af-fdd0-401f-9039-fe39b14ca4da,.f0cc1b48-8e9b-4feb-93f7-7a128689f865{fill:#fff;}.a1039f4c-0b22-4383-87b2-913487f3cff3,.a45738ca-323b-44f9-8ae5-4d5663fc4d67,.a50eb200-3a4d-4fa8-8f59-f89c569ffc60,.a56a36ff-d2b8-47ca-8a4b-8a82935e975c,.ac2a5f6b-9184-48cb-a43d-0cb93d782de9,.ac7dd538-a5b3-4d96-817a-7649e3566900,.ae29292e-56e3-4e90-a320-8d60069546a1,.aed6a4b4-caac-4368-89e3-ee729b47c735,.af604d19-63f8-4f88-85ca-00483ccf86ce,.b0ac6773-1655-499f-b167-31084f0a32f5,.b0eed768-c626-46bc-8ebc-b5dde66f556e,.b57a5c4f-b06f-4e44-950f-696127a2aef7,.ba6a7257-0fb0-4f2e-9927-35e9a56adc69,.e14c3993-8b34-489c-b9d2-3d9adfd5c2f1,.e2417f6f-bc7c-4475-ac4f-7f9bb9debe72,.e559db6d-7632-4878-aad4-d9d9ad393f3c,.e6c5ae1a-cb78-4b8e-b2d1-be889f7d297d,.e86d7674-f435-499b-804d-af07664a71a4,.ef76b26d-2fc7-461f-9817-9a8f1701cdbf,.f0cc1b48-8e9b-4feb-93f7-7a128689f865,.f78f8c9a-addf-455f-8794-59c365f5616b,.fc573b93-218e-452d-b85c-06bf820804b3,.ff2cbd90-e9c1-416e-a411-3bad9c9a6cb2{stroke:#000;}.ac7dd538-a5b3-4d96-817a-7649e3566900{stroke-miterlimit:10;}.a50eb200-3a4d-4fa8-8f59-f89c569ffc60{fill:#5195a5;}.a1039f4c-0b22-4383-87b2-913487f3cff3,.a45738ca-323b-44f9-8ae5-4d5663fc4d67,.a50eb200-3a4d-4fa8-8f59-f89c569ffc60,.a56a36ff-d2b8-47ca-8a4b-8a82935e975c,.ac2a5f6b-9184-48cb-a43d-0cb93d782de9,.ae29292e-56e3-4e90-a320-8d60069546a1,.aed6a4b4-caac-4368-89e3-ee729b47c735,.af604d19-63f8-4f88-85ca-00483ccf86ce,.b0ac6773-1655-499f-b167-31084f0a32f5,.b0eed768-c626-46bc-8ebc-b5dde66f556e,.b57a5c4f-b06f-4e44-950f-696127a2aef7,.ba6a7257-0fb0-4f2e-9927-35e9a56adc69,.e14c3993-8b34-489c-b9d2-3d9adfd5c2f1,.e2417f6f-bc7c-4475-ac4f-7f9bb9debe72,.e559db6d-7632-4878-aad4-d9d9ad393f3c,.e6c5ae1a-cb78-4b8e-b2d1-be889f7d297d,.e86d7674-f435-499b-804d-af07664a71a4,.ef76b26d-2fc7-461f-9817-9a8f1701cdbf,.f0cc1b48-8e9b-4feb-93f7-7a128689f865,.f78f8c9a-addf-455f-8794-59c365f5616b,.fc573b93-218e-452d-b85c-06bf820804b3,.ff2cbd90-e9c1-416e-a411-3bad9c9a6cb2{stroke-linecap:round;stroke-linejoin:round;}.ae29292e-56e3-4e90-a320-8d60069546a1{fill:#ccd6e2;}.b0ac6773-1655-499f-b167-31084f0a32f5{fill:#82e09c;}.ba6a7257-0fb0-4f2e-9927-35e9a56adc69{fill:#e6fff1;}.ac2a5f6b-9184-48cb-a43d-0cb93d782de9{fill:#d3d3d3;}.ef76b26d-2fc7-461f-9817-9a8f1701cdbf{fill:#fffab8;}.a1039f4c-0b22-4383-87b2-913487f3cff3{fill:none;}.a56a36ff-d2b8-47ca-8a4b-8a82935e975c{fill:#cafff9;}.b0eed768-c626-46bc-8ebc-b5dde66f556e{fill:#dce6ef;}.e2417f6f-bc7c-4475-ac4f-7f9bb9debe72{fill:#efcd3f;}.e14c3993-8b34-489c-b9d2-3d9adfd5c2f1{fill:#ffe473;}.fc573b93-218e-452d-b85c-06bf820804b3{fill:red;}.ff2cbd90-e9c1-416e-a411-3bad9c9a6cb2{fill:#b50000;}.e559db6d-7632-4878-aad4-d9d9ad393f3c{fill:#a0d1f9;}.af604d19-63f8-4f88-85ca-00483ccf86ce{fill:#ffb6cd;}.f78f8c9a-addf-455f-8794-59c365f5616b{fill:#71ffff;}.aed6a4b4-caac-4368-89e3-ee729b47c735{fill:#c6c3c9;}.e86d7674-f435-499b-804d-af07664a71a4{fill:#c2e1ff;}.e6c5ae1a-cb78-4b8e-b2d1-be889f7d297d{fill:#e5c7cd;}.b57a5c4f-b06f-4e44-950f-696127a2aef7{fill:#f2dcc2;}.a45738ca-323b-44f9-8ae5-4d5663fc4d67{fill:#f4f7e8;}.b1bcef56-a8c5-4d58-9464-5e31a22af032{opacity:0.15;}</style></defs><title>we-bare-bears-ice-bear-in-the-refrigerator</title><path class="a71bd6af-fdd0-401f-9039-fe39b14ca4da" d="M100.05,292a14,14,0,0,1-1.69-.1h-.51c-19.11,0-58-10.06-73.77-14.39A19.19,19.19,0,0,1,10,260.17C4.71,176.28,2.76,111.8,8.41,30.44A19.29,19.29,0,0,1,26.15,12.61c19.12-1.41,54-3.76,72.53-3.76,2.68,0,5,.05,6.86.14l67.14,3.56a23.16,23.16,0,0,1,14.25,5.83,18.33,18.33,0,0,1,13.62-8.18l51.1-2.15.77,0a18.19,18.19,0,0,1,2.18.13c9.73,0,20.89.82,30.76,9.37,8.42,7.28,8.65,20.19,8.78,27.91l0,1.25c1.84,83.39.64,148.93-3.78,206.22-.89,11.55-3.22,19.74-12.47,27.44-6.51,5.42-15,6.56-21,6.56a52.78,52.78,0,0,1-5.72-.32H251a15.83,15.83,0,0,1-5.31-.93,33.69,33.69,0,0,1-7.25-2.81l-42.79-16.62a18.55,18.55,0,0,1-6.65-4.47,23.33,23.33,0,0,1-10.85,7L109.4,289.83a21.72,21.72,0,0,1-5.07,1.55A15.79,15.79,0,0,1,100.05,292Z" transform="translate(0 -3.03)"/><path class="a71bd6af-fdd0-401f-9039-fe39b14ca4da" d="M252.42,13a13.83,13.83,0,0,1,1.88.13c9.28,0,19.12.64,27.79,8.15,6.73,5.82,6.93,17.34,7.05,24.22l0,1.26c1.84,83.23.64,148.61-3.77,205.74-.82,10.69-2.7,17.34-10.68,24-5.36,4.46-12.64,5.4-17.79,5.4a47.17,47.17,0,0,1-5.65-.34h0l-.23,0a10.8,10.8,0,0,1-3.87-.73,28,28,0,0,1-6.63-2.58l-43-16.71c-3.83-1.49-6.91-4.87-8.63-9.38A18.29,18.29,0,0,1,176.72,264l-69.11,21.19a16.58,16.58,0,0,1-4.42,1.35,10.61,10.61,0,0,1-3.14.47,11.23,11.23,0,0,1-1.48-.11h-.72c-18.5,0-56.83-9.94-72.45-14.21A14.2,14.2,0,0,1,15,259.86c-5.26-83.68-7.21-148-1.59-229.07a14.29,14.29,0,0,1,13.13-13.2c20.15-1.48,54-3.74,72.16-3.74,2.53,0,4.75,0,6.59.14l67.15,3.55A18.22,18.22,0,0,1,188,28c1.75-7.25,6.87-12.44,12.87-12.84l51-2.15h.56m0-10-1,0-51,2.15h-.25a22.45,22.45,0,0,0-14,6.41,28.29,28.29,0,0,0-13.23-4.07L105.8,4c-2-.1-4.35-.15-7.12-.15C80,3.85,45,6.21,25.79,7.62A24.33,24.33,0,0,0,3.42,30.1C-2.24,111.73-.29,176.39,5,260.49a24.18,24.18,0,0,0,17.76,21.82c19.88,5.44,56.08,14.57,75.09,14.57h.29c.65.06,1.28.09,1.91.09a20.79,20.79,0,0,0,5.4-.71,27.79,27.79,0,0,0,5.7-1.73l68.47-21a28.25,28.25,0,0,0,9.6-5.06,23.32,23.32,0,0,0,4.61,2.43l42.58,16.53a38.41,38.41,0,0,0,7.85,3A20.83,20.83,0,0,0,251,291.6a57.22,57.22,0,0,0,6,.31c6.8,0,16.52-1.34,24.19-7.71,10.56-8.79,13.29-18.34,14.25-30.9,4.44-57.47,5.64-123.16,3.79-206.74l0-1.23c-.14-8-.4-22.84-10.51-31.59C276.71,3.43,262.72,3.17,254.87,3.16A22.88,22.88,0,0,0,252.42,3Z" transform="translate(0 -3.03)"/><path class="ac7dd538-a5b3-4d96-817a-7649e3566900" d="M288.67,46.8l0-1.26c-.12-6.8-.32-18.18-6.88-23.86-8.54-7.39-18.28-8-27.51-8h0a15.16,15.16,0,0,0-2.34-.11l-51,2.15c-6.33.42-11.46,6.33-12.73,14.05A17.76,17.76,0,0,0,172.39,18l-67.14-3.55c-15-.79-55.74,1.92-78.69,3.6A13.79,13.79,0,0,0,13.89,30.82c-5.62,81.05-3.67,145.34,1.59,229a13.7,13.7,0,0,0,10.05,12.36c16.49,4.51,54,14.19,72.32,14.19h.79a10.88,10.88,0,0,0,1.41.1,10.42,10.42,0,0,0,3.06-.46,17.17,17.17,0,0,0,4.36-1.33l69.11-21.2a17.63,17.63,0,0,0,12.21-13c1.48,5,4.67,9,8.86,10.62h0l43.09,16.73a28.13,28.13,0,0,0,6.58,2.55,10.11,10.11,0,0,0,3.69.7l.33,0a47,47,0,0,0,5.59.34c5.55,0,12.39-1.05,17.47-5.28,7.84-6.53,9.69-13.08,10.51-23.64C289.31,195.38,290.51,130,288.67,46.8Z" transform="translate(0 -3.03)"/><path class="a50eb200-3a4d-4fa8-8f59-f89c569ffc60" d="M220,261.45s16.19,15.92,27.5,18.47c5.8,1.32,18.74,2.39,26.63-4.18,7.5-6.24,9.5-12.56,10.33-23.29,4.84-62.71,5.39-131.86,3.76-205.64-.14-6.37.08-18.85-6.73-24.75-8.11-7-17.31-7.89-27.2-7.91S223.07,17,223.07,17c-7,.47-12.57,8.06-12.57,17.26V244.9C210.5,252.54,214.34,259.26,220,261.45Z" transform="translate(0 -3.03)"/><path class="f0cc1b48-8e9b-4feb-93f7-7a128689f865" d="M197.83,260.65l49.62,19.27a9.76,9.76,0,0,0,13.27-8.25C267,198.42,268,115.82,265.56,26.79A13.11,13.11,0,0,0,251.91,14l-51,2.15c-7,.47-12.58,8-12.58,17.25V244.1C188.37,251.73,192.21,258.46,197.83,260.65Z" transform="translate(0 -3.03)"/><path class="ae29292e-56e3-4e90-a320-8d60069546a1" d="M201.86,250l42.82,17.46c5.24,2.14,11-1.6,11.45-7.48,5.38-66.34,6.31-141.16,4.18-221.81-.18-6.62-5.48-11.82-11.79-11.54l-44,1.94c-6.08.43-10.85,7.3-10.85,15.63V235C193.7,241.89,197,248,201.86,250Z" transform="translate(0 -3.03)"/><path class="b0ac6773-1655-499f-b167-31084f0a32f5" d="M194.32,229.22c0-12.15-.3-15.72,3.31-17.6s13,.33,15.77,1.94,3.31,6.72,3.31,6.72l-3.81,17.87-18.58-4.91Z" transform="translate(0 -3.03)"/><path class="ba6a7257-0fb0-4f2e-9927-35e9a56adc69" d="M194.32,233.24v-4c0-6.08-.07-10,.3-12.65,3.92,1.81,12.25,2.38,12.25,2.38s-1.51,10.37-1.36,16.59Z" transform="translate(0 -3.03)"/><path class="ac2a5f6b-9184-48cb-a43d-0cb93d782de9" d="M213.88,209.9c0-.7-3.51-1.4-7.89-1.56s-8,.27-8,1c0,.32-.07,2.56-.07,2.73,0,.7,3.51,1.4,7.89,1.56s7.95-.27,8-1C213.81,212.44,213.87,210.24,213.88,209.9Z" transform="translate(0 -3.03)"/><ellipse class="ac2a5f6b-9184-48cb-a43d-0cb93d782de9" cx="205.95" cy="209.61" rx="1.27" ry="7.94" transform="translate(-11.27 404.47) rotate(-87.84)"/><path class="b0ac6773-1655-499f-b167-31084f0a32f5" d="M208.86,232.24c0-13.91-.34-18,3.79-20.14s14.83.37,18,2.21,3.79,7.7,3.79,7.7l-4.36,20.45-21.26-5.63Z" transform="translate(0 -3.03)"/><path class="ba6a7257-0fb0-4f2e-9927-35e9a56adc69" d="M208.86,236.83v-4.59c0-7-.08-11.45.35-14.48,4.48,2.08,14,2.72,14,2.72s-1.73,11.87-1.55,19Z" transform="translate(0 -3.03)"/><path class="ac2a5f6b-9184-48cb-a43d-0cb93d782de9" d="M231.25,210.13c0-.8-4-1.6-9-1.79s-9.1.31-9.12,1.11c0,.37-.08,2.93-.09,3.13,0,.8,4,1.6,9,1.79s9.09-.31,9.11-1.11C231.17,213,231.24,210.52,231.25,210.13Z" transform="translate(0 -3.03)"/><path class="ac2a5f6b-9184-48cb-a43d-0cb93d782de9" d="M231.25,210.13c0,.35-.79.64-2.07.84-.57.09-1.25.16-2,.22-.52,0-1.08.06-1.67.07l-.72,0h-1.41l-1.24,0c-1.14,0-2.23-.12-3.24-.22-.78-.07-1.52-.17-2.18-.27a18.74,18.74,0,0,1-2-.41c-1-.28-1.6-.58-1.59-.89s1.09-.74,2.81-.94c.58-.06,1.24-.12,2-.15.52,0,1.07,0,1.64-.05.86,0,1.77,0,2.72,0s1.59.08,2.34.14,1.21.11,1.77.18,1.36.18,1.95.28a15.76,15.76,0,0,1,1.62.38C230.76,209.57,231.26,209.85,231.25,210.13Z" transform="translate(0 -3.03)"/><line class="ac2a5f6b-9184-48cb-a43d-0cb93d782de9" x1="230.13" y1="207.75" x2="230.13" y2="210.85"/><line class="ac2a5f6b-9184-48cb-a43d-0cb93d782de9" x1="226.19" y1="211.33" x2="226.19" y2="208.21"/><line class="ac2a5f6b-9184-48cb-a43d-0cb93d782de9" x1="228.28" y1="208.06" x2="228.28" y2="211.17"/><line class="ac2a5f6b-9184-48cb-a43d-0cb93d782de9" x1="224.18" y1="208.33" x2="224.18" y2="211.33"/><line class="ac2a5f6b-9184-48cb-a43d-0cb93d782de9" x1="222.14" y1="208.21" x2="222.18" y2="211.14"/><line class="ac2a5f6b-9184-48cb-a43d-0cb93d782de9" x1="214.21" y1="207.16" x2="214.13" y2="210.29"/><line class="ac2a5f6b-9184-48cb-a43d-0cb93d782de9" x1="218.23" y1="207.92" x2="218.23" y2="211.06"/><line class="ac2a5f6b-9184-48cb-a43d-0cb93d782de9" x1="220.32" y1="208.11" x2="220.32" y2="211.17"/><line class="ac2a5f6b-9184-48cb-a43d-0cb93d782de9" x1="216.22" y1="207.64" x2="216.22" y2="210.78"/><path class="ef76b26d-2fc7-461f-9817-9a8f1701cdbf" d="M240.57,241.43s.48-18.17,2-19.42c1.81-1.46,4.7-1.66,5.1-3.61a70,70,0,0,0,.6-7.15h5.82s-1,8.34,0,9.75,3.62,2.34,3.72,5.32,0,17.12,0,17.12C251.37,242.66,244.94,244.5,240.57,241.43Z" transform="translate(0 -3.03)"/><path class="a1039f4c-0b22-4383-87b2-913487f3cff3" d="M247.7,220.36a7.24,7.24,0,0,0,4.62.82" transform="translate(0 -3.03)"/><path class="ac2a5f6b-9184-48cb-a43d-0cb93d782de9" d="M254.54,211.64c0-.64-1.43-1.29-3.27-1.44s-3.37.25-3.41.89c0,.29-.15,2.35-.16,2.51,0,.64,1.43,1.28,3.27,1.44s3.37-.25,3.41-.89C254.39,214,254.52,212,254.54,211.64Z" transform="translate(0 -3.03)"/><ellipse class="ac2a5f6b-9184-48cb-a43d-0cb93d782de9" cx="251.2" cy="211.37" rx="1.16" ry="3.35" transform="translate(19.43 440.84) rotate(-85.17)"/><path class="a1039f4c-0b22-4383-87b2-913487f3cff3" d="M257.77,225.8c-3.53.84-10.79.42-13.33-.76" transform="translate(0 -3.03)"/><path class="a56a36ff-d2b8-47ca-8a4b-8a82935e975c" d="M226.67,238.55s0-15.81,1.75-17.06c2.07-1.46,5.37-1.66,5.83-3.62a60.78,60.78,0,0,0,.69-7.14h6.67s-1.15,8.34,0,9.75,4.13,2.33,4.25,5.32,0,17.12,0,17.12C238.48,242.14,231.67,241.63,226.67,238.55Z" transform="translate(0 -3.03)"/><polygon class="ba6a7257-0fb0-4f2e-9927-35e9a56adc69" points="228.74 235.85 229.66 221.05 240.57 223.79 240.57 238.4 228.74 235.85"/><path class="a1039f4c-0b22-4383-87b2-913487f3cff3" d="M236,219.5a5.67,5.67,0,0,0,3,.67" transform="translate(0 -3.03)"/><path class="ac2a5f6b-9184-48cb-a43d-0cb93d782de9" d="M242.3,208.67c0-.64-1.63-1.28-3.74-1.44s-3.86.25-3.9.89c0,.29-.17,2.35-.18,2.51,0,.64,1.63,1.29,3.74,1.44s3.85-.25,3.9-.89C242.13,211,242.28,209,242.3,208.67Z" transform="translate(0 -3.03)"/><ellipse class="ac2a5f6b-9184-48cb-a43d-0cb93d782de9" cx="238.48" cy="208.4" rx="1.16" ry="3.83" transform="translate(13.6 428.37) rotate(-85.91)"/><path class="f0cc1b48-8e9b-4feb-93f7-7a128689f865" d="M214.21,262.8c16.83,6.77,37.95,13.2,45.92,11.46a10,10,0,0,0,.59-2.59Q262,256.52,263,240.84c-22.83,6.07-73.48-14.43-74.63-18V244.1a21.7,21.7,0,0,0,1,6.52C192.71,253.94,197.38,256,214.21,262.8Z" transform="translate(0 -3.03)"/><path class="a1039f4c-0b22-4383-87b2-913487f3cff3" d="M188.37,222.81c0-1.69.76-4.48,4.9-5.62" transform="translate(0 -3.03)"/><path class="b0eed768-c626-46bc-8ebc-b5dde66f556e" d="M266.39,64.27h-6.17L193.7,68.11V91.84c19,2.27,45.06,3.51,73,4.48Q266.65,80.45,266.39,64.27Z" transform="translate(0 -3.03)"/><ellipse class="f0cc1b48-8e9b-4feb-93f7-7a128689f865" cx="205.59" cy="61.45" rx="5.92" ry="4.31" transform="translate(113.04 252.01) rotate(-81.09)"/><ellipse class="f0cc1b48-8e9b-4feb-93f7-7a128689f865" cx="216.39" cy="62.89" rx="5.92" ry="4.31" transform="matrix(0.15, -0.99, 0.99, 0.15, 120.74, 263.89)"/><ellipse class="f0cc1b48-8e9b-4feb-93f7-7a128689f865" cx="198.29" cy="66.3" rx="5.92" ry="4.31" transform="translate(102.08 248.89) rotate(-81.09)"/><ellipse class="f0cc1b48-8e9b-4feb-93f7-7a128689f865" cx="202.37" cy="68.06" rx="5.92" ry="4.31" transform="translate(103.79 254.41) rotate(-81.09)"/><ellipse class="f0cc1b48-8e9b-4feb-93f7-7a128689f865" cx="210.64" cy="65.83" rx="5.92" ry="4.31" transform="translate(112.98 260.7) rotate(-81.09)"/><ellipse class="f0cc1b48-8e9b-4feb-93f7-7a128689f865" cx="216.65" cy="68.41" rx="5.92" ry="4.31" transform="translate(115.51 268.82) rotate(-81.09)"/><path class="e2417f6f-bc7c-4475-ac4f-7f9bb9debe72" d="M255.52,52.32c0,2.6-.53,2.47-1.19,2.47s-1.19.13-1.19-2.47.53-5.86,1.19-5.86S255.52,49.72,255.52,52.32Z" transform="translate(0 -3.03)"/><path class="e2417f6f-bc7c-4475-ac4f-7f9bb9debe72" d="M250.75,56.66c-.06-1.59-.34-4.34,3.44-4.34s3.8,1.86,3.73,4.4-7.2.31-7.2.31Z" transform="translate(0 -3.03)"/><path class="e2417f6f-bc7c-4475-ac4f-7f9bb9debe72" d="M261.85,69.67c0-6.55.28-11-1.89-12.3-1.64-1-9.33-1.84-10.94.23s-1.44,5.23-1.44,11.84S261.85,69.67,261.85,69.67Z" transform="translate(0 -3.03)"/><path class="e14c3993-8b34-489c-b9d2-3d9adfd5c2f1" d="M221.9,52.32l-.57,18,23,1.43-2.78-18.38s-4.56-1-7.44-1.32C230.35,51.57,223.63,51.84,221.9,52.32Z" transform="translate(0 -3.03)"/><ellipse class="a1039f4c-0b22-4383-87b2-913487f3cff3" cx="227.38" cy="60.78" rx="2.62" ry="7.53"/><line class="a1039f4c-0b22-4383-87b2-913487f3cff3" x1="229.79" y1="57.79" x2="234.14" y2="56.16"/><line class="a1039f4c-0b22-4383-87b2-913487f3cff3" x1="227.38" y1="53.25" x2="228.74" y2="48.76"/><line class="a1039f4c-0b22-4383-87b2-913487f3cff3" x1="226.31" y1="53.91" x2="223.23" y2="49.06"/><line class="a1039f4c-0b22-4383-87b2-913487f3cff3" x1="224.97" y1="57.79" x2="221.65" y2="57.38"/><path class="e2417f6f-bc7c-4475-ac4f-7f9bb9debe72" d="M234.14,71.1l10.22.63-2.78-18.38s-4.56-1-7.44-1.32Z" transform="translate(0 -3.03)"/><path class="fc573b93-218e-452d-b85c-06bf820804b3" d="M246.55,52.09c0,2.6-.55,2.47-1.23,2.47s-1.24.13-1.24-2.47.56-5.86,1.24-5.86S246.55,49.49,246.55,52.09Z" transform="translate(0 -3.03)"/><path class="fc573b93-218e-452d-b85c-06bf820804b3" d="M241.61,56.43c-.06-1.59-.35-4.34,3.56-4.34S249.1,54,249,56.49s-7.45.31-7.45.31Z" transform="translate(0 -3.03)"/><path class="fc573b93-218e-452d-b85c-06bf820804b3" d="M253.1,69.44c0-6.55.28-11-2-12.3-1.7-1-9.65-1.84-11.31.23s-1.5,5.23-1.5,11.84S253.1,69.44,253.1,69.44Z" transform="translate(0 -3.03)"/><path class="ff2cbd90-e9c1-416e-a411-3bad9c9a6cb2" d="M238.33,69.21c0-4.55-.08-7.46.41-9.51.22-.93,8-.72,8.71,1.75s.71,9.42.71,9.42Z" transform="translate(0 -3.03)"/><path class="b0eed768-c626-46bc-8ebc-b5dde66f556e" d="M193.7,163v25.81c12.88,4.16,63.25,16.22,65.94,12.94.05-1,.09-2,.13-2.95q.17-4,.3-8.05.12-3,.21-6.1.14-4.12.25-8.3c0-1.37.08-2.75.11-4.13C240.73,172.49,210.71,165.56,193.7,163Z" transform="translate(0 -3.03)"/><path class="f0cc1b48-8e9b-4feb-93f7-7a128689f865" d="M262.23,70c1.42,1.49,1.85,18.9.17,20.51s-27.84.28-41.4-.49-30.95-1.3-32.63-3.83-.85-17.69,1.6-18.81,16.63,1,36.24,1.2S260.7,68.37,262.23,70Z" transform="translate(0 -3.03)"/><path class="e559db6d-7632-4878-aad4-d9d9ad393f3c" d="M193.18,130.17c0-10,0-12.73,2.31-14.28,2.34-.88,7.77-.14,10,.49,1.76,1.33.9,7,.9,7l-1.5,14.11-11.67-4.05Z" transform="translate(0 -3.03)"/><ellipse class="ac2a5f6b-9184-48cb-a43d-0cb93d782de9" cx="200.47" cy="116.14" rx="1.04" ry="4.99" transform="translate(74.37 307.46) rotate(-87.11)"/><path class="af604d19-63f8-4f88-85ca-00483ccf86ce" d="M203.92,121.48c0-2.45.23-4.9,2.53-6.36s2-4.44,2-9-.3-6.86,2.61-6.86,2.07,3,2.07,7.09-.38,7.64.61,8.42,4.82.23,4.9,3-2.94,9.65-3.35,9.42-10.44-3.55-10.44-3.55Z" transform="translate(0 -3.03)"/><path class="f78f8c9a-addf-455f-8794-59c365f5616b" d="M212.79,129.78c0-10-.21-13,2.28-14.5s8.9.27,10.84,1.59,2.27,5.55,2.27,5.55l-2.62,14.73-12.78-4.06Z" transform="translate(0 -3.03)"/><path class="aed6a4b4-caac-4368-89e3-ee729b47c735" d="M226.24,113.86c0-.58-2.42-1.15-5.43-1.29s-5.46.22-5.48.8c0,.26-.05,2.11-.05,2.25,0,.58,2.42,1.15,5.43,1.29s5.46-.22,5.48-.8C226.19,116,226.23,114.14,226.24,113.86Z" transform="translate(0 -3.03)"/><ellipse class="aed6a4b4-caac-4368-89e3-ee729b47c735" cx="220.79" cy="113.61" rx="1.04" ry="5.46" transform="translate(97.2 325.94) rotate(-87.38)"/><path class="e2417f6f-bc7c-4475-ac4f-7f9bb9debe72" d="M222,130.17c0-10-.2-13,2.28-14.51s8.91.27,10.84,1.59,2.28,5.55,2.28,5.55l-2.62,14.73L222,133.48Z" transform="translate(0 -3.03)"/><path class="aed6a4b4-caac-4368-89e3-ee729b47c735" d="M235.45,114.24c0-.57-2.42-1.15-5.43-1.29s-5.47.23-5.48.8c0,.26,0,2.11,0,2.25,0,.58,2.41,1.16,5.43,1.29s5.46-.22,5.47-.8C235.4,116.33,235.44,114.52,235.45,114.24Z" transform="translate(0 -3.03)"/><ellipse class="aed6a4b4-caac-4368-89e3-ee729b47c735" cx="229.99" cy="114" rx="1.04" ry="5.46" transform="matrix(0.05, -1, 1, 0.05, 105.6, 335.51)"/><path class="a56a36ff-d2b8-47ca-8a4b-8a82935e975c" d="M233.7,124.05c0-2.45.24-4.9,2.54-6.35s2-4.45,2-9-.31-6.86,2.6-6.86,2.07,3,2.07,7.09-.37,7.64.61,8.42,4.83.23,4.91,3-2.95,9.65-3.35,9.42-10.44-3.55-10.44-3.55Z" transform="translate(0 -3.03)"/><path class="e559db6d-7632-4878-aad4-d9d9ad393f3c" d="M253.85,136.88l.6-16.73,4.33-5.09,4.48,3.43v18.66C260,139.06,256.79,139.22,253.85,136.88Z" transform="translate(0 -3.03)"/><polygon class="e86d7674-f435-499b-804d-af07664a71a4" points="258.79 112.03 248.42 111.33 246.08 136.5 253.85 133.85 258.79 112.03"/><polygon class="e86d7674-f435-499b-804d-af07664a71a4" points="258.79 112.03 258.79 109.03 248.7 108.28 248.42 111.33 258.79 112.03"/><path class="f0cc1b48-8e9b-4feb-93f7-7a128689f865" d="M266,172.49q.47-17.6.64-35.69c-33.78,1.69-78.29-9.65-78.29-9.65s.58,34,3.76,35.82S257.08,177.7,266,172.49Z" transform="translate(0 -3.03)"/><path class="a1039f4c-0b22-4383-87b2-913487f3cff3" d="M255.39,173.72c.31-5.82.13-13.79-.85-18.08a59.59,59.59,0,0,1-1-16.11" transform="translate(0 -3.03)"/><path class="a1039f4c-0b22-4383-87b2-913487f3cff3" d="M254.54,155.64c-9.37,0-49.7-6-49.7-6" transform="translate(0 -3.03)"/><path class="ac2a5f6b-9184-48cb-a43d-0cb93d782de9" d="M213.22,102.56c.05-2.49-.19-3.33-2.17-3.33s-2.52.68-2.6,3.33A11.45,11.45,0,0,0,213.22,102.56Z" transform="translate(0 -3.03)"/><path class="ac2a5f6b-9184-48cb-a43d-0cb93d782de9" d="M243,106.17c0-3-.19-4.37-2.18-4.37s-2.59,1-2.59,4.37A11.62,11.62,0,0,0,243,106.17Z" transform="translate(0 -3.03)"/><path class="a50eb200-3a4d-4fa8-8f59-f89c569ffc60" d="M103,285.52C88.07,288,44.66,276.9,25.66,271.7A13.17,13.17,0,0,1,16,259.8c-5.46-86.74-7.06-150-1.59-228.94a13.21,13.21,0,0,1,12.2-12.27C47.19,17.08,90,14.18,105.22,15c20.42,1.08,8.17,11.61,8.17,20.8V246.45C113.39,254.08,122.33,282.28,103,285.52Z" transform="translate(0 -3.03)"/><polygon class="e6c5ae1a-cb78-4b8e-b2d1-be889f7d297d" points="42.62 79.54 65.44 78.31 66.21 106.5 41.85 107.88 42.62 79.54"/><polygon class="b57a5c4f-b06f-4e44-950f-696127a2aef7" points="50.43 56.87 74.63 48.14 80.45 75.25 55.64 85.52 50.43 56.87"/><polygon class="f0cc1b48-8e9b-4feb-93f7-7a128689f865" points="58.55 46.45 64.02 43.7 64.68 59.63 59.27 62.15 58.55 46.45"/><path class="f0cc1b48-8e9b-4feb-93f7-7a128689f865" d="M176.43,263,103,285.52a10,10,0,0,1-12.92-9.18c-3-85.49-3.38-168.26-.16-247.42A14.54,14.54,0,0,1,105.22,15l67.15,3.55a17.28,17.28,0,0,1,16.39,17.25V246.45A17.28,17.28,0,0,1,176.43,263Z" transform="translate(0 -3.03)"/><path class="a1039f4c-0b22-4383-87b2-913487f3cff3" d="M180.63,201.71c-.95,8.93.43,16.28-4.51,19.15s-62.73,12.07-68.25,6.78c-5.17-5-5.09-12.41-5.4-19" transform="translate(0 -3.03)"/><path class="a1039f4c-0b22-4383-87b2-913487f3cff3" d="M114.08,222c-7.13,0-11.31-7.77-11.61-13.33-1.72-32.86-3.47-127-2.9-164.88A18.9,18.9,0,0,1,119,25.19l45.63,1.33a18.52,18.52,0,0,1,18,18.51c1.24,62.57,2.19,112.17-2,156.68-.54,5.72-4.7,11.8-10.26,13.26A220.34,220.34,0,0,1,114.08,222Z" transform="translate(0 -3.03)"/><path class="ae29292e-56e3-4e90-a320-8d60069546a1" d="M119.51,206.08c4.19-44.51,3.24-94.1,2-156.68A18.5,18.5,0,0,0,104.86,31a18.81,18.81,0,0,0-5.29,12.8c-.57,37.92,1.18,132,2.9,164.88a16.2,16.2,0,0,0,5.4,11l1.38-.35C114.81,217.88,119,211.8,119.51,206.08Z" transform="translate(0 -3.03)"/><path class="a45738ca-323b-44f9-8ae5-4d5663fc4d67" d="M149.87,66.15c0-3.45,1.95-6.72,5.75-5.68s2.87,5.89,2.22,7.2-5.36,0-5.36,0Z" transform="translate(0 -3.03)"/><path class="b1bcef56-a8c5-4d58-9464-5e31a22af032" d="M155.62,60.47a5.18,5.18,0,0,0-1.06-.17,8.05,8.05,0,0,1,.17,7.83c1.31.19,2.77.22,3.11-.46C158.49,66.36,159.41,61.52,155.62,60.47Z" transform="translate(0 -3.03)"/><path class="a45738ca-323b-44f9-8ae5-4d5663fc4d67" d="M100,115.36c.57,36.54,1.55,74.73,2.52,93.32.3,5.56,4.48,13.33,11.61,13.33a220.34,220.34,0,0,0,56.29-7c4-2,15.63-25.93,17.62-61.17s-4.18-66.1-11-74.9c-5.36-6.9-25.58-23.75-44.42-3.22-9.19-2.45-16.55-1.53-21.6,7.5s.92,22.06,3.83,26.35c-2.48,3-5,7-5,7C105.72,116,100,115.36,100,115.36Z" transform="translate(0 -3.03)"/><path class="b1bcef56-a8c5-4d58-9464-5e31a22af032" d="M141,220.48A211,211,0,0,0,170.37,215c4-2,15.63-25.93,17.62-61.17s-4.18-66.1-11-74.9c-.31-.41-3,2.25-3,2.25,2.39,4.64,8,23.91,8.38,52,.28,19.12-3,41-8.88,57.84A45,45,0,0,1,141,220.48Z" transform="translate(0 -3.03)"/><path class="b1bcef56-a8c5-4d58-9464-5e31a22af032" d="M100.45,143c5.62,2.87,16.06,6.66,23,4.52,3.63-1.12,7.11-4.05,6.8-9.12A21.65,21.65,0,0,0,122.61,123c4.06,4.57,5.69,14.49-.39,18-8.07,4.68-21.85-3.29-21.85-3.29Z" transform="translate(0 -3.03)"/><path class="a1039f4c-0b22-4383-87b2-913487f3cff3" d="M109.76,116.53c5.7,1.16,19.6,7,20.52,21.84.31,5.07-3.17,8-6.8,9.12-7,2.14-17.41-1.65-23-4.52" transform="translate(0 -3.03)"/><path class="a1039f4c-0b22-4383-87b2-913487f3cff3" d="M124.61,147.07a12.32,12.32,0,0,0-4.79-6.06" transform="translate(0 -3.03)"/><path class="a1039f4c-0b22-4383-87b2-913487f3cff3" d="M129.39,142.87c-.95-1.86-3.13-5.3-5.43-6.68" transform="translate(0 -3.03)"/><path class="b1bcef56-a8c5-4d58-9464-5e31a22af032" d="M138.2,220.79c2-2.34,4.14-13.72,1-20.61-2-1.19-3,7.55-4.71,13.21a33.46,33.46,0,0,1-3.22,8Z" transform="translate(0 -3.03)"/><path class="b1bcef56-a8c5-4d58-9464-5e31a22af032" d="M147.86,200.18c.8-10.34-5.63-24.36-21.19-25C140.79,181,142,200.45,147.86,200.18Z" transform="translate(0 -3.03)"/><path class="a1039f4c-0b22-4383-87b2-913487f3cff3" d="M121.55,101.38c2.06-.46,4.51,1.26,5.12,3.56" transform="translate(0 -3.03)"/><path class="a1039f4c-0b22-4383-87b2-913487f3cff3" d="M138.2,220.79c2-2.34,4.14-13.72,1-20.61" transform="translate(0 -3.03)"/><path class="a1039f4c-0b22-4383-87b2-913487f3cff3" d="M102,197.08c1.32-6.89,9.16-22.63,24.71-21.94s22,14.7,21.19,25" transform="translate(0 -3.03)"/><path class="a1039f4c-0b22-4383-87b2-913487f3cff3" d="M135,76.33c-.46,1.72,1.61,3.68,4.59,1.72" transform="translate(0 -3.03)"/><path class="a1039f4c-0b22-4383-87b2-913487f3cff3" d="M151.07,83.11c-.57,2,.46,4.36,4.37,3" transform="translate(0 -3.03)"/><path class="a45738ca-323b-44f9-8ae5-4d5663fc4d67" d="M168.19,73.8c1.72-2.41,7.24-6,10-2.3,3.05,4.15-1,8.39-4.25,9.65" transform="translate(0 -3.03)"/><path d="M133.08,87.86c-1.15,2-4.33,1.17-7.23-.5s-4.4-3.57-3.26-5.55,4.42-2.24,7.32-.57S134.22,85.88,133.08,87.86Z" transform="translate(0 -3.03)"/><path class="a45738ca-323b-44f9-8ae5-4d5663fc4d67" d="M178.88,119.3c7.81,3.45,27.11,3.33,45.49-.81s24.13-9.53,29.87-3.1-1.6,27.12-26.76,33.55-48.26,6.39-57.34,1.53" transform="translate(0 -3.03)"/><path class="a1039f4c-0b22-4383-87b2-913487f3cff3" d="M254.24,115.39c-2.52-.69-6.31.23-9.07,3.1" transform="translate(0 -3.03)"/><path class="a1039f4c-0b22-4383-87b2-913487f3cff3" d="M256.07,120.67c-1.94-1.37-5.39.1-7.91,2.93" transform="translate(0 -3.03)"/><path class="b1bcef56-a8c5-4d58-9464-5e31a22af032" d="M254.24,115.39c5.75,6.44-1.6,27.12-26.76,33.55s-48.26,6.39-57.34,1.53a189.47,189.47,0,0,0,38.07-1.84C230.21,145.19,251,136.19,254.24,115.39Z" transform="translate(0 -3.03)"/><path class="b1bcef56-a8c5-4d58-9464-5e31a22af032" d="M175.63,69.93a3.77,3.77,0,0,1,2.56,1.57c3.05,4.15-1,8.39-4.25,9.65C171.6,81.5,177.57,75.52,175.63,69.93Z" transform="translate(0 -3.03)"/></svg>