<svg xmlns="http://www.w3.org/2000/svg" viewBox="0 0 300 272.7"><defs><style>.cls-1{isolation:isolate;}.cls-2{fill:#fff;}.cls-3{fill:#f4f7e8;}.cls-10,.cls-11,.cls-3,.cls-5{stroke:#000;}.cls-10,.cls-11,.cls-3,.cls-5,.cls-8,.cls-9{stroke-linecap:round;stroke-linejoin:round;}.cls-4{opacity:0.2;mix-blend-mode:multiply;}.cls-11,.cls-5,.cls-9{fill:none;}.cls-6{fill:#ff7f00;}.cls-7{fill:#f6dc9a;}.cls-8{fill:#ffb702;}.cls-8,.cls-9{stroke:#ff7f00;}.cls-10{fill:#c4e0c8;}.cls-11{stroke-width:2px;}</style></defs><title>we-bare-bears-ice-bear-with-orange</title><g class="cls-1"><g id="layout"><path class="cls-2" d="M32.28,281.35A26.89,26.89,0,0,1,9.76,269.46a27.39,27.39,0,0,1-2.88-25.41c.71-1.8,1.06-2.82,1.24-3.36-.69-6.18-1.56-27.84,7.5-32.15A400.65,400.65,0,0,0,22.28,160c2.67-37.23,15-71,34.79-95.52a28.34,28.34,0,0,1-5.51-19.43c.86-8.06,5.6-14.83,13.33-19a20.34,20.34,0,0,1,9.79-2.55,19.87,19.87,0,0,1,8.25,1.81,24.38,24.38,0,0,1,10.2,9C110.9,24.61,131,19.74,153,19.74c18.46,0,35.3,2.9,50.13,8.62a20.78,20.78,0,0,1,10.66-8.43,24,24,0,0,1,7.42-1.28c4.18,0,8.11,1.33,12.38,4.19,6.64,4.46,10.09,10.76,10.54,19.26a28,28,0,0,1-2.24,12c29.66,31,38.41,76.25,40.47,109.21.06.9.25,4.22.25,4.22.66,11.26,2,34.29,5.12,55.59a20.13,20.13,0,0,1,5.73,10.05c.09.4.17.81.27,1.24,1,4.82,2.44,11.39-.19,16.74a5.21,5.21,0,0,1-.28.52A27.31,27.31,0,0,1,266,281.35Z" transform="translate(0 -13.65)"/><path class="cls-2" d="M221.17,23.65c3.23,0,6.22,1.08,9.59,3.34,5.32,3.57,8,8.46,8.34,15.38a23.92,23.92,0,0,1-3.3,12.75c30.77,30.07,39.51,76.16,41.53,108.55.07,1.15.16,2.56.25,4.19.7,12,2.1,36.11,5.48,58.18,3.11,1.5,5.08,6.32,5.47,8.18q.12.61.27,1.29c.88,4.09,2.08,9.68.21,13.47a4.38,4.38,0,0,1-1,1.26A22.31,22.31,0,0,1,266,276.35H32.28a22,22,0,0,1-18.39-9.71,22.34,22.34,0,0,1-2.35-20.76,45.87,45.87,0,0,0,1.58-4.49c0-.11.06-.23.08-.35-1.28-7.48-.4-25.91,4.68-28a2.27,2.27,0,0,1,1-.23,3.08,3.08,0,0,1,.95.16,407.74,407.74,0,0,0,7.43-52.58C30,122.81,42.69,89,63.1,65l.46-.53c-5.13-5.45-7.73-12.34-7-18.93C57.21,39.2,61,33.8,67.29,30.39a15.4,15.4,0,0,1,7.39-1.94,14.87,14.87,0,0,1,6.18,1.36A20.39,20.39,0,0,1,91.07,41.18C109,30.35,130,24.74,153,24.74c20.67,0,38,3.68,52.42,10,1.92-4.81,5.65-8.63,9.91-10a18.92,18.92,0,0,1,5.88-1m0-10a29,29,0,0,0-9,1.52,25,25,0,0,0-10.82,7.24c-14.53-5.1-30.78-7.67-48.43-7.67-21.25,0-40.85,4.41-58.41,13.13A28.45,28.45,0,0,0,85,20.71a24.7,24.7,0,0,0-10.31-2.26A25.2,25.2,0,0,0,62.5,21.61c-9.09,5-14.89,13.31-15.91,22.91a32.72,32.72,0,0,0,4.35,19.67c-19.12,25-31,58.63-33.65,95.45a390.52,390.52,0,0,1-6.16,45.81c-5.56,4.22-7.18,12.31-7.9,18.38A77.72,77.72,0,0,0,3,240.19c-.18.49-.43,1.16-.77,2.05a32.36,32.36,0,0,0,3.4,30,31.84,31.84,0,0,0,26.65,14.07H266a32.33,32.33,0,0,0,32.26-33.62c3-6.75,1.36-14.28.28-19.32-.09-.43-.18-.83-.26-1.2a25.68,25.68,0,0,0-5.92-11.42c-2.93-20.62-4.2-42.61-4.84-53.51l0-.63c-.08-1.38-.15-2.59-.22-3.61C285.25,130,276.59,84.92,247.59,53a31.94,31.94,0,0,0,1.49-11.12c-.53-10-4.82-17.83-12.75-23.15-5.13-3.44-9.94-5-15.16-5Z" transform="translate(0 -13.65)"/><path class="cls-3" d="M91,44.49C88.68,33.88,78.13,25.61,67.76,31.27c-14.47,7.89-12.69,24.82-1.27,34.67C73.84,72.28,78.78,68.88,86,63.2,91.36,58.94,92.58,51.43,91,44.49Z" transform="translate(0 -13.65)"/><path class="cls-4" d="M66.85,31.8c-13.47,8.1-11.53,24.51-.36,34.14C71.89,70.6,76,70,80.63,67.1,70.61,57.63,63.46,45.05,66.85,31.8Z" transform="translate(0 -13.65)"/><path class="cls-3" d="M205.63,37.05c1.43-5.19,5.15-9.86,10-11.42,5.7-1.84,9.71-1.09,14.61,2.19,5.25,3.52,7.56,8.28,7.9,14.6.4,7.61-4.47,17.69-12.31,20.25-6.72,2.2-17.64-10.27-19.86-15.87A15.52,15.52,0,0,1,205.63,37.05Z" transform="translate(0 -13.65)"/><path class="cls-4" d="M212,44.11C215,37,221.2,29.52,228.94,27c-4.34-2.59-8.14-3.07-13.34-1.39-4.82,1.56-8.54,6.23-10,11.42a15.52,15.52,0,0,0,.31,9.75A27.54,27.54,0,0,0,210,53.22,24.86,24.86,0,0,1,212,44.11Z" transform="translate(0 -13.65)"/><path class="cls-3" d="M266,275.36a21.32,21.32,0,0,0,20.37-27.51c-.2-.68-.37-1.27-.49-1.77-6.91-28.15-8.8-69.89-9.58-82.35C271.73,90,238.55,25.73,153,25.73c-76.58,0-119.46,61.64-124.71,134.7-2.85,39.78-12,72.61-14.17,81.2a45.38,45.38,0,0,1-1.61,4.61,21.31,21.31,0,0,0,19.81,29.12Z" transform="translate(0 -13.65)"/><ellipse cx="153.07" cy="91.85" rx="18.68" ry="7.69"/><ellipse cx="197.67" cy="71.85" rx="3.74" ry="5.05"/><ellipse cx="106.37" cy="71.85" rx="3.74" ry="5.05"/><path class="cls-5" d="M138.56,89.57c16.7-6.49,57.8-7.37,67.43,30.43" transform="translate(0 -13.65)"/><path class="cls-5" d="M210,136.26c5.36,3,5.94,12,4.17,17.14" transform="translate(0 -13.65)"/><path class="cls-5" d="M98.57,133.4c-1.89.78-4.29,4.1-4.84,6.15-1,3.7-.06,7.77,1.32,11.21" transform="translate(0 -13.65)"/><path class="cls-6" d="M205.51,147.23c.48,12.26-22.33,39.13-50.47,39.13s-49.66-21.61-49.66-40.06c0-15.83,21.53-3.23,49.66-3.23S205,134.89,205.51,147.23Z" transform="translate(0 -13.65)"/><path class="cls-7" d="M201.92,146.59c.44,11.38-20.73,36.33-46.85,36.33S109,162.86,109,145.72c0-14.68,20-3,46.1-3S201.47,135.13,201.92,146.59Z" transform="translate(0 -13.65)"/><path class="cls-8" d="M155.45,145.42s22.49,35.89,0,35.7S155.45,145.42,155.45,145.42Z" transform="translate(0 -13.65)"/><path class="cls-8" d="M185.61,169.14c-15.9,16.82-26.14-24.31-26.14-24.31s42.05,7.49,26.14,24.31" transform="translate(0 -13.65)"/><path class="cls-8" d="M125.17,169.14c15.9,16.82,26.15-24.31,26.15-24.31s-42,7.49-26.15,24.31" transform="translate(0 -13.65)"/><path class="cls-8" d="M147.33,143.4c-13.33,2.42-35.71,20.4-35.71,0C111.62,136.7,132.19,146.2,147.33,143.4Z" transform="translate(0 -13.65)"/><path class="cls-8" d="M168.18,144.47c14.57,4.31,30.52,18.87,31.22.39C199.62,138.9,176.73,144.13,168.18,144.47Z" transform="translate(0 -13.65)"/><path class="cls-9" d="M148.57,164c.1-.51,6.33-14.4,6.33-14.4l6.88,15" transform="translate(0 -13.65)"/><path class="cls-9" d="M150.21,168.12c0-.29,5-12.67,5-12.67l4.29,13.41" transform="translate(0 -13.65)"/><path class="cls-9" d="M154.84,159c.13.54.34,11.82.34,11.82" transform="translate(0 -13.65)"/><path class="cls-9" d="M168.08,159.85c-.29-.44-5.64-12.86-5.64-12.86l11.9,4.8" transform="translate(0 -13.65)"/><path class="cls-9" d="M174.34,164.53c-.25-.22-5-8.13-5-8.13" transform="translate(0 -13.65)"/><line class="cls-9" x1="179.58" y1="145.76" x2="172.28" y2="139.75"/><line class="cls-9" x1="173.87" y1="144.44" x2="167.94" y2="138.06"/><path class="cls-9" d="M182.88,144.83c-.3-.15-7.91.59-7.91.59l7.32,3.15" transform="translate(0 -13.65)"/><path class="cls-9" d="M190.13,144.81c-.22-.27-7.25,1.56-7.25,1.56l6.33,2.78" transform="translate(0 -13.65)"/><line class="cls-9" x1="187.79" y1="133.04" x2="190.13" y2="133.04"/><path class="cls-9" d="M132.48,155.45s16.34-9.17,16.3-8.76-6.7,16.58-6.7,16.58" transform="translate(0 -13.65)"/><line class="cls-9" x1="135.93" y1="143.39" x2="143.47" y2="138.06"/><path class="cls-9" d="M144.64,153c-.14.37-6.44,11.06-6.44,11.06" transform="translate(0 -13.65)"/><line class="cls-9" x1="122.6" y1="130.15" x2="130.43" y2="130.81"/><path class="cls-9" d="M120.32,147.69c.22.07,7.77-1,7.77-1" transform="translate(0 -13.65)"/><line class="cls-9" x1="127.43" y1="135.9" x2="138.2" y2="131.18"/><path class="cls-5" d="M205.51,147.23c.48,12.26-22.33,39.13-50.47,39.13s-49.66-21.61-49.66-40.06c0-15.83,21.53-3.23,49.66-3.23S205,134.89,205.51,147.23Z" transform="translate(0 -13.65)"/><path class="cls-4" d="M73.82,55.36c2.24-2,4.55-4,6.94-5.9A46.26,46.26,0,0,0,73.82,55.36Z" transform="translate(0 -13.65)"/><path class="cls-4" d="M32.42,275.36c7.42-63.63,3.43-181,41.4-220-27.11,24.92-42.55,63.1-45.57,105.07-2.85,39.78-12,72.61-14.17,81.2a45.38,45.38,0,0,1-1.61,4.61,21.31,21.31,0,0,0,19.81,29.12Z" transform="translate(0 -13.65)"/><path class="cls-10" d="M41.34,275.36h27c-20.42-30.81-44.82-63.61-50-61.44-4.86,2-5.61,24.08-3.56,29C15.35,244.47,28.48,259.29,41.34,275.36Z" transform="translate(0 -13.65)"/><path class="cls-10" d="M259.85,275.36c12.27-19.83,26.66-23.53,28.27-26.81,1.92-3.89.26-10.11-.57-14.13-.39-1.93-2.86-7.85-6.37-7.85-22.5,10.44-38.5,32.71-47.39,48.79Z" transform="translate(0 -13.65)"/><path class="cls-11" d="M287.55,234.42c-.35-1.74-2.4-6.72-5.39-7.67-3.9-25.21-5.21-53.2-5.82-63-2.69-43-15.07-82.7-41.85-108.38a23.17,23.17,0,0,0,3.62-12.93c-.34-6.32-2.65-11.08-7.9-14.6a16.93,16.93,0,0,0-7.56-3.09h-.1a14.78,14.78,0,0,0-1.5-.07h-.18a13.27,13.27,0,0,0-1.52.11l-.2,0c-.53.07-1.06.17-1.61.29l-.17.05c-.58.13-1.16.3-1.77.49a12.88,12.88,0,0,0-4.16,2.3,17.76,17.76,0,0,0-5.52,8.18c-14.85-6.66-32.39-10.38-53-10.38-24.22,0-45.07,6.17-62.42,16.92-3.1-9.7-13-16.71-22.78-11.38-.31.17-.61.35-.91.53h0c-.42.25-.82.51-1.21.78h0c-.39.27-.76.54-1.12.83h0c-.36.28-.7.57-1,.86v0c-.33.29-.64.59-.94.89l0,0c-.29.31-.57.61-.84.93l0,0c-.26.31-.52.63-.75,1l0,0c-.23.32-.45.64-.66,1l0,.05c-.2.33-.4.66-.58,1l0,.07c-.17.33-.34.66-.5,1l0,.08c-.15.33-.28.67-.41,1a.76.76,0,0,0,0,.11c-.13.33-.24.67-.34,1,0,0,0,.08,0,.13-.1.33-.18.66-.26,1,0,0,0,.1,0,.15-.07.33-.13.66-.19,1l0,.18c-.05.32-.09.65-.12,1,0,.07,0,.14,0,.21,0,.32-.05.64-.06,1v.23c0,.32,0,.63,0,.94,0,.09,0,.18,0,.27,0,.31,0,.61.06.92a2.85,2.85,0,0,0,0,.29c0,.3.06.6.1.89l.06.33c0,.29.09.57.15.86,0,.12.06.24.08.36.06.27.13.55.2.82s.07.26.11.39.15.53.23.79l.15.42q.12.38.27.75c0,.15.12.3.18.45s.19.48.3.71.14.31.21.47l.33.68.26.49.35.64.3.51c.12.2.24.4.37.6s.23.35.35.52.25.39.39.58.26.35.39.53l.4.53.46.56.4.48.53.58.38.42c.14.15.29.29.44.43C51.74,79.5,42,98.08,35.79,118.72c0,.14-.09.29-.13.43-.3,1-.59,2-.87,3l-.18.63c-.26,1-.52,1.93-.77,2.91-.06.22-.11.45-.17.67-.26,1-.5,2-.74,3l-.12.52c-.56,2.4-1.07,4.83-1.54,7.27l-.09.48c-.19,1-.38,2.05-.55,3.08l-.18,1.08c-.14.84-.27,1.67-.4,2.51-.07.43-.13.86-.19,1.3L29.53,148l-.18,1.38c-.1.77-.19,1.55-.28,2.33l-.15,1.35c-.09.84-.17,1.68-.25,2.53l-.12,1.16q-.16,1.84-.3,3.69a408.85,408.85,0,0,1-7.7,54,2.87,2.87,0,0,0-2.29-.47c-4.41,1.84-5.43,20.16-4.06,27.22l-.12.49c-.05.2-.12.45-.21.72l0,.12c-.3.95-.78,2.24-1.37,3.77a21.31,21.31,0,0,0,19.81,29.12H266a21.3,21.3,0,0,0,20.86-25.5,4.11,4.11,0,0,0,1.22-1.31C290,244.66,288.38,238.44,287.55,234.42Z" transform="translate(0 -13.65)"/></g></g></svg>