<svg width="490" height="502" viewBox="0 0 490 502" fill="none" xmlns="http://www.w3.org/2000/svg">
<path d="M229.569 12.9385L257.97 70.0315L312.551 27.6555V83.8053L385.525 70.0315L372.428 121.198L439.688 134.955L403.763 188.872L468.507 214.596L427.546 256.972L468.507 299.348L427.546 327.904L439.688 378.989L395.635 390.671L385.525 443.912H340.636L312.551 486.288L270.772 473.47L229.569 501.005L191.989 473.47L146.587 486.288L122.125 443.912H73.6135V400.819L28.4777 390.671L43.3424 352.287L0.234863 310.007L28.4777 281.507L0.234857 238.773L28.4777 214.596L9.73026 165.176L58.7836 134.955V83.8053H122.125L136.413 34.447L191.989 70.0315L229.569 12.9385Z" fill="#FF3892"/>
<path d="M250.56 0.238159L278.961 57.3311L333.543 14.9552V71.1049L406.516 57.3311L393.419 108.498L460.679 122.255L424.754 176.172L489.498 201.896L448.538 244.272L489.498 286.647L448.538 315.204L460.679 366.288L416.626 377.971L406.516 431.212H361.627L333.543 473.588L291.763 460.769L250.56 488.305L212.98 460.769L167.578 473.588L143.116 431.212H94.6048V388.118L49.469 377.971L64.3336 339.587L21.2261 297.307L49.469 268.807L21.2261 226.072L49.469 201.896L30.7215 152.475L79.7749 122.255V71.1049H143.116L157.404 21.7467L212.98 57.3311L250.56 0.238159Z" fill="#51F54D"/>
</svg>
