<svg width="324" height="331" viewBox="0 0 324 331" fill="none" xmlns="http://www.w3.org/2000/svg">
<path d="M181.736 131.455C160.136 134.445 158.069 114.015 159.736 103.427L206.236 98.4437H236.236C252.452 76.6401 264.326 94.757 268.236 106.541L261.236 111.524L248.236 118.998L221 125L206.236 127.718L181.736 131.455Z" fill="#EFEEDE" stroke="black" stroke-width="4"/>
<path d="M63.7257 95.6179C10.9257 94.0179 1.72567 130.951 3.72567 149.618L8.72571 295.618L21.7257 301.618L127.726 325.618L159.726 316.618L270.726 277.618V194.618C273.126 168.218 260.392 167.618 253.726 170.618L159.726 165.618L137.726 107.618C105.726 91.6179 75.059 92.9513 63.7257 95.6179Z" fill="#45FFFF" stroke="black" stroke-width="5"/>
<path d="M143.726 205.618C162.926 183.218 160.392 272.285 156.726 319.618L129.726 327.618V274.618C126.526 213.818 137.726 203.285 143.726 205.618Z" stroke="black" stroke-width="5"/>
<path d="M261.726 169.618C256.059 167.951 244.726 170.018 244.726 191.618V221.618L161.726 248.618" stroke="black" stroke-width="5"/>
<path d="M26.7257 187.618L147.726 201.618" stroke="black" stroke-width="5"/>
<path d="M39.1876 40C35.9213 36.8333 30.7606 28.6 36.248 21C37.7178 18.6667 42.6173 16.6 50.4564 27C52.2529 24.1667 57.1197 18.5 62.2152 18.5C60.7453 14 59.1775 4.6 64.6649 3C67.7679 5 74.1699 10.2 74.9538 15C75.9337 21 84.7528 10.5 104.841 27L123.459 43.5C130.808 42.5 146.78 43.4 151.876 55C155.468 63.6667 163.764 85.4798 162.197 93.4798L159 103.5C193.108 121.068 249.237 158.658 246.461 189C272.43 183.4 278.495 216.7 278.282 234.05L278.282 261.5L278.282 275L270.443 288.5C260.971 298.167 236.787 280.4 242.274 246L236.643 236L216.912 228.5L159 248.5C155.734 240.667 163.062 205.1 151.303 209.5L141.5 199.5L104.841 196L86.5 198.58L81.1078 223L81.1078 248.5C81.1078 264.5 48.8886 290.5 50.4564 256.5L50.4564 239.5L45.4564 223L45.4564 192.42L48.5 178.58L62.7419 167.497C44.2534 142.262 35.5523 106.659 36.248 86C34.4515 72.1667 32.5244 43.6 39.1876 40Z" fill="#EFEEDE"/>
<path d="M43.1072 43.5L39.1876 40M39.1876 40C35.9213 36.8333 30.7606 28.6 36.248 21C37.7178 18.6667 42.6173 16.6 50.4564 27C52.2529 24.1667 57.1197 18.5 62.2152 18.5C60.7453 14 59.1775 4.6 64.6649 3C67.7679 5 74.1699 10.2 74.9538 15C75.9337 21 84.7528 10.5 104.841 27L123.459 43.5C130.808 42.5 146.78 43.4 151.876 55C155.468 63.6667 163.764 85.4798 162.197 93.4798L159 103.5M39.1876 40C32.5244 43.6 34.4515 72.1667 36.248 86C35.1491 118.636 57.4997 188.563 104.841 196M216.912 228.5L236.643 236L242.274 246C236.787 280.4 260.971 298.167 270.443 288.5L278.282 275L278.282 261.5L278.282 234.05C278.495 216.7 272.43 183.4 246.461 189M216.912 228.5L159 248.5C155.734 240.667 163.062 205.1 151.303 209.5L141.5 199.5L104.841 196M216.912 228.5C225.641 228.5 233.703 213.833 236.643 206.5C242.852 201.127 245.892 195.216 246.461 189M104.841 196L92.947 192.42M104.841 196L86.5 198.58L81.1078 223L81.1078 248.5C81.1078 264.5 48.8886 290.5 50.4564 256.5L50.4564 239.5L45.4564 223L45.4564 192.42L48.5 178.58L64.6649 166M159 103.5C193.108 121.068 249.237 158.658 246.461 189M159 103.5C148.303 118.167 116.517 148.1 74.9538 134.5" stroke="black" stroke-width="4"/>
<path d="M133.858 58.8554C129.483 60.7521 124.96 60.0378 123.756 57.2601C122.552 54.4823 125.122 50.693 129.497 48.7963C133.872 46.8997 138.395 47.6139 139.599 50.3917C140.804 53.1694 138.233 56.9588 133.858 58.8554Z" fill="black"/>
<path d="M97.6797 51.5313C97.6797 51.5313 96.3103 47.5944 85.6945 53.3728C75.0788 59.1512 75.9863 60.1554 76.1646 60.8584C76.3429 61.5615 77.7176 64.1684 88.1427 59.02C98.5678 53.8716 98.3415 52.8051 97.6797 51.5313Z" stroke="black" stroke-width="1.5" stroke-linecap="round" stroke-linejoin="round"/>
<path d="M117.374 40.1051C117.374 40.1051 116.651 37.1341 109.745 40.9082C102.84 44.6824 103.626 46.6126 103.626 46.6126C103.626 46.6126 104.672 49.3967 111.453 45.5486C118.235 41.7004 117.374 40.1051 117.374 40.1051Z" stroke="black" stroke-width="1.5" stroke-linecap="round" stroke-linejoin="round"/>
<path d="M114.683 42.8442C114.873 42.8617 115.057 42.8374 115.225 42.7722C115.867 42.5488 116.38 42.044 116.685 41.3356C116.834 41.025 116.898 40.6463 116.869 40.2426C116.855 40.0418 116.798 39.8364 116.703 39.648C116.608 39.4596 116.479 39.2953 116.329 39.1723C116.125 39.0374 115.909 38.9593 115.699 38.9445C114.865 38.8288 113.285 38.7448 113.036 39.8428C112.787 40.9408 113.723 42.7126 114.683 42.8442Z" fill="black"/>
<path d="M94.1124 53.8555C94.2969 54.1958 94.5383 54.4918 94.8143 54.7159C95.1802 54.9595 95.5748 55.0487 95.9268 54.9674C96.526 54.8288 97.0132 54.4096 97.3007 53.7853C97.5881 53.1611 97.6569 52.3727 97.4947 51.5623C97.4676 51.3823 97.3908 51.2051 97.278 51.0623C97.1934 50.9803 97.0984 50.9215 97.0013 50.8911C95.8639 50.3358 94.6969 50.257 93.7004 50.6682C92.8201 51.1663 93.4973 52.8061 94.1124 53.8555Z" fill="black"/>
<path d="M85 44.5H91" stroke="black" stroke-linecap="round"/>
<path d="M100 40C101.028 39.2212 102.194 37.5 103.5 37.5" stroke="black" stroke-linecap="round"/>
<path d="M140 69C142.722 70.9794 144.222 72.0223 146.75 70C148.099 68.921 147 64.9055 147 63.5" stroke="black" stroke-linecap="round"/>
<path d="M226.574 253C225.907 250 222.874 240.9 216.074 228.5L162.074 244L176.074 253L181.074 261C180.407 263.333 180.174 272.6 184.574 291C188.974 309.4 199.74 312.667 204.574 312C221.774 319.6 226.407 293.5 226.574 279.5V261V253Z" fill="#EFEEDE" stroke="black" stroke-width="4"/>
<path d="M292.04 97.8797H240.717L234.184 102.456C217.761 111.242 231.696 113.438 240.717 113.438L284.575 117.099L292.04 107.947C308.464 96.9645 298.883 96.6594 292.04 97.8797Z" fill="#646262" stroke="black" stroke-width="5"/>
<path d="M293.667 107.032L286.227 118.015L293.667 122.591L300.231 113.438L308.109 107.032C306.358 98.2458 302.128 100.015 300.231 101.998L293.667 107.032Z" fill="#646262" stroke="black" stroke-width="5"/>
<path d="M284.342 117.099L226.574 111.608L230.075 117.099L293.095 122.591L284.342 117.099Z" fill="#646262" stroke="black" stroke-width="4"/>
<path d="M300.109 109.003C300.109 110.719 298.815 112.003 297.348 112.003C295.881 112.003 294.588 110.719 294.588 109.003C294.588 107.287 295.881 106.003 297.348 106.003C298.815 106.003 300.109 107.287 300.109 109.003Z" fill="#B92B2B" stroke="black" stroke-width="2"/>
<path d="M285.227 106.003C285.227 107.719 283.934 109.003 282.466 109.003C280.999 109.003 279.706 107.719 279.706 106.003C279.706 104.287 280.999 103.003 282.466 103.003C283.934 103.003 285.227 104.287 285.227 106.003Z" fill="#B92B2B" stroke="black" stroke-width="2"/>
<path d="M270.362 105.003C270.362 106.719 269.069 108.003 267.602 108.003C266.134 108.003 264.841 106.719 264.841 105.003C264.841 103.287 266.134 102.003 267.602 102.003C269.069 102.003 270.362 103.287 270.362 105.003Z" fill="#FFE473" stroke="black" stroke-width="2"/>
<path d="M255.497 104.003C255.497 105.719 254.204 107.003 252.737 107.003C251.269 107.003 249.976 105.719 249.976 104.003C249.976 102.287 251.269 101.003 252.737 101.003C254.204 101.003 255.497 102.287 255.497 104.003Z" fill="#4FEF41" stroke="black" stroke-width="2"/>
<path d="M318 98L323 96" stroke="black" stroke-linecap="round"/>
<path d="M315 111C317.211 112.675 319.114 115 322 115" stroke="black" stroke-linecap="round"/>
<path d="M309 125C309.21 126.234 309.768 129.072 310 130" stroke="black" stroke-linecap="round"/>
<path d="M295 134C294.919 137.221 292.116 140.826 294 138" stroke="black" stroke-linecap="round"/>
<path d="M245.726 101.636C239.326 107.236 236.726 101.303 236.226 97.6363L245.726 88.6363C256.126 86.2363 260.726 91.9696 261.726 95.1363L255.726 97.6363L245.726 101.636Z" fill="#EFEEDE" stroke="black" stroke-width="4"/>
</svg>
