<svg width="615" height="632" viewBox="0 0 615 632" fill="none" xmlns="http://www.w3.org/2000/svg">
<path d="M575.396 470.937L539.853 442.688L544.642 436.455L580.185 464.704L575.396 470.937Z" fill="#EBEBEB"/>
<path d="M522.644 483.726L517.226 489.379C515.292 487.102 513.991 484.63 513.323 481.963C512.669 479.311 512.76 476.589 513.594 473.796C514.428 471.004 516.116 468.281 518.659 465.628C520.61 463.593 522.719 462.113 524.986 461.189C527.269 460.279 529.622 459.896 532.046 460.04C534.485 460.198 536.937 460.899 539.401 462.143C541.85 463.401 544.232 465.181 546.546 467.482L549.22 470.143C551.534 472.444 553.331 474.835 554.61 477.314C555.875 479.809 556.607 482.304 556.806 484.799C557.02 487.309 556.693 489.737 555.826 492.084C554.944 494.446 553.513 496.659 551.534 498.724C549.02 501.347 546.424 503.094 543.748 503.965C541.071 504.836 538.423 504.941 535.804 504.279C533.17 503.633 530.67 502.353 528.301 500.439L533.719 494.786C535.249 496.013 536.753 496.861 538.232 497.331C539.696 497.815 541.156 497.824 542.611 497.358C544.08 496.905 545.574 495.888 547.091 494.305C548.333 493.008 549.181 491.643 549.634 490.209C550.087 488.776 550.168 487.28 549.875 485.723C549.583 484.166 548.925 482.555 547.902 480.889C546.879 479.254 545.513 477.586 543.803 475.885L541.084 473.181C539.463 471.568 537.852 470.246 536.251 469.213C534.651 468.21 533.09 467.541 531.569 467.206C530.033 466.886 528.552 466.944 527.126 467.381C525.7 467.817 524.352 468.699 523.08 470.026C521.534 471.639 520.535 473.192 520.082 474.685C519.615 476.194 519.615 477.68 520.082 479.146C520.549 480.641 521.403 482.167 522.644 483.726Z" fill="#EBEBEB"/>
<path d="M483.577 504.837L479.789 499.923L498.667 484.763L502.455 489.677L483.577 504.837ZM524.647 522.109L496.933 486.155L503.063 481.233L530.777 517.187L524.647 522.109ZM498.397 518.882L494.666 514.042L511.078 500.863L514.808 505.703L498.397 518.882ZM507.625 535.779L503.818 530.84L522.574 515.778L526.381 520.717L507.625 535.779Z" fill="#EBEBEB"/>
<path d="M471.16 528.979L481.07 522.912L484.005 527.805L475.351 533.103C473.891 533.997 472.779 534.97 472.016 536.022C471.246 537.103 470.835 538.219 470.784 539.372C470.743 540.542 471.069 541.719 471.762 542.904C472.528 544.213 473.402 545.128 474.384 545.649C475.365 546.169 476.483 546.301 477.736 546.045C478.971 545.801 480.381 545.193 481.966 544.223L488.457 540.25L468.678 506.446L475.382 502.341L498.311 541.528L485.116 549.606C482.979 550.914 480.953 551.874 479.038 552.486C477.105 553.109 475.293 553.341 473.603 553.181C471.906 553.05 470.367 552.506 468.984 551.549C467.584 550.603 466.349 549.215 465.278 547.385C464.333 545.77 463.85 544.055 463.828 542.241C463.817 540.444 464.313 538.667 465.315 536.908C466.317 535.149 467.884 533.507 470.015 531.983L471.16 528.979ZM461.092 511.09L472.818 503.911L472.933 511.115L464.226 516.446C462.712 517.372 461.595 518.398 460.874 519.521C460.163 520.663 459.821 521.835 459.848 523.037C459.867 524.269 460.233 525.494 460.947 526.714C461.692 527.988 462.561 528.956 463.552 529.616C464.553 530.294 465.682 530.59 466.937 530.504C468.203 530.436 469.611 529.927 471.16 528.979L478.693 524.368L481.521 529.326L471.718 535.327L469.109 534.402C466.93 535.638 464.898 536.237 463.013 536.197C461.109 536.168 459.41 535.661 457.914 534.676C456.419 533.69 455.199 532.39 454.254 530.776C452.794 528.282 452.114 525.859 452.214 523.507C452.295 521.166 453.085 518.941 454.583 516.829C456.091 514.736 458.261 512.823 461.092 511.09Z" fill="#EBEBEB"/>
<path d="M418.672 538.595L416.239 532.885L438.324 522.984L440.757 528.695L418.672 538.595ZM454.096 565.674L436.295 523.894L443.467 520.679L461.267 562.459L454.096 565.674ZM429.492 555.925L427.096 550.301L446.295 541.694L448.691 547.318L429.492 555.925ZM434.182 574.602L431.737 568.862L453.679 559.026L456.124 564.765L434.182 574.602Z" fill="#EBEBEB"/>
<path d="M405.171 577.017L407.589 535.213L415.478 532.864L411.304 581.506L406.265 583.007L405.171 577.017ZM383.623 542.351L407.33 576.374L409.534 582.033L404.465 583.543L375.704 544.71L383.623 542.351ZM388.801 558.388L387.125 552.409L410.881 545.334L412.557 551.313L388.801 558.388Z" fill="#EBEBEB"/>
<path d="M380.65 588.961L364.73 591.423C361.308 591.952 358.319 591.888 355.762 591.23C353.204 590.573 351.143 589.333 349.579 587.511C347.997 585.713 346.996 583.341 346.578 580.394C346.259 578.148 346.391 576.106 346.972 574.268C347.554 572.43 348.514 570.807 349.851 569.4C351.192 568.014 352.858 566.84 354.848 565.879L357.036 564.372L371.349 562.159L372.283 568.301L361.556 569.959C359.702 570.246 358.203 570.815 357.06 571.666C355.917 572.516 355.117 573.556 354.659 574.785C354.184 576.038 354.049 577.385 354.254 578.828C354.476 580.394 354.978 581.706 355.76 582.765C356.525 583.847 357.579 584.6 358.924 585.024C360.272 585.468 361.915 585.54 363.852 585.241L372.013 583.979L366.502 545.156L374.262 543.956L380.65 588.961ZM348.573 547.928L362.014 566.509L353.889 567.797L340.345 549.611L340.288 549.209L348.573 547.928Z" fill="#EBEBEB"/>
<path d="M307.846 582.241L309.021 548.455L316.582 548.671L315.407 582.458L307.846 582.241ZM315.598 591.34C315.559 592.485 315.151 593.421 314.375 594.149C313.577 594.897 312.502 595.252 311.148 595.213C309.815 595.175 308.776 594.76 308.033 593.967C307.288 593.196 306.936 592.238 306.975 591.093C307.015 589.969 307.432 589.043 308.229 588.316C309.026 587.588 310.091 587.244 311.424 587.282C312.778 587.321 313.827 587.726 314.571 588.497C315.295 589.268 315.638 590.216 315.598 591.34Z" fill="#EBEBEB"/>
<path d="M276.42 554.286C276.323 555.03 276.422 555.726 276.716 556.372C277.007 557.04 277.648 557.689 278.637 558.319C279.605 558.947 281.075 559.596 283.046 560.268C284.772 560.887 286.344 561.561 287.761 562.288C289.156 563.033 290.329 563.865 291.28 564.785C292.232 565.705 292.927 566.739 293.366 567.887C293.805 569.035 293.933 570.312 293.75 571.717C293.573 573.081 293.106 574.335 292.348 575.477C291.591 576.62 290.594 577.585 289.357 578.373C288.121 579.161 286.672 579.722 285.011 580.056C283.33 580.388 281.498 580.427 279.514 580.174C276.705 579.815 274.36 579.033 272.479 577.827C270.575 576.639 269.191 575.17 268.326 573.421C267.458 571.693 267.155 569.826 267.415 567.822L274.884 568.775C274.768 569.663 274.888 570.519 275.243 571.341C275.575 572.182 276.155 572.897 276.981 573.485C277.805 574.095 278.888 574.485 280.231 574.656C281.512 574.82 282.603 574.749 283.504 574.444C284.381 574.156 285.068 573.719 285.565 573.131C286.041 572.54 286.328 571.863 286.427 571.098C286.5 570.54 286.462 570.021 286.315 569.54C286.144 569.077 285.825 568.626 285.356 568.189C284.886 567.771 284.226 567.351 283.378 566.928C282.509 566.502 281.412 566.057 280.086 565.594C277.594 564.73 275.483 563.757 273.755 562.675C272.003 561.611 270.717 560.355 269.897 558.905C269.074 557.477 268.793 555.761 269.054 553.756C269.247 552.268 269.745 550.945 270.546 549.787C271.325 548.647 272.372 547.699 273.688 546.942C275.002 546.206 276.528 545.697 278.266 545.415C279.983 545.13 281.875 545.119 283.941 545.383C286.978 545.77 289.48 546.636 291.448 547.979C293.413 549.343 294.833 550.942 295.708 552.777C296.559 554.629 296.865 556.475 296.626 558.314L289.406 557.392C289.503 555.997 289.264 554.843 288.69 553.929C288.092 553.034 287.301 552.334 286.316 551.83C285.308 551.345 284.246 551.031 283.131 550.888C281.788 550.717 280.639 550.749 279.684 550.984C278.727 551.24 277.97 551.648 277.415 552.207C276.856 552.787 276.525 553.48 276.42 554.286Z" fill="#EBEBEB"/>
<path d="M221.611 580.443L236.793 534.852L243.888 537.257L228.706 582.849L221.611 580.443ZM232.292 552.518L234.588 553.329C233.83 555.539 232.843 557.484 231.626 559.163C230.389 560.836 228.998 562.181 227.453 563.198C225.881 564.229 224.202 564.86 222.414 565.091C220.62 565.341 218.787 565.149 216.915 564.514C215.338 563.979 213.992 563.28 212.875 562.417C211.739 561.548 210.87 560.471 210.266 559.187C209.656 557.923 209.372 556.439 209.413 554.736C209.428 553.045 209.801 551.101 210.532 548.905L217.402 528.276L224.555 530.701L217.666 551.39C217.152 552.933 216.97 554.237 217.12 555.301C217.251 556.358 217.674 557.229 218.389 557.912C219.098 558.615 220.064 559.173 221.286 559.588C222.567 560.022 223.785 560.149 224.942 559.969C226.079 559.782 227.121 559.353 228.068 558.683C229.015 558.013 229.85 557.151 230.574 556.097C231.278 555.037 231.851 553.844 232.292 552.518Z" fill="#EBEBEB"/>
<path d="M191.393 522.963L184.519 537.577C184.004 538.673 183.756 539.712 183.777 540.694C183.797 541.677 184.108 542.58 184.709 543.403C185.292 544.217 186.182 544.913 187.381 545.492C188.487 546.025 189.531 546.297 190.514 546.308C191.497 546.32 192.364 546.113 193.116 545.688C193.867 545.263 194.434 544.644 194.816 543.832L201.56 547.086C200.992 548.295 200.151 549.325 199.037 550.178C197.923 551.031 196.605 551.634 195.083 551.988C193.56 552.342 191.911 552.404 190.135 552.172C188.359 551.941 186.516 551.364 184.605 550.442C182.319 549.339 180.478 547.976 179.082 546.352C177.666 544.719 176.821 542.875 176.547 540.819C176.245 538.774 176.644 536.581 177.745 534.239L184.153 520.616C184.81 519.219 185.307 517.918 185.644 516.714C185.953 515.52 186.111 514.426 186.118 513.433L186.331 512.98L193.272 516.329C193.244 517.219 193.057 518.276 192.712 519.499C192.339 520.732 191.899 521.887 191.393 522.963ZM184.534 534.979L186.463 530.732L191.324 533.077C192.579 533.683 193.742 534.094 194.813 534.309C195.875 534.544 196.831 534.588 197.681 534.442C198.531 534.296 199.267 533.979 199.887 533.491C200.507 533.003 201.009 532.353 201.39 531.541C201.772 530.729 201.936 529.893 201.881 529.032C201.817 528.19 201.518 527.409 200.984 526.688C200.431 525.958 199.639 525.344 198.609 524.847C197.223 524.178 195.881 523.878 194.584 523.947C193.26 524.027 192.103 524.337 191.113 524.878C190.113 525.439 189.418 526.088 189.025 526.825L188.259 522.737C188.847 522.071 189.622 521.425 190.583 520.8C191.544 520.175 192.655 519.669 193.917 519.282C195.152 518.905 196.498 518.755 197.956 518.833C199.394 518.901 200.9 519.315 202.474 520.075C204.46 521.033 206.043 522.284 207.225 523.827C208.398 525.389 209.105 527.062 209.346 528.847C209.578 530.65 209.286 532.42 208.469 534.157C207.705 535.781 206.73 537.071 205.545 538.028C204.332 538.995 202.935 539.618 201.355 539.899C199.757 540.17 197.994 540.107 196.066 539.709C194.129 539.331 192.056 538.608 189.845 537.541L184.534 534.979Z" fill="#EBEBEB"/>
<path d="M161.696 529.17L183.087 494.91L189.407 498.978L164.567 538.763L158.745 535.015L161.696 529.17ZM148.564 508.69L148.912 508.132C150.216 506.043 151.672 504.262 153.278 502.789C154.855 501.322 156.53 500.229 158.304 499.509C160.048 498.795 161.829 498.514 163.646 498.666C165.463 498.818 167.263 499.468 169.046 500.616C170.812 501.752 172.155 503.076 173.075 504.586C173.966 506.103 174.485 507.765 174.631 509.572C174.777 511.379 174.616 513.286 174.148 515.293C173.65 517.306 172.896 519.377 171.886 521.506L170.542 523.658C169 525.618 167.421 527.283 165.807 528.651C164.175 530.009 162.518 531.014 160.835 531.669C159.152 532.323 157.445 532.564 155.713 532.393C153.982 532.222 152.242 531.573 150.494 530.448C148.711 529.3 147.349 527.927 146.41 526.33C145.46 524.75 144.917 523.01 144.78 521.11C144.632 519.228 144.885 517.231 145.541 515.122C146.185 513.029 147.193 510.886 148.564 508.69ZM155.232 512.201L154.884 512.759C154.055 514.087 153.409 515.396 152.946 516.687C152.472 517.995 152.227 519.252 152.21 520.457C152.192 521.662 152.445 522.768 152.969 523.775C153.463 524.789 154.279 525.661 155.415 526.393C156.534 527.113 157.618 527.537 158.665 527.666C159.701 527.811 160.701 527.722 161.663 527.398C162.625 527.075 163.536 526.557 164.397 525.845C165.247 525.151 166.059 524.321 166.834 523.355L170.051 518.203C170.637 516.793 171.008 515.394 171.165 514.005C171.321 512.617 171.135 511.305 170.606 510.071C170.049 508.844 169.036 507.758 167.567 506.812C166.431 506.081 165.306 505.704 164.192 505.682C163.078 505.66 161.997 505.92 160.948 506.461C159.871 507.008 158.851 507.779 157.887 508.772C156.924 509.765 156.039 510.908 155.232 512.201Z" fill="#EBEBEB"/>
<path d="M131.046 506.83L156.462 475.427L162.222 480.253L132.708 516.72L127.402 512.274L131.046 506.83ZM120.559 484.85L120.973 484.339C122.523 482.424 124.184 480.833 125.957 479.568C127.701 478.306 129.496 477.426 131.341 476.93C133.158 476.437 134.957 476.378 136.738 476.754C138.519 477.13 140.223 477.998 141.848 479.36C143.457 480.708 144.625 482.19 145.35 483.805C146.045 485.423 146.355 487.139 146.277 488.953C146.199 490.767 145.804 492.642 145.093 494.579C144.352 496.518 143.35 498.484 142.086 500.475L140.49 502.447C138.72 504.204 136.95 505.663 135.182 506.824C133.398 507.971 131.632 508.765 129.884 509.207C128.136 509.649 126.415 509.678 124.721 509.293C123.027 508.909 121.383 508.049 119.79 506.714C118.164 505.352 116.985 503.819 116.252 502.116C115.505 500.428 115.181 498.631 115.279 496.726C115.365 494.836 115.862 492.884 116.772 490.868C117.668 488.868 118.931 486.862 120.559 484.85ZM126.733 489.165L126.32 489.676C125.334 490.893 124.533 492.114 123.916 493.34C123.285 494.582 122.887 495.801 122.721 496.996C122.556 498.192 122.67 499.323 123.064 500.388C123.429 501.457 124.13 502.425 125.166 503.293C126.185 504.147 127.206 504.703 128.228 504.96C129.237 505.233 130.238 505.268 131.231 505.066C132.224 504.863 133.191 504.461 134.132 503.86C135.059 503.276 135.966 502.551 136.853 501.687L140.675 496.965C141.43 495.636 141.97 494.291 142.296 492.93C142.622 491.569 142.599 490.243 142.228 488.951C141.827 487.662 140.957 486.457 139.619 485.336C138.583 484.468 137.515 483.954 136.414 483.795C135.313 483.635 134.21 483.759 133.104 484.167C131.97 484.578 130.864 485.218 129.787 486.086C128.71 486.954 127.692 487.98 126.733 489.165Z" fill="#EBEBEB"/>
<path d="M118.795 462.623L90.9273 477.066L85.4123 471.21L122.609 453.746C123.419 453.389 124.347 453.049 125.39 452.726C126.434 452.403 127.547 452.229 128.73 452.206C129.913 452.153 131.105 452.368 132.305 452.851C133.52 453.319 134.705 454.166 135.859 455.392C136.315 455.876 136.712 456.389 137.05 456.93C137.389 457.442 137.699 457.938 137.98 458.42L133.882 462.473C133.754 462.307 133.598 462.11 133.413 461.884C133.215 461.642 133.051 461.454 132.923 461.317C132.068 460.41 131.243 459.763 130.449 459.376C129.67 458.976 128.864 458.82 128.03 458.909C127.182 458.982 126.226 459.278 125.164 459.794L118.795 462.623ZM100.76 487.506L113.402 463.931L118.169 457.392L122.702 460.24L106.318 493.407L100.76 487.506Z" fill="#EBEBEB"/>
<path d="M85.778 411.785C84.8775 413.017 84.0782 414.21 83.38 415.363C82.6237 416.503 81.8729 417.816 81.1278 419.302C80.3827 420.789 79.5504 422.583 78.6309 424.686C77.7115 426.789 76.6273 429.401 75.3783 432.523C73.7694 436.531 72.1975 439.657 70.6625 441.9C69.1276 444.144 67.3692 445.899 65.3874 447.165C63.8019 448.178 62.1163 448.699 60.3307 448.729C58.4869 448.745 56.7759 448.323 55.1978 447.463C53.5615 446.589 52.2549 445.353 51.2781 443.754C50.2348 442.047 49.7015 440.19 49.6783 438.185C49.6329 436.143 50.2044 434.086 51.3928 432.013C49.0278 432.16 46.9578 431.765 45.1828 430.829C43.4078 429.892 41.9986 428.57 40.9552 426.862C40.0006 425.3 39.509 423.594 39.4803 421.743C39.3934 419.879 39.7613 418.104 40.5839 416.416C41.3706 414.752 42.5566 413.413 44.1421 412.4C45.4032 411.594 46.8114 410.947 48.3667 410.459C49.8637 409.957 51.6713 409.635 53.7896 409.494C55.8718 409.376 58.4241 409.412 61.4465 409.602C64.7738 409.8 67.5923 409.943 69.902 410.034C72.1757 410.147 74.1291 410.187 75.7622 410.153C77.3731 410.084 78.8384 409.981 80.1581 409.845C81.4779 409.709 82.8295 409.502 84.2129 409.224L85.778 411.785ZM80.3097 413.536C78.5187 413.721 76.3671 413.808 73.855 413.796C71.3207 413.749 68.4662 413.628 65.2914 413.434C62.1165 413.24 59.4256 413.141 57.2185 413.137C55.0114 413.133 53.3063 413.212 52.103 413.375C49.6604 413.723 47.6284 414.416 46.0069 415.452C44.9619 416.119 44.1915 416.99 43.6957 418.065C43.1639 419.162 42.9233 420.326 42.9738 421.557C43.0022 422.751 43.3382 423.875 43.982 424.928C44.9366 426.49 46.451 427.493 48.5252 427.935C50.5634 428.401 52.8882 428.229 55.4997 427.419L57.198 430.198C55.1695 432.454 53.9672 434.586 53.5911 436.594C53.1568 438.589 53.3948 440.331 54.305 441.82C54.9266 442.838 55.7671 443.639 56.8266 444.225C57.886 444.811 59.0147 445.1 60.2125 445.092C61.3742 445.107 62.4776 444.781 63.5226 444.114C65.036 443.147 66.5103 441.624 67.9455 439.545C69.2948 437.571 71.1547 433.605 73.5251 427.645C74.6383 424.712 75.7765 422.065 76.9399 419.705C78.0672 417.368 79.1905 415.312 80.3097 413.536Z" fill="#EBEBEB"/>
<path d="M49.8358 159.019L87.5136 184.527L83.2327 191.099L45.5548 165.592L49.8358 159.019Z" fill="#EBEBEB"/>
<path d="M101.418 142.328L106.372 136.287C108.481 138.412 109.974 140.78 110.852 143.389C111.714 145.984 111.84 148.705 111.23 151.551C110.62 154.397 109.152 157.238 106.827 160.073C105.044 162.248 103.058 163.881 100.87 164.972C98.6667 166.05 96.3506 166.608 93.9222 166.646C91.4779 166.67 88.9781 166.154 86.4227 165.099C83.8805 164.027 81.3646 162.43 78.8751 160.309L75.9971 157.856C73.5077 155.735 71.5268 153.486 70.0546 151.109C68.5957 148.717 67.6678 146.284 67.2711 143.811C66.8585 141.325 66.9916 138.879 67.6704 136.475C68.3624 134.054 69.6133 131.74 71.4231 129.533C73.7216 126.73 76.1709 124.795 78.771 123.726C81.371 122.658 84.0029 122.356 86.6665 122.819C89.3434 123.267 91.9385 124.356 94.4517 126.087L89.4979 132.129C87.8753 131.02 86.3082 130.286 84.7967 129.929C83.2983 129.555 81.8423 129.655 80.4287 130.229C78.9992 130.79 77.5909 131.916 76.2039 133.607C75.0678 134.993 74.3307 136.417 73.9927 137.881C73.6547 139.344 73.6932 140.841 74.1083 142.372C74.5234 143.902 75.3071 145.459 76.4594 147.044C77.6091 148.598 79.1036 150.159 80.943 151.726L83.8686 154.219C85.6128 155.706 87.3239 156.904 89.002 157.814C90.6775 158.695 92.2868 159.245 93.8301 159.465C95.3865 159.67 96.8583 159.501 98.2455 158.959C99.6328 158.417 100.908 157.437 102.07 156.02C103.484 154.296 104.357 152.673 104.689 151.15C105.035 149.611 104.918 148.129 104.336 146.703C103.752 145.247 102.779 143.789 101.418 142.328Z" fill="#EBEBEB"/>
<path d="M138.695 118.364L142.862 122.981L125.242 139.505L121.076 134.889L138.695 118.364ZM96.3745 104.211L126.861 137.988L121.14 143.353L90.6533 109.577L96.3745 104.211ZM122.804 105.468L126.908 110.015L111.591 124.38L107.487 119.833L122.804 105.468ZM112.262 89.3111L116.45 93.9507L98.9439 110.369L94.7562 105.729L112.262 89.3111Z" fill="#EBEBEB"/>
<path d="M149.161 93.3686L139.762 100.157L136.447 95.4981L144.655 89.5697C146.04 88.5694 147.071 87.5164 147.748 86.4105C148.43 85.2754 148.751 84.1314 148.711 82.9786C148.659 81.8087 148.24 80.6592 147.455 79.5303C146.587 78.2816 145.643 77.4346 144.623 76.9893C143.603 76.544 142.478 76.4955 141.249 76.8438C140.037 77.1798 138.679 77.8907 137.176 78.9764L131.02 83.4227L153.425 115.65L147.067 120.242L121.094 82.8837L133.608 73.8447C135.635 72.3809 137.579 71.2724 139.44 70.5192C141.318 69.7537 143.105 69.3876 144.803 69.4207C146.505 69.4244 148.083 69.8518 149.538 70.7029C151.009 71.5418 152.351 72.8336 153.564 74.5784C154.634 76.1179 155.252 77.7913 155.418 79.5988C155.572 81.3891 155.219 83.1986 154.359 85.0272C153.499 86.8559 152.068 88.6096 150.063 90.2883L149.161 93.3686ZM160.62 110.453L149.499 118.486L148.811 111.312L157.07 105.347C158.505 104.31 159.538 103.205 160.168 102.03C160.785 100.839 161.033 99.6449 160.912 98.448C160.795 97.2219 160.332 96.0272 159.524 94.8641C158.679 93.6496 157.737 92.7501 156.696 92.1655C155.644 91.5639 154.495 91.353 153.25 91.5327C151.993 91.6954 150.63 92.3073 149.161 93.3686L142.017 98.5285L138.803 93.7964L148.1 87.0812L150.775 87.8087C152.849 86.4133 154.828 85.665 156.711 85.5639C158.611 85.4506 160.346 85.8293 161.915 86.7C163.485 87.5707 164.804 88.7758 165.875 90.3153C167.528 92.693 168.398 95.0578 168.486 97.4099C168.59 99.7497 167.98 102.028 166.654 104.244C165.316 106.444 163.305 108.513 160.62 110.453Z" fill="#EBEBEB"/>
<path d="M200.731 79.8635L203.61 85.3756L182.377 96.8956L179.498 91.3835L200.731 79.8635ZM163.262 55.5079L184.328 95.8375L177.433 99.5782L156.367 59.2486L163.262 55.5079ZM188.566 63.3921L191.402 68.8211L172.944 78.8359L170.108 73.407L188.566 63.3921ZM182.406 45.1205L185.3 50.6603L164.205 62.1058L161.311 56.566L182.406 45.1205Z" fill="#EBEBEB"/>
<path d="M211.142 40.5456L212.051 82.4092L204.373 85.3406L204.671 36.5274L209.575 34.6548L211.142 40.5456ZM235.377 73.5035L209.04 41.3481L206.393 35.8698L211.327 33.9861L243.085 70.561L235.377 73.5035ZM228.941 57.8991L231.087 63.7359L207.965 72.5636L205.819 66.7268L228.941 57.8991Z" fill="#EBEBEB"/>
<path d="M234.644 26.8043L250.32 23.161C253.689 22.3781 256.674 22.219 259.276 22.6837C261.878 23.1484 264.031 24.2307 265.735 25.9307C267.455 27.6055 268.641 29.8966 269.292 32.8037C269.788 35.0197 269.819 37.0657 269.385 38.9417C268.951 40.8177 268.123 42.5073 266.902 44.0104C265.675 45.4931 264.108 46.7878 262.199 47.8943L260.139 49.5603L246.046 52.8357L244.626 46.7814L255.188 44.3266C257.014 43.9021 258.463 43.2231 259.535 42.2896C260.607 41.3561 261.322 40.2595 261.681 38.9999C262.055 37.7152 262.083 36.3613 261.764 34.9382C261.418 33.3932 260.813 32.1221 259.949 31.1252C259.101 30.1031 257.99 29.431 256.616 29.1088C255.237 28.7663 253.594 28.8166 251.686 29.26L243.65 31.1276L252.227 69.429L244.587 71.2047L234.644 26.8043ZM269.882 65.3259L255.006 47.8018L263.004 45.9107L277.95 63.0336L278.039 63.43L269.882 65.3259Z" fill="#EBEBEB"/>
<path d="M307.766 28.0677L309.276 61.8464L301.721 62.1951L300.211 28.4164L307.766 28.0677ZM299.316 19.5733C299.265 18.4286 299.597 17.4643 300.312 16.6805C301.048 15.8749 302.092 15.4409 303.445 15.3784C304.777 15.3169 305.845 15.6535 306.649 16.388C307.453 17.1017 307.88 18.0309 307.931 19.1756C307.982 20.2995 307.639 21.2538 306.902 22.0386C306.166 22.8234 305.131 23.2465 303.799 23.308C302.447 23.3704 301.369 23.0448 300.565 22.3311C299.782 21.6164 299.366 20.6971 299.316 19.5733Z" fill="#EBEBEB"/>
<path d="M341.315 53.5946C341.353 52.8455 341.199 52.1595 340.855 51.5366C340.512 50.8928 339.822 50.2936 338.786 49.7389C337.77 49.1853 336.254 48.6473 334.235 48.1249C332.466 47.6363 330.846 47.0825 329.375 46.4634C327.925 45.8247 326.69 45.0823 325.668 44.2363C324.647 43.3903 323.872 42.4111 323.343 41.2988C322.815 40.1864 322.586 38.9228 322.656 37.5079C322.725 36.1346 323.091 34.8499 323.756 33.6537C324.42 32.4575 325.338 31.4205 326.508 30.5427C327.678 29.6649 329.078 28.9973 330.707 28.5398C332.356 28.0834 334.18 27.9072 336.177 28.0113C339.007 28.1587 341.407 28.7636 343.377 29.826C345.369 30.8685 346.866 32.2295 347.867 33.9089C348.869 35.5675 349.319 37.4059 349.219 39.4242L341.698 39.0323C341.742 38.1375 341.555 37.2933 341.135 36.4996C340.738 35.6861 340.104 35.0168 339.233 34.4916C338.363 33.9456 337.252 33.6374 335.9 33.5669C334.61 33.4996 333.528 33.6519 332.655 34.0236C331.803 34.3755 331.153 34.8632 330.704 35.4866C330.277 36.111 330.044 36.8081 330.005 37.578C329.977 38.1398 330.056 38.655 330.241 39.1236C330.448 39.5725 330.803 39.9978 331.304 40.3994C331.807 40.7802 332.497 41.15 333.376 41.5088C334.276 41.8686 335.405 42.2299 336.764 42.5928C339.317 43.2682 341.498 44.0808 343.307 45.0304C345.138 45.9603 346.52 47.1171 347.452 48.5008C348.385 49.8637 348.801 51.5543 348.701 53.5727C348.626 55.0708 348.235 56.4273 347.528 57.6421C346.842 58.8372 345.874 59.8611 344.621 60.7137C343.37 61.5456 341.889 62.1673 340.179 62.5788C338.49 62.9915 336.605 63.1436 334.524 63.0351C331.466 62.8757 328.903 62.1998 326.835 61.0072C324.767 59.7938 323.225 58.3052 322.208 56.5416C321.212 54.7582 320.76 52.9405 320.852 51.0887L328.124 51.4676C328.138 52.8661 328.467 53.9993 329.112 54.8674C329.779 55.7158 330.623 56.3543 331.645 56.7831C332.688 57.1921 333.772 57.4259 334.895 57.4844C336.247 57.5549 337.39 57.4371 338.323 57.1311C339.257 56.8043 339.979 56.3412 340.489 55.7419C340.999 55.1219 341.275 54.4061 341.315 53.5946Z" fill="#EBEBEB"/>
<path d="M393.89 23.4137L382.369 70.0104L375.105 68.1421L386.627 21.5454L393.89 23.4137ZM385.456 52.058L383.102 51.4205C383.683 49.1605 384.513 47.1478 385.593 45.3821C386.694 43.6217 387.974 42.1764 389.434 41.0461C390.919 39.9008 392.543 39.1463 394.307 38.7826C396.076 38.3986 397.918 38.4532 399.835 38.9462C401.449 39.3614 402.847 39.9575 404.028 40.7346C405.23 41.5168 406.182 42.5254 406.885 43.7603C407.594 44.975 407.995 46.4333 408.089 48.1354C408.209 49.8224 407.991 51.7883 407.436 54.0332L402.222 75.117L394.898 73.2332L400.126 52.0887C400.517 50.5112 400.595 49.1976 400.361 48.148C400.147 47.1035 399.656 46.2674 398.888 45.6398C398.126 44.9919 397.119 44.5071 395.868 44.1853C394.557 43.848 393.331 43.8125 392.193 44.0788C391.074 44.3504 390.069 44.8556 389.178 45.5944C388.287 46.3332 387.523 47.2551 386.885 48.3602C386.267 49.4704 385.791 50.703 385.456 52.058Z" fill="#EBEBEB"/>
<path d="M428.578 78.468L434.273 63.3821C434.7 62.2516 434.864 61.1971 434.766 60.2187C434.668 59.2402 434.286 58.3632 433.622 57.5876C432.976 56.8196 432.033 56.192 430.792 55.7048C429.648 55.2557 428.585 55.0624 427.604 55.1249C426.623 55.1874 425.775 55.4586 425.059 55.9386C424.344 56.4186 423.828 57.0777 423.511 57.9158L416.53 55.1755C417.001 53.9281 417.758 52.8376 418.8 51.9041C419.843 50.9707 421.109 50.2704 422.599 49.8035C424.089 49.3365 425.729 49.152 427.517 49.25C429.306 49.3479 431.19 49.7851 433.168 50.5615C435.534 51.4902 437.477 52.7118 438.999 54.2265C440.539 55.7488 441.528 57.5243 441.964 59.5531C442.428 61.57 442.203 63.7869 441.291 66.2037L435.982 80.2663C435.438 81.7087 435.045 83.0429 434.805 84.2689C434.592 85.4831 434.521 86.5854 434.592 87.5757L434.416 88.0435L427.231 85.2233C427.188 84.3337 427.29 83.2662 427.538 82.0206C427.812 80.7631 428.159 79.5789 428.578 78.468ZM434.464 65.9744L432.877 70.3535L427.845 68.3781C426.546 67.8681 425.354 67.5457 424.269 67.4109C423.192 67.2565 422.235 67.2839 421.399 67.4928C420.563 67.7018 419.855 68.0729 419.275 68.6062C418.695 69.1395 418.247 69.8252 417.931 70.6633C417.615 71.5014 417.518 72.3474 417.641 73.2013C417.771 74.0357 418.131 74.7925 418.721 75.4716C419.33 76.1582 420.168 76.7109 421.235 77.1296C422.67 77.6929 424.031 77.8915 425.318 77.7254C426.632 77.5475 427.762 77.1515 428.706 76.5375C429.658 75.904 430.3 75.205 430.633 74.4406L431.721 78.4595C431.187 79.1673 430.465 79.8688 429.557 80.5642C428.649 81.2595 427.581 81.8473 426.353 82.3277C425.152 82.7961 423.822 83.0461 422.363 83.0775C420.923 83.1166 419.389 82.8165 417.76 82.1771C415.704 81.3702 414.026 80.2415 412.725 78.7911C411.432 77.3212 410.594 75.7057 410.213 73.9446C409.838 72.164 409.99 70.3771 410.667 68.584C411.299 66.9078 412.169 65.5483 413.275 64.5055C414.408 63.4508 415.751 62.7247 417.304 62.3271C418.876 61.9372 420.639 61.8683 422.592 62.1203C424.553 62.3528 426.677 62.9182 428.966 63.8164L434.464 65.9744Z" fill="#EBEBEB"/>
<path d="M457.698 70.058L439.087 105.817L432.463 102.233L454.075 60.7084L460.177 64.0096L457.698 70.058ZM472.415 89.4952L472.112 90.0774C470.977 92.258 469.668 94.1428 468.183 95.7317C466.727 97.3121 465.143 98.5276 463.432 99.3783C461.749 100.22 459.996 100.634 458.172 100.618C456.349 100.603 454.503 100.089 452.634 99.078C450.783 98.0767 449.339 96.8575 448.303 95.4203C447.294 93.9745 446.645 92.3563 446.356 90.5656C446.066 88.775 446.076 86.8617 446.384 84.8258C446.72 82.7814 447.308 80.6598 448.147 78.4612L449.315 76.2158C450.698 74.1456 452.14 72.3678 453.641 70.8825C455.16 69.4072 456.733 68.2805 458.359 67.5024C459.985 66.7243 461.668 66.3558 463.408 66.3971C465.148 66.4384 466.934 66.9547 468.766 67.9461C470.635 68.9572 472.101 70.224 473.164 71.7464C474.236 73.2503 474.916 74.9445 475.203 76.8288C475.5 78.6948 475.406 80.704 474.919 82.8567C474.443 84.9908 473.608 87.2037 472.415 89.4952ZM465.488 86.4936L465.791 85.9115C466.513 84.5255 467.053 83.1717 467.412 81.8502C467.781 80.5102 467.926 79.2387 467.847 78.0358C467.769 76.8328 467.429 75.7489 466.828 74.784C466.254 73.8105 465.372 73.0016 464.181 72.3572C463.008 71.7227 461.894 71.3808 460.84 71.3313C459.795 71.2634 458.806 71.4269 457.872 71.8218C456.939 72.2167 456.071 72.8012 455.269 73.5751C454.477 74.3306 453.732 75.2188 453.037 76.2397L450.238 81.6175C449.765 83.067 449.506 84.4899 449.46 85.8862C449.415 87.2826 449.704 88.5761 450.329 89.7668C450.982 90.9489 452.078 91.9564 453.617 92.7891C454.808 93.4335 455.96 93.725 457.072 93.6635C458.184 93.6021 459.242 93.2624 460.244 92.6444C461.275 92.0178 462.231 91.1732 463.113 90.1108C463.994 89.0484 464.786 87.8427 465.488 86.4936Z" fill="#EBEBEB"/>
<path d="M490.032 90.0395L467.181 123.25L461.055 118.869L487.591 80.3038L493.234 84.3393L490.032 90.0395ZM502.231 111.171L501.859 111.711C500.465 113.736 498.935 115.446 497.268 116.84C495.629 118.229 493.91 119.24 492.109 119.873C490.337 120.501 488.548 120.694 486.742 120.452C484.936 120.211 483.169 119.472 481.44 118.236C479.729 117.012 478.447 115.622 477.596 114.066C476.774 112.505 476.33 110.817 476.264 109.002C476.197 107.188 476.442 105.289 476.998 103.305C477.583 101.316 478.426 99.2815 479.529 97.2017L480.964 95.1164C482.589 93.2316 484.237 91.6446 485.908 90.3555C487.596 89.0784 489.294 88.1543 491.002 87.5831C492.71 87.0119 494.423 86.8546 496.143 87.1113C497.863 87.368 499.57 88.1023 501.265 89.3142C502.993 90.5503 504.29 91.9903 505.157 93.6342C506.035 95.261 506.5 97.028 506.553 98.9353C506.618 100.825 506.277 102.809 505.53 104.887C504.795 106.948 503.695 109.042 502.231 111.171ZM495.733 107.33L496.105 106.79C496.991 105.502 497.693 104.225 498.211 102.957C498.742 101.671 499.042 100.426 499.112 99.2219C499.183 98.0174 498.979 96.8986 498.501 95.8657C498.052 94.8276 497.277 93.9148 496.176 93.127C495.091 92.3514 494.029 91.8737 492.99 91.6938C491.962 91.4968 490.962 91.5365 489.988 91.813C489.014 92.0895 488.081 92.5624 487.191 93.2317C486.312 93.8839 485.465 94.6738 484.65 95.6016L481.214 100.596C480.567 101.977 480.135 103.358 479.917 104.74C479.7 106.121 479.828 107.441 480.301 108.702C480.803 109.957 481.766 111.093 483.189 112.111C484.291 112.899 485.396 113.331 486.507 113.408C487.617 113.485 488.707 113.279 489.777 112.789C490.876 112.295 491.928 111.574 492.932 110.628C493.937 109.683 494.871 108.583 495.733 107.33Z" fill="#EBEBEB"/>
<path d="M505.755 133.198L532.396 116.716L538.359 122.142L502.657 142.334C501.877 142.75 500.979 143.159 499.965 143.559C498.95 143.959 497.854 144.215 496.676 144.327C495.501 144.468 494.295 144.342 493.06 143.951C491.811 143.575 490.563 142.819 489.314 141.683C488.821 141.235 488.385 140.753 488.005 140.238C487.627 139.753 487.278 139.282 486.96 138.823L490.725 134.476C490.865 134.632 491.036 134.816 491.238 135.028C491.456 135.254 491.634 135.43 491.772 135.556C492.697 136.397 493.57 136.981 494.393 137.306C495.201 137.648 496.018 137.743 496.842 137.592C497.682 137.455 498.611 137.089 499.629 136.495L505.755 133.198ZM521.763 107.042L511.029 131.491L506.794 138.368L502.049 135.866L515.754 101.574L521.763 107.042Z" fill="#EBEBEB"/>
<path d="M542.714 181.416C543.514 180.12 544.216 178.871 544.821 177.669C545.484 176.476 546.129 175.111 546.754 173.573C547.378 172.036 548.066 170.185 548.816 168.019C549.565 165.854 550.439 163.169 551.436 159.963C552.722 155.847 554.041 152.613 555.394 150.261C556.746 147.91 558.36 146.029 560.235 144.618C561.736 143.49 563.375 142.844 565.153 142.682C566.99 142.528 568.729 142.821 570.371 143.561C572.072 144.31 573.473 145.445 574.574 146.966C575.75 148.59 576.429 150.401 576.611 152.399C576.818 154.432 576.412 156.526 575.392 158.681C577.738 158.357 579.833 158.596 581.677 159.398C583.522 160.199 585.032 161.412 586.208 163.037C587.283 164.523 587.909 166.187 588.085 168.03C588.319 169.882 588.093 171.68 587.407 173.424C586.755 175.142 585.679 176.565 584.178 177.694C582.985 178.591 581.632 179.342 580.12 179.945C578.668 180.557 576.891 181.013 574.79 181.312C572.723 181.585 570.176 181.74 567.147 181.775C563.814 181.827 560.992 181.894 558.682 181.977C556.406 182.034 554.455 182.14 552.83 182.295C551.229 182.484 549.776 182.696 548.471 182.93C547.166 183.165 545.835 183.472 544.478 183.852L542.714 181.416ZM548.027 179.261C549.798 178.943 551.937 178.696 554.442 178.52C556.973 178.378 559.828 178.286 563.009 178.242C566.19 178.198 568.881 178.096 571.082 177.935C573.283 177.775 574.977 177.568 576.164 177.316C578.571 176.787 580.542 175.945 582.077 174.791C583.066 174.047 583.765 173.121 584.174 172.013C584.617 170.879 584.764 169.7 584.616 168.477C584.493 167.289 584.069 166.193 583.343 165.191C582.267 163.705 580.678 162.819 578.575 162.532C576.505 162.22 574.201 162.565 571.662 163.568L569.748 160.924C571.591 158.523 572.621 156.308 572.836 154.277C573.111 152.256 572.735 150.537 571.709 149.12C571.009 148.152 570.107 147.416 569.004 146.911C567.901 146.406 566.753 146.202 565.559 146.299C564.4 146.37 563.326 146.778 562.337 147.522C560.905 148.599 559.556 150.227 558.29 152.407C557.101 154.475 555.562 158.569 553.671 164.688C552.794 167.696 551.87 170.42 550.897 172.859C549.959 175.273 549.002 177.407 548.027 179.261Z" fill="#EBEBEB"/>
</svg>
