<svg width="702" height="695" viewBox="0 0 702 695" fill="none" xmlns="http://www.w3.org/2000/svg">
<path d="M620.971 146.894C624.171 97.2936 587.637 88.8936 568.971 90.8936C557.584 90.4883 552.893 81.3914 551.971 76.8936C549.571 54.4936 535.637 42.2269 528.971 38.8936C485.771 38.8936 467.637 32.8936 463.971 29.8936C455.971 10.6936 433.971 3.2269 423.971 1.89357C387.971 25.0936 364.304 11.5602 356.971 1.89357L343.971 691.894C375.171 662.294 392.971 666.894 397.971 672.894C436.371 686.494 453.304 673.227 456.971 664.894C472.171 644.094 492.637 644.227 500.971 646.894C528.171 651.694 542.971 633.56 546.971 623.894C554.971 600.694 570.304 592.894 576.971 591.894C607.371 589.494 618.971 566.894 620.971 555.894C616.171 531.894 632.304 518.56 640.971 514.894C671.371 506.894 672.304 482.227 668.971 470.894C661.771 446.094 671.971 431.227 677.971 426.894C702.771 410.894 701.637 392.227 697.971 384.894C684.371 367.294 683.637 336.227 684.971 322.894C704.171 298.894 701.637 281.56 697.971 275.894C669.971 254.294 666.971 232.227 668.971 223.894C675.371 200.694 666.304 182.894 660.971 176.894C636.971 164.894 624.304 151.894 620.971 146.894Z" fill="#0F0F0F" stroke="black"/>
<path d="M80.8111 547.413C77.5469 597.009 114.069 605.456 132.739 603.48C144.125 603.9 148.804 613.003 149.72 617.502C152.091 639.905 166.009 652.19 172.671 655.532C215.871 655.588 233.997 661.611 237.659 664.616C245.635 683.826 267.625 691.322 277.623 692.668C313.653 669.515 337.302 683.078 344.623 692.755L358.517 2.7721C327.278 32.3316 309.484 27.7086 304.492 21.7021C266.11 8.05244 249.159 21.2972 245.482 29.6257C230.255 50.406 209.788 50.2462 201.459 47.5687C174.265 42.7335 159.441 60.8476 155.429 70.5091C147.399 93.6987 132.055 101.479 125.387 102.47C94.9844 104.831 83.3551 127.416 81.3409 138.413C86.1098 162.419 69.9592 175.732 61.2878 179.387C30.8774 187.348 29.9121 212.013 33.2308 223.351C40.3987 248.16 30.1794 263.014 24.1738 267.339C-0.646867 283.307 0.462285 301.975 4.11944 309.313C17.6966 326.931 18.3897 357.998 17.0391 371.33C-2.19196 395.305 0.318945 412.642 3.97826 418.313C31.9503 439.949 34.9217 462.02 32.9109 470.351C26.4808 493.542 35.5244 511.354 40.85 517.361C64.8344 529.392 77.4842 542.408 80.8111 547.413Z" fill="#0F0F0F" stroke="black"/>
<ellipse cx="359.953" cy="334.204" rx="227" ry="220.706" fill="#FF3892"/>
<path d="M232.758 469.772C227.798 469.814 222.905 468.496 218.519 465.939C214.132 463.381 210.388 459.663 207.621 455.116C204.818 450.578 203.06 445.353 202.5 439.895C201.94 434.437 202.594 428.91 204.406 423.794C205.199 421.575 205.589 420.318 205.79 419.652C205.02 412.034 204.049 385.335 214.162 380.022C217.743 360.264 220.225 340.282 221.596 320.189C224.576 274.297 238.339 232.67 260.429 202.445C255.785 195.566 253.596 187.041 254.279 178.494C255.239 168.559 260.529 160.214 269.158 155.074C272.503 153.026 276.261 151.945 280.086 151.93C283.264 151.937 286.405 152.698 289.294 154.162C293.966 156.592 297.915 160.44 300.68 165.256C320.515 153.299 342.951 147.296 367.508 147.296C388.113 147.296 406.91 150.87 423.463 157.921C426.263 153.083 430.453 149.423 435.362 147.53C438.031 146.526 440.826 145.994 443.645 145.952C448.31 145.952 452.697 147.592 457.463 151.117C464.875 156.615 468.726 164.38 469.228 174.858C469.39 179.932 468.536 184.982 466.728 189.65C499.835 227.862 509.602 283.64 511.901 324.269C511.968 325.378 512.18 329.471 512.18 329.471C512.917 343.351 514.413 371.739 517.895 397.994C521.079 401.344 523.303 405.651 524.291 410.383C524.392 410.876 524.481 411.381 524.593 411.911C525.709 417.853 527.316 425.951 524.381 432.546C524.287 432.766 524.183 432.98 524.068 433.187C524.435 437.842 523.921 442.53 522.558 446.954C521.195 451.377 519.012 455.439 516.15 458.88C513.288 462.322 509.809 465.067 505.933 466.942C502.058 468.818 497.871 469.781 493.64 469.772H232.758Z" fill="white"/>
<path d="M443.599 152.115C447.205 152.115 450.542 153.447 454.304 156.232C460.242 160.633 463.234 166.661 463.613 175.191C463.741 180.707 462.465 186.152 459.93 190.907C494.276 227.973 504.031 284.787 506.286 324.713C506.364 326.13 506.465 327.868 506.565 329.878C507.347 344.669 508.909 374.389 512.682 401.594C516.153 403.443 518.352 409.384 518.788 411.677C518.877 412.178 518.977 412.708 519.089 413.267C520.071 418.309 521.411 425.199 519.324 429.871C519.041 430.46 518.663 430.987 518.207 431.424C518.826 435.376 518.654 439.43 517.704 443.301C516.755 447.172 515.049 450.767 512.709 453.833C510.368 456.9 507.448 459.364 504.154 461.052C500.86 462.741 497.271 463.614 493.639 463.609H232.757C228.707 463.638 224.714 462.56 221.132 460.472C217.551 458.384 214.493 455.35 212.23 451.64C209.938 447.934 208.5 443.664 208.043 439.204C207.586 434.744 208.123 430.228 209.607 426.05C210.281 424.24 210.87 422.392 211.371 420.515C211.371 420.38 211.438 420.232 211.46 420.084C210.031 410.863 211.014 388.145 216.684 385.569C217.032 385.382 217.413 385.285 217.8 385.286C218.161 385.29 218.519 385.356 218.861 385.483C222.897 364.1 225.668 342.45 227.154 320.67C230.212 274.346 244.377 232.67 267.159 203.086L267.673 202.433C261.947 195.715 259.044 187.222 259.859 179.098C260.585 171.283 264.815 164.627 271.836 160.423C274.36 158.874 277.197 158.051 280.085 158.032C282.467 158.038 284.819 158.61 286.983 159.709C292.284 162.572 296.37 167.597 298.38 173.724C318.394 160.374 341.834 153.459 367.507 153.459C390.579 153.459 409.923 157.995 426.019 165.786C428.162 159.856 432.326 155.148 437.081 153.459C439.196 152.667 441.411 152.251 443.644 152.226L443.599 152.115ZM443.644 139.9C440.227 139.935 436.836 140.567 433.598 141.773C428.929 143.518 424.762 146.597 421.521 150.698C405.302 144.411 387.164 141.243 367.462 141.243C343.743 141.243 321.865 146.679 302.264 157.428C299.326 153.647 295.692 150.6 291.604 148.491C287.995 146.658 284.069 145.708 280.096 145.705C275.335 145.711 270.653 147.052 266.49 149.601C256.343 155.764 249.869 166.007 248.731 177.841C248 186.286 249.699 194.77 253.586 202.087C232.244 232.904 218.983 274.358 216.025 319.745C214.745 338.701 212.449 357.557 209.15 376.213C202.943 381.415 201.135 391.387 200.331 398.87C199.604 405.563 199.517 412.323 200.075 419.036C199.874 419.64 199.595 420.466 199.215 421.563C197.078 427.603 196.307 434.128 196.968 440.572C197.629 447.015 199.703 453.184 203.01 458.543C206.286 463.922 210.717 468.321 215.908 471.347C221.099 474.374 226.888 475.933 232.757 475.886H493.639C498.496 475.879 503.3 474.789 507.766 472.683C512.232 470.576 516.267 467.496 519.629 463.626C522.991 459.757 525.611 455.178 527.333 450.164C529.055 445.149 529.842 439.803 529.649 434.444C532.997 426.124 531.167 416.842 529.961 410.629C529.861 410.099 529.76 409.606 529.671 409.15C528.585 403.915 526.311 399.07 523.063 395.073C519.792 369.656 518.375 342.549 517.66 329.113V328.337C517.571 326.636 517.493 325.144 517.415 323.887C515.127 283.209 505.46 227.641 473.09 188.294C474.372 183.869 474.935 179.228 474.753 174.587C474.161 162.26 469.373 152.608 460.521 146.051C454.795 141.81 449.426 139.887 443.599 139.887L443.644 139.9Z" fill="white"/>
<path d="M298.302 177.804C295.712 164.725 283.936 154.531 272.361 161.508C256.209 171.234 258.196 192.103 270.943 204.245C279.147 212.06 284.662 207.869 292.721 200.867C298.704 195.616 300.065 186.359 298.302 177.804Z" fill="#F4F7E8" stroke="black" stroke-linecap="round" stroke-linejoin="round"/>
<g style="mix-blend-mode:multiply" opacity="0.2">
<path d="M271.345 162.161C256.31 172.146 258.475 192.374 270.943 204.244C276.971 209.989 281.559 209.249 286.727 205.674C275.542 194.001 267.561 178.494 271.345 162.161Z" fill="black"/>
</g>
<path d="M426.254 168.633C427.85 162.235 432.002 156.479 437.416 154.556C443.778 152.288 448.254 153.212 453.724 157.255C459.584 161.594 462.162 167.462 462.542 175.252C462.988 184.633 457.552 197.058 448.801 200.214C441.3 202.926 429.111 187.554 426.633 180.651C425.34 176.794 425.207 172.58 426.254 168.633V168.633Z" fill="#F4F7E8" stroke="black" stroke-linecap="round" stroke-linejoin="round"/>
<g style="mix-blend-mode:multiply" opacity="0.2">
<path d="M433.364 177.336C436.713 168.572 443.633 159.351 452.273 156.245C447.428 153.052 443.187 152.461 437.383 154.532C432.002 156.454 427.85 162.211 426.22 168.609C425.163 172.552 425.284 176.766 426.566 180.627C427.747 183.494 429.284 186.166 431.132 188.565C431.228 184.7 431.985 180.89 433.364 177.336V177.336Z" fill="black"/>
</g>
<path d="M493.639 462.389C497.352 462.383 501.013 461.417 504.328 459.569C507.642 457.721 510.52 455.043 512.729 451.747C514.939 448.452 516.42 444.631 517.053 440.591C517.686 436.55 517.455 432.402 516.377 428.478C516.153 427.64 515.964 426.913 515.83 426.296C508.117 391.597 506.007 340.146 505.136 324.787C500.035 233.902 462.999 154.679 367.507 154.679C282.027 154.679 234.164 230.661 228.304 320.719C225.122 369.754 214.909 410.222 212.487 420.811C211.981 422.739 211.381 424.636 210.69 426.494C209.27 430.475 208.752 434.779 209.181 439.032C209.611 443.285 210.975 447.358 213.154 450.896C215.334 454.434 218.263 457.33 221.687 459.333C225.111 461.336 228.927 462.385 232.802 462.389H493.639Z" fill="#F4F7E8" stroke="black" stroke-linecap="round" stroke-linejoin="round"/>
<path d="M367.585 262.488C379.101 262.488 388.436 258.244 388.436 253.009C388.436 247.773 379.101 243.529 367.585 243.529C356.07 243.529 346.734 247.773 346.734 253.009C346.734 258.244 356.07 262.488 367.585 262.488Z" fill="black"/>
<path d="M417.368 234.58C419.674 234.58 421.543 231.793 421.543 228.355C421.543 224.917 419.674 222.13 417.368 222.13C415.062 222.13 413.193 224.917 413.193 228.355C413.193 231.793 415.062 234.58 417.368 234.58Z" fill="black"/>
<path d="M315.458 234.58C317.763 234.58 319.632 231.793 319.632 228.355C319.632 224.917 317.763 222.13 315.458 222.13C313.152 222.13 311.283 224.917 311.283 228.355C311.283 231.793 313.152 234.58 315.458 234.58Z" fill="black"/>
<path d="M351.389 233.373C370.029 225.373 415.906 224.288 426.655 270.882" stroke="black" stroke-linecap="round" stroke-linejoin="round"/>
<path d="M431.131 290.925C437.114 294.623 437.761 305.717 435.785 312.053" stroke="black" stroke-linecap="round" stroke-linejoin="round"/>
<path d="M306.751 287.4C304.641 288.361 301.962 292.454 301.348 294.981C300.232 299.542 301.281 304.559 302.822 308.799" stroke="black" stroke-linecap="round" stroke-linejoin="round"/>
<path d="M426.12 304.448C426.655 319.56 401.195 352.682 369.784 352.682C338.374 352.682 314.353 326.044 314.353 303.301C314.353 283.788 338.385 299.32 369.784 299.32C401.183 299.32 425.55 289.237 426.12 304.448Z" fill="#FF7F00"/>
<path d="M422.112 303.659C422.603 317.686 398.973 348.441 369.818 348.441C340.662 348.441 318.394 323.714 318.394 302.586C318.394 284.491 340.718 298.888 369.851 298.888C398.984 298.888 421.61 289.532 422.112 303.659Z" fill="#F6DC9A"/>
<path d="M370.242 302.216C370.242 302.216 395.345 346.457 370.242 346.222C345.138 345.988 370.242 302.216 370.242 302.216Z" fill="#FFB702" stroke="#FF7F00" stroke-linecap="round" stroke-linejoin="round"/>
<path d="M403.907 331.455C386.159 352.189 374.729 301.489 374.729 301.489C374.729 301.489 421.666 310.722 403.907 331.455Z" fill="#FFB702" stroke="#FF7F00" stroke-linecap="round" stroke-linejoin="round"/>
<path d="M336.442 331.455C354.19 352.189 365.631 301.489 365.631 301.489C365.631 301.489 318.75 310.722 336.442 331.455" fill="#FFB702"/>
<path d="M336.442 331.455C354.19 352.189 365.631 301.489 365.631 301.489C365.631 301.489 318.75 310.722 336.442 331.455" stroke="#FF7F00" stroke-linecap="round" stroke-linejoin="round"/>
<path d="M361.178 299.726C346.299 302.709 321.318 324.873 321.318 299.726C321.318 291.468 344.278 303.178 361.178 299.726Z" fill="#FFB702" stroke="#FF7F00" stroke-linecap="round" stroke-linejoin="round"/>
<path d="M384.451 301.045C400.714 306.358 418.518 324.306 419.299 301.526C419.545 294.179 393.995 300.626 384.451 301.045Z" fill="#FFB702" stroke="#FF7F00" stroke-linecap="round" stroke-linejoin="round"/>
<path d="M362.562 325.119C362.674 324.491 369.628 307.369 369.628 307.369L377.307 325.859" stroke="#FF7F00" stroke-linecap="round" stroke-linejoin="round"/>
<path d="M364.393 330.198C364.393 329.84 369.974 314.58 369.974 314.58L374.762 331.11" stroke="#FF7F00" stroke-linecap="round" stroke-linejoin="round"/>
<path d="M369.561 318.956C369.706 319.622 369.94 333.526 369.94 333.526" stroke="#FF7F00" stroke-linecap="round" stroke-linejoin="round"/>
<path d="M384.34 320.004C384.016 319.462 378.044 304.152 378.044 304.152L391.327 310.069" stroke="#FF7F00" stroke-linecap="round" stroke-linejoin="round"/>
<path d="M391.327 325.773C391.048 325.502 385.746 315.751 385.746 315.751" stroke="#FF7F00" stroke-linecap="round" stroke-linejoin="round"/>
<path d="M397.176 319.462L389.028 312.053" stroke="#FF7F00" stroke-linecap="round" stroke-linejoin="round"/>
<path d="M390.803 317.834L384.184 309.97" stroke="#FF7F00" stroke-linecap="round" stroke-linejoin="round"/>
<path d="M400.86 301.489C400.525 301.305 392.031 302.217 392.031 302.217L400.201 306.1" stroke="#FF7F00" stroke-linecap="round" stroke-linejoin="round"/>
<path d="M408.952 301.465C408.706 301.132 400.859 303.388 400.859 303.388L407.925 306.814" stroke="#FF7F00" stroke-linecap="round" stroke-linejoin="round"/>
<path d="M406.341 303.782H408.953" stroke="#FF7F00" stroke-linecap="round" stroke-linejoin="round"/>
<path d="M344.603 314.58C344.603 314.58 362.842 303.277 362.797 303.782C362.752 304.288 355.318 324.22 355.318 324.22" stroke="#FF7F00" stroke-linecap="round" stroke-linejoin="round"/>
<path d="M348.453 316.54L356.869 309.97" stroke="#FF7F00" stroke-linecap="round" stroke-linejoin="round"/>
<path d="M358.175 311.56C358.019 312.016 350.987 325.194 350.987 325.194" stroke="#FF7F00" stroke-linecap="round" stroke-linejoin="round"/>
<path d="M333.574 300.22L342.314 301.033" stroke="#FF7F00" stroke-linecap="round" stroke-linejoin="round"/>
<path d="M331.029 305.015C331.274 305.101 339.702 303.782 339.702 303.782" stroke="#FF7F00" stroke-linecap="round" stroke-linejoin="round"/>
<path d="M338.965 307.308L350.987 301.489" stroke="#FF7F00" stroke-linecap="round" stroke-linejoin="round"/>
<path d="M426.12 304.448C426.655 319.56 401.195 352.682 369.784 352.682C338.374 352.682 314.353 326.044 314.353 303.301C314.353 283.788 338.385 299.32 369.784 299.32C401.183 299.32 425.55 289.237 426.12 304.448Z" stroke="black" stroke-linecap="round" stroke-linejoin="round"/>
<g style="mix-blend-mode:multiply" opacity="0.2">
<path d="M279.125 191.203C281.626 188.738 284.204 186.272 286.872 183.93C284.079 186.067 281.485 188.503 279.125 191.203V191.203Z" fill="black"/>
</g>
<g style="mix-blend-mode:multiply" opacity="0.2">
<path d="M232.913 462.389C241.196 383.954 236.742 239.277 279.125 191.203C248.864 221.921 231.63 268.984 228.259 320.719C225.077 369.754 214.864 410.222 212.442 420.811C211.936 422.739 211.336 424.636 210.645 426.494C209.225 430.475 208.707 434.779 209.136 439.032C209.566 443.285 210.93 447.358 213.109 450.896C215.289 454.434 218.218 457.33 221.642 459.333C225.067 461.336 228.882 462.385 232.757 462.389H232.913Z" fill="black"/>
</g>
<path d="M242.871 462.389H273.008C250.215 424.41 222.98 383.979 217.198 386.654C211.773 389.119 210.936 416.336 213.224 422.401C213.86 424.312 228.516 442.58 242.871 462.389Z" fill="#C4E0C8" stroke="black" stroke-linecap="round" stroke-linejoin="round"/>
<path d="M486.774 462.389C500.47 437.945 516.532 433.384 518.33 429.341C520.473 424.546 518.62 416.879 517.693 411.923C517.258 409.544 514.501 402.247 510.583 402.247C485.468 415.116 467.609 442.567 457.686 462.389H486.774Z" fill="#C4E0C8" stroke="black" stroke-linecap="round" stroke-linejoin="round"/>
<path d="M517.694 411.923C517.303 409.778 515.015 403.64 511.677 402.469C507.324 371.393 505.862 336.891 505.181 324.811C502.178 271.807 488.36 222.87 458.467 191.215C461.209 186.459 462.615 180.914 462.508 175.277C462.128 167.486 459.55 161.619 453.69 157.28C451.201 155.269 448.303 153.961 445.251 153.471H445.14C444.583 153.411 444.024 153.382 443.465 153.385H443.264C442.697 153.394 442.13 153.439 441.568 153.52H441.344C440.753 153.607 440.161 153.73 439.547 153.878L439.358 153.939C438.71 154.1 438.063 154.309 437.382 154.543C435.688 155.162 434.114 156.124 432.738 157.379C429.863 160.029 427.727 163.525 426.577 167.462C410.001 159.252 390.423 154.667 367.418 154.667C340.383 154.667 317.11 162.272 297.743 175.523C294.283 163.567 283.233 154.926 272.316 161.496C271.97 161.705 271.635 161.927 271.3 162.149C270.831 162.457 270.385 162.778 269.95 163.11C269.514 163.443 269.101 163.776 268.699 164.134C268.298 164.479 267.918 164.836 267.583 165.194C267.215 165.551 266.869 165.921 266.534 166.291C266.21 166.673 265.898 167.043 265.596 167.437C265.306 167.819 265.016 168.214 264.759 168.67C264.502 169.064 264.257 169.459 264.022 169.902V169.964C263.799 170.371 263.576 170.778 263.375 171.197V171.283C263.185 171.69 262.996 172.097 262.817 172.516V172.614C262.65 173.021 262.504 173.44 262.359 173.847C262.356 173.892 262.356 173.937 262.359 173.983C262.214 174.389 262.091 174.808 261.98 175.215C261.98 175.215 261.98 175.314 261.98 175.375C261.868 175.782 261.779 176.189 261.69 176.608C261.69 176.608 261.69 176.731 261.69 176.793C261.611 177.2 261.544 177.607 261.477 178.026V178.248C261.422 178.642 261.377 179.049 261.344 179.48C261.344 179.567 261.344 179.653 261.344 179.739C261.344 180.134 261.288 180.528 261.277 180.972V181.255C261.277 181.65 261.277 182.032 261.277 182.414C261.277 182.525 261.277 182.636 261.277 182.747C261.277 183.129 261.277 183.499 261.344 183.881C261.338 184 261.338 184.119 261.344 184.238C261.344 184.608 261.411 184.978 261.455 185.335L261.522 185.742C261.522 186.1 261.623 186.445 261.69 186.802C261.69 186.95 261.757 187.098 261.779 187.246C261.846 187.579 261.924 187.924 262.002 188.257C262.08 188.59 262.08 188.577 262.125 188.738C262.17 188.898 262.292 189.391 262.382 189.711L262.549 190.229C262.638 190.541 262.739 190.849 262.85 191.154C262.85 191.338 262.984 191.523 263.051 191.708C263.118 191.893 263.263 192.3 263.386 192.583C263.509 192.867 263.542 192.966 263.621 193.163L263.989 194.001L264.279 194.605L264.67 195.394L265.005 196.023C265.139 196.269 265.273 196.516 265.418 196.762C265.563 197.009 265.674 197.194 265.808 197.403C265.942 197.613 266.087 197.884 266.244 198.118C266.4 198.352 266.534 198.55 266.679 198.771L267.126 199.425L267.639 200.115L268.085 200.707L268.677 201.422L269.101 201.939C269.258 202.124 269.425 202.297 269.592 202.469C254.479 220.959 243.607 243.862 236.675 269.304C236.675 269.477 236.575 269.662 236.53 269.834C236.195 271.067 235.872 272.3 235.559 273.532L235.358 274.309C235.068 275.542 234.778 276.688 234.499 277.896C234.432 278.167 234.376 278.451 234.309 278.722C234.019 279.955 233.751 281.187 233.483 282.42L233.349 283.061C232.724 286.019 232.155 289.015 231.63 292.022L231.529 292.614C231.317 293.847 231.105 295.141 230.916 296.411L230.715 297.742C230.558 298.777 230.413 299.8 230.268 300.836C230.19 301.366 230.123 301.896 230.056 302.438L229.688 305.397L229.487 307.098C229.375 308.047 229.275 309.008 229.174 309.97L229.007 311.634C228.906 312.669 228.817 313.705 228.728 314.753L228.594 316.182C228.475 317.695 228.363 319.211 228.259 320.731C226.739 343.105 223.868 365.343 219.664 387.295C219.299 387.005 218.882 386.804 218.442 386.705C218.001 386.605 217.547 386.608 217.108 386.715C212.185 388.983 211.047 411.566 212.576 420.268L212.442 420.872C212.386 421.119 212.308 421.427 212.208 421.76V421.908C211.873 423.079 211.337 424.669 210.679 426.555C209.258 430.536 208.741 434.841 209.17 439.094C209.6 443.347 210.963 447.419 213.143 450.957C215.322 454.495 218.252 457.392 221.676 459.395C225.1 461.398 228.916 462.447 232.791 462.45H493.639C497.157 462.446 500.63 461.58 503.808 459.915C506.986 458.249 509.79 455.826 512.017 452.819C514.245 449.812 515.84 446.297 516.688 442.527C517.537 438.757 517.617 434.826 516.923 431.017C517.479 430.596 517.944 430.045 518.285 429.402C520.428 424.546 518.62 416.879 517.694 411.923Z" stroke="black" stroke-width="2" stroke-linecap="round" stroke-linejoin="round"/>
</svg>
