<svg xmlns="http://www.w3.org/2000/svg" viewBox="0 0 287.86 291.04"><defs><style>.cls-1{fill:#fff;}.cls-2{fill:#f4f7e8;}.cls-3{fill:#c4e0c8;}.cls-4{fill:#d8efd3;}.cls-5{fill:#6f7470;}.cls-6{fill:#a2a9b1;}.cls-7{fill:#c1c5d1;}.cls-8{fill:#626568;}.cls-9{fill:#4f504d;}.cls-10{fill:#383838;}.cls-11{fill:#654847;}.cls-12{fill:#dde0d1;}.cls-13{fill:#d7efd5;}.cls-14{fill:#75997f;}.cls-15,.cls-16{fill:none;stroke:#000;stroke-linecap:round;stroke-linejoin:round;}.cls-15{stroke-width:2px;}.cls-16{stroke-width:1.5px;}</style></defs><title>we bare bear white bear with knife</title><g id="Layer_6" data-name="Layer 6"><path class="cls-1" d="M190,14.48a6.67,6.67,0,0,1,3.53,1c3.54,2.15,5.13,7.16,5.63,9.11,3.24.12,15.49.64,20.28,2.05,1.05-2.45,4.49-8.65,12.13-8.65a15.24,15.24,0,0,1,2.18.16,7.69,7.69,0,0,1,5.75,3.58c2.88,4.64,1.08,12.24.39,14.68,3.52,2.24,18.89,13.48,25.52,43.38.08.26,10.15,34.09,15.72,103.33,5.69,70.65,2.24,89.43-17.58,95.69-11.42,3.6-54.3,6.71-96.7,6.71-28.61,0-57-1.41-75.35-5-.08,0-15-2-14.22-15.78a20.39,20.39,0,0,1-12.9-7c-4.35-5.31-5.76-13-4.2-22.76C64,211,75.27,189.53,78.38,184c-7.76-.61-41.61-4.35-62.34-24a1,1,0,0,1-.27-1,1,1,0,0,1,.82-.69c.23,0,21.77-3,64.19-3q7.16,0,15.1.12c2.06-3.69,13.79-24.44,21.17-30.15-2.31-4.2-12.14-23.6-6.14-38.6,5.31-12.85,23.66-15.07,27.47-15.4A77,77,0,0,1,181.5,28.49c-.79-4.31-.38-11.71,6.2-13.66a8.19,8.19,0,0,1,2.3-.35M96.45,157.29c-5.55-.09-10.83-.14-15.81-.14-34.66,0-55.27,2-61.64,2.77,23,20.33,60.7,22.12,61.08,22.13a1,1,0,0,1,.82,1.52c-.14.24-14.38,24.3-18.74,51.63-1.47,9.21-.2,16.34,3.77,21.19a18.65,18.65,0,0,0,12.47,6.4,1,1,0,0,1,.71.34,1,1,0,0,1,.24.76C78,276.66,91.25,278.43,91.81,278.5c18.35,3.63,46.73,5,75.28,5,42.09,0,84.55-3.07,95.86-6.64,18.59-5.87,21.77-24.25,16.19-93.62-5.56-69-15.57-102.65-15.67-103C256.32,48,238.41,37.85,238.23,37.75a1,1,0,0,1-.47-1.19c0-.09,2.94-9.1,0-13.78a5.7,5.7,0,0,0-4.33-2.65,12.54,12.54,0,0,0-1.88-.14c-8,0-10.51,7.84-10.62,8.2a1,1,0,0,1-1,.71,1,1,0,0,1-.4-.09c-3.23-1.42-16.46-2.1-21.28-2.24a1,1,0,0,1-1-.81c0-.07-1.3-6.4-4.89-8.57a4.76,4.76,0,0,0-2.5-.71,6,6,0,0,0-1.72.27c-7,2.07-4.74,11.73-4.65,12.14a1,1,0,0,1-.61,1.17c-32.95,12.42-42.86,42-43,42.33a1,1,0,0,1-.9.69c-.21,0-21.07,1.32-26.39,14.2-6.25,15.64,6.33,37.41,6.46,37.63a1,1,0,0,1-.32,1.34c-7.4,4.85-21.42,30.27-21.56,30.52a1,1,0,0,1-.89.52M190,4.48a18.34,18.34,0,0,0-5.14.76C177.21,7.51,172.3,13.86,171.34,22a87.44,87.44,0,0,0-39.88,40c-9.26,1.76-24,6.74-29.79,20.69a.42.42,0,0,0,0,.1c-5.76,14.4-.82,30.7,3.36,40.37-5.42,6.47-11,15.45-14.87,22-3.15,0-6.28,0-9.34,0-42.75,0-64.68,3-65.59,3.14a11,11,0,0,0-6,18.86c16.16,15.35,38.67,22,54.06,24.82-4.69,10.39-10.33,25.29-12.89,41.33-2,12.74.1,23.06,6.33,30.68a29.33,29.33,0,0,0,11.5,8.47A23.27,23.27,0,0,0,78.87,286.3a30.64,30.64,0,0,0,10.89,4c21.87,4.3,54,5.2,77.09,5.2,37.85,0,85.49-2.69,99.71-7.18s22-14.19,25.18-31.43c2.65-14.41,2.46-36-.64-74.6-5.3-65.78-14.7-100.44-16-105-5.57-24.89-16.84-38.49-24.23-45.06.55-4.94.21-10.84-2.87-15.81a17.7,17.7,0,0,0-12.84-8.21A25.72,25.72,0,0,0,231.57,8a22.19,22.19,0,0,0-16.92,7.67c-2.8-.33-5.81-.57-8.6-.74a20.75,20.75,0,0,0-7.33-8A16.84,16.84,0,0,0,190,4.48ZM149.54,75.55a59,59,0,0,1,8.12-14.39,63.81,63.81,0,0,1,28.87-21.75,11,11,0,0,0,5.62-4.74A11,11,0,0,0,198,36.56c7.27.22,15.66.94,17.86,1.54a11.05,11.05,0,0,0,8.7-.19,11.06,11.06,0,0,0,3.18-2.21,11,11,0,0,0,5.48,10.72c.91.56,14.54,9.33,20.46,36,.06.25.12.5.19.74s9.86,33.65,15.27,100.88c2.87,35.58,3.19,56,1.09,68.12-2,11.66-5.71,13.71-10.33,15.16-9.25,2.93-49.66,6.18-92.84,6.18-31.47,0-57.51-1.72-73.34-4.85l-.66-.11a8.32,8.32,0,0,1-3-1.16c-.57-.39-1-.68-.78-2.47A11,11,0,0,0,79,252.81a8.76,8.76,0,0,1-5.36-2.75c-2.6-3.18-2.32-9-1.64-13.28,4-25.15,17.34-47.88,17.47-48.11a11,11,0,0,0-9-16.61,123.86,123.86,0,0,1-25.16-4.51c7.36-.24,15.8-.4,25.3-.4,5.1,0,10.36,0,15.64.14h.56a10.94,10.94,0,0,0,9.27-5.7c6.75-12.27,15.3-24.87,18.29-27a11,11,0,0,0,3.45-14.75c-2.63-4.58-9.39-19.76-5.83-28.81,2.22-5.23,13.11-7.67,17.75-8a11.08,11.08,0,0,0,9.77-7.51Z" transform="translate(-5.73 -4.48)"/><path class="cls-1" d="M205.65,25.17a.75.75,0,0,1,0,1.5,86.07,86.07,0,0,0-28.88,5.78.72.72,0,0,1-.29.06.75.75,0,0,1-.29-1.44,87.85,87.85,0,0,1,29.45-5.9h0m0-10h-.16a97.82,97.82,0,0,0-33.18,6.68,10.75,10.75,0,0,0,8.32,19.83,76.65,76.65,0,0,1,25.14-5,10.75,10.75,0,0,0-.12-21.5Z" transform="translate(-5.73 -4.48)"/><path class="cls-1" d="M221.15,24.65a.74.74,0,0,1,.45.15.76.76,0,0,1,.16,1.05c-1.91,2.56-.67,6.1-.65,6.14a.75.75,0,0,1-.45,1,.78.78,0,0,1-.26,0,.74.74,0,0,1-.7-.5c-.07-.17-1.53-4.34.85-7.54a.77.77,0,0,1,.6-.3m0-10h0A10.79,10.79,0,0,0,212.52,19c-4.11,5.52-3.85,12.32-2.25,16.84A10.8,10.8,0,0,0,220.4,43a10.59,10.59,0,0,0,3.65-.64,10.77,10.77,0,0,0,6.85-12.41,10.75,10.75,0,0,0-9.75-15.29Z" transform="translate(-5.73 -4.48)"/><path class="cls-1" d="M239.43,33.32a.72.72,0,0,1,.29.06.75.75,0,0,1,.41,1c-1.49,3.55-3.21,4.38-3.41,4.47a.72.72,0,0,1-.29.06.75.75,0,0,1-.69-.45.74.74,0,0,1,.37-1s1.4-.74,2.63-3.68a.76.76,0,0,1,.69-.46m0-10h0a10.72,10.72,0,0,0-9.9,6.58,10.74,10.74,0,0,0,6.9,19,10.61,10.61,0,0,0,4.25-.88l0,0c2.07-.9,5.95-3.37,8.63-9.76a10.76,10.76,0,0,0-9.92-14.91Z" transform="translate(-5.73 -4.48)"/><path class="cls-1" d="M191,62.73a.75.75,0,0,1,.36,1.41c-.43.24-10.54,5.76-16.13,7.18a9.5,9.5,0,0,1-2.31.31,5.07,5.07,0,0,1-2.9-.81,4.45,4.45,0,0,1-1.82-2.88.74.74,0,0,1,.64-.84h.11a.75.75,0,0,1,.73.65,2.92,2.92,0,0,0,1.21,1.85,3.55,3.55,0,0,0,2,.55,8,8,0,0,0,1.94-.28c5.41-1.36,15.67-7,15.78-7a.68.68,0,0,1,.36-.1m0-10a10.82,10.82,0,0,0-5.16,1.32c-2.86,1.56-7.3,3.78-10.57,5.12a10.68,10.68,0,0,0-6.32-2.08,10.14,10.14,0,0,0-1.46.1,10.74,10.74,0,0,0-9.21,12,14.45,14.45,0,0,0,6.12,9.88,15,15,0,0,0,8.52,2.54,19.57,19.57,0,0,0,4.76-.62c6.54-1.65,16.55-7,18.48-8.1A10.75,10.75,0,0,0,191,52.73Z" transform="translate(-5.73 -4.48)"/><path class="cls-1" d="M180.86,73c1.45,0,3,.06,4.73.17,15.46,1,15.64,2.18,15.83,3.43a1.85,1.85,0,0,1-.45,1.61c-1.29,1.52-5.26,2.29-11.82,2.29-1.14,0-2.35,0-3.64-.07C173.79,80,171,79.28,170,78.21a1.83,1.83,0,0,1-.41-1.48,2.23,2.23,0,0,1,.69-1.46c1.46-1.53,5.07-2.31,10.54-2.31m8.32,6c8.18,0,10.17-1.19,10.65-1.76a.38.38,0,0,0,.12-.29.51.51,0,0,0,0-.13c-.19-.36-1.77-1.34-14.44-2.16-1.77-.11-3.33-.16-4.69-.16-6.78,0-8.81,1.23-9.4,1.85a1.49,1.49,0,0,0-.27.37.38.38,0,0,1,0,.15c0,.31,0,.35,0,.4,1,1.19,11.09,1.54,14.39,1.66,1.33,0,2.53.07,3.62.07m-8.32-16h0c-8.7,0-14.17,1.66-17.75,5.37a12.23,12.23,0,0,0-3.46,7.81,11.77,11.77,0,0,0,2.85,8.65c3.92,4.49,9.62,5.13,22.65,5.6,1.42,0,2.76.07,4,.07,10.3,0,15.93-1.68,19.44-5.81a11.91,11.91,0,0,0,2.69-9.76c-.56-3.43-2.64-7.84-9.28-9.75-3.05-.88-7.77-1.47-15.77-2-1.9-.12-3.71-.19-5.37-.19Z" transform="translate(-5.73 -4.48)"/><path class="cls-1" d="M147.75,71.28c.89,0,1.86,0,2.91.1,9.39.63,10.85,2.36,10.89,3.34a1.87,1.87,0,0,1-.63,1.34c-1,1-3.25,1.55-6.55,1.55-1.05,0-2.2,0-3.46-.15-5.85-.48-9.29-1.31-10.22-2.46a1.23,1.23,0,0,1-.29-.65,1.82,1.82,0,0,1,.46-1.37c1-1.13,3.27-1.7,6.89-1.7m6.64,4.84c4.31,0,5.36-.93,5.59-1.27-.39-.36-2.21-1.49-9.42-2-1.06-.07-2-.1-2.82-.1-4.35,0-5.47.86-5.73,1.17l-.12.15c.24.22,1.71,1.25,9.14,1.86,1.3.11,2.41.16,3.36.16m-6.64-14.84h0c-4.33,0-10.55.55-14.53,5.25a11.89,11.89,0,0,0-2.77,8.79,11.17,11.17,0,0,0,2.47,6c3.42,4.21,9.1,5.46,17.17,6.12,1.53.13,3,.19,4.28.19,3.9,0,9.55-.46,13.58-4.44a11.78,11.78,0,0,0,3.58-9.09h0c-.14-2-1.18-7.56-8.12-10.41-2.89-1.19-6.74-1.91-12.09-2.26-1.27-.09-2.47-.13-3.57-.13Z" transform="translate(-5.73 -4.48)"/><path class="cls-1" d="M148.13,61.46a.74.74,0,0,1,.5.2c2.17,2,8.2,7.33,10.06,8a1.18,1.18,0,0,0,.37.07.48.48,0,0,0,.31-.09,3.65,3.65,0,0,0,.68-2.39.75.75,0,0,1,.73-.77.79.79,0,0,1,.77.74c0,.27,0,2.67-1.3,3.63a2,2,0,0,1-1.19.38,2.59,2.59,0,0,1-.85-.15c-2.49-.83-9.77-7.51-10.59-8.27a.75.75,0,0,1-.05-1.06.76.76,0,0,1,.56-.24m0-10a10.75,10.75,0,0,0-7.3,18.65c9.61,8.87,12.84,10,14.22,10.41a12.58,12.58,0,0,0,4,.66,11.93,11.93,0,0,0,7.11-2.32c5-3.66,5.42-9.52,5.38-11.87a10.74,10.74,0,0,0-10.5-10.55h-.44a10.34,10.34,0,0,0-2.45.32c-.92-.8-1.87-1.64-2.74-2.45a10.71,10.71,0,0,0-7.29-2.85Z" transform="translate(-5.73 -4.48)"/><path class="cls-1" d="M137,80.38c6.17,0,11.17,2.3,11.17,5.13s-5,5.13-11.17,5.13-11.16-2.3-11.16-5.13,5-5.13,11.16-5.13m0-10c-12.46,0-21.16,6.22-21.16,15.13s8.7,15.13,21.16,15.13,21.17-6.22,21.17-15.13S149.42,70.38,137,70.38Z" transform="translate(-5.73 -4.48)"/><path class="cls-1" d="M137.59,118.09a27.2,27.2,0,0,1,9.11,1.54.75.75,0,0,1-.25,1.46,1,1,0,0,1-.25,0,25.49,25.49,0,0,0-8.57-1.44,27.27,27.27,0,0,0-8.88,1.43.86.86,0,0,1-.27,0,.75.75,0,0,1-.27-1.45,28,28,0,0,1,9.38-1.55m0-10a38,38,0,0,0-13,2.23,10.75,10.75,0,0,0,7.66,20.09,17.82,17.82,0,0,1,5.38-.8,15.37,15.37,0,0,1,5.2.85l.08,0a10.66,10.66,0,0,0,3.54.6,10.75,10.75,0,0,0,3.62-20.87,36.82,36.82,0,0,0-12.48-2.13Z" transform="translate(-5.73 -4.48)"/><path class="cls-1" d="M117.63,123.34a.74.74,0,0,1,.61.32c.06.08,5.7,8.24,8.57,11.25a.75.75,0,0,1,0,1.06.77.77,0,0,1-.52.21.71.71,0,0,1-.54-.24c-3-3.09-8.49-11.09-8.72-11.43a.74.74,0,0,1,.62-1.17m0-10a10.76,10.76,0,0,0-6.07,1.87l0,0a10.77,10.77,0,0,0-2.75,15c1.46,2.11,6.46,9.25,9.73,12.67a10.82,10.82,0,0,0,7.77,3.32A10.76,10.76,0,0,0,134,128a123.36,123.36,0,0,1-7.56-10,10.75,10.75,0,0,0-8.85-4.65Z" transform="translate(-5.73 -4.48)"/><path class="cls-1" d="M271.3,110.82a.75.75,0,0,1,.34,1.42c-.35.18-35.16,17.86-44.72,30.68a.78.78,0,0,1-.6.3.74.74,0,0,1-.45-.15.76.76,0,0,1-.16-1c9.78-13.1,43.81-30.39,45.25-31.12a.71.71,0,0,1,.34-.08m0-10a10.84,10.84,0,0,0-4.84,1.15c-6.26,3.16-38,19.65-48.76,34.07a10.75,10.75,0,1,0,17.23,12.85c6-8,28.46-21.26,41.22-27.73a10.75,10.75,0,0,0-4.85-20.34Z" transform="translate(-5.73 -4.48)"/><path class="cls-1" d="M273.55,124.52a.75.75,0,0,1,.3,1.44c-.26.12-26.14,11.65-33.06,20.08a.75.75,0,0,1-.58.28.78.78,0,0,1-.48-.17.76.76,0,0,1-.1-1.06c7.14-8.7,32.54-20,33.61-20.5a.87.87,0,0,1,.31-.07m0-10a10.72,10.72,0,0,0-4.39.94c-6.66,3-29.15,13.4-37.26,23.29a10.75,10.75,0,0,0,16.62,13.64c3.36-4.1,17.87-12.17,29.39-17.29a10.75,10.75,0,0,0-4.36-20.58Z" transform="translate(-5.73 -4.48)"/><path class="cls-1" d="M196.85,139.45c23.93,0,47.93,6.42,48.22,6.5a.75.75,0,0,1-.19,1.48.69.69,0,0,1-.2,0c-.29-.08-24.11-6.46-47.81-6.46A102.1,102.1,0,0,0,181,142.08c-29.13,4.63-46.09,12.6-51.84,24.37a15.18,15.18,0,0,0,2.73,17.61c7.6,7.42,23.92,11.15,48.64,11.15q10.11,0,22.08-.84c1.29-.07,8-.43,14.54-.43,5.56,0,11,.26,12.75,1.19a.76.76,0,0,1,.32,1,.77.77,0,0,1-.67.4.73.73,0,0,1-.35-.09c-1.47-.77-6.48-1-11.93-1s-11.37.24-14.56.42q-11.92.82-22,.83c-25.22,0-41.95-3.87-49.84-11.56a16.71,16.71,0,0,1-3-19.35c6-12.24,23.3-20.48,53-25.19a103.58,103.58,0,0,1,16.09-1.15m0-10a113.39,113.39,0,0,0-17.66,1.28c-33.57,5.33-52.76,15.07-60.38,30.67a26.68,26.68,0,0,0,5,30.9c9.94,9.69,28.53,14.4,56.82,14.4,6.92,0,14.54-.29,22.65-.85,3.31-.19,8.91-.4,13.94-.4a61.84,61.84,0,0,1,8.35.36,11,11,0,0,0,3.93.74,10.75,10.75,0,0,0,5-20.26c-2.77-1.45-6.64-2.35-17.42-2.35-6.78,0-13.77.37-15.1.45h-.13c-7.71.53-14.91.81-21.39.81-29.91,0-39.1-5.81-41.66-8.31a5.23,5.23,0,0,1-.73-6.06C141,165,151,157,182.56,152a92.7,92.7,0,0,1,14.31-1c22.2,0,45,6.05,45.2,6.12a11.12,11.12,0,0,0,2.81.37,10.75,10.75,0,0,0,2.8-21.13c-.22-.06-25.34-6.85-50.83-6.85Z" transform="translate(-5.73 -4.48)"/><path class="cls-1" d="M138.54,176.88h.78a.75.75,0,0,1,0,1.5h-.81a67.61,67.61,0,0,0-9.93.69h-.1a.75.75,0,0,1-.1-1.49,67.9,67.9,0,0,1,10.16-.7m0-10a78.12,78.12,0,0,0-11.5.79,10.75,10.75,0,0,0,1.44,21.4,10,10,0,0,0,1.44-.1,58.4,58.4,0,0,1,8.59-.6h.8a10.75,10.75,0,0,0,.09-21.5Z" transform="translate(-5.73 -4.48)"/><path class="cls-1" d="M136.39,164.53c1,0,2,0,3,.1a.75.75,0,0,1-.07,1.49h0q-1.44-.09-2.88-.09a42.23,42.23,0,0,0-7.61.68h-.13a.74.74,0,0,1-.74-.62.75.75,0,0,1,.6-.87,44.31,44.31,0,0,1,7.88-.7m0-10a54.7,54.7,0,0,0-9.65.86,10.75,10.75,0,0,0,1.91,21.33,10.4,10.4,0,0,0,1.84-.16h.07a32.49,32.49,0,0,1,5.83-.52c.73,0,1.48,0,2.21.07l.27,0h.43a10.78,10.78,0,0,0,10.74-10,10.75,10.75,0,0,0-10-11.46c-1.2-.08-2.43-.12-3.64-.12Z" transform="translate(-5.73 -4.48)"/><path class="cls-1" d="M212.42,194h.14a.76.76,0,0,1,.61.87c0,.12-2,12.26-2.21,43.58s2.19,44.7,2.21,44.83a.76.76,0,0,1-.6.88h-.14a.74.74,0,0,1-.73-.61c0-.14-2.46-13.64-2.24-45.12s2.21-43.7,2.23-43.82a.75.75,0,0,1,.73-.63m0-10h0a10.71,10.71,0,0,0-10.59,9c-.08.48-2.14,12.91-2.37,45.4-.23,32.33,2.29,46.41,2.4,47a10.74,10.74,0,0,0,10.57,8.8,10.37,10.37,0,0,0,2-.19A10.75,10.75,0,0,0,223,281.48c0-.09-2.25-13.13-2-43S223,196.64,223,196.47a10.73,10.73,0,0,0-8.72-12.3,11.09,11.09,0,0,0-1.9-.17Z" transform="translate(-5.73 -4.48)"/><path class="cls-1" d="M281.1,195.21a.75.75,0,0,1,.34,1.42c-.2.1-20.28,10-69.19,10h-.94a.75.75,0,0,1,0-1.5h.95c48.49,0,68.31-9.78,68.5-9.88a.84.84,0,0,1,.34-.08m0-10h0a10.85,10.85,0,0,0-4.75,1.1c-.59.28-19.58,8.86-64.09,8.86h-.91a10.75,10.75,0,1,0-.06,21.5h1c51.41,0,72.86-10.69,73.75-11.14a10.75,10.75,0,0,0-4.9-20.32Z" transform="translate(-5.73 -4.48)"/><path class="cls-1" d="M282.1,211.7a.75.75,0,0,1,.2,1.47c-21.81,6-46.7,6.93-60.68,6.93-6.72,0-10.92-.22-11.05-.23a.75.75,0,0,1,0-1.5h0c.13,0,4.31.23,11,.23,13.9,0,38.61-1,60.25-6.87a.69.69,0,0,1,.2,0m0-10a10.63,10.63,0,0,0-2.81.37c-20.82,5.69-45.05,6.53-57.64,6.53-6.17,0-10.12-.2-10.4-.21l-.64,0a10.75,10.75,0,0,0-.6,21.48c.5,0,4.81.25,11.61.25,13.68,0,40.09-.94,63.31-7.28a10.75,10.75,0,0,0-2.83-21.12Z" transform="translate(-5.73 -4.48)"/><path class="cls-1" d="M93.24,183a.69.69,0,0,1,.34.09.75.75,0,0,1,.33,1C80.59,209.83,79.73,269.6,79.72,270.2a.75.75,0,0,1-.75.74h0a.74.74,0,0,1-.74-.76c0-.6.87-60.72,14.35-86.8a.76.76,0,0,1,.67-.41m0-10a10.72,10.72,0,0,0-9.55,5.81c-14.54,28.14-15.44,88.72-15.47,91.28a10.74,10.74,0,0,0,10.62,10.88H79a10.79,10.79,0,0,0,10.76-10.62c.2-16.07,3-62.08,13.07-81.66A10.75,10.75,0,0,0,93.24,173Z" transform="translate(-5.73 -4.48)"/><path class="cls-1" d="M79.37,257.47h.07l105.47,4.67a.76.76,0,0,1,.72.73c.44,17.93-4.08,22-4.27,22.15a.74.74,0,0,1-.48.18.77.77,0,0,1-.58-.26.75.75,0,0,1,.08-1.05c.08-.07,4.06-3.94,3.76-20.28L79.38,259a.74.74,0,0,1-.72-.78.75.75,0,0,1,.71-.72m0-10h0A10.75,10.75,0,0,0,78.93,269l94.73,4.2a18.11,18.11,0,0,1-1.09,4.48,10.75,10.75,0,0,0,15.26,15c3.14-2.68,8.29-10.11,7.79-30a10.78,10.78,0,0,0-10.26-10.47L80,247.49l-.64,0Z" transform="translate(-5.73 -4.48)"/><path class="cls-1" d="M71.76,248.82a.79.79,0,0,1,.42.12.75.75,0,0,1,.21,1c-1.37,2.05-2,8.54-2.18,10.87a.74.74,0,0,1-.74.7h0a.75.75,0,0,1-.7-.8c0-.35.55-8.8,2.42-11.6a.73.73,0,0,1,.62-.33m0-10a10.74,10.74,0,0,0-9,4.79c-2.78,4.18-3.75,11.3-4.08,16.53a10.77,10.77,0,0,0,10.08,11.39l.66,0a10.76,10.76,0,0,0,10.72-10.09,40.73,40.73,0,0,1,1-6.64,10.75,10.75,0,0,0-9.38-16Z" transform="translate(-5.73 -4.48)"/><path class="cls-1" d="M120.92,171.17a35.49,35.49,0,0,1,6,.55.75.75,0,0,1,.62.86.77.77,0,0,1-.74.63l-.13,0a34.24,34.24,0,0,0-5.65-.52c-5.53,0-7.55,1.84-7.84,2.69,0,.15-.11.36-.18.62-.6,2.16-2,7.23-6.35,8.31a28.54,28.54,0,0,1-5.78.39c-7,0-17.67-.79-21.94-1.1l-1.39-.1a.75.75,0,0,1,.06-1.5h0l1.4.1c10,.73,17.31,1.1,22,1.1a26.19,26.19,0,0,0,5.28-.34c3.49-.88,4.74-5.35,5.27-7.26.08-.29.14-.53.2-.7.52-1.57,3.06-3.71,9.2-3.71m0-10c-14.08,0-17.86,8.08-18.69,10.56-.09.28-.21.68-.35,1.17,0,.07,0,.17-.08.28H101c-4.41,0-11.55-.36-21.24-1.07L78.25,172h-.69a10.75,10.75,0,0,0-.72,21.47l1.3.1c4.6.34,15.3,1.13,22.69,1.13A35,35,0,0,0,109,194c5.52-1.38,9.61-5.18,12.19-11.33a26.86,26.86,0,0,1,3.75.38,10.75,10.75,0,1,0,3.56-21.2,46.67,46.67,0,0,0-7.61-.68Zm-1.8,21.68Z" transform="translate(-5.73 -4.48)"/><path class="cls-1" d="M78.64,155.54l57.65.48a.75.75,0,0,1,0,1.5h0L78.63,157a.75.75,0,0,1,0-1.5h0m0-10h0a10.75,10.75,0,0,0-.1,21.5l57.65.48h.08a10.75,10.75,0,0,0,.11-21.5l-57.65-.48Z" transform="translate(-5.73 -4.48)"/><path class="cls-1" d="M116.15,160.2c11.84,0,15.6.15,15.65.15a.76.76,0,0,1,0,1.51h-.07c-.06,0-3.8-.15-15.59-.15-6,0-13.94,0-24.55.15s-21.5.16-31.29.16c-19.45,0-34.59-.15-34.81-.16a.75.75,0,0,1,0-1.5h0c.23,0,15.38.16,34.82.16,9.78,0,20.65,0,31.25-.16s18.61-.15,24.57-.15m0-10c-7,0-15.26.05-24.68.15s-19.82.16-31.14.16c-17.83,0-32-.13-34.65-.16h-.17A10.78,10.78,0,0,0,14.76,161,10.74,10.74,0,0,0,25.4,171.85h.07c2.68,0,16.91.16,34.84.16,11.38,0,22,0,31.4-.16s17.57-.15,24.44-.15c10.34,0,14.37.12,15.08.14l.58,0a10.75,10.75,0,0,0,.42-21.5c-.48,0-4.4-.16-16.08-.16Z" transform="translate(-5.73 -4.48)"/><path class="cls-1" d="M120.82,156.15a.8.8,0,0,1,.36.09.75.75,0,0,1,.29,1c0,.06-3.18,6,0,14.39a.76.76,0,0,1-.7,1,.73.73,0,0,1-.7-.48c-3.49-9.13-.1-15.39,0-15.65a.75.75,0,0,1,.66-.39m0-10h0a10.76,10.76,0,0,0-9.4,5.54c-1,1.73-5.58,11.12-.63,24.07a10.81,10.81,0,0,0,10,6.91,10.75,10.75,0,0,0,10-14.59c-1.37-3.58-.61-5.92-.43-6.37A10.78,10.78,0,0,0,126,147.49l0,0a10.81,10.81,0,0,0-5.15-1.32Z" transform="translate(-5.73 -4.48)"/><path class="cls-1" d="M105.91,156.5a.69.69,0,0,1,.28.05.75.75,0,0,1,.42,1,39.51,39.51,0,0,0,.53,25.79.75.75,0,0,1-.45,1,.8.8,0,0,1-.26,0,.74.74,0,0,1-.7-.5,40.37,40.37,0,0,1-.52-26.85.74.74,0,0,1,.7-.47m0-10a10.69,10.69,0,0,0-10,6.77,50.3,50.3,0,0,0,.4,33.94,10.75,10.75,0,0,0,19.84.93,10.66,10.66,0,0,0,.38-8.22,29.73,29.73,0,0,1-.59-18.84,10.73,10.73,0,0,0-10-14.58Z" transform="translate(-5.73 -4.48)"/><path class="cls-1" d="M122.13,130.31a.72.72,0,0,1,.32.08.76.76,0,0,1,.36,1,62.91,62.91,0,0,0-6.23,24.93.74.74,0,0,1-.74.72h0a.75.75,0,0,1-.71-.78,64.23,64.23,0,0,1,6.36-25.52.76.76,0,0,1,.68-.43m0-10h0a10.8,10.8,0,0,0-9.71,6.15,73.81,73.81,0,0,0-7.32,29.34A10.75,10.75,0,0,0,115.35,167h.49a10.72,10.72,0,0,0,10.73-10.27,53.28,53.28,0,0,1,5.27-21.09,10.75,10.75,0,0,0-5.1-14.33,10.85,10.85,0,0,0-4.61-1Z" transform="translate(-5.73 -4.48)"/><path class="cls-1" d="M118.88,125.9a.78.78,0,0,1,.41.12.76.76,0,0,1,.22,1c-6,9.22-11.77,19.16-12.87,29.31a.75.75,0,0,1-.74.67h-.08a.77.77,0,0,1-.67-.83c1.13-10.47,7-20.59,13.1-30a.77.77,0,0,1,.63-.34m0-10a10.69,10.69,0,0,0-9,4.86c-6.83,10.43-13.33,21.81-14.68,34.38A10.77,10.77,0,0,0,104.73,167a11.61,11.61,0,0,0,1.17.06,10.74,10.74,0,0,0,10.69-9.6c.86-8.05,5.93-16.73,11.28-24.91a10.74,10.74,0,0,0-9-16.63Z" transform="translate(-5.73 -4.48)"/><path class="cls-1" d="M174.59,74a2,2,0,0,1,.34,0c1.29.19,1.33,1.85,1.14,2.94a2.16,2.16,0,0,1-.39,1,1.94,1.94,0,0,1-1.19.63,3.89,3.89,0,0,1-.47,0,3.33,3.33,0,0,1-3.14-2.38.74.74,0,0,1,0-.51.71.71,0,0,1,.24-.25A6.55,6.55,0,0,1,174.59,74m0-10A16.52,16.52,0,0,0,165,67.52a10.76,10.76,0,0,0-3.1,3.76,10.6,10.6,0,0,0-.71,7.44A13.4,13.4,0,0,0,174,88.58a12.52,12.52,0,0,0,2.11-.18,11.66,11.66,0,0,0,9.78-9.68,13.05,13.05,0,0,0-2-10,11.21,11.21,0,0,0-7.49-4.57,12.29,12.29,0,0,0-1.82-.14Z" transform="translate(-5.73 -4.48)"/><path class="cls-1" d="M145,72a1.66,1.66,0,0,1,1.2.41c.79.79.66,2.72-.41,3.19a2,2,0,0,1-.68.14h-.21a4.07,4.07,0,0,1-2.26-.7,2.12,2.12,0,0,1-.78-.87,1.1,1.1,0,0,1,.09-1.12,1.61,1.61,0,0,1,.63-.43A6.67,6.67,0,0,1,145,72m0-10a15.94,15.94,0,0,0-6.42,1.47,11.4,11.4,0,0,0-4.48,3.39,11.08,11.08,0,0,0-1.4,11.35A12.18,12.18,0,0,0,137,83.35a14,14,0,0,0,7.89,2.43l.74,0a12.06,12.06,0,0,0,4.17-1,11.66,11.66,0,0,0,6.69-8.61,12.11,12.11,0,0,0-3.26-10.84A11.63,11.63,0,0,0,145,62Z" transform="translate(-5.73 -4.48)"/></g><g id="Layer_5" data-name="Layer 5"><path class="cls-2" d="M220,27.9s3.12-10.26,13.59-8.76,5.1,17.73,5.1,17.73S257.1,46.9,264.43,80c0,0,10.08,33.26,15.7,103.19s2.38,88.57-16.88,94.65-125.93,10.67-171.56,1.64c0,0-14.81-1.78-13.33-15.7,0,0-21.63-.89-17.19-28.74s18.87-52,18.87-52-39.91-1.63-63.31-23.85c0,0,26.4-3.8,79.74-2.91,0,0,14.18-25.84,21.89-30.87,0,0-13-22.22-6.52-38.52,5.63-13.63,27.26-14.82,27.26-14.82s9.78-30.22,43.55-43c0,0-2.66-11,5.34-13.33s10.37,9.78,10.37,9.78S215.9,26.09,220,27.9Z" transform="translate(-5.73 -4.48)"/><path class="cls-3" d="M212.43,283.43s-2.44-13.2-2.22-45,2.22-43.7,2.22-43.7l-7.26-10.33-55.91-16.35-33.42-1.48c-.16,0-22.6,17.13-22.6,17.13C79.68,209.94,79,270.19,79,270.19c.57,1.6.46,7.67,23.18,11S151,284.41,151,284.41s40.57-.77,42.05-.47S212.43,283.43,212.43,283.43Z" transform="translate(-5.73 -4.48)"/><path class="cls-1" d="M170.38,76.76s-.4-3.89,15.16-2.88,15,2.21,15.15,2.88-.14,3.42-15.15,2.88S170.25,78.1,170.38,76.76Z" transform="translate(-5.73 -4.48)"/><path class="cls-1" d="M141.15,74.28s-.67-2.82,9.46-2.15,10.19,2.62,10.19,2.62.19,2.78-9.83,2S141.15,74.28,141.15,74.28Z" transform="translate(-5.73 -4.48)"/><path class="cls-2" d="M244.88,146.68s-36-9.78-64-5.34C157,145.13,135.39,152,128.47,166.12a16,16,0,0,0,2.89,18.48c12,11.72,42.94,12.5,71.29,10.52,0,0,23.11-1.31,26.89.68" transform="translate(-5.73 -4.48)"/><path class="cls-4" d="M118.88,126.65c-5.8,8.86-11.85,19.11-13,29.64,2.42-.28,5.25.64,7.72.55.78,0,1.78-.66,2.22-.55a63.71,63.71,0,0,1,6.29-25.23" transform="translate(-5.73 -4.48)"/><path class="cls-5" d="M19.92,159c3-.47,6-.42,9-.82A122.47,122.47,0,0,1,44.47,157c3.12,0,6.21.25,9.33.25,3.29,0,6.56-.49,9.84-.65,11.2-.55,22.52-1.09,33.73-.73,3.16.1,6.29.16,9.43.4a7.37,7.37,0,0,0-2,3.18,16.6,16.6,0,0,1-1,2.51c-1.31,2.21-5.31,2.94-7.56,3.4-8.07,1.65-16.52,1.33-24.7,1-7.55-.28-15.12-.73-22.65-1.39-5.51-.48-11-1.38-16.51-1.81-3-.22-6.25.48-9.18-.24-1.65-.4-1.49-.71-2-1.92A15.69,15.69,0,0,1,20,158.63C20.07,158.75,20.18,158.86,19.92,159Z" transform="translate(-5.73 -4.48)"/><path class="cls-6" d="M22.18,161.12c8.18,0,16.32.66,24.5.31,10.88-.46,21.83-.82,32.74-.82,4.35,0,8.69-.12,13-.12,2.93,0,6.58.51,9.48.25a17.59,17.59,0,0,1,3.73-.36A70.86,70.86,0,0,0,103.41,171c-.22,1.76.59,3,1.16,4.73a17.41,17.41,0,0,1,.22,3.39c.32,3.1-7.39,1.24-8.94,1.06-9.37-1.06-18.91-.29-28.21-2-11.66-2.15-22.4-8-33.59-11.62a57.75,57.75,0,0,1-5.82-2.81,27.78,27.78,0,0,0-4-1.7C23.35,161.82,22.56,162.07,22.18,161.12Z" transform="translate(-5.73 -4.48)"/><path class="cls-7" d="M104.77,177.63s-62.81.69-81.7-18.91c-1.77.19-3.78.32-5.55.5,2.9,2.37,5.17,5,8.34,7,3,1.9,6.16,3.82,9.29,5.45,6.25,3.27,13,4.76,19.71,6.8a118.59,118.59,0,0,0,23,4.89c7.39.71,14.73.56,22.14.89,1.11.05,5.64.56,6.32-.81.38-.76-.74-2.34-1-3a11.69,11.69,0,0,1-.5-1.81C104.76,178.48,104.71,177.13,104.77,177.63Z" transform="translate(-5.73 -4.48)"/><path class="cls-8" d="M104.67,161.12c-2,4.43-1.14,10.09-.1,14.61a58.35,58.35,0,0,0,1.49,6c.54,1.55,1.46,1.54,2.82.39a15.68,15.68,0,0,0,2.87-4,6.93,6.93,0,0,0,.92-2.2c.11-.62-.13-1.51.18-2.08,1.19-2.12,7.11-.77,7.31-2.86.07-.8-.66-2.11-.82-2.94a10.43,10.43,0,0,1-.19-2.51,24.48,24.48,0,0,1,.87-4.63c-2.75-.18-5.6-.15-8.36-.15C110.41,160.74,104.14,160.32,104.67,161.12Z" transform="translate(-5.73 -4.48)"/><path class="cls-9" d="M106.18,156.33c-.37.41-1.82,3.33-1.36,4,.36.52,2.9.4,3.46.4,3.83,0,7.67,0,11.48-.15.23-1.33.93-2.61,1.14-3.86a20.24,20.24,0,0,0-3.54.23,36.24,36.24,0,0,1-5.51-.24C110.83,156.6,106.51,155.84,106.18,156.33Z" transform="translate(-5.73 -4.48)"/><path class="cls-10" d="M120.91,156.71a7.21,7.21,0,0,0-1.36,4.14c3-.9,6.53-.24,9.61-.24,1.63,0,2.38.12,3.51-1.08a22.93,22.93,0,0,0,2.56-2.82c-2.38-.87-5.21-.24-7.65-.13s-4.85.19-7.29.12C120.76,156.76,121.23,156.9,120.91,156.71Z" transform="translate(-5.73 -4.48)"/><path class="cls-11" d="M119.45,161.07c-.64,2.62.12,5.26.68,7.81.16.73.21,2,.73,2.55s1.84.49,2.58.49a25.83,25.83,0,0,0,2.86.18,13.47,13.47,0,0,1,1.17-3.33,20.27,20.27,0,0,1,.9-2.55c.79-1.54,2.14-2.68,2.94-4.18.24-.46.35-.57-.14-.74a6.86,6.86,0,0,0-1.12-.14,15.86,15.86,0,0,0-2.38-.24,50.93,50.93,0,0,0-6.54.1,9.48,9.48,0,0,1-1.2,0C119.39,161.07,118.47,161,119.45,161.07Z" transform="translate(-5.73 -4.48)"/><path class="cls-12" d="M190.34,27.48a87,87,0,0,0,9.33-1.87l-1.31,0s-2.1-10.76-9-10A19.57,19.57,0,0,1,190.34,27.48Z" transform="translate(-5.73 -4.48)"/><path class="cls-12" d="M78.42,267.88a77.31,77.31,0,0,1,1-12.67c-5.54.09-10.4-3-13.44-9.67a53.52,53.52,0,0,1-4-14.66q-.41,2.07-.75,4.17c-4.44,27.85,17.19,28.74,17.19,28.74A16.25,16.25,0,0,0,78.42,267.88Z" transform="translate(-5.73 -4.48)"/><path class="cls-13" d="M273.55,125.28l0-.21,0,.21Z" transform="translate(-5.73 -4.48)"/><path class="cls-13" d="M271.3,111.57h0v0Z" transform="translate(-5.73 -4.48)"/><path class="cls-13" d="M226.32,142.47a40.42,40.42,0,0,1,13.89,3.1c4.64-5.66,17.42-12.58,25.75-16.7-.66-4.43-1.4-8.85-2.25-13.26C252.8,121.62,233.22,133.21,226.32,142.47Z" transform="translate(-5.73 -4.48)"/><path class="cls-13" d="M281.1,196h0v0Z" transform="translate(-5.73 -4.48)"/><polygon class="cls-13" points="276.37 207.97 276.37 207.96 276.37 207.97 276.37 207.97"/><path class="cls-13" d="M211.31,205.92l-.69,13.2s28.83,1.64,57.61-3.57c.48-5.17.82-10.38,1.06-15.61C258.49,202.75,239.81,206,211.31,205.92Z" transform="translate(-5.73 -4.48)"/><path class="cls-12" d="M271.31,111.66l2.2,13.41C272.77,120.2,272,115.72,271.31,111.66Z" transform="translate(-5.73 -4.48)"/><path class="cls-12" d="M264.43,80c-7.33-33.11-25.72-43.14-25.72-43.14s5.09-15.4-4.33-17.58c3.08,5.34-2.46,11.84-5.45,17.29,12.95,12.28,20.88,28.16,26.23,45.06a297.71,297.71,0,0,1,8.55,34c4.54-2.5,7.58-4,7.59-4C267.56,90.34,264.43,80,264.43,80Z" transform="translate(-5.73 -4.48)"/><path class="cls-12" d="M282.1,212.45c-4.54,1.24-9.2,2.26-13.87,3.1a228.21,228.21,0,0,1-6,36c-2.43,9.49-5.3,18.85-8.2,28.21a67,67,0,0,0,9.25-1.93C279.49,272.72,284.35,258.66,282.1,212.45Z" transform="translate(-5.73 -4.48)"/><path class="cls-12" d="M281.1,196l1,16.45Q281.73,204.82,281.1,196Z" transform="translate(-5.73 -4.48)"/><path class="cls-12" d="M280.13,183.2c-1.88-23.37-4.25-42.62-6.59-57.92,0,0-3.17,1.41-7.58,3.59a368.58,368.58,0,0,1,3.53,66c-.06,1.69-.13,3.38-.2,5.06a64.49,64.49,0,0,0,11.81-4Q280.68,189.89,280.13,183.2Z" transform="translate(-5.73 -4.48)"/><path class="cls-14" d="M273.51,125.07l-2.2-13.41v-.09s-3.05,1.54-7.59,4c.85,4.41,1.59,8.83,2.25,13.26,4.41-2.18,7.57-3.59,7.58-3.59Z" transform="translate(-5.73 -4.48)"/><path class="cls-14" d="M282.1,212.44l-1-16.45v0a64.49,64.49,0,0,1-11.81,4c-.24,5.23-.58,10.44-1.06,15.61,4.67-.84,9.33-1.86,13.87-3.1Z" transform="translate(-5.73 -4.48)"/><path class="cls-12" d="M199.67,189.67c-16.79.3-70.74,4-71.2-23.54a16,16,0,0,0,2.89,18.47c12,11.72,42.94,12.5,71.29,10.52,0,0,23.11-1.31,26.89.68C229.54,195.8,208.58,189.51,199.67,189.67Z" transform="translate(-5.73 -4.48)"/></g><g id="Layer_4" data-name="Layer 4"><path class="cls-15" d="M220,27.9s3.12-10.26,13.59-8.76,5.1,17.73,5.1,17.73S257.1,46.9,264.43,80c0,0,10.08,33.26,15.7,103.19s2.38,88.57-16.88,94.65-125.93,10.67-171.56,1.64c0,0-14.81-1.78-13.33-15.7,0,0-21.63-.89-17.19-28.74s18.87-52,18.87-52-39.91-1.63-63.31-23.85c0,0,26.4-3.8,79.74-2.91,0,0,14.18-25.84,21.89-30.87,0,0-13-22.22-6.52-38.52,5.63-13.63,27.26-14.82,27.26-14.82s9.78-30.22,43.55-43c0,0-2.66-11,5.34-13.33s10.37,9.78,10.37,9.78S215.9,26.09,220,27.9Z" transform="translate(-5.73 -4.48)"/><path class="cls-16" d="M176.48,31.76a86.35,86.35,0,0,1,29.16-5.84" transform="translate(-5.73 -4.48)"/><path class="cls-16" d="M220.4,32.24s-1.41-3.92.75-6.84" transform="translate(-5.73 -4.48)"/><path class="cls-16" d="M236.43,38.14s1.59-.69,3-4.07" transform="translate(-5.73 -4.48)"/><path class="cls-16" d="M168.91,67.84s.54,4.16,6.1,2.75,16-7.11,16-7.11" transform="translate(-5.73 -4.48)"/><path class="cls-16" d="M170.38,76.76s-.4-3.89,15.16-2.88,15,2.21,15.15,2.88-.14,3.42-15.15,2.88S170.25,78.1,170.38,76.76Z" transform="translate(-5.73 -4.48)"/><path class="cls-16" d="M141.15,74.28s-.67-2.82,9.46-2.15,10.19,2.62,10.19,2.62.19,2.78-9.83,2S141.15,74.28,141.15,74.28Z" transform="translate(-5.73 -4.48)"/><path class="cls-16" d="M148.13,62.21s7.91,7.31,10.32,8.11,2.35-3.14,2.35-3.14" transform="translate(-5.73 -4.48)"/><ellipse cx="131.23" cy="81.03" rx="11.16" ry="5.13"/><path class="cls-16" d="M128.48,120.34a28,28,0,0,1,18,0" transform="translate(-5.73 -4.48)"/><path class="cls-16" d="M117.63,124.09s5.69,8.25,8.64,11.34" transform="translate(-5.73 -4.48)"/><path class="cls-16" d="M271.3,111.57s-35.21,17.79-45,30.9" transform="translate(-5.73 -4.48)"/><path class="cls-16" d="M273.55,125.28s-26.23,11.62-33.34,20.29" transform="translate(-5.73 -4.48)"/><path class="cls-16" d="M244.88,146.68s-36-9.78-64-5.34C157,145.13,135.39,152,128.47,166.12a16,16,0,0,0,2.89,18.48c12,11.72,42.94,12.5,71.29,10.52,0,0,23.11-1.31,26.89.68" transform="translate(-5.73 -4.48)"/><path class="cls-16" d="M128.48,178.32a67.75,67.75,0,0,1,10.84-.69" transform="translate(-5.73 -4.48)"/><path class="cls-16" d="M128.65,166a43.82,43.82,0,0,1,10.67-.59" transform="translate(-5.73 -4.48)"/><path class="cls-16" d="M212.43,194.75s-2,11.93-2.22,43.7,2.22,45,2.22,45" transform="translate(-5.73 -4.48)"/><path class="cls-16" d="M281.1,196s-19.79,10.09-69.79,10" transform="translate(-5.73 -4.48)"/><path class="cls-16" d="M210.62,219.12s38.93,2.21,71.48-6.67" transform="translate(-5.73 -4.48)"/><path class="cls-16" d="M79,270.19s.71-60.25,14.27-86.47" transform="translate(-5.73 -4.48)"/><path class="cls-16" d="M180.88,284.46s4.44-3.78,4-21.56L79.41,258.23" transform="translate(-5.73 -4.48)"/><path class="cls-16" d="M69.46,260.8s.53-8.57,2.3-11.23" transform="translate(-5.73 -4.48)"/><path class="cls-16" d="M77.55,182.73c2.58.17,24.44,2,28.88.84s5.56-7.12,6-8.45,3.76-4.44,14.33-2.67" transform="translate(-5.73 -4.48)"/><line class="cls-16" x1="130.55" y1="152.29" x2="72.91" y2="151.81"/><path class="cls-16" d="M25.5,161.1s34,.36,66.09,0,40.18,0,40.18,0" transform="translate(-5.73 -4.48)"/><path class="cls-16" d="M120.82,156.9s-3.41,6.12,0,15" transform="translate(-5.73 -4.48)"/><path class="cls-16" d="M105.91,157.25a39.94,39.94,0,0,0,.52,26.32" transform="translate(-5.73 -4.48)"/><path class="cls-16" d="M115.84,156.29a63.71,63.71,0,0,1,6.29-25.23" transform="translate(-5.73 -4.48)"/><path class="cls-16" d="M105.9,156.29c1.13-10.53,7.18-20.78,13-29.64" transform="translate(-5.73 -4.48)"/><path d="M176.07,77a2.16,2.16,0,0,1-.39,1,1.94,1.94,0,0,1-1.19.63,3.31,3.31,0,0,1-3.61-2.34.74.74,0,0,1,0-.51.71.71,0,0,1,.24-.25,6,6,0,0,1,3.8-1.42C176.22,74.21,176.26,75.87,176.07,77Z" transform="translate(-5.73 -4.48)"/><path d="M145.75,75.63a2,2,0,0,1-.68.14,4,4,0,0,1-2.47-.69,2.12,2.12,0,0,1-.78-.87,1.1,1.1,0,0,1,.09-1.12,1.61,1.61,0,0,1,.63-.43c.93-.41,2.76-1.07,3.62-.22S146.82,75.16,145.75,75.63Z" transform="translate(-5.73 -4.48)"/></g></svg>