<svg xmlns="http://www.w3.org/2000/svg" viewBox="0 0 292.22 291.57"><defs><style>.cls-1{fill:#fff;}.cls-2{fill:#433d41;}.cls-3{fill:#473c42;}.cls-4{fill:none;stroke:#030303;stroke-linecap:round;stroke-linejoin:round;stroke-width:2px;}.cls-5{fill:#85726b;}.cls-6{fill:#eed6ca;}.cls-7{fill:#030303;}</style></defs><title>we bare bears cute panda</title><g id="Layer_6" data-name="Layer 6"><path class="cls-1" d="M180.06,14.22a83.7,83.7,0,0,1,8.36.42c25.39,2.55,38.77,15.19,41.81,18.41A15.13,15.13,0,0,1,238.88,30a11.85,11.85,0,0,1,6.48,2,7.1,7.1,0,0,1,3.22,4.77c1.08,5.6-3.46,12.88-4.7,14.74l4.05,11.62c3.62,1.55,28.47,13.08,28.7,36.85a65.78,65.78,0,0,1-14,40.6c5.47,1.1,21.53,5.94,23.22,25.25,1.81,20.52-6.72,31.17-8.82,33.45,11.88,38.39,3.91,71.78,3.82,72.12a1,1,0,0,1-.58.68c-.33.14-33.73,13.76-101.58,13.76h-1.81c-69.15-.25-88.55-11.6-89.34-12.09a.93.93,0,0,1-.35-.36c-10.89-19.51-8.39-59.29-7.72-67.72a72.51,72.51,0,0,1-20.92,3.27c-13.69,0-30.18-4.64-38.83-24.21-10.7-24.2-4.26-39.71.53-46.8A31.89,31.89,0,0,1,46.7,123.54l1.07,0c19.38.65,22,20,22.32,26.1L80,143.54C67.58,130.87,59.17,96.76,73,74.76c12.16-19.31,33.29-20.69,39-20.69l.9,0,6.48-9.28c-1.67-2.65-7.74-13.56-.57-21.36a15.72,15.72,0,0,1,11.71-5.26,16.33,16.33,0,0,1,3.09.3c3.85.73,7.11,2.81,8.65,5.44,3.68-2.24,17.5-9.71,37.75-9.71M141.9,26.37a.92.92,0,0,1-.29,0,1,1,0,0,1-.64-.6c-1-2.5-4-4.57-7.68-5.28a14.71,14.71,0,0,0-2.71-.26,13.77,13.77,0,0,0-10.25,4.61c-7.09,7.72,1,19.34,1.12,19.45a1,1,0,0,1,0,1.16l-7.18,10.27a1,1,0,0,1-.81.43h-.08s-.52,0-1.37,0c-5.42,0-25.68,1.29-37.3,19.76C61,97.57,69.85,131.55,82.25,143a1,1,0,0,1,.32.83,1,1,0,0,1-.47.76l-12.44,7.71a1,1,0,0,1-.53.15,1.13,1.13,0,0,1-.5-.13,1,1,0,0,1-.5-.9c0-1,.45-25.14-20.43-25.84l-1,0A30,30,0,0,0,21.88,139c-4.55,6.74-10.66,21.55-.35,44.87,8.22,18.6,24,23,37.06,23a68.55,68.55,0,0,0,21.63-3.64.92.92,0,0,1,.36-.07,1,1,0,0,1,.6.21,1,1,0,0,1,.39.89c0,.46-4.28,46.84,7.21,67.83,2.3,1.23,23.48,11.45,88.08,11.68h1.82c63.09,0,96.06-11.78,100.32-13.42.94-4.29,7.09-35.58-4.07-71.11a1,1,0,0,1,.26-1c.1-.11,10.57-10.45,8.65-32.28-1.89-21.52-22.36-23.65-23.23-23.73a1,1,0,0,1-.64-1.68,63.18,63.18,0,0,0,14.66-40.6c-.24-24.17-27.59-35.08-27.86-35.19a1,1,0,0,1-.59-.6l-4.35-12.52a1,1,0,0,1,.13-.91c0-.08,5.72-8.15,4.65-13.64a5.06,5.06,0,0,0-2.34-3.46A10,10,0,0,0,238.8,32a13,13,0,0,0-8,3.2,1,1,0,0,1-.67.27h-.07a1,1,0,0,1-.7-.35c-.13-.16-13.46-15.65-41.13-18.43a80.74,80.74,0,0,0-8.2-.42c-23,0-37.39,9.87-37.55,10a1,1,0,0,1-.57.18m138,244.73h0M180.06,4.22a88.32,88.32,0,0,0-36.18,7.64,25,25,0,0,0-8.35-3.2,26.79,26.79,0,0,0-5-.47,25.65,25.65,0,0,0-19.08,8.5C104,24.89,104.34,35.3,107.82,44l-.21.29c-10.31.85-30.47,5.17-43.06,25.18C56,83.08,54.42,99.82,56.89,115a34.6,34.6,0,0,0-8.78-1.42l-1.41,0a42,42,0,0,0-34.76,18.73c-5.95,8.8-14,27.84-1.38,56.45,8.6,19.44,25.63,30.16,48,30.16a76.1,76.1,0,0,0,10.27-.71c-.44,17.25.61,43.86,9.64,60a11,11,0,0,0,3.86,4c3.65,2.23,25.3,13.31,94.52,13.56h1.85c69.81,0,104-13.94,105.43-14.53a11.06,11.06,0,0,0,6.45-7.54c.07-.31,8.05-33.49-2.55-72.5,4.14-6.43,9.37-18.38,7.79-36.32-1.26-14.37-8.94-23.79-18.11-29.19a74.38,74.38,0,0,0,8.95-35.88c-.12-12.73-5.79-24.51-16.38-34.08A70.81,70.81,0,0,0,256,55.87l-1.16-3.34c2.5-4.81,4.78-11.33,3.55-17.72a17.19,17.19,0,0,0-7.63-11.28A21.73,21.73,0,0,0,238.88,20a23,23,0,0,0-7,1.12c-7.51-6-21.45-14.29-42.47-16.4a91.81,91.81,0,0,0-9.36-.47ZM148.13,34.44c.4-.26,12.69-8.23,31.89-8.23,2.38,0,4.8.13,7.2.37,22.86,2.29,33.92,14.3,34.56,15a11.06,11.06,0,0,0,7.58,3.79c.25,0,.51,0,.76,0a11.08,11.08,0,0,0,3.81-.68l-.17.25a11,11,0,0,0-1.37,9.92l4.35,12.52a11,11,0,0,0,6.34,6.62c.53.22,21.38,9,21.55,26a53.83,53.83,0,0,1-12,33.74,11,11,0,0,0,7.08,18.4,19.77,19.77,0,0,1,7.32,2.63c4.19,2.58,6.38,6.4,6.87,12,1.42,16.11-5.25,23.77-5.8,24.37a10.94,10.94,0,0,0-2.7,11,140.56,140.56,0,0,1,4.81,60.56c-11.67,3.57-41.87,11-91.51,11H176.9c-51.13-.18-73.54-6.63-80.71-9.34-6.77-16.27-5.72-47.8-4.66-59.24a11,11,0,0,0-11-12,11.09,11.09,0,0,0-3.87.7,59,59,0,0,1-18.12,3c-13.7,0-22.83-5.58-27.91-17.06-8.37-18.92-3.91-30.2-.51-35.24a20.09,20.09,0,0,1,16.56-9h.64c4.63.16,7.26,2,9.05,6.4a26.17,26.17,0,0,1,1.72,9.19,11,11,0,0,0,5.5,9.82,11,11,0,0,0,11.31-.2l12.42-7.69A11,11,0,0,0,89,135.63c-8.7-8-17.15-36.53-5.86-54.47,8.81-14,24.3-15.09,28.84-15.09.41,0,.67,0,.73,0l.72,0a11,11,0,0,0,9-4.7l7.18-10.28a11,11,0,0,0,0-12.59c-1.41-2.08-2.84-6-2-7a3.82,3.82,0,0,1,2.88-1.37,4.76,4.76,0,0,1,.83.08,4.1,4.1,0,0,1,.75.22,11,11,0,0,0,16,3.95Z" transform="translate(-3.86 -4.22)"/><path class="cls-1" d="M233.54,139.73h.56c8.69.16,15.57,2.81,20.45,7.87,7.78,8.08,7.66,19.3,7.65,19.77a1,1,0,0,1-1,1h0a1,1,0,0,1-1-1c0-1,.13-25.13-26.13-25.6h-.51c-10.9,0-16.23,6.32-18.79,11.68-5.92,12.36-3.05,31.61,6.4,42.91,6.09,7.28,16.3,9.84,26.1,9.84a60.07,60.07,0,0,0,12.64-1.37c9.87-2.17,17.26-6.45,18.4-10.67a1,1,0,0,1,1-.74,1.24,1.24,0,0,1,.27,0,1,1,0,0,1,.7,1.23c-1.35,5-9.16,9.75-19.9,12.1a62,62,0,0,1-13,1.41c-10.33,0-21.17-2.74-27.7-10.55-9.9-11.85-12.89-32.06-6.67-45,2.82-5.88,8.66-12.82,20.58-12.82m0-10c-13.38,0-23.89,6.57-29.6,18.5-7.88,16.47-4.36,41,8,55.78,7.62,9.12,20.18,14.14,35.37,14.14a72.56,72.56,0,0,0,15.16-1.64c15-3.29,25-10.31,27.41-19.26a11,11,0,0,0-7.7-13.48,11,11,0,0,0-13.2,6.69c-1.17,1-4.91,3.17-11.23,4.56a50,50,0,0,1-10.5,1.14c-4.93,0-13.88-.82-18.43-6.26-6.93-8.29-9.29-23.32-5.05-32.17,2-4.15,5-6,9.77-6h.33c9.32.17,12.53,4.08,14.12,7a19.66,19.66,0,0,1,2.19,8.45,11,11,0,0,0,10.61,11.15h.39a11.06,11.06,0,0,0,11-10.78c0-1.63,0-16.07-10.45-26.9-6.79-7-16-10.73-27.47-10.94Z" transform="translate(-3.86 -4.22)"/><path class="cls-1" d="M67.58,139.73a1,1,0,0,1,1,.71c.07.26,7.49,26-12.74,41.15a1,1,0,0,1-.6.2,1,1,0,0,1-.8-.4,1,1,0,0,1,.2-1.4c19.12-14.35,12.09-38.73,12-39a1,1,0,0,1,.67-1.24,1,1,0,0,1,.29,0m0-10A11,11,0,0,0,57,143.79c.26.94,4.8,18.29-8.41,28.2a11,11,0,1,0,13.19,17.6c10.65-8,16.86-19.53,18-33.38a55.65,55.65,0,0,0-1.63-18.63,11.07,11.07,0,0,0-10.54-7.85Z" transform="translate(-3.86 -4.22)"/><path class="cls-1" d="M81.56,179.78h.06a1,1,0,0,1,.95,1l-1.76,38.58a1,1,0,0,1-1,1h0a1,1,0,0,1-1-1l1.76-38.58a1,1,0,0,1,1-1m0-10a11,11,0,0,0-11,10.51l-1.76,38.57A11,11,0,0,0,79.3,230.35h.51a11,11,0,0,0,11-10.5l1.76-38.57A11,11,0,0,0,82.13,169.8l-.57,0Z" transform="translate(-3.86 -4.22)"/><path class="cls-1" d="M81.57,142.72a1,1,0,0,1,.81.41c.07.09,7,9.4,26.15,16.62,11.62,4.39,29.42,8.57,55,8.57a297.44,297.44,0,0,0,47-4l.16,0a1,1,0,0,1,.16,2,299,299,0,0,1-47.3,4.06c-26,0-44.13-4.29-55.95-8.78C88,154.1,81.05,144.7,80.76,144.3a1,1,0,0,1,.23-1.39,1,1,0,0,1,.58-.19m0-10a10.87,10.87,0,0,0-6.46,2.1,11,11,0,0,0-2.45,15.34c1.46,2,9.85,12.55,31.4,20.73,16.47,6.26,36.49,9.43,59.5,9.43a311.81,311.81,0,0,0,48.88-4.18,11,11,0,0,0-1.74-21.87,10.86,10.86,0,0,0-1.71.14,290.28,290.28,0,0,1-45.44,3.91c-25.2,0-41.91-4.31-51.49-7.92-15.37-5.8-21.4-12.94-21.72-13.33a11,11,0,0,0-8.77-4.35Z" transform="translate(-3.86 -4.22)"/><path class="cls-1" d="M263.89,136.18a1,1,0,0,1,.51.15,1,1,0,0,1,.34,1.37,22.56,22.56,0,0,1-12.65,9.75,1,1,0,0,1-.24,0,1,1,0,0,1-.25-2A20.94,20.94,0,0,0,263,136.66a1,1,0,0,1,.86-.48m0-10h0a11.09,11.09,0,0,0-9.41,5.29,11.14,11.14,0,0,1-5.58,4.41,11,11,0,0,0,2.95,21.6,10.88,10.88,0,0,0,2.78-.36,32.76,32.76,0,0,0,18.66-14.23,11,11,0,0,0-9.4-16.71Z" transform="translate(-3.86 -4.22)"/><path class="cls-1" d="M185.8,59.54c.61,0,1.23,0,1.84.07,16.3,1.34,27.6,16.08,28.07,16.7a1,1,0,0,1-.2,1.4,1,1,0,0,1-.6.2,1,1,0,0,1-.8-.39c-.11-.15-11.24-14.65-26.63-15.91-.55,0-1.1-.07-1.65-.07-15,0-31.32,15.92-31.49,16.09a1,1,0,0,1-.7.28,1,1,0,0,1-.72-.29,1,1,0,0,1,0-1.42c.72-.7,17.09-16.66,32.87-16.66m0-10c-19.51,0-37.86,17.54-39.89,19.54a11,11,0,0,0-.11,15.56,11.07,11.07,0,0,0,7.84,3.27,11,11,0,0,0,7.72-3.16c3.5-3.41,15.58-13.21,24.47-13.21.28,0,.56,0,.83,0,8.89.73,17.09,8.92,19.52,12a11,11,0,0,0,17.51-13.31c-1.46-1.93-14.85-19-35.23-20.64-.87-.08-1.77-.11-2.66-.11Z" transform="translate(-3.86 -4.22)"/><path class="cls-1" d="M242.79,61.45a.87.87,0,0,1,.35.07l7.94,3a1,1,0,0,1-.36,1.94,1.15,1.15,0,0,1-.36-.07l-7.93-3.05a1,1,0,0,1-.58-1.29,1,1,0,0,1,.94-.64m0-10a11.07,11.07,0,0,0-10.28,7.06,11,11,0,0,0,6.34,14.21l7.93,3A11,11,0,0,0,261,69.43a11,11,0,0,0-6.33-14.2l-7.93-3a11.13,11.13,0,0,0-3.94-.73Z" transform="translate(-3.86 -4.22)"/><path class="cls-1" d="M116.82,54.09a1,1,0,0,1,0,2h-4.73a1,1,0,0,1,0-2h4.73m0-10h-4.73a11,11,0,0,0,0,22h4.73a11,11,0,0,0,0-22Z" transform="translate(-3.86 -4.22)"/><path class="cls-1" d="M147.07,21.47a1,1,0,0,1,.47,1.89c-16.42,8.72-27.24,23.7-27.35,23.85a1,1,0,0,1-.81.41,1,1,0,0,1-.58-.18,1,1,0,0,1-.23-1.4c.11-.15,11.2-15.5,28-24.45a1,1,0,0,1,.47-.12m0-10a11.12,11.12,0,0,0-5.15,1.28c-18.9,10.05-31,26.77-31.49,27.48A11,11,0,0,0,128.33,53c.07-.1,9.78-13.33,23.9-20.83a11,11,0,0,0-5.16-20.72Z" transform="translate(-3.86 -4.22)"/><path class="cls-1" d="M228,31.26a1.05,1.05,0,0,1,.68.26c.49.46,12.2,11.25,15.82,21.67a1,1,0,0,1-.62,1.27.87.87,0,0,1-.32.06,1,1,0,0,1-1-.67c-3.46-10-15.17-20.74-15.28-20.85a1,1,0,0,1-.07-1.42,1,1,0,0,1,.74-.32m0-10h0a11,11,0,0,0-7.42,19.12c3.83,3.54,10.67,11.25,12.59,16.75a11,11,0,1,0,20.77-7.23c-4.37-12.57-17.08-24.45-18.52-25.76A11,11,0,0,0,228,21.26Z" transform="translate(-3.86 -4.22)"/><path class="cls-1" d="M159.18,78.63a1,1,0,0,1,.93.62c.09.21,8.47,21.31-7.13,35.64a1,1,0,0,1-.67.26,1,1,0,0,1-.74-.32,1,1,0,0,1,.06-1.41C166.19,100,158.34,80.21,158.26,80a1,1,0,0,1,.55-1.31,1,1,0,0,1,.37-.07m0-10A11,11,0,0,0,149,83.68c.3.79,5.07,13.95-4.1,22.37a11,11,0,0,0,14.88,16.21c8.57-7.88,13-18.49,12.69-30.71a49.18,49.18,0,0,0-3.07-16.1,11,11,0,0,0-10.18-6.82Z" transform="translate(-3.86 -4.22)"/><path class="cls-1" d="M214.9,81.67a1,1,0,0,1,.7,1.71l-.24.2C212.18,86,202,95.82,204.47,121.76a1,1,0,0,1-.9,1.09h-.1a1,1,0,0,1-1-.91c-2.54-27,8.29-37.41,11.67-40l.1-.08a1.05,1.05,0,0,1,.65-.23m0-10A11,11,0,0,0,208.14,74l0,0c-5.64,4.26-18.51,17.61-15.57,48.86a11,11,0,0,0,10.95,10c.34,0,.68,0,1-.05a11,11,0,0,0,10-12c-2.06-21.79,6-28.58,7-29.28a12.59,12.59,0,0,0,1.12-1,11,11,0,0,0-7.61-18.93Z" transform="translate(-3.86 -4.22)"/><path class="cls-1" d="M161.45,93.2a1,1,0,0,1,.69.28c.07.07,4.77,4.34,19.19,6.44a61.73,61.73,0,0,0,9,.67c9,0,14-2.15,14.12-2.18a1,1,0,0,1,.4-.08,1,1,0,0,1,.4,1.91c-.28.13-5.5,2.36-14.84,2.36a64.34,64.34,0,0,1-9.37-.7c-15.22-2.21-20.09-6.79-20.29-7a1,1,0,0,1,0-1.42,1,1,0,0,1,.72-.3m0-10a11.08,11.08,0,0,0-7.9,3.34,11,11,0,0,0,.24,15.56c1.7,1.64,8.56,7.19,25.81,9.7a76,76,0,0,0,10.81.8c11,0,17.65-2.67,18.87-3.2a11,11,0,0,0-4.43-21.07,10.85,10.85,0,0,0-4.24.85,31.69,31.69,0,0,1-10.28,1.41,53.68,53.68,0,0,1-7.56-.56c-9.7-1.42-13.64-3.84-14.19-4.2a10.94,10.94,0,0,0-7.13-2.63Z" transform="translate(-3.86 -4.22)"/><path class="cls-1" d="M159.87,101.71a1,1,0,0,1,.62.22c.12.09,9.25,7.13,24.64,7.13a56.44,56.44,0,0,0,18-3.07.86.86,0,0,1,.32,0,1,1,0,0,1,.31,1.94,58.06,58.06,0,0,1-18.63,3.18c-16.15,0-25.78-7.46-25.91-7.56a1,1,0,0,1,.63-1.79m0-10A11,11,0,0,0,153,111.32c.5.39,12.45,9.74,32.14,9.74a68.4,68.4,0,0,0,21.82-3.7,11,11,0,0,0-7-20.87,46.78,46.78,0,0,1-14.88,2.57c-11.27,0-18-4.66-18.56-5.07a11.06,11.06,0,0,0-6.7-2.28Z" transform="translate(-3.86 -4.22)"/><path class="cls-1" d="M168.52,96.9a1,1,0,0,1,1,1v9.31a1,1,0,1,1-2,0V97.9a1,1,0,0,1,1-1m0-10a11,11,0,0,0-11,11v9.31a11,11,0,1,0,22,0V97.9a11,11,0,0,0-11-11Z" transform="translate(-3.86 -4.22)"/><path class="cls-1" d="M188.72,100.6a1,1,0,0,1,1,1V110a1,1,0,1,1-2,0V101.6a1,1,0,0,1,1-1m0-10a11,11,0,0,0-11,11V110a11,11,0,1,0,22,0V101.6a11,11,0,0,0-11-11Z" transform="translate(-3.86 -4.22)"/><path class="cls-1" d="M199.24,99.84a1,1,0,0,1,1,1v7.36a1,1,0,0,1-2,0v-7.36a1,1,0,0,1,1-1m0-10a11,11,0,0,0-11,11v7.36a11,11,0,0,0,22,0v-7.36a11,11,0,0,0-11-11Z" transform="translate(-3.86 -4.22)"/><path class="cls-1" d="M187.39,65.48l.79,0c8.4.23,10.95,3.5,11.72,5.36a3,3,0,0,1-.08,2.46c-.87,1.75-3.48,4.82-11.1,5.11l-.93,0c-6.68,0-10-2.87-11.41-4.74a3.16,3.16,0,0,1-.18-3.53c1.18-2,4.1-4.7,11.19-4.7m0-10h0c-12.19,0-17.61,6-19.75,9.54a13.06,13.06,0,0,0,.81,14.77c2.48,3.23,8.29,8.66,19.34,8.66l1.32,0c12.72-.49,17.77-6.87,19.65-10.63A13,13,0,0,0,209.14,67c-1.72-4.14-6.7-11.13-20.69-11.52l-1.06,0Z" transform="translate(-3.86 -4.22)"/><path class="cls-1" d="M165.72,46.62a4.24,4.24,0,1,1-4.24,4.24,4.24,4.24,0,0,1,4.24-4.24m0-10A14.24,14.24,0,1,0,180,50.86a14.26,14.26,0,0,0-14.23-14.24Z" transform="translate(-3.86 -4.22)"/><path class="cls-1" d="M210.68,49.29a4.23,4.23,0,1,1-4.23,4.23,4.23,4.23,0,0,1,4.23-4.23m0-10a14.23,14.23,0,1,0,14.23,14.23,14.24,14.24,0,0,0-14.23-14.23Z" transform="translate(-3.86 -4.22)"/><path class="cls-1" d="M41.78,149.2a10.89,10.89,0,0,1,9.28,6,9.63,9.63,0,0,1-8.93,13.64,9.36,9.36,0,0,1-4.26-1A10,10,0,0,1,32.6,158c.47-3.69,4-8.19,8.24-8.75a7.3,7.3,0,0,1,.94-.06m.37,17.69a7.65,7.65,0,0,0,7.09-10.83,9,9,0,0,0-7.48-4.86,4.92,4.92,0,0,0-.67,0c-3.21.42-6.14,4.12-6.5,7a7.92,7.92,0,0,0,4.17,7.85,7.66,7.66,0,0,0,3.39.78m-.37-27.69a16.93,16.93,0,0,0-2.26.15c-9.3,1.21-15.87,9.8-16.84,17.4a20,20,0,0,0,10.69,20.08,19.62,19.62,0,0,0,8.76,2,19.64,19.64,0,0,0,18-27.76,20.79,20.79,0,0,0-18.4-11.92Z" transform="translate(-3.86 -4.22)"/><path class="cls-1" d="M29.48,143.05a3.94,3.94,0,0,1,.77.07,4.36,4.36,0,0,1,3.44,3A4.77,4.77,0,0,1,31,152a4.28,4.28,0,0,1-1.54.28,4.81,4.81,0,0,1-4.36-2.75,4.39,4.39,0,0,1,.48-4.58,5.06,5.06,0,0,1,3.92-1.87m-.07,7.21a2.45,2.45,0,0,0,.85-.15,2.76,2.76,0,0,0,1.54-3.29,2.35,2.35,0,0,0-1.88-1.73,2.28,2.28,0,0,0-.45,0,3.05,3.05,0,0,0-2.34,1.11,2.37,2.37,0,0,0-.22,2.54,2.76,2.76,0,0,0,2.5,1.56m.07-17.21h0a15.06,15.06,0,0,0-11.78,5.7,14.28,14.28,0,0,0-1.8,14.71,14.87,14.87,0,0,0,13.54,8.79,14.3,14.3,0,0,0,5.15-.95,14.75,14.75,0,0,0,8.56-18.36,14.41,14.41,0,0,0-13.67-9.89Z" transform="translate(-3.86 -4.22)"/><path class="cls-1" d="M44,135.23A6,6,0,0,1,49.25,139a4.25,4.25,0,0,1-.48,3.26,4.45,4.45,0,0,1-2.72,2.11,4.06,4.06,0,0,1-1,.13,4.94,4.94,0,0,1-4.49-3h0A5.34,5.34,0,0,1,41,137a3.5,3.5,0,0,1,2.59-1.79l.43,0m1,7.31a2.1,2.1,0,0,0,.56-.07,2.45,2.45,0,0,0,1.49-1.17,2.3,2.3,0,0,0,.27-1.73A4,4,0,0,0,44,137.23h-.19a1.59,1.59,0,0,0-1.12.83,3.36,3.36,0,0,0-.3,2.7h0A2.88,2.88,0,0,0,45,142.54m-1-17.31h0a14.7,14.7,0,0,0-1.63.09,13.49,13.49,0,0,0-10,6.58,15.37,15.37,0,0,0-1.19,13.23A14.9,14.9,0,0,0,45,154.54a14.11,14.11,0,0,0,3.48-.43,14.51,14.51,0,0,0,8.93-6.78,14.35,14.35,0,0,0,1.47-11A15.81,15.81,0,0,0,44,125.23Z" transform="translate(-3.86 -4.22)"/><path class="cls-1" d="M55.13,140.5a5.18,5.18,0,0,1,3.77,1.41,4.15,4.15,0,0,1-3.2,6.89,4,4,0,0,1-1.84-.43,5,5,0,0,1-2.46-3.32,4,4,0,0,1,.17-2.7,3.44,3.44,0,0,1,2.78-1.8,5,5,0,0,1,.78-.05m.57,6.3a2.14,2.14,0,0,0,1.69-3.57,3.29,3.29,0,0,0-2.23-.74,3.08,3.08,0,0,0-.53,0c-.3,0-1,.19-1.25.67a2.25,2.25,0,0,0,0,1.38,3,3,0,0,0,1.43,2,2.08,2.08,0,0,0,.93.21m-.57-16.3a15.9,15.9,0,0,0-2.19.15,13.27,13.27,0,0,0-10.42,7.44,13.94,13.94,0,0,0-.84,9.32,14.93,14.93,0,0,0,7.62,9.86,14.1,14.1,0,0,0,6.4,1.53,14.14,14.14,0,0,0,10.72-23.47,14.87,14.87,0,0,0-11.29-4.83Z" transform="translate(-3.86 -4.22)"/><path class="cls-1" d="M224.83,162a4.67,4.67,0,0,1,4,2.56,5,5,0,0,1-1.43,6.3,4.53,4.53,0,0,1-2.55.77,4.88,4.88,0,0,1-.93-.09,4.48,4.48,0,0,1-2.89-1.86,5.07,5.07,0,0,1-.62-4,4.58,4.58,0,0,1,3.8-3.65,3.64,3.64,0,0,1,.57,0m.07,7.63a2.49,2.49,0,0,0,1.41-.41,2.94,2.94,0,0,0,.82-3.69,2.66,2.66,0,0,0-2.28-1.53,1.72,1.72,0,0,0-.32,0,2.65,2.65,0,0,0-2.13,2.14,3.11,3.11,0,0,0,.35,2.42,2.47,2.47,0,0,0,1.6,1,3.41,3.41,0,0,0,.55,0M224.83,152h0a13.62,13.62,0,0,0-1.91.13,14.57,14.57,0,0,0-12.18,11.23,15,15,0,0,0,2,11.87,14.68,14.68,0,0,0,20.36,3.87,14.94,14.94,0,0,0,4.5-19.4,14.73,14.73,0,0,0-12.79-7.7Z" transform="translate(-3.86 -4.22)"/><path class="cls-1" d="M239.24,152.8a4.93,4.93,0,0,1,4,2,4.93,4.93,0,0,1-1.17,6.68,4.64,4.64,0,0,1-2.7.82,4.85,4.85,0,0,1-4.71-6.43,4.58,4.58,0,0,1,3.76-3.07,5,5,0,0,1,.77,0m.17,7.56a2.68,2.68,0,0,0,1.56-.47,2.91,2.91,0,0,0,.69-3.87,2.94,2.94,0,0,0-2.43-1.22l-.47,0a2.57,2.57,0,0,0-2.15,1.73,3,3,0,0,0,.42,2.68,3,3,0,0,0,2.38,1.12m-3.75-4.12h0m3.58-13.44h0A15,15,0,0,0,237,143a14.58,14.58,0,0,0-11.77,9.76,14.84,14.84,0,0,0,14.18,19.63,14.59,14.59,0,0,0,8.43-2.62,14.81,14.81,0,0,0-8.61-26.93Z" transform="translate(-3.86 -4.22)"/><path class="cls-1" d="M253.47,156.84a3.73,3.73,0,0,1,3.34,2.25,3.84,3.84,0,0,1-3.29,5.73,3.39,3.39,0,0,1-1.83-.54,4.5,4.5,0,0,1-1.93-4.06,3.66,3.66,0,0,1,2.38-3.12,3.5,3.5,0,0,1,1.33-.26m.05,6a1.8,1.8,0,0,0,.94-.29,2.1,2.1,0,0,0-1-3.7,1.59,1.59,0,0,0-.6.13,1.66,1.66,0,0,0-1.13,1.44,2.47,2.47,0,0,0,1,2.19,1.32,1.32,0,0,0,.75.23m1.44.58h0m-1.49-16.56a13.51,13.51,0,0,0-5.05,1,13.68,13.68,0,0,0-8.61,11.46,14.43,14.43,0,0,0,6.51,13.43,13.35,13.35,0,0,0,7.2,2.11,14,14,0,0,0,7-1.92,14.07,14.07,0,0,0-7-26.06Z" transform="translate(-3.86 -4.22)"/><path class="cls-1" d="M238.58,165.83a13.05,13.05,0,0,1,7.33,2.13,8.47,8.47,0,0,1,2.47,10.15,9,9,0,0,1-8,4.9,7.7,7.7,0,0,1-1.35-.12,9.3,9.3,0,0,1-7.44-7.37c-.61-3.2.66-8.29,4.12-9.32a10,10,0,0,1,2.83-.37M240.45,181a6.89,6.89,0,0,0,6.12-3.76,6.5,6.5,0,0,0-1.85-7.69,11.26,11.26,0,0,0-6.15-1.73,7.87,7.87,0,0,0-2.25.29c-2.23.67-3.18,4.66-2.73,7h0a7.39,7.39,0,0,0,5.81,5.77,6.2,6.2,0,0,0,1,.09m-1.87-25.18h0a20,20,0,0,0-5.7.79c-8.78,2.63-12.59,12.83-11.08,20.77a19.26,19.26,0,0,0,15.61,15.37,18.82,18.82,0,0,0,20-10.37,18.51,18.51,0,0,0-5.53-22.45,23,23,0,0,0-13.3-4.11Z" transform="translate(-3.86 -4.22)"/></g><g id="Layer_5" data-name="Layer 5"><path class="cls-1" d="M275.88,199s10.94-10.45,8.95-33.09-24.13-24.63-24.13-24.63a63.68,63.68,0,0,0,14.93-41.3c-.25-25.13-28.51-36.11-28.51-36.11L242.77,51.3s9.66-13.61,2-18.51-14.7,1.64-14.7,1.64S216.77,18.5,188.32,15.64s-46.43,9.74-46.43,9.74c-2.29-6-14.59-9.66-22.3-1.25s1,20.71,1,20.71l-7.18,10.28s-25.66-2-39.59,20.19-5,56.72,7.71,68.41l-12.44,7.72s.74-26.13-21.4-26.87S4.44,147.7,20.61,184.28s60,19.9,60,19.9S76.09,251.45,88,272.85c0,0,19.15,11.69,88.82,11.94s103-13.68,103-13.68S288.07,237.77,275.88,199Z" transform="translate(-3.86 -4.22)"/><path class="cls-2" d="M79.85,217.35c13.28,9.13,27.56,16.6,43.4,20.31,53.49,12.53,110.57,2.76,155.67-27.37-.84-3.71-1.84-7.49-3-11.33,0,0,10.94-10.45,8.95-33.09s-24.13-24.63-24.13-24.63.47-.51,1.24-1.47c-2.41,1.71-4.58,3.72-7.25,5.08a4.3,4.3,0,0,1-5.71-1.5c-1.72-2.43-8.24-2.47-10.89-2.6a35.53,35.53,0,0,0-10.93.91c-6.88,1.83-11.32,6.52-14.38,12.52q-.74,3.45-1.26,6.94a3.64,3.64,0,0,1-.94,2,4,4,0,0,1-2.7,2.35c-23,3.58-47,4.75-70.12,1.56-11.21-1.55-22.77-3.67-33.18-8.26a97.94,97.94,0,0,1-23.35-14.85l-12.1,7.5s.74-26.13-21.4-26.87S4.44,147.7,20.61,184.28s60,19.9,60,19.9S80.07,209.49,79.85,217.35Z" transform="translate(-3.86 -4.22)"/><path class="cls-3" d="M157.56,74.73c6.43-7.82,16.38-14.12,26.71-14.85A22.74,22.74,0,0,0,185,54.3c0-12.17-9.51-22-21.25-22s-21.24,9.86-21.24,22a22,22,0,0,0,14.71,21A4.8,4.8,0,0,1,157.56,74.73Z" transform="translate(-3.86 -4.22)"/><path class="cls-3" d="M213.26,36.73c-9.84,0-17.82,8.22-17.82,18.36a18.67,18.67,0,0,0,1.89,8.19c5.55.62,11,4.85,13.57,10a16.7,16.7,0,0,0,2.36.18,18.37,18.37,0,0,0,0-36.73Z" transform="translate(-3.86 -4.22)"/><path class="cls-4" d="M161.44,94.21s4.66,4.52,19.74,6.71,23.67-1.59,23.67-1.59" transform="translate(-3.86 -4.22)"/><path class="cls-4" d="M159.86,102.72s16.67,13.26,43.6,4.22" transform="translate(-3.86 -4.22)"/><path class="cls-5" d="M33.59,158.14a8.7,8.7,0,0,0,14.65,7.38,8.93,8.93,0,0,0,1.91-9.86c-1.43-3.17-5.63-5.87-9.19-5.4S34,154.68,33.59,158.14Z" transform="translate(-3.86 -4.22)"/><path class="cls-5" d="M26,149.11a3.62,3.62,0,0,0,6.75-2.61C31.14,141.82,24,144.53,26,149.11Z" transform="translate(-3.86 -4.22)"/><path class="cls-5" d="M41.45,141.14a3.85,3.85,0,0,0,4.35,2.31,3.51,3.51,0,0,0,2.48-4.14,4.92,4.92,0,0,0-4.6-3.06C41.62,136.5,40.78,139.43,41.45,141.14Z" transform="translate(-3.86 -4.22)"/><path class="cls-5" d="M52.47,142.78a3.19,3.19,0,0,0-.11,2.05,4,4,0,0,0,2,2.66,3.17,3.17,0,0,0,3.83-4.91C57,141.25,53.33,141,52.47,142.78Z" transform="translate(-3.86 -4.22)"/><path class="cls-5" d="M221.43,166a4.14,4.14,0,0,0,.48,3.21,3.69,3.69,0,0,0,5,.91,4,4,0,0,0,1.12-5A3.46,3.46,0,0,0,221.43,166Z" transform="translate(-3.86 -4.22)"/><path class="cls-5" d="M235.66,156.25a4,4,0,0,0,.57,3.6,4,4,0,0,0,5.31.87,3.93,3.93,0,0,0,.93-5.28C240.72,153,236.64,153.33,235.66,156.25Z" transform="translate(-3.86 -4.22)"/><path class="cls-5" d="M255,163.41c2.84-1.67.62-6.61-2.46-5.37C248.86,159.49,251.46,165.45,255,163.41Z" transform="translate(-3.86 -4.22)"/><path class="cls-5" d="M232.6,175.34a8.4,8.4,0,0,0,6.63,6.58,7.92,7.92,0,0,0,8.24-4.23,7.46,7.46,0,0,0-2.16-8.92,12.22,12.22,0,0,0-9.28-1.6C233.07,168.05,232.1,172.71,232.6,175.34Z" transform="translate(-3.86 -4.22)"/><path class="cls-1" d="M179,61a19.27,19.27,0,0,0,.85-5.63c0-9.66-7-17.49-15.72-17.49s-15.73,7.83-15.73,17.49c0,8.1,5,14.9,11.69,16.88A41.38,41.38,0,0,1,179,61Z" transform="translate(-3.86 -4.22)"/><path class="cls-1" d="M212.27,42.9c-7.2,0-13,6.23-13,13.93a14.54,14.54,0,0,0,2.58,8.3A17.85,17.85,0,0,1,208,70a12.22,12.22,0,0,0,4.32.8c7.2,0,13-6.24,13-13.93S219.47,42.9,212.27,42.9Z" transform="translate(-3.86 -4.22)"/><path class="cls-3" d="M140.12,26.6a1.82,1.82,0,0,0,.94-1,1.67,1.67,0,0,0-.47-1.29,13.27,13.27,0,0,0-23.34,4.44,16.9,16.9,0,0,0,.07,8.59,25.93,25.93,0,0,0,1.14,3.53A8.38,8.38,0,0,0,120,43.92c.88.83,1.45.39,2.07-.45s1.35-1.81,2.06-2.68a66.39,66.39,0,0,1,9.67-9.66A68.3,68.3,0,0,1,140.12,26.6Z" transform="translate(-3.86 -4.22)"/><path class="cls-3" d="M241.87,50.19c.18.31.43.66.79.65a.93.93,0,0,0,.65-.41c2-2.32,2.77-5.43,3.48-8.41a12.94,12.94,0,0,0,.48-5.55,7.38,7.38,0,0,0-4.25-5,10,10,0,0,0-6.71-.35,13.52,13.52,0,0,0-4.44,2.18c-.49.37-1.08.86-1,1.55s1,1.4,1.44,1.94a98.53,98.53,0,0,1,6.31,8.37C239.78,46.77,240.85,48.47,241.87,50.19Z" transform="translate(-3.86 -4.22)"/><ellipse class="cls-6" cx="114.41" cy="92.02" rx="30.08" ry="27.5"/><ellipse class="cls-6" cx="232.94" cy="104.87" rx="24.77" ry="24.2"/><path class="cls-2" d="M271.17,258.78c-15,8.2-30.77,15.34-47.66,18.4A454.9,454.9,0,0,1,170,283.13c-29.41,1.76-60.49-4.69-85.95-20.06a47.77,47.77,0,0,0,4,9.78s19.15,11.69,88.82,11.94,103-13.68,103-13.68a115,115,0,0,0,2.44-18.83C278.65,254.54,274.94,256.72,271.17,258.78Z" transform="translate(-3.86 -4.22)"/></g><g id="Layer_4" data-name="Layer 4"><path class="cls-4" d="M275.88,199s10.94-10.45,8.95-33.09-24.13-24.63-24.13-24.63a63.68,63.68,0,0,0,14.93-41.3c-.25-25.13-28.51-36.11-28.51-36.11L242.77,51.3s9.66-13.61,2-18.51-14.7,1.64-14.7,1.64S216.77,18.5,188.32,15.64s-46.43,9.74-46.43,9.74c-2.29-6-14.59-9.66-22.3-1.25s1,20.71,1,20.71l-7.18,10.28s-25.66-2-39.59,20.19-5,56.72,7.71,68.41l-12.44,7.72s.74-26.13-21.4-26.87S4.44,147.7,20.61,184.28s60,19.9,60,19.9S76.09,251.45,88,272.85c0,0,19.15,11.69,88.82,11.94s103-13.68,103-13.68S288.07,237.77,275.88,199Z" transform="translate(-3.86 -4.22)"/><path class="cls-4" d="M261.2,167.36s.49-26.12-27.12-26.62S205.22,178.8,220.39,197s55.81,8.78,58.88-2.57" transform="translate(-3.86 -4.22)"/><path class="cls-4" d="M67.57,140.73s7.53,25.14-12.37,40.06" transform="translate(-3.86 -4.22)"/><line class="cls-4" x1="77.71" y1="176.58" x2="75.94" y2="215.15"/><path class="cls-4" d="M81.57,143.72s27.35,37.87,129.12,21.56" transform="translate(-3.86 -4.22)"/><path class="cls-4" d="M251.84,146.49a21.74,21.74,0,0,0,12-9.3" transform="translate(-3.86 -4.22)"/><path class="cls-4" d="M153.63,76.92s17.88-17.62,33.92-16.3,27.35,16.3,27.35,16.3" transform="translate(-3.86 -4.22)"/><line class="cls-4" x1="238.92" y1="58.24" x2="246.85" y2="61.29"/><line class="cls-4" x1="112.95" y1="50.88" x2="108.22" y2="50.88"/><path class="cls-4" d="M119.38,46.63s10.87-15.21,27.69-24.15" transform="translate(-3.86 -4.22)"/><path class="cls-4" d="M228,32.27s12,10.95,15.55,21.26" transform="translate(-3.86 -4.22)"/><path class="cls-4" d="M159.18,79.64s8.39,20.49-6.88,34.52" transform="translate(-3.86 -4.22)"/><path class="cls-4" d="M214.9,82.66c-.43.42-14.26,9.21-11.43,39.21" transform="translate(-3.86 -4.22)"/><path class="cls-4" d="M161.44,94.21s4.66,4.52,19.74,6.71,23.67-1.59,23.67-1.59" transform="translate(-3.86 -4.22)"/><path class="cls-4" d="M159.86,102.72s16.67,13.26,43.6,4.22" transform="translate(-3.86 -4.22)"/><line class="cls-4" x1="164.65" y1="93.69" x2="164.65" y2="103"/><line class="cls-4" x1="184.86" y1="97.39" x2="184.86" y2="105.75"/><line class="cls-4" x1="195.38" y1="96.63" x2="195.38" y2="103.99"/><path class="cls-7" d="M176.38,73.71a3.11,3.11,0,0,1-.18-3.52c1.22-2,4.31-4.9,12-4.69,8.4.23,11,3.5,11.73,5.36a3,3,0,0,1-.09,2.47c-.87,1.75-3.48,4.82-11.09,5.11C181.41,78.72,177.88,75.67,176.38,73.71Z" transform="translate(-3.86 -4.22)"/><circle class="cls-7" cx="161.85" cy="46.65" r="4.23"/><circle class="cls-7" cx="206.81" cy="49.31" r="4.23"/><path class="cls-4" d="M33.59,158.14a8.7,8.7,0,0,0,14.65,7.38,8.93,8.93,0,0,0,1.91-9.86c-1.43-3.17-5.63-5.87-9.19-5.4S34,154.68,33.59,158.14Z" transform="translate(-3.86 -4.22)"/><path class="cls-4" d="M26,149.11a3.62,3.62,0,0,0,6.75-2.61C31.14,141.82,24,144.53,26,149.11Z" transform="translate(-3.86 -4.22)"/><path class="cls-4" d="M41.45,141.14a3.85,3.85,0,0,0,4.35,2.31,3.51,3.51,0,0,0,2.48-4.14,4.92,4.92,0,0,0-4.6-3.06C41.62,136.5,40.78,139.43,41.45,141.14Z" transform="translate(-3.86 -4.22)"/><path class="cls-4" d="M52.47,142.78a3.19,3.19,0,0,0-.11,2.05,4,4,0,0,0,2,2.66,3.17,3.17,0,0,0,3.83-4.91C57,141.25,53.33,141,52.47,142.78Z" transform="translate(-3.86 -4.22)"/><path class="cls-4" d="M221.43,166a4.14,4.14,0,0,0,.48,3.21,3.69,3.69,0,0,0,5,.91,4,4,0,0,0,1.12-5A3.46,3.46,0,0,0,221.43,166Z" transform="translate(-3.86 -4.22)"/><path class="cls-4" d="M235.66,156.25a4,4,0,0,0,.57,3.6,4,4,0,0,0,5.31.87,3.93,3.93,0,0,0,.93-5.28C240.72,153,236.64,153.33,235.66,156.25Z" transform="translate(-3.86 -4.22)"/><path class="cls-4" d="M255,163.41c2.84-1.67.62-6.61-2.46-5.37C248.86,159.49,251.46,165.45,255,163.41Z" transform="translate(-3.86 -4.22)"/><path class="cls-4" d="M232.6,175.34a8.4,8.4,0,0,0,6.63,6.58,7.92,7.92,0,0,0,8.24-4.23,7.46,7.46,0,0,0-2.16-8.92,12.22,12.22,0,0,0-9.28-1.6C233.07,168.05,232.1,172.71,232.6,175.34Z" transform="translate(-3.86 -4.22)"/></g></svg>