<svg width="902" height="207" viewBox="0 0 902 207" fill="none" xmlns="http://www.w3.org/2000/svg">
<path d="M221.294 16.8654L305.38 10.8654H342.168H363.715H389.992H463.042C472.292 6.0654 521.202 6.19873 544.501 6.8654C553.33 3.6654 633.318 5.53206 672.208 6.8654H697.959L733.171 9.3654L755.243 6.8654H797.812H814.63L838.279 13.3654C878.641 23.7654 893.636 80.0321 896.088 106.865C887.259 145.265 826.892 162.865 797.812 166.865H744.207L711.098 171.865H700.587L635.42 179.865H600.734L512.443 184.865L418.897 191.365L325.351 195.365C288.773 201.365 264.563 200.199 257.03 198.865C143.513 208.065 65.3829 193.365 40.5073 184.865C-23.6087 145.865 16.3324 74.3654 31.0476 52.8654C42.8197 35.6654 98.3169 23.6987 124.594 19.8654H142.462L186.608 16.8654H206.053H221.294Z" fill="#A4FFA2" stroke="black" stroke-width="10"/>
<path d="M55.1847 134.381C72.3669 158.436 91.0394 157.331 98.9576 131.597C102.621 119.691 114.984 85.6669 93.7706 82.1314C86.6437 80.9436 82.0696 77.4505 73.4023 77.4505C64.5865 77.4505 55.1847 83.7807 55.1847 93.3909C55.1847 100.107 47.0917 129.826 57.4619 129.826" stroke="black" stroke-width="10" stroke-linecap="round"/>
<path d="M156.827 81.2821C153.074 81.8949 134.38 81.3301 134.055 86.8486C133.532 95.7477 132.003 105.199 128.362 113.289C124.433 122.02 120.392 130.734 120.392 140.489C120.392 149.711 120.392 157.007 120.392 142.767" stroke="black" stroke-width="10" stroke-linecap="round"/>
<path d="M212.396 76.293C208.643 76.9057 189.948 76.341 189.624 81.8595C189.1 90.7585 187.571 100.21 183.931 108.3C180.002 117.031 175.96 125.745 175.96 135.5C175.96 144.721 175.96 152.017 175.96 137.777" stroke="black" stroke-width="10" stroke-linecap="round"/>
<path d="M133.055 118.44C138.351 117.407 143.585 116.163 148.996 116.163" stroke="black" stroke-width="10" stroke-linecap="round"/>
<path d="M189.624 113.451C194.919 112.418 200.153 111.174 205.564 111.174" stroke="black" stroke-width="10" stroke-linecap="round"/>
<path d="M240.193 77.4505H260.687" stroke="black" stroke-width="10" stroke-linecap="round"/>
<path d="M249.301 77.3417C247.418 90.7572 242.47 106.198 242.47 119.47C242.47 125.089 240.193 145.854 240.193 129.717" stroke="black" stroke-width="10" stroke-linecap="round"/>
<path d="M227.807 144.489C236.511 142.791 252.246 145.404 257.41 137.658" stroke="black" stroke-width="10" stroke-linecap="round"/>
<path d="M307.843 85.9792C291.593 79.6377 289.715 80.959 281.529 93.8229C276.816 101.229 279.442 107.867 283.3 115.583C291.019 131.02 306.953 141.06 319.229 124.692" stroke="black" stroke-width="10" stroke-linecap="round"/>
<path d="M333.558 65.9557C342.172 65.9557 350.286 68.2329 358.607 68.2329" stroke="black" stroke-width="10" stroke-linecap="round"/>
<path d="M347.221 65.9557V127.44" stroke="black" stroke-width="10" stroke-linecap="round"/>
<path d="M337.414 134.352C346.796 134.123 355.278 132.074 364.74 132.074" stroke="black" stroke-width="10" stroke-linecap="round"/>
<path d="M383.276 127.546C380.055 110.637 381.015 100.417 385.553 84.5324C387.348 78.2527 401.549 72.8638 406.048 80.737C407.218 82.7835 410.25 82.5662 411.868 84.2794C413.815 86.3414 413.613 91.1915 415.157 93.8942C417.999 98.8675 418.297 105.454 421.483 109.835C424.507 113.993 420.839 137.762 417.434 127.546" stroke="black" stroke-width="10" stroke-linecap="round"/>
<path d="M381.379 109.957H410.983" stroke="black" stroke-width="10" stroke-linecap="round"/>
<path d="M440.541 74.774C437.713 89.9776 442.818 97.2774 442.818 111.209C442.818 117.459 447.373 119.27 447.373 124.873C447.373 132.295 477.69 131.228 483.808 127.15" stroke="black" stroke-width="10" stroke-linecap="round"/>
<path d="M589.995 77.0326C582.589 67.553 580.103 63.3694 568.361 63.3694C558.593 63.3694 560.864 65.1514 557.608 72.4782C552.557 83.8422 557.275 99.8046 570.639 99.8046C577.559 99.8046 584.634 103.935 585.44 111.191C586.387 119.713 586.64 121.145 577.47 127.258C567.171 134.124 549.005 135.698 549.005 118.022" stroke="black" stroke-width="10" stroke-linecap="round"/>
<path d="M613.677 69.2274H663.776" stroke="black" stroke-width="10" stroke-linecap="round"/>
<path d="M645.418 72.7928C637.265 88.8111 631.563 102.944 631.563 120.013C631.563 134.055 629.761 131.849 645.418 124.735" stroke="black" stroke-width="10" stroke-linecap="round"/>
<path d="M704.917 122.868C715.763 114.323 725.891 92.0898 718.074 77.324C711.993 65.8377 696.195 65.8044 687.965 74.0347C680.443 81.5559 678.513 101.11 679.994 111.482C681.925 124.996 699.409 122.868 709.472 122.868" stroke="black" stroke-width="10" stroke-linecap="round"/>
<path d="M749.602 68.2329V122.886" stroke="black" stroke-width="10" stroke-linecap="round"/>
<path d="M754.956 70.4077C766.788 61.8024 775.451 60.4837 775.451 76.7333C775.451 85.1244 750.234 95.457 758.625 95.457C770.127 95.457 768.956 100.348 776.589 107.982C782.658 114.05 791.99 117.071 800.5 111.397" stroke="black" stroke-width="10" stroke-linecap="round"/>
<path d="M827.891 61.2489C824.944 61.2489 800.774 58.7971 800.565 64.0321C800.269 71.4396 805.119 77.4206 805.119 85.792C805.119 96.2499 808.677 99.9884 813.722 109.07C815.924 113.034 834.38 102.582 837 99.9613" stroke="black" stroke-width="10" stroke-linecap="round"/>
<path d="M809.203 86.4505C818.462 84.4665 825.642 80.2117 834.252 77.3417" stroke="black" stroke-width="10" stroke-linecap="round"/>
</svg>
