<svg width="902" height="207" viewBox="0 0 902 207" fill="none" xmlns="http://www.w3.org/2000/svg">
<path d="M221.604 17.0769L305.691 11.0769H342.479H364.026H390.303H463.353C472.603 6.27691 521.513 6.41025 544.812 7.07691C553.641 3.87691 633.629 5.74358 672.519 7.07691H698.27L733.481 9.57691L755.554 7.07691H798.123H814.94L838.59 13.5769C878.951 23.9769 893.947 80.2436 896.399 107.077C887.57 145.477 827.203 163.077 798.123 167.077H744.518L711.409 172.077H700.898L635.731 180.077H601.045L512.754 185.077L419.208 191.577L325.661 195.577C289.084 201.577 264.874 200.41 257.341 199.077C143.824 208.277 65.6937 193.577 40.8181 185.077C-23.298 146.077 16.6432 74.5769 31.3583 53.0769C43.1304 35.8769 98.6276 23.9102 124.905 20.0769H142.773L186.919 17.0769H206.364H221.604Z" fill="#FF3892" stroke="black" stroke-width="10"/>
<path d="M70 62C66.5212 80.2635 65.3609 98.8501 64 117.222C63.6534 121.901 59.6779 148.839 64 151" stroke="black" stroke-width="10" stroke-linecap="round"/>
<path d="M120 60C112.456 74.7971 108.016 91.4011 110.222 108.222C111.531 118.203 110.827 128.634 113.778 138.222C115.402 143.502 112.748 145.691 118.778 147.778C121.866 148.847 126.921 147.937 129.222 149.778C130.996 151.197 135.818 151 138 151C141.529 151 144.642 153 148 153" stroke="black" stroke-width="10" stroke-linecap="round"/>
<path d="M185 60C185 76.9416 183.363 94.0158 185.056 110.944C185.605 116.438 187.125 121.005 187 126.778C186.904 131.194 186 135.527 186 140C186 149.373 193.616 151 201.444 151C203.885 151 206.339 151.081 208.778 151C210.824 150.932 212.087 149.106 214 149C217.782 148.79 221.238 150 225 150" stroke="black" stroke-width="10" stroke-linecap="round"/>
<path d="M237 83C237 94.5209 237.306 106.961 241.556 117.889C243.13 121.938 245.718 127.1 248 130.778C250.8 135.29 251.581 138.672 255.944 141.944C258.123 143.578 263.833 146.823 266.778 145.778C272.189 143.858 279.257 135.438 282.889 131C287.306 125.601 291.186 119.653 296 114.556C299.606 110.738 301 106.651 301 101.5C301 97.6667 301 93.8333 301 90C301 85.9979 302.098 83.0166 300.778 88.4444C298.222 98.9503 295.854 109.474 293.222 120C290.877 129.38 295.012 134.477 300 140.778C301.177 142.264 302.324 141.778 304 142.222C305.682 142.667 306.319 144.591 307.556 144.944C310.413 145.761 310.584 146.539 312 143" stroke="black" stroke-width="10" stroke-linecap="round"/>
<path d="M374 89C371.107 81.045 368.183 67 357.556 67C352.034 67 350.037 68.1163 345.444 71.0556C341.537 73.5561 336.689 76.5747 333.611 79.8889C326.78 87.2453 326.765 100.476 337.444 103.222C345.682 105.341 357.664 107.173 364.778 112C372.396 117.17 375 122.884 375 132.056C375 138.423 370.243 141.757 366.111 145.889C363.701 148.299 361.461 153 357.5 153C352.533 153 348.996 155.019 344.778 151.222C342.687 149.34 338.921 147.376 337.778 144.778C336.63 142.169 333 142.018 333 139" stroke="black" stroke-width="10" stroke-linecap="round"/>
<path d="M395 81C405.978 79.311 417.387 79 428.5 79C431.333 79 434.167 79 437 79C438.643 79 448.493 78.7534 446 80" stroke="black" stroke-width="10" stroke-linecap="round"/>
<path d="M416 82C421.015 85.3771 423 86.1044 423 92C423 96.4134 422.181 100.644 421.5 105C420.471 111.587 420 119.393 420 126.056C420 130.492 422.544 133.894 423 138C423.193 139.733 424.286 150.572 423 148" stroke="black" stroke-width="10" stroke-linecap="round"/>
<path d="M467 143C468.539 134.727 469.526 128.62 473 120.778C475.268 115.658 478.876 108.486 479 102.778C479.239 91.792 480.523 82.6607 482.778 72C484.567 63.5398 490.141 56.7438 494.778 50C496.607 47.3398 505.661 48.8704 508 50.4444C511.18 52.585 512.488 55.779 514.222 59C515.531 61.4308 517.839 62.8662 519.222 65.2222C523.074 71.7842 523.984 76.5712 518.556 82C511.869 88.6866 504.749 94.9335 498 101.556C494.874 104.622 491.489 107.355 487.222 108.778C486.294 109.087 484.314 109.313 483.444 108.778C483.161 108.603 489.425 108 490.333 108C497.646 108 496.205 109.404 500.222 115C503.836 120.033 505.172 125.196 508 130.556C509.309 133.037 524 141.955 524 137" stroke="black" stroke-width="10" stroke-linecap="round"/>
<path d="M543 135C541.471 125.632 543.758 120.09 545.778 111C546.539 107.572 546.387 103.81 548.056 100.611C550.132 96.6309 552.97 93.0604 555 89C558.913 81.1736 571.435 58.7296 583.222 63.4444C602.653 71.2166 592 97.1284 592 112C592 117.676 590.826 123.253 591 129C591.063 131.071 601.977 133 594 133" stroke="black" stroke-width="10" stroke-linecap="round"/>
<path d="M548 103C561.641 103 577.922 100.731 591 104" stroke="black" stroke-width="10" stroke-linecap="round"/>
<path d="M617 67C626.258 67 634.035 62 643.444 62C648.784 62 653.851 61 659 61" stroke="black" stroke-width="10" stroke-linecap="round"/>
<path d="M641 65C646.278 81.4947 638 95.9291 638 112.389C638 117.494 638.576 122.889 637.944 127.944C637.632 130.442 637.253 136.506 637 136" stroke="black" stroke-width="10" stroke-linecap="round"/>
<path d="M679 59C684.843 74.4242 682.454 91.2014 684.944 107.389C686.047 114.553 683.692 122.076 686 129" stroke="black" stroke-width="10" stroke-linecap="round"/>
<path d="M727 126C733.909 126.164 735.438 128.328 740.056 122.556C744.824 116.595 750.438 112.24 752.444 104.5C755.231 93.7501 749.624 81.6923 745 72.4444C741.408 65.2606 733.607 64.8929 727.5 61.5C721.63 58.239 714.475 71.3528 710.5 74.4444C704.956 78.7565 703 89.2896 703 96C703 103.406 704.431 108.138 708.444 114.444C712.94 121.509 723.489 125 732 125" stroke="black" stroke-width="10" stroke-linecap="round"/>
<path d="M781 119C781 109.773 782.061 101.051 781.056 92C780.066 83.0931 784 75.014 784 66.5C784 54.709 793.528 66.2239 797 69.9444C805.125 78.65 813.343 87.5118 818.444 98.4444C819.991 101.759 822.505 102.959 823.778 106.778C824.065 107.64 826.136 114.237 827.778 112.778C829.909 110.883 827.063 101.908 827 99.4444C826.872 94.4612 829 90.3783 829 85.4444C829 81.3898 836.53 56.7648 833 55" stroke="black" stroke-width="10" stroke-linecap="round"/>
</svg>
