<svg width="902" height="207" viewBox="0 0 902 207" fill="none" xmlns="http://www.w3.org/2000/svg">
<path d="M221.205 17.0769L305.292 11.0769H342.079H363.627H389.904H462.954C472.203 6.27694 521.114 6.41028 544.413 7.07694C553.242 3.87694 633.229 5.74361 672.119 7.07694H697.871L733.082 9.57694L755.155 7.07694H797.724H814.541L838.19 13.5769C878.552 23.9769 893.547 80.2436 896 107.077C887.171 145.477 826.804 163.077 797.724 167.077H744.119L711.009 172.077H700.499L635.331 180.077H600.646L512.355 185.077L418.808 191.577L325.262 195.577C288.684 201.577 264.475 200.41 256.942 199.077C143.425 208.277 65.2944 193.577 40.4188 185.077C-23.6972 146.077 16.2439 74.5769 30.9591 53.0769C42.7312 35.8769 98.2283 23.9103 124.505 20.0769H142.374L186.519 17.0769H205.964H221.205Z" fill="#FF3892" stroke="black" stroke-width="10"/>
<path d="M96.6294 81.6606C94.2294 62.4606 56.9628 64.3272 38.6294 67.6606C33.8294 71.6606 36.6294 115.994 38.6294 137.661C34.6294 156.061 63.6294 155.327 78.6294 152.661C106.229 150.261 104.796 126.327 100.629 114.661C93.4294 108.261 94.9628 100.661 96.6294 97.6606C98.6294 92.4606 97.4628 84.8272 96.6294 81.6606Z" fill="#DA5C45" stroke="black" stroke-width="10"/>
<path d="M76.1294 91.1606C78.1294 85.5606 68.2961 83.8273 63.1294 83.6606C56.3294 90.0606 60.2961 96.3273 63.1294 98.6606C70.3294 98.6606 74.7961 93.6606 76.1294 91.1606Z" fill="#FF3892" stroke="black" stroke-width="10"/>
<path d="M77.6294 129.661C86.4294 119.261 73.9628 117.327 66.6294 117.661C62.6294 115.261 60.2961 121.994 59.6294 125.661C58.0294 132.061 63.6294 134.327 66.6294 134.661C73.4294 133.861 76.7961 130.994 77.6294 129.661Z" fill="#FF3892" stroke="black" stroke-width="10"/>
<path d="M283.039 85.373C278.639 58.973 241.873 59.7063 224.039 63.373C216.039 63.373 215.039 68.373 215.539 70.873V130.873C213.539 149.673 220.373 151.04 224.039 149.373C234.439 153.373 236.373 142.706 236.039 136.873C234.439 124.473 239.706 122.706 242.539 123.373C248.539 121.773 251.373 127.706 252.039 130.873C258.839 148.873 271.206 150.706 276.539 149.373C294.939 150.973 286.539 140.04 280.039 134.373C264.839 123.973 271.373 116.706 276.539 114.373C285.339 102.773 284.539 90.2063 283.039 85.373Z" fill="#DA5C45" stroke="black" stroke-width="10"/>
<path d="M260.539 92.373C265.339 86.773 253.206 83.373 246.539 82.373C240.139 77.973 237.539 87.2063 237.039 92.373C235.039 100.373 242.539 102.706 246.539 102.873C255.739 103.273 259.706 96.0397 260.539 92.373Z" fill="#FF3892" stroke="black" stroke-width="10"/>
<path d="M173.958 90.2755C159.558 45.4755 145.625 71.6088 140.458 90.2755L119.958 134.775C107.558 151.175 125.125 149.609 135.458 146.775C135.458 140.775 142.125 138.275 145.458 137.775H165.458C174.658 137.775 179.291 141.775 180.458 143.775C197.658 150.975 199.625 142.775 198.458 137.775L173.958 90.2755Z" fill="#DA5C45" stroke="black" stroke-width="10"/>
<path d="M163.018 107.635C159.418 98.0355 154.518 103.635 152.518 107.635C141.318 122.435 151.518 123.135 158.018 121.635C171.218 126.435 166.851 114.302 163.018 107.635Z" fill="#FF3892" stroke="black" stroke-width="10"/>
<path d="M356.599 72.4232C355.799 58.8232 330.932 60.7566 318.599 63.4232C304.599 59.4232 301.099 67.7566 301.099 72.4232V79.4232V130.423C297.899 150.023 307.766 151.923 313.099 150.423H330.099C350.899 151.623 356.432 143.59 356.599 139.423C358.999 130.223 345.599 129.59 338.599 130.423C324.199 132.823 320.932 128.09 321.099 125.423C318.299 117.823 325.932 117.59 330.099 118.423C341.299 118.823 342.432 112.59 341.599 109.423C343.999 101.423 334.932 98.7566 330.099 98.4232C320.099 100.823 319.932 94.7566 321.099 91.4232C317.499 82.6232 329.599 81.7566 336.099 82.4232C356.499 84.4232 358.266 76.5899 356.599 72.4232Z" fill="#DA5C45" stroke="black" stroke-width="10"/>
<path d="M813.488 63.3833C821.488 43.3833 798.822 37.7167 786.488 37.3833C776.088 32.5833 763.488 43.7167 758.488 49.8833C747.288 67.0833 759.155 84.3833 766.488 90.8833C776.088 90.0833 785.822 98.8833 789.488 103.383C785.488 111.383 776.488 106.717 772.488 103.383C754.888 97.3833 755.822 116.883 758.488 127.383C765.288 136.983 785.322 137.717 794.488 136.883C814.488 136.483 822.822 114.383 824.488 103.383C826.088 90.9833 806.822 78.8833 796.988 74.3833C780.588 66.3833 788.488 63.7167 794.488 63.3833C800.888 66.9833 809.822 64.8833 813.488 63.3833Z" fill="#EFEEDE" stroke="black" stroke-width="10"/>
<path d="M742.658 73.5483C745.058 41.1483 704.324 38.7149 683.658 41.5483C672.447 42.2466 669.32 48.8392 669.158 52.0483V112.548C667.158 135.348 671.658 140.382 674.158 140.048H683.658C703.258 145.648 703.824 124.048 701.658 112.548C704.058 102.148 708.991 119.215 711.158 129.048C719.158 144.648 738.158 138.215 746.658 133.048C761.458 115.048 750.158 111.882 742.658 112.548C734.658 117.048 733.658 101.048 739.158 93.0483C743.558 86.6483 743.324 77.3816 742.658 73.5483Z" fill="#EFEEDE" stroke="black" stroke-width="10"/>
<path d="M705.555 84.8624C717.155 75.2624 710.388 65.8624 705.555 62.3624C701.155 62.3624 699.388 67.6957 699.055 70.3624C696.255 86.3624 702.222 86.6957 705.555 84.8624Z" fill="#FF3892" stroke="black" stroke-width="10"/>
<path d="M611.525 41.9619C593.925 37.5619 586.192 58.4619 584.525 69.4619L569.525 111.462C561.525 134.262 568.858 139.962 573.525 139.962C589.525 143.962 596.858 134.962 598.525 129.962C609.725 118.362 619.525 125.129 623.025 129.962C623.425 141.562 636.192 141.462 642.525 139.962C664.125 142.762 658.858 128.129 653.525 120.462L639.525 74.4619C634.725 43.2619 618.858 39.7952 611.525 41.9619Z" fill="#EFEEDE" stroke="black" stroke-width="10"/>
<path d="M614.525 99.4619C622.125 102.262 617.692 86.6286 614.525 78.4619C611.252 66.3877 608.161 79.431 607.025 87.4619C601.025 99.0619 609.525 100.295 614.525 99.4619Z" fill="#FF3892" stroke="black" stroke-width="10"/>
<path d="M556.223 57.5044C562.223 30.0044 490.223 49.0044 493.223 46.5044C485.838 47.3548 488.479 101.859 490.723 129.004C492.723 148.204 523.89 145.004 539.223 141.004C554.423 141.804 556.89 133.338 556.223 129.004C558.623 117.404 545.89 116.504 539.223 117.504C528.823 118.704 526.89 113.338 527.223 110.504C527.223 104.504 532.89 104.338 535.723 105.004C547.723 105.804 549.056 98.671 548.223 95.0044C552.623 84.2044 544.056 80.5044 539.223 80.0044C532.023 81.2044 528.223 77.171 527.223 75.0044C524.823 67.8044 531.89 68.3377 535.723 69.5044C556.923 69.9044 558.223 61.671 556.223 57.5044Z" fill="#EFEEDE" stroke="black" stroke-width="10"/>
<path d="M477.415 69.1684C475.815 41.9684 428.415 43.1684 404.915 47.1684C396.116 57.1684 397.915 102.668 399.915 124.168C395.915 148.968 425.582 150.168 440.915 147.668C488.115 140.468 479.582 110.335 469.415 96.1684C479.815 88.1684 479.082 74.835 477.415 69.1684Z" fill="#EFEEDE" stroke="black" stroke-width="10"/>
<path d="M434.415 69.6684C441.415 70.5017 451.815 74.6684 437.415 84.6684C434.582 84.8351 430.015 82.0684 434.415 69.6684Z" fill="#FF3892" stroke="black" stroke-width="10"/>
<path d="M433.416 106.168C442.082 110.168 454.816 119.268 436.416 123.668C433.082 121.668 427.816 115.368 433.416 106.168Z" fill="#FF3892" stroke="black" stroke-width="10"/>
</svg>
