<svg width="364" height="174" viewBox="0 0 364 174" fill="none" xmlns="http://www.w3.org/2000/svg">
<path d="M357.782 56C343.782 -4.79999 227.282 2.00001 170.782 13L51.7824 28C-17.2176 55.5 8.78241 83 15.7824 123.5C21.3824 155.9 90.7824 166.667 124.782 168L292.782 155C355.982 137.8 362.449 81.8333 357.782 56Z" fill="#FF3892" stroke="black" stroke-width="10"/>
<g filter="url(#filter0_d_1_56)">
<path d="M179.032 134.26C177.728 132.82 181.591 129.879 186.476 128.594C188.548 128.049 197.525 125.675 206.426 123.319C223.572 118.781 253.872 113.64 257.647 114.628C264.84 116.511 256.03 121.553 238.444 125.617C232.056 127.093 224.301 129.032 221.209 129.926C218.118 130.819 210.203 132.18 203.62 132.949C183.535 135.296 180.135 135.477 179.032 134.259L179.032 134.26ZM112.313 129.765C108.155 127.778 105.113 122.85 105.113 118.101C105.113 114.623 118.901 77.8239 122.052 72.894C124.338 69.316 122.806 69.3732 111.837 73.2758C81.9562 83.9064 73.5584 93.9505 91.8849 97.1402C102.904 99.0577 102.334 103.855 91.0416 104.234C76.4313 104.725 69.7489 99.6233 72.5646 90.1305C75.4789 80.3081 84.441 74.5835 111.445 65.2977C120.966 62.0238 127.44 59.047 131.464 56.093C139.357 50.2995 150.141 48.25 150.141 52.5437C150.141 53.4443 148.183 55.4498 145.791 57.0003C139.036 61.3778 136.269 65.9936 127.998 86.6767C123.771 97.2458 119.426 108.053 118.341 110.693C113.452 122.591 122.494 127.035 135.793 119.271C144.151 114.39 144.397 113.945 155.833 82.856C166.563 53.6874 167.765 51.6602 174.324 51.6602C180.477 51.6602 180.379 52.4978 171.419 76.6591C157.913 113.074 157.747 115.012 168.134 115.012C178.451 115.012 181.124 110.535 193.062 73.2573C205.408 34.7041 207.445 32.0385 224.576 32.0001C234.515 31.978 236.555 35.8787 227.634 37.8457C220.954 39.3184 215.521 43.8198 213.718 49.3747C212.881 51.9516 209.277 63.1307 205.709 74.2172C194.312 109.622 190.717 115.664 178.354 120.203C167.964 124.017 160.192 124.1 154.616 120.455C150.461 117.741 150.461 117.741 143.652 122.706C132.556 130.798 120.27 133.565 112.314 129.764L112.313 129.765ZM229.29 105.211C210.941 101.056 208.003 85.8033 221.929 66.986C236.037 47.922 267.83 51.4313 259.796 71.1663C256.679 78.8244 248.463 82.8701 231.755 84.9731C225.423 85.7704 225.423 85.7704 225.493 90.9159C225.644 102.075 241.76 102.354 256.589 91.4526C262.719 86.9463 266.933 86.4946 266.933 90.3437C266.933 97.3368 240.545 107.759 229.291 105.211L229.29 105.211ZM240.31 78.2731C249.338 74.123 253.141 62.0388 245.606 61.4447C239.492 60.962 231.031 68.7315 228.3 77.3373C227.042 81.2992 232.758 81.7446 240.31 78.2732L240.31 78.2731Z" fill="#44382A"/>
</g>
<defs>
<filter id="filter0_d_1_56" x="67.9333" y="32" width="203" height="111" filterUnits="userSpaceOnUse" color-interpolation-filters="sRGB">
<feFlood flood-opacity="0" result="BackgroundImageFix"/>
<feColorMatrix in="SourceAlpha" type="matrix" values="0 0 0 0 0 0 0 0 0 0 0 0 0 0 0 0 0 0 127 0" result="hardAlpha"/>
<feOffset dy="4"/>
<feGaussianBlur stdDeviation="2"/>
<feComposite in2="hardAlpha" operator="out"/>
<feColorMatrix type="matrix" values="0 0 0 0 0 0 0 0 0 0 0 0 0 0 0 0 0 0 0.25 0"/>
<feBlend mode="normal" in2="BackgroundImageFix" result="effect1_dropShadow_1_56"/>
<feBlend mode="normal" in="SourceGraphic" in2="effect1_dropShadow_1_56" result="shape"/>
</filter>
</defs>
</svg>
