<svg xmlns="http://www.w3.org/2000/svg" viewBox="0 0 250.06477 292.22534"><defs><style>.cls-1{fill:#fff;}.cls-2{fill:#f4f7e8;}.cls-3{fill:#c3c6ba;}.cls-4{fill:#f87a31;}.cls-5{fill:#ec5b2e;}.cls-6{fill:#fff6d3;}.cls-7{fill:#5b1d09;}.cls-10,.cls-11,.cls-13,.cls-8{fill:none;}.cls-8{stroke:#a02b0c;}.cls-12,.cls-13,.cls-8{stroke-miterlimit:10;}.cls-9{fill:#cb3306;}.cls-10,.cls-11,.cls-12,.cls-13{stroke:#000;}.cls-10,.cls-11{stroke-linecap:round;stroke-linejoin:round;}.cls-10{stroke-width:2px;}.cls-12{fill:#bfb9a9;}</style></defs><title>we bare bear ice bear and crab</title><g id="Layer_7" data-name="Layer 7"><path class="cls-1" d="M203.6415,13.88731c6.04488,0,8.69452,2.13887,9.7614,3.50026a6.22617,6.22617,0,0,1,3.1185-.86017,7.72734,7.72734,0,0,1,5.12462,2.21906,18.18891,18.18891,0,0,1,4.00026-.4186c4.52208,0,11.7438,1.474,18.696,9.15348,1.18321-1.097,3.32912-2.80277,5.2074-2.80277a2.59469,2.59469,0,0,1,1.17448.26565,1.94216,1.94216,0,0,1,1.03023,1.30418c.48929,1.9297-1.5293,5.29835-2.57617,6.87064a44.20661,44.20661,0,0,1,4.06741,10.01806c1.85059.1543,6.05271.82712,6.68065,3.75877a2.28192,2.28192,0,0,1-.5166,2.06494c-1.08789,1.23206-3.60365,1.47568-5.3662,1.47568-.1598,0-.31317-.002-.459-.00544a16.43467,16.43467,0,0,1-1.9307,10.13429c.83206,1.57371,2.834,6.09129.81347,9.96871,1.6494,1.23876,4.76463,4.6167,3.75588,12.01318-1.22853,9.00882-6.68259,15.11135-8.21776,15.11135-1.09377,0-1.23242-.98289-1.56937-3.35694a35.21031,35.21031,0,0,0-1.542-7.10789,12.66268,12.66268,0,0,0-1.25876,5.27341.99956.99956,0,0,1-1.72365.74953c-.07423-.07764-7.29007-7.85593-2.07423-16.27835.00975-.06053.01951-.13571.03223-.22212a7.18626,7.18626,0,0,1,1.56935-3.83206,7.36577,7.36577,0,0,1-1.54882-3.58982c-1.39857.127-3.84129.32719-5.40857.32719a8.11107,8.11107,0,0,1-1.07-.05331,1.00025,1.00025,0,0,1-.49218-1.76365l.11129-.09034a14.11,14.11,0,0,1-4.18452-.68554,1.00025,1.00025,0,0,1-.3047-1.66552,6.0825,6.0825,0,0,1-3.917-1.20359.99919.99919,0,0,1,.10454-1.56836l2.73434-1.87111a35.19591,35.19591,0,0,1-13.01364-20.69924l-.86524.79935a.99406.99406,0,0,1-.6771.26513,1.01195,1.01195,0,0,1-.42061-.09184,1.00026,1.00026,0,0,1-.58-.94676l.11816-3.08106-1.15335.9883a1,1,0,0,1-1.64251-.88724c.04976-.38376.32811-2.47411.76263-4.53853L207.817,34.61316a1.00065,1.00065,0,0,1-1.66118-.97217c.06842-.26365.41017-1.563.90436-2.99412a17.63965,17.63965,0,0,1-7.66312,5.47365,13.28522,13.28522,0,0,1-3.06247,5.50094A81.95135,81.95135,0,0,1,215.6812,65.55752c5.8584,11.438,6.54789,16.56494,6.50588,18.46876,2.99412,1.39595,14.82417,7.49165,19.792,18.72459.4414.98489,10.36523,24.41553-22.72954,56.62353a44.18632,44.18632,0,0,1,12.52736,23.73047,126.84549,126.84549,0,0,1,1.50876,31.249l1.6387,5.30082a24.4149,24.4149,0,0,1,8.978-1.65519,27.4507,27.4507,0,0,1,10.439,2.10437,16.92944,16.92944,0,0,1,8.77735,8.49123c2.72559,5.74219,2.53318,13.03519-.57037,21.67383-7.21481,20.07913-21.87987,27.99612-22.50093,28.32324a.98531.98531,0,0,1-.29106.09958,612.79246,612.79246,0,0,1-94.79588,7.42093c-35.15282,0-74.81835-3.332-109.29588-14.46976a.99906.99906,0,0,1-.69241-.94235c-.00583-.67087-.36036-67.76859,19.88282-127.08005C55.3272,141.13805,67.12308,80.6,95.63384,47.00964c-2.80176-4.72165-5.85352-13.92283.62742-18.86912a10.93,10.93,0,0,1,9.63088-2.09671,16.33836,16.33836,0,0,1,9.30859,7.02588c3.40159-2.13172,15.64345-8.89706,33.89461-8.89706a81.932,81.932,0,0,1,28.72457,5.40195,17.59669,17.59669,0,0,1,12.93846-7.38036c.93553-1.99559,4.43454-8.11329,12.21289-8.29835.22764-.00574.45157-.00856.67024-.00856M178.21776,31.79383a.99569.99569,0,0,1-.35592-.0659,80.39571,80.39571,0,0,0-28.82138-5.56925c-20.7968-.00022-33.44212,9.0295-33.61756,9.1576a1.00037,1.00037,0,0,1-1.50341-.39547,14.11012,14.11012,0,0,0-8.51859-6.93853,8.88888,8.88888,0,0,0-7.92623,1.74806c-7.01565,5.35453.16112,16.71976.23488,16.834a1.00148,1.00148,0,0,1-.084,1.19382C68.66314,81.35534,56.9229,143.43493,56.80767,144.058a.99884.99884,0,0,1-.03712.14159c-19.0283,55.70605-19.77929,118.36229-19.79882,125.76271,34.09107,10.88724,73.24716,14.15851,107.97444,14.15851a612.371,612.371,0,0,0,94.2985-7.36945c1.46488-.83105,14.834-8.8252,21.42094-27.15817,2.91794-8.12013,3.13477-14.89655.64648-20.14066a15.07559,15.07559,0,0,0-7.68165-7.48047,25.49046,25.49046,0,0,0-9.67856-1.93861,21.64715,21.64715,0,0,0-9.1828,1.881,1.00155,1.00155,0,0,1-1.42189-.58987l-2.03023-6.56836a1.00611,1.00611,0,0,1-.04005-.39258,124.60956,124.60956,0,0,0-1.46483-30.88571c-2.88382-15.22853-12.56641-23.21582-12.66406-23.29494a1.00025,1.00025,0,0,1-.06253-1.5c33.02542-31.63089,23.17-54.88818,23.06642-55.11965-5.27342-11.9233-19.27831-17.93847-19.42-17.998a.99988.99988,0,0,1-.56834-1.21147c-.001-.00435.80765-4.08153-6.2617-17.88424-7.33007-14.30911-19.62306-23.94629-19.74613-24.042a.99912.99912,0,0,1,.03618-1.60741c2.48729-1.75247,3.38571-5.63235,3.39453-5.67141a1.00151,1.00151,0,0,1,.63283-.72118c6.01659-2.19435,7.98628-6.09476,8.00488-6.13429a1.01315,1.01315,0,0,1,.46675-.46482L209.19979,26.62a.99836.99836,0,0,1,1.22653.291,1.0007,1.0007,0,0,1-.03319,1.26024,8.93912,8.93912,0,0,0-1.13964,2.29441l2.13377-2.04588a1,1,0,0,1,1.54005,1.25194,20.09756,20.09756,0,0,0-1.31059,5.0093l.84477-.72365a.99947.99947,0,0,1,1.64942.79788l-.1133,2.96094.44041-.40723a1.00035,1.00035,0,0,1,1.668.58788A33.367,33.367,0,0,0,229.7486,59.88464a1,1,0,0,1,.03319,1.67288L227.313,63.24693a8.10165,8.10165,0,0,0,1.48679.122,16.64267,16.64267,0,0,0,3.88239-.50724.99972.99972,0,0,1,.77247,1.82083l-1.54788.94629c.926.08793,1.90512.11522,2.69435.11522.48174,0,.8927-.01017,1.17771-.02292l.04171-.0009a1.01024,1.01024,0,0,1,.93682.64248,1.00013,1.00013,0,0,1-.29982,1.13136l-.07325.05952c1.44536-.08346,3.13283-.22652,4.33106-.34664q.04823-.0045.09622-.00449a.999.999,0,0,1,1.00343.99961,5.22986,5.22986,0,0,0,1.65818,3.93406,1.00545,1.00545,0,0,1-.00388,1.55858,4.82047,4.82047,0,0,0-1.62012,3.30571,2.12151,2.12151,0,0,1-.25.89253c-3.04106,4.81206-1.23147,9.42041.30465,11.94923a22.16831,22.16831,0,0,1,2.13676-5.4487,1.00064,1.00064,0,0,1,.85741-.50394l.03-.00051a.995.995,0,0,1,.83811.48586c1.68071,2.80082,2.26371,6.92041,2.65043,9.646.04393.31153.08981.63771.13575.93847a23.2281,23.2281,0,0,0,5.68848-12.68259c1.11423-8.16847-3.37207-10.43064-3.56447-10.52294a1.00544,1.00544,0,0,1-.38672-1.48535c2.67772-3.75053-.62205-9.16118-.65529-9.21535a.99929.99929,0,0,1,.02835-1.09812c3.00783-4.32376,1.78612-10.31741,1.77341-10.37747a1.00085,1.00085,0,0,1,.9867-1.207q.03913,0,.07872.00286c.468.04049.96226.061,1.45506.061,1.74809,0,3.47826-.258,3.95512-.79782.05858-.06636.09958-.1323.05959-.32177-.34277-1.59912-3.9043-2.18847-5.57524-2.22265a1.0008,1.0008,0,0,1-.96482-.82858c-.78611-4.51806-4.25877-10.64165-4.29394-10.70312a1.00052,1.00052,0,0,1,.04881-1.06888c1.66313-2.37889,2.93654-5.19042,2.61818-5.78565a.66064.66064,0,0,0-.28683-.0568c-.98041-.00012-3.0484,1.4489-4.50322,2.97527a1.02891,1.02891,0,0,1-.75095.31053,1.0009,1.0009,0,0,1-.73341-.34959c-6.68373-7.81764-13.762-9.22754-17.99552-9.22762a14.62318,14.62318,0,0,0-3.86677.44833.99759.99759,0,0,1-.9883-.23242,6.19458,6.19458,0,0,0-4.2256-2.058,3.919,3.919,0,0,0-2.64063,1.016,1.01141,1.01141,0,0,1-.70033.28449.96775.96775,0,0,1-.22838-.0272,1.00136,1.00136,0,0,1-.71676-.64012c-.00672-.01672-1.35895-3.25916-8.62412-3.2594-.172,0-.34656.0018-.5253.00552-7.89453.18847-10.61818,7.52294-10.64453,7.59712a1.00083,1.00083,0,0,1-.89552.66117,15.53616,15.53616,0,0,0-12.39259,7.13865,1.0028,1.0028,0,0,1-.86773.502M203.64149,3.88734c-.30123,0-.60976.00376-.92341.01171a22.91664,22.91664,0,0,0-18.07122,9.2649,26.96756,26.96756,0,0,0-9.59175,4.93584,90.15467,90.15467,0,0,0-25.95974-3.92716,78.28846,78.28846,0,0,0-31.853,6.55186,24.65237,24.65237,0,0,0-8.89578-4.3748,20.92109,20.92109,0,0,0-18.14918,3.83906c-8.36836,6.38682-9.22,16.42847-6.19259,25.35917C57.969,80.04832,46.5975,133.871,45.17016,141.04038,24.6169,201.75144,24.96663,270.1016,24.97255,270.78739a10.98439,10.98439,0,0,0,7.62876,10.37479c30.70577,9.91928,68.51247,14.9505,112.35918,14.9505a619.41962,619.41962,0,0,0,96.51063-7.56906,10.96686,10.96686,0,0,0,3.2399-1.1055c1.90424-1.003,18.87613-10.48761,27.24829-33.78766,4.0369-11.23671,4.1019-21.10912.19336-29.34342a27.145,27.145,0,0,0-14.11458-13.49516,37.43865,37.43865,0,0,0-14.13466-2.81236q-.14512,0-.28935.00116a131.91948,131.91948,0,0,0-2.01189-26.75693,55.66251,55.66251,0,0,0-8.9158-21.4335c21.09989-23.615,22.14435-43.1459,20.529-53.47625a20.846,20.846,0,0,0,7.4195-7.4356,37.06,37.06,0,0,0,5.49658-15c.98627-7.23157-.67294-12.42521-2.822-15.96433a21.24542,21.24542,0,0,0-.83548-7.1735c.23813-.74823.43405-1.49025.59384-2.21876a12.93009,12.93009,0,0,0,3.838-2.96211,12.245,12.245,0,0,0,2.79853-10.77924,13.95019,13.95019,0,0,0-8.67212-9.98922q-.30557-.75639-.62043-1.47421a14.9059,14.9059,0,0,0,1.03589-9.54645,11.9808,11.9808,0,0,0-6.25175-7.79083,12.51623,12.51623,0,0,0-5.64618-1.32117,13.84866,13.84866,0,0,0-3.86414.55835,33.53168,33.53168,0,0,0-20.03932-6.90906c-.55429,0-1.08539.015-1.5909.04155a16.6352,16.6352,0,0,0-7.534-1.842q-.46818,0-.93543.02777a25.21961,25.21961,0,0,0-11.94445-2.66783Zm20.65289,26.56821a7.03835,7.03835,0,0,1,1.2397-.0978c2.509.00006,6.34894.99347,10.395,5.72588a10.96679,10.96679,0,0,0,2.306,2.034q.1038.201.21654.39864a32.57859,32.57859,0,0,1,3.12753,7.46147q.06741.38706.16106.76374a10.9899,10.9899,0,0,0-.12211,4.73618,6.01345,6.01345,0,0,1-.18231,2.7942,10.9038,10.9038,0,0,0-.91841,1.59,10.98931,10.98931,0,0,0-2.56763-1.825,11.01758,11.01758,0,0,0-2.77606-2.55282,23.2818,23.2818,0,0,1-9.17642-15.05785,10.99593,10.99593,0,0,0-2.60988-5.63986q-.02174-.05682-.04407-.11326.47952-.0875.951-.21755ZM121.2291,43.45816c.43514-.29537,10.96829-7.29964,27.81122-7.29947a70.779,70.779,0,0,1,25.25282,4.91077,10.977,10.977,0,0,0,9.56591-.83807,10.86839,10.86839,0,0,0-.08791,1.1383,11.05879,11.05879,0,0,0,4.22031,8.932c.28727.22862,10.85376,8.709,17.01028,20.72718,4.07785,7.962,4.96422,11.69205,5.14928,12.75122a10.9733,10.9733,0,0,0,6.63638,10.9744c2.93,1.28714,11.08,6.02907,14.12979,12.65588.54872,1.62525,5.51825,18.893-20.74863,44.05073a11.00033,11.00033,0,0,0,.58149,16.40745,32.01675,32.01675,0,0,1,9.23669,17.47,115.433,115.433,0,0,1,1.33489,28.08083,10.9423,10.9423,0,0,0,.43757,4.27771l2.034,6.58053a11.00276,11.00276,0,0,0,15.39562,6.60736,12.87413,12.87413,0,0,1,4.76256-.85155,15.57531,15.57531,0,0,1,5.9004,1.19724l.09744.03915a5.42524,5.42524,0,0,1,2.32821,2.46932c1.26942,2.67529.90619,7.1046-1.02265,12.47224a43.5985,43.5985,0,0,1-15.63431,21.00131,613.83469,613.83469,0,0,1-90.67427,6.90809c-37.83546,0-70.69951-3.88312-97.83753-11.55182C47.69,243.33262,50.70631,192.88912,66.23372,147.432a11.04838,11.04838,0,0,0,.41053-1.57353c.10689-.57029,11.52154-60.21093,38.55548-91.571a11.073,11.073,0,0,0,1.12993-12.7931,11.00341,11.00341,0,0,0,14.89944,1.9638Z" transform="translate(-24.97155 -3.88734)"/></g><g id="Layer_6" data-name="Layer 6"><path class="cls-2" d="M96.86837,47.10517s-7.84594-12.18185,0-18.16954,16.10481,1.4453,17.96306,5.57474c0,0,25.04055-18.36682,63.38691-3.71649a16.68329,16.68329,0,0,1,13.21421-7.63947s2.8906-8.0524,11.56243-8.25888,10.11713,3.923,10.11713,3.923,3.51-3.51,8.25888,1.03236c0,0,11.97537-3.71649,22.91839,9.08477,0,0,3.923-4.12944,5.98769-3.09708s-2.27119,7.22652-2.27119,7.22652,3.58489,6.27809,4.41077,11.027c0,0,5.91283.12254,6.53224,3.01315s-6.5345,2.26434-6.5345,2.26434,1.3727,6.40748-1.93085,11.15634c0,0,3.7165,5.98769.61942,10.3236,0,0,5.36827,2.47766,4.12944,11.56243s-6.60711,14.24657-7.22652,14.24657-.61942-7.63947-3.09708-11.76891c0,0-2.47767,4.33592-2.2712,7.63947,0,0-6.88139-7.2637-1.88428-15.16994.19642-.31077.026-2.79313,2.09076-4.4449a6.24623,6.24623,0,0,1-2.02916-4.7123,61.41274,61.41274,0,0,1-7.26208.37639L235.824,66.72s-4.54239.20647-6.60711-.61942l3.7165-2.27119s-5.57474,1.4453-7.63946-.41294l3.923-2.68414A34.19169,34.19169,0,0,1,215.11707,38.0438l-2.21144,2.04132.20648-5.36827-2.89061,2.47766s.82589-6.40063,1.85825-8.05241L207.12442,33.891s1.27054-4.92466,2.50938-6.37l-2.50938,1.20816s-2.03616,4.25743-8.56222,6.638c0,0-.94793,4.26525-3.79376,6.27027,0,0,12.49877,9.68656,20.02269,24.3761s6.32964,18.63065,6.32964,18.63065,14.45069,6.09078,19.94434,18.51121c0,0,10.629,23.766-23.2883,56.25022,0,0,10.03188,8.121,13.01756,23.88544a124.57154,124.57154,0,0,1,1.47771,31.1705l2.03026,6.56849s8.55418-4.53823,19.66091,0c0,0,15.996,5.65309,7.64334,28.90139-7.16563,19.94434-22.02546,27.77572-22.02546,27.77572S122.19448,298.54345,35.97226,270.6916c0,0-.5926-66.963,19.85185-126.81482C55.82411,143.87678,67.39411,81.29651,96.86837,47.10517Z" transform="translate(-24.97155 -3.88734)"/><path class="cls-3" d="M48.74486,228.494c4.1106-34.0575,9.47144-67.62824,20.00415-100.35553,9.19819-28.58057,20.57349-57.384,39.77765-80.829-6.4071-4.38227-12.12732-10.041-9.13311-18.67768a5.414,5.414,0,0,1,.75744-1.45392,11.11591,11.11591,0,0,0-3.28265,1.7577c-7.84589,5.98767,0,18.16955,0,18.16955-29.47425,34.19135-41.04425,96.77161-41.04425,96.77161C35.37969,203.72865,35.97228,270.6916,35.97228,270.6916q5.45334,1.76156,11.06555,3.26153C45.74633,258.82777,46.92266,243.59211,48.74486,228.494Z" transform="translate(-24.97155 -3.88734)"/><path class="cls-3" d="M55.45176,229.98439q.07464-.85641.16322-1.68244c.0434-.404.09613-.78723.14282-1.18378,1.53278,10.47174,7.05847,20.99805,13.25916,28.69116,7.91424,9.819,18.13672,18.8125,31.01654,20.7472,19.23718,2.88967,41.09784-8.252,53.45938-24.42207,0,0-2.70732,27.1122-45.474,31.08455s-50.13164-35.87058-50.13164-35.87058l-1.99392-13.28989Z" transform="translate(-24.97155 -3.88734)"/><path class="cls-3" d="M263.36547,232.21864c-5.22479,10.69348-12.11456,20.43072-22.0014,27.16906q-1.26143,1.017-2.62018,1.93433c-.067,5.59228-.32941,11.14368-.92084,16.68109,1.15344-.18878,1.75806-.296,1.75806-.296s14.85986-7.83136,22.02551-27.77576C264.36675,242.249,264.46728,236.48908,263.36547,232.21864Z" transform="translate(-24.97155 -3.88734)"/><path class="cls-4" d="M240.93487,69.42921c.80243-.18848,1.59448-.43116,2.36859-.697,1.76312-.60553,3.5227-1.23847,5.272-1.88276,1.22644-.45172,2.44159-.93182,3.6532-1.421a14.33152,14.33152,0,0,0-1.74512-4.90264c3.30359-4.74885,1.93091-11.15632,1.93091-11.15632s.33484.02759.83862.04438c-.03747-.04023-.07379-.08179-.11133-.12189a6.97534,6.97534,0,0,1-1.74652-2.39392,3.50211,3.50211,0,0,1,.93055-3.25018c-.95868-4.68708-4.31989-10.58283-4.31989-10.58283s.05536-.08008.13678-.20087a9.69778,9.69778,0,0,1-2.56665-.4035,1.83255,1.83255,0,0,1-1.3338-1.60236,9.0436,9.0436,0,0,1-.0445-2.02545c-10.91815-12.674-22.82672-8.982-22.82672-8.982a7.92569,7.92569,0,0,0-3.80011-2.19934,24.15933,24.15933,0,0,0-5.08508,7.93457c-.6944,1.68853-1.41211,3.39752-2.05145,5.13293l1.64544-1.5769c-1.03234,1.65179-1.85827,8.05237-1.85827,8.05237l2.89062-2.47767-.20648,5.36829,2.21143-2.04132a34.19172,34.19172,0,0,0,14.09985,22.68854l-3.923,2.68414c2.06475,1.85822,7.63946.413,7.63946.413l-3.71649,2.27118c2.06476.82587,6.60712.61939,6.60712.61939l-2.27118,1.85827a61.40783,61.40783,0,0,0,7.26208-.3764A6.62771,6.62771,0,0,0,240.93487,69.42921Z" transform="translate(-24.97155 -3.88734)"/><path class="cls-5" d="M240.23477,49.35965c-.50883,5.00151,1.4082,11.69165,4.75262,13.82172a2.27109,2.27109,0,0,0-1.12156.145c-3.443,1.44675-7.54272.17529-10.90761-1.44487a7.5171,7.5171,0,0,0-3.49229-1.147,6.24538,6.24538,0,0,0-3.5415,1.91046c-.231.20081-.48494.4637-.42436.76374.065.32211.443.4576.76367.52929a25.08422,25.08422,0,0,0,4.4692.58384L229.476,66.11821l5.52665,1.03757-1.17861,1.49064a20.35434,20.35434,0,0,0,6.87261-.21589,10.38488,10.38488,0,0,0,1.49089,4.525,8.59433,8.59433,0,0,0-1.34353,2.73443l-1.72573,4.91694c-1.28737,3.668.82,7.85922,2.93658,11.11978l3.06336-6.56927,3.2374,10.943a22.72956,22.72956,0,0,0,6.95162-17.16111,13.17747,13.17747,0,0,0-.87817-4.50981,7.25183,7.25183,0,0,0-2.886-3.5037,10.89,10.89,0,0,0-.97028-10.72988c3.08016-9.65244,2.18079-20.36882-3.525-28.74145s-16.09262-13.56714-26.14381-12.29021c-1.82335-1.7272-4.694-1.35216-7.18555-1.66851a43.73009,43.73009,0,0,1-5.79378-1.526c-4.08408-1.10259-8.74595-1.067-12.20909,1.36246-4.09453,2.87235-5.48341,8.20316-6.58142,13.08271l1.54888,1.70366,2.71242-.34062,3.98559-2.33467,1.14238,2.33467v3.07169l5.47607-2.51637,3.54972-3.80866,1.41473.07824-1.52566,4.16566,3.23191-2.27558.17675,2.85843-.57576,3.47784,2.841-2.11245-.1915,4.97875,2.19645-1.65178.44821-1.912.60351-6.68843.48927-1.92687,2.349-.4672,1.47255-1.10986a16.11609,16.11609,0,0,0,4.87974,9.01045,47.98986,47.98986,0,0,0,8.35478,6.21138" transform="translate(-24.97155 -3.88734)"/><path class="cls-6" d="M252.35113,43.77192a3.21924,3.21924,0,0,0-.51856,3.78406,12.78084,12.78084,0,0,0,1.55066,1.86194c1.92828.05261,6.04211-.08918,5.56567-2.31275-.61944-2.89062-6.53222-3.01318-6.53222-3.01318C252.39843,43.98719,252.372,43.87812,252.35113,43.77192Z" transform="translate(-24.97155 -3.88734)"/><path class="cls-6" d="M244.303,30.55073a2.06923,2.06923,0,0,0,.53546,1.39679,2.77239,2.77239,0,0,0,1.19562.54358,12.79966,12.79966,0,0,0,2.17267.27746c.82586-1.23895,3.86511-6.03259,2.07031-6.93005-2.04474-1.02234-5.90607,3.01153-5.98083,3.09A10.2519,10.2519,0,0,0,244.303,30.55073Z" transform="translate(-24.97155 -3.88734)"/><path class="cls-7" d="M249.75423,30.15654c-1.2623,2.06884-5.35793,6.13749-6.66819,4.27555s2.05111-6.31,2.05111-6.31a3.45885,3.45885,0,0,0,.31783,2.62409,2.65624,2.65624,0,0,0,2.29508,1.20346A2.42543,2.42543,0,0,0,249.75423,30.15654Z" transform="translate(-24.97155 -3.88734)"/><path class="cls-7" d="M255.16192,49.38875c-2.5392.47492-6.35214-1.30244-6.09689-3.24671s4.98577-1.50376,4.98577-1.50376a2.15476,2.15476,0,0,0-.95714,2.55869A4.09874,4.09874,0,0,0,255.16192,49.38875Z" transform="translate(-24.97155 -3.88734)"/><path class="cls-7" d="M238.81048,47.41284c.62065,2.91249,2.06882,1.91477,2.41362.81139a10.48116,10.48116,0,0,0,.13792-3.1531s.82753-1.0535.82753-1.3983-1.44817-.96545-3.8618-1.5861a27.84341,27.84341,0,0,0-4.62036-.75857s-1.37922,2.36649,2.89635,3.39a1.77078,1.77078,0,0,0,.27584,2.26858C237.983,48.01735,238.81048,47.41284,238.81048,47.41284Z" transform="translate(-24.97155 -3.88734)"/><path class="cls-1" d="M117.7635,82.94749s.28043-11.28734,8.73239-17.86655a18.677,18.677,0,0,1,20.79171-1.58963,18.95034,18.95034,0,0,1,8.65772,11.57c2.27338,7.77122.40139,14.19154-3.68769,18.71353-8.15773,9.0214-22.57827,9.26583-30.29-.13968A17.83449,17.83449,0,0,1,117.7635,82.94749Z" transform="translate(-24.97155 -3.88734)"/><path class="cls-1" d="M208.67259,73.79553c-.38857-7.31767-8.88377-16.61813-19.6084-14.42886a17.44853,17.44853,0,0,0-8.7135,4.85538,18.56261,18.56261,0,0,0-5.25385,17.39211s1.73675,12.12121,16.56534,12.96969S209.03623,80.64356,208.67259,73.79553Z" transform="translate(-24.97155 -3.88734)"/></g><g id="Layer_5" data-name="Layer 5"><path class="cls-8" d="M220.47957,25.9394a16.11609,16.11609,0,0,0,4.87974,9.01045,47.98986,47.98986,0,0,0,8.35478,6.21138" transform="translate(-24.97155 -3.88734)"/><path class="cls-8" d="M240.23477,49.35965c-.50883,5.00151,1.4082,11.69165,4.75262,13.82172" transform="translate(-24.97155 -3.88734)"/><path class="cls-9" d="M193.40717,22.729c-.3641.54135-.65364,1.31235-.2188,1.79869a1.47636,1.47636,0,0,0,1.34192.289,6.95542,6.95542,0,0,0,4.28113-2.43451,2.95016,2.95016,0,0,0,.806-2.03048C199.32679,16.796,194.13592,21.64541,193.40717,22.729Z" transform="translate(-24.97155 -3.88734)"/><path class="cls-9" d="M201.93257,17.84708a3.20211,3.20211,0,0,0-.95474.97375,1.09377,1.09377,0,0,0,.11,1.27561,1.24057,1.24057,0,0,0,1.25865.14488,1.71328,1.71328,0,0,0,1.21865-1.45591c.01394-.67347-.73895-1.30823-1.347-1.01838" transform="translate(-24.97155 -3.88734)"/><path class="cls-9" d="M230.73019,26.08268a2.66743,2.66743,0,0,0,2.73517-.31306,2.48638,2.48638,0,0,0,.24841-2.648c-.7832-1.9308-3.9293-4.22122-5.9534-2.58913C225.40828,22.42905,228.959,25.48643,230.73019,26.08268Z" transform="translate(-24.97155 -3.88734)"/><path class="cls-9" d="M237.54815,26.242a1.56919,1.56919,0,0,0,1.85421.79619,1.72392,1.72392,0,0,0,.61425-1.94791,2.76435,2.76435,0,0,0-1.03054-1.75748C236.88548,21.89336,236.8288,25.0988,237.54815,26.242Z" transform="translate(-24.97155 -3.88734)"/><path class="cls-9" d="M250.67588,73.945a4.59485,4.59485,0,0,0-.13183,2.52549c.10146.43639.33024.91552.76675,1.01644a.92174.92174,0,0,0,.90364-.39461,2.20715,2.20715,0,0,0,.34659-.974,2.6512,2.6512,0,0,0-.22689-1.85444,1.17252,1.17252,0,0,0-1.641-.3951" transform="translate(-24.97155 -3.88734)"/><path class="cls-9" d="M250.04368,85.16833a3.24549,3.24549,0,0,0,.71741,1.49014,1.6147,1.6147,0,0,0,1.50719.52386A2.2623,2.2623,0,0,0,253.6284,85.644a9.23026,9.23026,0,0,0,.45032-4.95959c-.36817-1.97488-1.87912-2.65671-3.01812-.89807A6.9543,6.9543,0,0,0,250.04368,85.16833Z" transform="translate(-24.97155 -3.88734)"/></g><g id="Layer_4" data-name="Layer 4"><path class="cls-10" d="M96.86837,47.10517s-7.84594-12.18185,0-18.16954,16.10481,1.4453,17.96306,5.57474c0,0,25.04055-18.36682,63.38691-3.71649a16.68329,16.68329,0,0,1,13.21421-7.63947s2.8906-8.0524,11.56243-8.25888,10.11713,3.923,10.11713,3.923,3.51-3.51,8.25888,1.03236c0,0,11.97537-3.71649,22.91839,9.08477,0,0,3.923-4.12944,5.98769-3.09708s-2.27119,7.22652-2.27119,7.22652,3.58489,6.27809,4.41077,11.027c0,0,5.91283.12254,6.53224,3.01315s-6.5345,2.26434-6.5345,2.26434,1.3727,6.40748-1.93085,11.15634c0,0,3.7165,5.98769.61942,10.3236,0,0,5.36827,2.47766,4.12944,11.56243s-6.60711,14.24657-7.22652,14.24657-.61942-7.63947-3.09708-11.76891c0,0-2.47767,4.33592-2.2712,7.63947,0,0-6.88139-7.2637-1.88428-15.16994.19642-.31077.026-2.79313,2.09076-4.4449a6.24623,6.24623,0,0,1-2.02916-4.7123,61.41274,61.41274,0,0,1-7.26208.37639L235.824,66.72s-4.54239.20647-6.60711-.61942l3.7165-2.27119s-5.57474,1.4453-7.63946-.41294l3.923-2.68414A34.19169,34.19169,0,0,1,215.11707,38.0438l-2.21144,2.04132.20648-5.36827-2.89061,2.47766s.82589-6.40063,1.85825-8.05241L207.12442,33.891s1.27054-4.92466,2.50938-6.37l-2.50938,1.20816s-2.03616,4.25743-8.56222,6.638c0,0-.94793,4.26525-3.79376,6.27027,0,0,12.49877,9.68656,20.02269,24.3761s6.32964,18.63065,6.32964,18.63065,14.45069,6.09078,19.94434,18.51121c0,0,10.629,23.766-23.2883,56.25022,0,0,10.03188,8.121,13.01756,23.88544a124.57154,124.57154,0,0,1,1.47771,31.1705l2.03026,6.56849s8.55418-4.53823,19.66091,0c0,0,15.996,5.65309,7.64334,28.90139-7.16563,19.94434-22.02546,27.77572-22.02546,27.77572S122.19448,298.54345,35.97226,270.6916c0,0-.5926-66.963,19.85185-126.81482C55.82411,143.87678,67.39411,81.29651,96.86837,47.10517Z" transform="translate(-24.97155 -3.88734)"/><path class="cls-11" d="M114.49077,38.3953s1.10756-5.01266-2.44672-7.63549" transform="translate(-24.97155 -3.88734)"/><path class="cls-11" d="M99.97226,49.35827a9.50109,9.50109,0,0,1-4.87485-5.70009" transform="translate(-24.97155 -3.88734)"/><path class="cls-11" d="M174.08457,29.38541s18.55224,8.93947,28.65544,20.311" transform="translate(-24.97155 -3.88734)"/><path class="cls-11" d="M181.67535,29.72411a9.37951,9.37951,0,0,1,10.96146,5.4992" transform="translate(-24.97155 -3.88734)"/><path class="cls-11" d="M188.88547,31.00774a93.97381,93.97381,0,0,1,3.81858-9.6913" transform="translate(-24.97155 -3.88734)"/><path class="cls-11" d="M190.683,32.11862a7.65424,7.65424,0,0,1,6.438,1.5161" transform="translate(-24.97155 -3.88734)"/><path d="M193.08044,31.38968A15.89534,15.89534,0,0,1,203.191,27.66207a27.447,27.447,0,0,0,3.43956-.13261,6.88177,6.88177,0,0,0,5.04672-3.54776,6.46351,6.46351,0,0,0,.80828-3.02905,5.1941,5.1941,0,0,0-.21538-1.52126c-.15746-.48417-.3508-.904-.49364-1.44475l-.01445-.05472a.52773.52773,0,0,1,.78053-.588,2.76653,2.76653,0,0,1,1.14881,1.655,6.66814,6.66814,0,0,1,.268,1.96373,7.92491,7.92491,0,0,1-1.01224,3.72013,8.23184,8.23184,0,0,1-6.13077,4.22289,28.20532,28.20532,0,0,1-3.61484.07456,15.38495,15.38495,0,0,0-9.49119,3.18608.50006.50006,0,0,1-.62994-.77664Z" transform="translate(-24.97155 -3.88734)"/><path class="cls-11" d="M197.381,29.44333s2.57036,2.557,0,7.81615" transform="translate(-24.97155 -3.88734)"/><path class="cls-11" d="M211.64407,25.34667s3.78873,3.70649,7.92637,1.43078.88915-7.71382.88915-7.71382" transform="translate(-24.97155 -3.88734)"/><path class="cls-11" d="M216.65805,27.51646a27.64961,27.64961,0,0,0,1.3323,18.62558" transform="translate(-24.97155 -3.88734)"/><path d="M212.25341,34.49848a1.59721,1.59721,0,0,1,.594-.8q.37339-.32289.76506-.62287a9.79751,9.79751,0,0,1,1.68962-1.00834.50361.50361,0,0,1,.52641.85023c-.47861.38864-.948.77634-1.40642,1.17335q-.34932.29089-.68052.60177a1.69425,1.69425,0,0,1-.77637.50827l-.0161.0043a.57031.57031,0,0,1-.69806-.404A.57608.57608,0,0,1,212.25341,34.49848Z" transform="translate(-24.97155 -3.88734)"/><path d="M210.97167,29.964a.9107.9107,0,0,1,.05614-1.215,5.27551,5.27551,0,0,1,.69711-.90272,4.497,4.497,0,0,1,1.89777-1.20434.52606.52606,0,0,1,.5951.79214l-.0149.02233c-.36945.554-.7016,1.05785-1.01427,1.55793-.15727.249-.30113.50236-.44667.75223a.81916.81916,0,0,1-.84738.58241l-.08187.00684A.93672.93672,0,0,1,210.97167,29.964Z" transform="translate(-24.97155 -3.88734)"/><path class="cls-11" d="M245.13715,28.12213s-3.36136,4.448-2.05111,6.31,5.40589-2.20671,6.66819-4.27555" transform="translate(-24.97155 -3.88734)"/><path class="cls-11" d="M244.995,28.84244a2.8198,2.8198,0,0,0,3.59026,3.18647" transform="translate(-24.97155 -3.88734)"/><path d="M248.23112,26.29638a1.11919,1.11919,0,0,0-.507,1.4778,1.45016,1.45016,0,0,0,1.46257.74037,1.5326,1.5326,0,0,0,1.2412-.92653,1.27926,1.27926,0,0,0-.40077-1.45959,1.10027,1.10027,0,0,0-1.46177.176" transform="translate(-24.97155 -3.88734)"/><path class="cls-11" d="M254.0508,44.63828s-4.73053-.44051-4.98577,1.50376,3.55769,3.72163,6.09689,3.24671" transform="translate(-24.97155 -3.88734)"/><path class="cls-11" d="M253.652,44.71815a2.62806,2.62806,0,0,0,1.50994,4.53715" transform="translate(-24.97155 -3.88734)"/><path d="M256.24639,45.08439a.95259.95259,0,0,0-1.02712.64572,1.22533,1.22533,0,0,0,.32592,1.21517,1.73582,1.73582,0,0,0,1.20434.46744,1.2604,1.2604,0,0,0,1.18932-.617,1.08464,1.08464,0,0,0-.26411-1.16827,2.02312,2.02312,0,0,0-1.13859-.521" transform="translate(-24.97155 -3.88734)"/><path class="cls-11" d="M238.81048,47.41284c.62065,2.91249,2.06882,1.91477,2.41362.81139a10.48116,10.48116,0,0,0,.13792-3.1531s.82753-1.0535.82753-1.3983-1.44817-.96545-3.8618-1.5861a27.84341,27.84341,0,0,0-4.62036-.75857s-1.37922,2.36649,2.89635,3.39a1.77078,1.77078,0,0,0,.27584,2.26858C237.983,48.01735,238.81048,47.41284,238.81048,47.41284Z" transform="translate(-24.97155 -3.88734)"/><path class="cls-11" d="M236.14051,44.59544s4.11814.9775,5.22151.47569" transform="translate(-24.97155 -3.88734)"/><path class="cls-11" d="M238.75127,45.07113a14.86681,14.86681,0,0,0,.4711,3.56775" transform="translate(-24.97155 -3.88734)"/><path d="M228.51656,59.63325a1.72345,1.72345,0,0,1,1.05829.24994l.94656.47412c.6357.308,1.27787.60359,1.92682.88112a37.67389,37.67389,0,0,0,3.95966,1.44847,17.28087,17.28087,0,0,0,4.05945.786,5.7314,5.7314,0,0,0,3.75692-.81453l.00045-.0003a.56506.56506,0,0,1,.56668-.0361,2.23613,2.23613,0,0,0,1.15523.19873,2.99191,2.99191,0,0,0,1.214-.38578,6.5468,6.5468,0,0,0,1.9894-1.88112,15.69745,15.69745,0,0,0,1.41229-2.51686c.41663-.87943.73514-1.80857,1.07054-2.72927l.00983-.027a.49979.49979,0,0,1,.93933.34179c-.34578.95142-.67428,1.90812-1.1109,2.83169a16.66151,16.66151,0,0,1-1.51,2.6845,7.50252,7.50252,0,0,1-2.32594,2.17644,3.54589,3.54589,0,0,1-3.35791.16453l.56633-.03608-.00057.00039a6.78533,6.78533,0,0,1-4.41607,1.30623,18.58736,18.58736,0,0,1-4.41071-.6814,33.89558,33.89558,0,0,1-4.15288-1.44355q-1.01275-.41868-2.00258-.88646l-.98568-.47881a1.7152,1.7152,0,0,1-.84764-.75453.59695.59695,0,0,1,.45308-.8679Z" transform="translate(-24.97155 -3.88734)"/><path class="cls-12" d="M247.85559,232.89539a2.38787,2.38787,0,0,0,2.70242-.03974c1.73816-1.11962,1.74888-4.5951-.8045-4.5533C247.772,228.33479,246.12852,231.52668,247.85559,232.89539Z" transform="translate(-24.97155 -3.88734)"/><path class="cls-12" d="M246.3311,249.07839a2.58,2.58,0,0,0,2.61515.265c2.3004-1.0125,3.4477-5.8545.02831-5.97063C246.44551,243.28683,244.10342,247.27318,246.3311,249.07839Z" transform="translate(-24.97155 -3.88734)"/><path class="cls-12" d="M235.72754,234.01821a4.86723,4.86723,0,0,1,5.266,2.16329,6.97048,6.97048,0,0,1,.53363,5.88539,12.58219,12.58219,0,0,1-3.4072,4.99782" transform="translate(-24.97155 -3.88734)"/><path class="cls-12" d="M234.32488,225.75955a1.34082,1.34082,0,0,1,2.04261-.267,1.88829,1.88829,0,0,1,.24829,2.21481,3.27637,3.27637,0,0,1-1.84956,1.43563" transform="translate(-24.97155 -3.88734)"/><path class="cls-11" d="M242.00978,64.1219a8.762,8.762,0,0,0,.058,7.40345" transform="translate(-24.97155 -3.88734)"/><path class="cls-11" d="M235.42287,67.2413a8.584,8.584,0,0,0,3.39916-3.28739" transform="translate(-24.97155 -3.88734)"/><path class="cls-11" d="M242.59769,73.79553a7.61289,7.61289,0,0,1,11.00375-.43746" transform="translate(-24.97155 -3.88734)"/><path class="cls-11" d="M241.74257,75.06133A7.97368,7.97368,0,0,0,243.134,82.019c.60395.76732,1.34734,1.41717,1.94124,2.1923a3.775,3.775,0,0,1,.91328,2.70335" transform="translate(-24.97155 -3.88734)"/><path class="cls-11" d="M117.7635,82.94749s.28043-11.28734,8.73239-17.86655a18.677,18.677,0,0,1,20.79171-1.58963,18.95034,18.95034,0,0,1,8.65772,11.57c2.27338,7.77122.40139,14.19154-3.68769,18.71353-8.15773,9.0214-22.57827,9.26583-30.29-.13968A17.83449,17.83449,0,0,1,117.7635,82.94749Z" transform="translate(-24.97155 -3.88734)"/><path class="cls-11" d="M208.67259,73.79553c-.38857-7.31767-8.88377-16.61813-19.6084-14.42886a17.44853,17.44853,0,0,0-8.7135,4.85538,18.56261,18.56261,0,0,0-5.25385,17.39211s1.73675,12.12121,16.56534,12.96969S209.03623,80.64356,208.67259,73.79553Z" transform="translate(-24.97155 -3.88734)"/><path d="M193.902,98.70507s-.74455-7.27273,12.34636-7.75758,12.12121,4,12.60606,5.81818-3.26322,7.51515-12.48009,7.27273S194.64653,101.61416,193.902,98.70507Z" transform="translate(-24.97155 -3.88734)"/><circle cx="114.90787" cy="74.56525" r="2.53541"/><circle cx="166.96808" cy="73.02985" r="2.32028"/><path class="cls-13" d="M105.02969,150.04056s14.56736,13.58759,12.51562,38.20849-4.92418,37.752-4.92418,37.752" transform="translate(-24.97155 -3.88734)"/><path class="cls-13" d="M93.74511,233.38735s13.33632-10.46388,34.46925-7.38627c17.61078,2.56467,36.64637,20.09,17.68677,41.1773a48.72624,48.72624,0,0,1-31.39224,15.53437c-38.42753,3.95384-58.74364-15.27958-58.92616-56.71167" transform="translate(-24.97155 -3.88734)"/><path class="cls-13" d="M132.11267,237.696s7.03589-5.681,12.03267-5.09741" transform="translate(-24.97155 -3.88734)"/><path class="cls-13" d="M139.29376,254.32677s12.53008-6.431,12.83061-12.14642" transform="translate(-24.97155 -3.88734)"/><line class="cls-13" x1="196.69974" y1="151.62347" x2="186.13314" y2="159.74081"/><path class="cls-13" d="M238.55879,277.88158s3.52719-33.62-11.45052-77.52726l-14.2775-38.05215" transform="translate(-24.97155 -3.88734)"/></g></svg>