<svg xmlns="http://www.w3.org/2000/svg" viewBox="0 0 279.87727 277.83384"><defs><style>.cls-1{fill:#fff;}.cls-2{fill:#53656d;}.cls-3{fill:#977a5c;}.cls-4{fill:#989393;}.cls-5{fill:#3c484e;}.cls-6{fill:#fde1d6;}.cls-7{fill:#f2f0f4;}.cls-8{fill:#b8c1bd;}.cls-15,.cls-20,.cls-22,.cls-9{fill:none;}.cls-15,.cls-9{stroke:#000;}.cls-15,.cls-20,.cls-9{stroke-linecap:round;stroke-linejoin:round;}.cls-10{fill:#565356;}.cls-11{fill:#403835;}.cls-12{fill:#ffc7b6;}.cls-13{fill:#6d6556;}.cls-14{fill:#486299;}.cls-15{stroke-width:2px;}.cls-16{fill:#f1dd96;}.cls-17{fill:#c08167;}.cls-18{fill:#93583e;}.cls-19{fill:#9a7745;}.cls-20{stroke:#9a7745;}.cls-21{fill:#192120;}.cls-22{stroke:#a01a17;stroke-miterlimit:10;}</style></defs><title>we bare bear chloe park</title><g id="Layer_6" data-name="Layer 6"><path class="cls-1" d="M166.626,21.08308a92.63748,92.63748,0,0,1,22.97933,2.85877c26.90135,6.83594,57.05954,29.15136,63.793,63.59618q.6592,3.37209,1.26758,6.56c3.82223,19.89942,6.584,34.27684,13.83008,39.08053a11.12065,11.12065,0,0,0,6.31747,1.78961,18.80162,18.80162,0,0,0,3.90717-.44531,1.03061,1.03061,0,0,1,.20657-.021.99888.99888,0,0,1,.66641,1.74649,15.95758,15.95758,0,0,1-9.753,3.42465,16.76365,16.76365,0,0,1-9.25576-2.94559c-.03907,4.41065-.38184,15.12593-2.6973,21.10935-2.85254,7.36818-14.9453,15.03123-25.39253,16.43654,2.05565,2.2207,5.11523,6.60153,3.88965,12.09082a13.85943,13.85943,0,0,1-8.38282,9.624c2.11229,3.25976,8.09175,13.61919,10.68459,29.94142,3.082,19.39941,3.92964,43.16406,3.93747,43.40234a1,1,0,0,1-.832,1.02054,753.91864,753.91864,0,0,1-111.46,8.56442c-31.34764,0-65.229-2.30273-95.85494-9.29589a.99548.99548,0,0,1-.43753-.22364L20.41,257.42373a.99875.99875,0,0,1-.14841-1.33881l2.22265-3.05764c.24023-1.625,1.70558-9.99608,6.71047-12.64649a9.78446,9.78446,0,0,1,4.60582-1.23749,7.79516,7.79516,0,0,1,4.212,1.218,11.7938,11.7938,0,0,1,5.53738-1.52237,9.00536,9.00536,0,0,1,6.89821,3.27338,9.325,9.325,0,0,1,6.21776-2.86136h.01759c2.28906,0,4.44971,1.11717,6.43506,3.32324a8.83233,8.83233,0,0,1,5.64318-2.41693,6.48361,6.48361,0,0,1,.66441.0341c2.5293.26665,4.79247,2.00783,6.7373,5.18265l1.78764-1.46289-1.2217-3.17581a.99955.99955,0,0,1,.05129-.83107l.60641-1.13277-1.64353-2.13769a.9989.9989,0,0,1-.17235-.87206,3.40183,3.40183,0,0,1,3.11448-2.624,3.55579,3.55579,0,0,1,.69557.07123.9953.9953,0,0,1,.56983.33693l1.875,2.23242,1.832.167a.99658.99658,0,0,1,.68947.37106L88.36514,241.33l3.28877-3.47512c-.32542-.08241-.65089-.16353-.97512-.25389a30.65,30.65,0,0,1-10.38853-5.16524,31.26218,31.26218,0,0,1-7.72312-8.65281,30.68445,30.68445,0,0,1-4.23883-10.80536,29.60488,29.60488,0,0,1,.31671-11.61369,29.22907,29.22907,0,0,1,4.75483-10.60318c.55811-.79665,1.16217-1.55948,1.79205-2.29877.63224-.74613,1.30924-1.44083,1.90777-2.1256l1.85941-2.0657a19.34337,19.34337,0,0,0,1.76306-2.10529,19.57532,19.57532,0,0,1,1.80194-2.39148,3.63165,3.63165,0,0,1,1.65423-.98123,3.85442,3.85442,0,0,1,.86189-.10077q.05778,0,.11623.00183a3.039,3.039,0,0,1,1.04588.23688,4.56639,4.56639,0,0,1,2.28212,2.70236,6.49963,6.49963,0,0,1,.27747.99411,4.654,4.654,0,0,0,.39082-.54,3.96217,3.96217,0,0,0,.27507-.53488c.07829-.19042.12046-.32924.21776-.63188a7.3286,7.3286,0,0,1,.73583-1.6543,3.18844,3.18844,0,0,1,1.81323-1.41666,3.41386,3.41386,0,0,1,.877-.11294,4.6624,4.6624,0,0,1,1.26643.19542,4.8908,4.8908,0,0,1,1.73135.98242c.45318.37646.83806.75853,1.20565,1.126a17.28488,17.28488,0,0,0,2.12312,1.92359,3.95344,3.95344,0,0,0,1.94484.86338.92431.92431,0,0,0,.10187-.00538l.00809,0a2.6623,2.6623,0,0,0,1.74461-1.11473,10.80471,10.80471,0,0,0,.818-1.124l.42059-.65035c.08759-.12565.14888-.23141.28165-.39347a2.812,2.812,0,0,1,.43406-.44,3.31061,3.31061,0,0,1,1.58717-.70863c-1.20294-4.51359-1.17553-7.9453.10459-10.19647a5.169,5.169,0,0,1,.94483-1.21677l-3.63965-2.59965c-1.97753-.47365-15.94042-4.41988-25.31783-23.17476-7.46488-14.92923-4.54882-34.78912-2.53959-44.06841a59.94224,59.94224,0,0,0-6.80711,18.23341,1.00424,1.00424,0,0,1-.99034.82983l-.04919-.00119a1,1,0,0,1-.94388-.93606c-.52295-8.36717-.38965-29.87747,12.10546-48.86082C89.81143,50.89591,103.85538,39.75626,108.58584,36.245,98.4359,32.4462,98.31143,23.1,98.31143,23.00044a.99989.99989,0,0,1,.70112-.95412.98682.98682,0,0,1,.29953-.04653.99964.99964,0,0,1,.82059.4303c.20117.28517,4.52285,6.204,15.52415,6.204a34.98673,34.98673,0,0,0,5.24049-.41247c3.49807-.52977,7.46294-1.42383,11.66065-2.37059,9.80235-2.21034,21.14334-4.76832,34.06808-4.768m-50.96749,9.55145c-7.54086,0-12.26311-2.61563-14.80465-4.66633.9243,2.90183,3.4243,7.1343,10.18359,8.96483a.99988.99988,0,0,1,.30124,1.792c-.17771.12112-17.90035,12.29835-30.06147,30.77441C71.9042,81.73921,69.74014,97.81338,69.412,107.65621c1.5483-4.80324,4.17624-11.0713,8.354-16.03224a1,1,0,0,1,1.72359.92918C79.40467,92.83832,71.12,121.309,80.62,140.3085c9.4663,18.93264,24.00242,22.12893,24.14841,22.15924a.99818.99818,0,0,1,.37888.166l5.01565,3.582a.99951.99951,0,0,1-.34958,1.78618,2.51,2.51,0,0,0-1.28124,1.27147c-.71559,1.33929-1.20429,4.06063.36817,9.434a3.22737,3.22737,0,0,1,.39588.22389,4.67454,4.67454,0,0,1,1.37172,1.36923c.3584.56888.51276.91382.75287,1.27406a1.6721,1.6721,0,0,0,.67642.64641.32005.32005,0,0,0,.164.0399,1.12433,1.12433,0,0,0,.60845-.25689,15.326,15.326,0,0,0,1.92129-2.24559,3.28949,3.28949,0,0,1,1.5163-.97542,1.87366,1.87366,0,0,1,.49072-.06372,2.86919,2.86919,0,0,1,1.32146.37184,5.69128,5.69128,0,0,1,1.31193,1.02124l1.07106,1.09717a10.81062,10.81062,0,0,0,3.80783,2.22976,9.31526,9.31526,0,0,1,.20047-1.77041,5.02414,5.02414,0,0,1,.65088-1.626,3.21285,3.21285,0,0,1,.60347-.72359,2.18621,2.18621,0,0,1,.98524-.54794,1.64272,1.64272,0,0,1,.33477-.03412,1.8571,1.8571,0,0,1,.84976.21246,3.27115,3.27115,0,0,1,.76259.57295,7.52652,7.52652,0,0,1,.96411,1.30411,17.14686,17.14686,0,0,1,1.26364,2.71506,49.95437,49.95437,0,0,1,5.30178,6.60248,38.72884,38.72884,0,0,1,4.06547,7.56694,21.79293,21.79293,0,0,1,1.59964,8.48182,27.9531,27.9531,0,0,1-1.45677,8.48587,27.41927,27.41927,0,0,1-3.922,7.66036,18.15185,18.15185,0,0,1-6.566,5.62417,16.86445,16.86445,0,0,1-2.06906.764,18.29965,18.29965,0,0,1-2.14565.44658,13.89456,13.89456,0,0,1-2.1974.17307,14.58685,14.58685,0,0,1-2.199-.16771,15.91329,15.91329,0,0,1-4.26341-1.19365,16.69482,16.69482,0,0,1-3.48494-2.0243,5.04488,5.04488,0,0,0-1.77524.54024,2.72029,2.72029,0,0,0-1.25888,1.43006,4.63673,4.63673,0,0,0-.11494,2.11859c.10017.38524.17035.77118.286,1.15753l.41977,1.15823.02277.06278a.98783.98783,0,0,1-.59218,1.26523,1.00543,1.00543,0,0,1-.33987.05906h-.00413a17.32227,17.32227,0,0,1-2.242-.17177,15.95375,15.95375,0,0,1-2.19488-.454,9.62441,9.62441,0,0,1-3.21035-1.53183,5.01409,5.01409,0,0,0-.37454.70206,4.49553,4.49553,0,0,0-.3887,1.69047,4.4279,4.4279,0,0,0,.27118,1.7097,6.8486,6.8486,0,0,0,.84882,1.61482l.04159.06313a.97818.97818,0,0,1-.27806,1.35506.99062.99062,0,0,1-.46948.15912q-1.065.07536-2.11537.07447a33.01,33.01,0,0,1-6.18963-.60431L89.0282,243.539a.9628.9628,0,0,1-.68809.3154c-.02621,0-.05258-.00126-.079-.00386a.9992.9992,0,0,1-.7393-.374l-4.46876-5.57811-1.81882-.16507a1.00431,1.00431,0,0,1-.67483-.35253L78.682,235.14544a1.23356,1.23356,0,0,0-1.00588.7207l1.68994,2.19825a.999.999,0,0,1,.08936,1.08105l-.6953,1.29883,1.31735,3.42381a.99968.99968,0,0,1-.30023,1.13283L76.518,247.66885a1.00959,1.00959,0,0,1-.63507.22577.9881.9881,0,0,1-.19159-.01871.99978.99978,0,0,1-.68652-.50588c-1.73877-3.21777-3.68265-4.96289-5.77736-5.18847a4.35458,4.35458,0,0,0-.46107-.02432c-2.729,0-4.93133,2.51506-4.95446,2.541a1.032,1.032,0,0,1-.78123.34959,1.00029,1.00029,0,0,1-.76518-.38089c-1.78076-2.26659-3.65918-3.416-5.58253-3.416h-.01217c-3.11671.00783-5.45506,2.96876-5.47806,2.999a1.06443,1.06443,0,0,1-.79011.3858l-.00819,0a.99906.99906,0,0,1-.79106-.4004,7.50845,7.50845,0,0,0-6.15228-3.4025,9.37437,9.37437,0,0,0-4.91654,1.54608,1.00231,1.00231,0,0,1-1.24853-.07717,5.49006,5.49006,0,0,0-3.4798-1.15043,7.81834,7.81834,0,0,0-3.676.99714c-4.52489,2.39546-5.68653,11.29881-5.69777,11.38865a.99664.99664,0,0,1-.18359.46387l-1.83347,2.52246L35.16884,267.7275c30.41179,6.91568,64.03733,9.195,95.16752,9.195a756.744,756.744,0,0,0,110.25438-8.401c-.18461-4.46979-1.15142-25.10749-3.879-42.27736-3.03418-19.10059-10.98434-30.05371-11.06447-30.16213a.99944.99944,0,0,1,.53913-1.55764c.27341-.07712,6.76658-1.96582,8.24705-8.59571,1.48047-6.63376-4.78123-11.61229-4.84477-11.66206a.99969.99969,0,0,1,.57036-1.78711c10.041-.45605,23.0937-8.21094,25.86323-15.36523,2.76371-7.13965,2.56354-22.16359,2.56058-22.31447a1.00051,1.00051,0,0,1,1.61426-.80518,15.71083,15.71083,0,0,0,9.73352,3.71474,13.12508,13.12508,0,0,0,4.34164-.7455,12.88623,12.88623,0,0,1-6.88183-2.11818c-7.94629-5.26807-10.77438-19.99171-14.68846-40.37012q-.61227-3.18309-1.26659-6.55371C244.87,54.33538,215.4032,32.561,189.11313,25.88032a90.56959,90.56959,0,0,0-22.47567-2.79146c-12.73754.0004-23.95325,2.529-33.63956,4.71334-4.23335.95459-8.23188,1.85642-11.80076,2.39694a36.93013,36.93013,0,0,1-5.53859.43539m50.96777-19.55144h-.00006c-14.03548-.00042-26.35924,2.77853-36.26158,5.01141-4.02372.90753-7.81784,1.76329-10.96472,2.23988a25.15821,25.15821,0,0,1-3.74312.29971c-5.10207,0-7.227-1.9178-7.56477-2.25926a11,11,0,0,0-19.78064,6.62561,24.14682,24.14682,0,0,0,4.4507,13.315,129.93684,129.93684,0,0,0-21.5087,24.58631c-14.15264,21.50159-14.31864,45.61389-13.73311,54.98271a11.00584,11.00584,0,0,0,6.85784,9.5146,57.77491,57.77491,0,0,0,5.50856,20.27628c5.7466,11.49319,13.08968,18.45555,19.34271,22.62317a12.68793,12.68793,0,0,0-1.67072.64108,13.065,13.065,0,0,0-1.94686-.23549q-.06945-.00309-.13883-.00534-.21785-.00688-.43282-.00684a13.75253,13.75253,0,0,0-3.0613.34566q-.10032.02259-.20023.04729a13.53958,13.53958,0,0,0-6.373,3.66565q-.04174.04235-.083.08511a21.589,21.589,0,0,0-2.41335,3.051c-.08435.12447-.165.24753-.25177.36588q-.11152.15213-.21727.30844c-.10027.12193-.33221.37712-.50538.56768q-.2198.24176-.43864.48581L69.6672,179.6462q-.04879.05418-.09677.10912c-.20565.23524-.42364.4713-.64458.71213-.41024.447-.87518.9537-1.36324,1.52969-.86888,1.01973-1.63825,2.00774-2.33442,2.99953A39.66266,39.66266,0,0,0,58.484,214.73521a40.38466,40.38466,0,0,0,5.55565,14.27139q.48248.79775,1.00319,1.57535-.55239.12618-1.09963.28892a17.13089,17.13089,0,0,0-7.25968-1.62,17.5414,17.5414,0,0,0-5.89906,1.05009,18.54691,18.54691,0,0,0-7.23423-1.46209,20.47446,20.47446,0,0,0-5.58757.78886,17.93667,17.93667,0,0,0-4.16149-.48445,19.71752,19.71752,0,0,0-9.28353,2.39865c-7.37358,3.90477-10.30725,12.21941-11.44942,17.43141l-.89534,1.23171a10.94543,10.94543,0,0,0,1.63994,14.73375L27.43943,276.91a11.00637,11.00637,0,0,0,4.80571,2.45877c27.74835,6.33612,60.74759,9.54812,98.08676,9.54812a766.31259,766.31259,0,0,0,113.12624-8.70425,11.03805,11.03805,0,0,0,9.15959-11.23224c-.00711-.21753-.879-24.62787-4.05518-44.61987a96.49193,96.49193,0,0,0-7.66383-25.552,22.96194,22.96194,0,0,0,5.24559-10.26514,21.40346,21.40346,0,0,0,.23685-8.07486c9.10228-4.06423,17.6916-10.9098,20.83192-19.02136a50.11465,50.11465,0,0,0,2.62164-11.77406h.00589a25.79189,25.79189,0,0,0,16.32541-5.88788l.06616-.05818a11.00144,11.00144,0,0,0-9.51281-19.00182l-.08182.01706a8.99746,8.99746,0,0,1-1.82413.22594,1.85611,1.85611,0,0,1-.79187-.12436c-.32242-.21371-2.03842-1.62812-4.174-8.50882-1.90912-6.15118-3.50882-14.47965-5.36118-24.12324l-.08935-.46488q-.57317-2.98271-1.18445-6.12747C255.64,46.8822,222.02415,21.862,192.0682,14.24985a101.96369,101.96369,0,0,0-25.44194-3.16676ZM120.83874,40.33275q.9245-.10515,1.85758-.24661c3.91811-.59347,8.083-1.53258,12.49235-2.52688,9.29623-2.09629,19.82258-4.47006,31.44912-4.47041a80.18775,80.18775,0,0,1,20.01241,2.48341c23.23595,5.90459,49.24476,24.97459,54.971,54.268q.56145,2.869,1.0833,5.60077l.17754.92335c2.44952,12.75329,4.5187,23.52575,7.87626,31.86875a11.027,11.027,0,0,0-2.17421,6.71949c.07376,5.32559-.47511,14.90312-1.88746,18.55171-1.13984,2.68034-9.9153,8.664-16.99125,8.98541a10.99968,10.99968,0,0,0-6.42933,19.53268,5.61318,5.61318,0,0,1,1.36418,1.84032c-.23261.625-1.165,1.01782-1.34261,1.08759a10.99948,10.99948,0,0,0-5.75373,16.99122c.2391.343,6.74125,9.81583,9.29173,25.87142,1.7511,11.02307,2.75844,23.67312,3.28819,32.14171a763.46286,763.46286,0,0,1-99.78743,6.96777c-34.46339,0-64.89143-2.8252-90.49309-8.39923l-5.316-4.67026c.12393-.57019.283-1.16.45542-1.7007a11.02812,11.02812,0,0,0,7.71891-.66434,11.07917,11.07917,0,0,0,7.50011,3.14589c.06579.00129.13656.00193.20092.00193a11.06211,11.06211,0,0,0,6.02171-1.8031,10.97164,10.97164,0,0,0,6.37847,2.21255q.11376.00261.2276.00259l.09758-.00045a11.08784,11.08784,0,0,0,4.42545-.9672,11.00345,11.00345,0,0,0,15.26836,1.35153l2.45016-2.00549a10.99724,10.99724,0,0,0,2.32331.40247c.24812.01709.49754.02575.74489.02575a10.999,10.999,0,0,0,7.96024-3.45137l1.42889-1.50973q1.20447.07091,2.39.071c.93971,0,1.88894-.03346,2.82118-.09941a11.04734,11.04734,0,0,0,5.26818-1.78546,10.92021,10.92021,0,0,0,3.298-3.39965A10.97452,10.97452,0,0,0,119.293,238.984q.30674.05008.61522.09311a24.65225,24.65225,0,0,0,3.62691.27,24.00556,24.00556,0,0,0,3.51141-.25763,20.82763,20.82763,0,0,0,2.59889-.50379c.12687-.03135.25346-.06364.381-.0917q.42338-.09309.83747-.22264a26.33014,26.33014,0,0,0,3.29753-1.23925q.04978-.02312.09924-.04677a27.90437,27.90437,0,0,0,10.25641-8.6511l.03348-.04494a37.35024,37.35024,0,0,0,5.37175-10.44859,37.91437,37.91437,0,0,0,1.96855-11.48575,31.90682,31.90682,0,0,0-2.29207-12.3035,48.53989,48.53989,0,0,0-5.06689-9.4774,60.97709,60.97709,0,0,0-5.05513-6.50969,25.12857,25.12857,0,0,0-1.18911-2.29631l-.04322-.07294a17.43075,17.43075,0,0,0-2.24318-3.00282q-.24211-.25889-.50212-.50018a13.09072,13.09072,0,0,0-2.97062-2.12488,11.88073,11.88073,0,0,0-5.44345-1.33,11.66836,11.66836,0,0,0-2.36822.243q-.08665.018-.17294.03753a11.90491,11.90491,0,0,0-2.4916.86819,13.31366,13.31366,0,0,0-1.69666-.63663q.01119-.05431.02184-.10873a11.0222,11.0222,0,0,0-4.41194-11.06918L110.959,154.4959a10.90964,10.90964,0,0,0-3.95172-1.77461c-.76885-.20671-10.5393-3.07742-17.443-16.88492-6.34464-12.689-2.49676-33.5154-.47876-40.46946a11.04476,11.04476,0,0,0-4.63489-12.37014,55.90129,55.90129,0,0,1,5.17948-9.99921C100.5592,56.39332,116.82967,45.0855,116.99273,44.9732a10.92568,10.92568,0,0,0,3.846-4.64045Z" transform="translate(-10.05142 -11.08309)"/></g><g id="Layer_5" data-name="Layer 5"><path class="cls-2" d="M278.92988,135.50073c-17.91413,3.82171-20.30262-16.00324-26.51288-47.77088s-33.9173-55.41418-63.05756-62.81872-52.548,1.91089-68.31231,4.29937-21.73578-6.2102-21.73578-6.2102,0,9.793,11.465,12.89813c0,0-17.91412,12.18158-30.33453,31.05109S68.02143,107.5548,68.49915,115.19811c0,0,2.38855-13.85357,10.03186-22.93,0,0-8.59875,28.90137,1.19428,48.48743s24.84088,22.69116,24.84088,22.69116l5.01593,3.58282s-5.01593,1.19428-1.43317,12.65931c1.823,5.83349-.09051,13.01019-.62665,19.09839-.60272,6.84344-3.07385,13.38-5.87,19.65515s-5.9856,12.30755-8.08716,18.84814l-5.26288,5.561-4.73511-5.91034-2.24188-.2038-2.13995-2.54755c-2.038-.40759-2.64948,1.83423-2.64948,1.83423l2.03809,2.64948-.91132,1.70251,1.48151,3.85181-3.25928,2.66668c-5.9259-10.963-12.83319-2.84625-12.83319-2.84625-5.9657-7.59277-11.60236-1.63733-12.51611-.572a11.78222,11.78222,0,0,0,2.03045.29907,1.64724,1.64724,0,0,1,1.35828.76044c3.20044.1842,6.36206.64533,9.546.68146,2.7981.03174,5.54529-1.53876,8.0788.07519,1.86987,1.19117.13684,4.17676-1.74182,2.97992-1.097-.69885-3.33966.20172-4.52716.31232a19.31362,19.31362,0,0,1-3.83857-.03082c-2.9812-.31183-5.80566-.55732-8.77984-.62232a1.36887,1.36887,0,0,1-1.92139.85651,20.23635,20.23635,0,0,0-6.0235-1.5362,7.77394,7.77394,0,0,1-4.392-1.47058,1.28535,1.28535,0,0,1-.35711-.45831,1.62754,1.62754,0,0,1-2.04254,1.15839c-2.21088-.59992-5.05311-1.07581-7.043.33862-1.81543,1.29047-3.53724-1.70374-1.74189-2.97992,2.73359-1.943,6.648-1.51526,9.70227-.68652a1.56747,1.56747,0,0,1,1.08381.90533,1.91058,1.91058,0,0,1,.74762-.98773c3.2467-2.03265,6.31414-.45441,9.54534.33386-5.31146-6.7586-12.26037-1.84375-12.26037-1.84375s-3.25928-2.963-8.29633-.29632S23.44037,253.413,23.44037,253.413L21.07,256.6723l13.62964,11.97454c90.0741,20.56714,206.92487.71882,206.92487.71882s-.81781-23.71668-3.92554-43.27839S226.452,195.48779,226.452,195.48779s7.32135-2.01551,8.957-9.3418-5.20544-12.66742-5.20544-12.66742c10.50958-.47766,23.88544-8.59875,26.75171-16.00323s2.62738-22.69117,2.62738-22.69117C270.33112,143.1441,278.92988,135.50073,278.92988,135.50073Z" transform="translate(-10.05142 -11.08309)"/><path class="cls-3" d="M91.9496,255.81285l15.65153,15.58543,7.18477,6.37689s-16.08466-1.05741-31.12241-2.18269-26.90006-2.754-26.90006-2.754l-22.06382-4.19161L21.07,256.67231l6.63274-5.66478Z" transform="translate(-10.05142 -11.08309)"/><path class="cls-4" d="M91.47255,260.1003l-9.888-.64921-20.51468-1.49776-1.9605.29922-8.8626-.59843-4.53125-.49843-8.32952-.13948-4.45791-.23892h-9.92l-1.9382-.105s7.05364-11.43353,7.25355-11.42169,8.8626,0,8.8626,0l7.22288.62222,7.38052.25463H62.23737l10.66571.66763,9.72887-.08473,13.3793,1.34654.20591,4.38617v4.57314Z" transform="translate(-10.05142 -11.08309)"/><path class="cls-5" d="M164.823,214.08585a3.93958,3.93958,0,1,0-3.985-.58244,1.7101,1.7101,0,0,1,1.27575-1.41809,1.9565,1.9565,0,0,1,1.83322.46291A2.13658,2.13658,0,0,1,164.823,214.08585Z" transform="translate(-10.05142 -11.08309)"/><path class="cls-5" d="M142.9041,211.7441a5.25621,5.25621,0,0,1-.1157-1.43375,1.77238,1.77238,0,0,1,.63429-1.25069,1.54477,1.54477,0,0,1,1.62056-.074,2.18876,2.18876,0,0,1,1.01373,1.32493,3.82571,3.82571,0,0,1,.05489,1.69743,3.2253,3.2253,0,0,0,2.05646-2.02631,4.24693,4.24693,0,0,0-.04041-3.00378,3.66886,3.66886,0,0,0-3.22146-2.48078,3.33368,3.33368,0,0,0-2.43141,1.1701,4.858,4.858,0,0,0-1.09659,2.5133,4.30478,4.30478,0,0,0,.181,2.16654A2.20432,2.20432,0,0,0,142.9041,211.7441Z" transform="translate(-10.05142 -11.08309)"/><path class="cls-6" d="M103.038,238.32393a14.68214,14.68214,0,0,1-6.82085-.35289c1.82465,11.66014,23.76613,8.85231,23.76613,8.85231s7.218-.92227,14.0251-9.90911,3.92856-13.56841,3.92856-13.56841l-3.02463-4.12364-21.62689,1.53447-12.87137,5.83667-1.07317,7.79507Z" transform="translate(-10.05142 -11.08309)"/><path class="cls-7" d="M122.17691,277.978,95.748,247.75581l-1.20434,3.25172.60217,1.385-1.44521.542-.48174,2.228.48174.96347-1.20434,1.08391-1.02369,2.89041L107.674,277.54479C112.4067,277.54479,117.46,277.591,122.17691,277.978Z" transform="translate(-10.05142 -11.08309)"/><path class="cls-8" d="M79.60979,244.50409a1.27829,1.27829,0,0,1,1.26456-1.62586c1.62586-.12043,3.01085,2.40868,2.64955,2.70977a5.89059,5.89059,0,0,1-.66239.48174L84.668,249.743H82.12181Z" transform="translate(-10.05142 -11.08309)"/><line class="cls-9" x1="85.69653" y1="236.67273" x2="73.19047" y2="235.76009"/><path class="cls-10" d="M80.73137,246.84318s-2.56679,1.69545-2.14527,6.8139,5.54,7.87639,6.68409,7.91252.542,2.7459-2.70976,2.38459-6.98518-5.47975-6.925-10.65841.90408-6.21472,2.25855-8.04516A6.41194,6.41194,0,0,1,79.27783,243.93,28.32972,28.32972,0,0,0,80.73137,246.84318Z" transform="translate(-10.05142 -11.08309)"/><path class="cls-10" d="M75.63475,246.84318h-4.636s-1.02369-2.29124-3.1915-1.59256-3.97433,3.70953-3.97433,8.04516,2.46818,7.768,5.90091,7.52713c0,0,1.86637,1.80651,0,2.89041s-8.18915-.50582-9.27306-7.90047,1.5-12.54263,8.42765-14.48492C71.73016,240.53121,74.61526,244.07354,75.63475,246.84318Z" transform="translate(-10.05142 -11.08309)"/><path class="cls-10" d="M61.79768,246.30852H59.25644s-2.70977-3.148-6.56366.53466a11.85509,11.85509,0,0,0-1.56564,8.96967c1.14412,5.25093,5.90127,4.22724,6.383,4.64876s.96348,3.43237-1.92694,3.49258S47.755,261.42194,47.213,254.619s2.52912-10.98747,7.52713-13.29106a5.76194,5.76194,0,0,1,3.0318-.802,7.869,7.869,0,0,1,2.97177,1.12376A4.171,4.171,0,0,1,62.65,243.52323C62.98765,244.366,62.70559,246.30852,61.79768,246.30852Z" transform="translate(-10.05142 -11.08309)"/><path class="cls-10" d="M48.58657,246.84318c-5.67186-8.68064-12.93521,3.502-10.58674,9.885S44.985,259.3777,44.985,259.3777s1.44521.42152,1.32478,2.52911c0,0-5.96149,3.55281-10.29711-2.228s-1.14413-15.89729,5.05823-19.32966c1.93649-1.07165,4.35255-.257,6.42935.508a3.70131,3.70131,0,0,1,2.317,1.70238,2.56765,2.56765,0,0,1-.16063,2.1115A9.48716,9.48716,0,0,1,48.58657,246.84318Z" transform="translate(-10.05142 -11.08309)"/><path class="cls-10" d="M36.72582,244.47833c-.12988-2.01293-9.0231-2.50335-9.0231,6.5292s6.98517,8.73147,6.98517,8.73147a2.1732,2.1732,0,0,1-.42152,3.248c-1.92694,1.50913-12.05092-2.38469-9.81913-13.98661a10.84631,10.84631,0,0,1,3.83447-6.47677,10.26223,10.26223,0,0,1,7.32165-2.20387c.9908.09348,2.13378.48266,2.40512,1.44015C38.28465,242.73443,37.44959,243.76973,36.72582,244.47833Z" transform="translate(-10.05142 -11.08309)"/><path class="cls-11" d="M110.58209,167.02954l-6.01594-3.58282s-15.04783-3.1051-24.84086-22.69116S78.531,92.26811,78.531,92.26811c-7.64335,9.07647-10.03189,22.93-10.03189,22.93-.47771-7.64334-.47771-29.37909,11.94272-48.24859s30.33451-31.05107,30.33451-31.05107c-11.465-3.10511-11.465-12.89814-11.465-12.89814s5.97136,8.59876,21.73575,6.21022,39.17212-11.70387,68.31236-4.29938S246.20681,55.96224,252.417,87.72988s8.59876,51.59255,26.51284,47.77088c0,0-8.59876,7.64334-19.3472-.71656,0,0,.23885,15.28668-2.6274,22.69116s-16.2421,15.52554-26.7517,16.00325l-4.60307-2.93572-6.13979-2.47842-7.018-1.39086-22.33615-1.99424-69.21455-2.09421Z" transform="translate(-10.05142 -11.08309)"/><path class="cls-6" d="M210.82879,166.55084c5.43417-2.44537,13.042-15.07981,13.042-15.07981,25.40473,15.89494,36.27307-18.34032,25.94815-26.21986s-19.42715-.81512-19.42715-.81512C222.24054,140.331,214.361,144.1349,214.361,144.1349s5.16246-8.55881,9.7815-27.71425S228.354,87.75542,228.354,87.75542A81.92933,81.92933,0,0,0,215.312,69.551a100.47787,100.47787,0,0,0-16.71007-14.40055l9.7815-11.2759c-6.38514,1.902-14.12883,8.15126-14.12883,8.15126s-5.43417-4.61905-20.92155-7.472a114.692,114.692,0,0,0-28.39352-1.63025c2.30952-4.7549,10.18906-12.36274,10.18906-12.36274-9.50979,3.53221-14.79112,12.108-14.79112,12.108-20.73475.7472-31.00872,6.538-31.00872,6.538S105.03234,53.69,96.31481,65.64515,81.49561,97.77466,84.4844,124.487s23.66082,41.51621,23.66082,41.51621,17.133,10.50541,24.11071,12.45509S152.094,182.2701,152.094,182.2701l11.56545.615,3.696-.04012s9.19726-7.558,15.52028-10.39147A116.53,116.53,0,0,1,196.51,167.54559l8.99684-1.10243Z" transform="translate(-10.05142 -11.08309)"/><path class="cls-1" d="M151.44035,99.09924s-5.48148-15.01952,5.037-27.31581,30.51852-12.2963,39.55555-3.40741,10.68822,30.66666-4.35959,41.92592S154.84776,112.63728,151.44035,99.09924Z" transform="translate(-10.05142 -11.08309)"/><path class="cls-1" d="M133.99622,91.48284a4.66579,4.66579,0,0,1,5.24567-3.363,1.76621,1.76621,0,0,1,.87915.3186l.036-.05249s5.50549-12.8988-3.23523-24.30621-34.22223-10.5185-41.33331,10.66668c-7.1106,21.18347,12.21362,41.59119,37.87994,23.394A11.25216,11.25216,0,0,1,133.99622,91.48284Z" transform="translate(-10.05142 -11.08309)"/><path class="cls-12" d="M173.78369,128.55178a14.0828,14.0828,0,0,0,10.78612,11.77141,14.288,14.288,0,0,0,14.7041-6.30092,14.49956,14.49956,0,0,0-.78957-16.00881c-3.24985-4.26932-10.48082-5.8026-15.7427-3.52864C177.40085,116.79287,173.1262,123.031,173.78369,128.55178Z" transform="translate(-10.05142 -11.08309)"/><path class="cls-12" d="M99.553,101.02856c-3.01361-3.959-9.66632-5.40772-14.5935-3.39307a101.90889,101.90889,0,0,0-.298,23.818,11.97693,11.97693,0,0,0,1.814.54291,13.42862,13.42862,0,0,0,13.81964-5.92193A13.62747,13.62747,0,0,0,99.553,101.02856Z" transform="translate(-10.05142 -11.08309)"/><path class="cls-13" d="M116.18254,34.37779a30.00665,30.00665,0,0,0-7.4811,8.903l2.81064-.47417c.67578-.71452,1.3539-1.63745,2.02967-2.352L113.07,42.59824l2.66667-.44444a42.41727,42.41727,0,0,1,6.61377-9.93669C121.10177,32.92447,117.30172,33.4795,116.18254,34.37779Z" transform="translate(-10.05142 -11.08309)"/><path class="cls-13" d="M119.1496,41.34217a74.50317,74.50317,0,0,1,18.28553-13.781c.84908-.45426,2.22744-.074,3.19041-.074l-2.12693,2.02127a34.44148,34.44148,0,0,1,15.17809-3.38771,4.18792,4.18792,0,0,1,1.81988.30662,1.55293,1.55293,0,0,1,.93585,1.47341c3.89466-2.30767,8.12654-2.05987,12.61917-1.50309l9.1198,1.13023c-.28681.43708-.11949,1.05564-.4063,1.49271a15.06067,15.06067,0,0,1,4.63821-1.53344c2.99569-.47126,5.81231,1.26348,8.12271,3.22772a6.58753,6.58753,0,0,0,2.34885,1.58975,5.31779,5.31779,0,0,0,3.5417-.73226s20.6254,11.65407,23.75051,14.34,3.56957,4.04182,3.56957,4.04182h1.20522l9.90589,12.12952v8.959h1.50036a13.59054,13.59054,0,0,1,.94408,7.75249,46.93236,46.93236,0,0,0-.95554,8.46974l-1.93335-3.2272c-1.33333-.10614-1.77777-6.10614-2-6.995s-1.29441.66667-1.75831.44445-3.42812-5.33333-4.05713-6-8.58759-7.52748-8.83052-7.87485a34.98994,34.98994,0,0,1-.8512-4.11453L214.62554,61.128,201.7797,51.48713l6.60371-7.61262L201.107,47.28944,198.43175,48.994s-9.197-3.475-13.2794-5.71319a20.99173,20.99173,0,0,0-8.0154-2.46037V38.03278s-6.3185,4.121-6.63718,3.23213-2.46683-1.55556-2.46683-1.55556l-20.52706-.72346,4.58816-5.3222,3.03453-3.10289-6.66,3.6281-5.18661,4.696-12.43416.60221-3.18424,1.11111-2.001-2.56546-3.31215,3.45435Z" transform="translate(-10.05142 -11.08309)"/><path class="cls-13" d="M240.80435,74.7372l-2.15089,16.46715c-.11028.84428.82847,1.08367,1.37234,1.73878.21354-.33556.33557-.67112.54911-1.00669-.002,1.80584.17407,3.6098.28744,5.41208a1.72456,1.72456,0,0,0,.23811.9224.60282.60282,0,0,0,.83916.17294.87606.87606,0,0,0,.2175-.44961l.515-1.96475A45.87517,45.87517,0,0,0,244.04294,81.793a3.02856,3.02856,0,0,0-.35749-1.50527A1.083,1.083,0,0,0,242.34,79.827a8.91286,8.91286,0,0,0,.354-3.22865C242.61738,75.46088,241.83034,75.23417,240.80435,74.7372Z" transform="translate(-10.05142 -11.08309)"/><path class="cls-13" d="M246.63935,86.17218a172.96985,172.96985,0,0,0,.06359,17.66591,1.74,1.74,0,0,0,.39358,1.22293,1.18294,1.18294,0,0,0,1.39816.02175,3.46169,3.46169,0,0,0,.97728-1.127,1.56152,1.56152,0,0,0,.29748,1.67393,1.42337,1.42337,0,0,0,1.61266.12815.921.921,0,0,1,.467.90672,3.0599,3.0599,0,0,0,.05377,1.07833c.12778.33918.58481.58634.857.347a.79273.79273,0,0,0,.20379-.44865c.85966-4.04163.44443-8.23805-.128-12.33025a5.08911,5.08911,0,0,0-.48735-1.80158,1.7641,1.7641,0,0,0-1.49542-.97607,1.08846,1.08846,0,0,0-1.05634,1.24413,22.78116,22.78116,0,0,0-1.49771-6.61563,2.96238,2.96238,0,0,0-.61267-1.19155C247.372,85.647,247.04355,85.97268,246.63935,86.17218Z" transform="translate(-10.05142 -11.08309)"/><polygon class="cls-6" points="133.253 170.063 139.089 174.986 145.347 181.651 146.843 183.861 149.947 180.079 157.975 171.127 133.253 170.063"/><path class="cls-8" d="M78.38225,238.79592a1.7367,1.7367,0,0,0,1.96205-.75067,2.78314,2.78314,0,0,0,.26225-2.18887,2.834,2.834,0,0,0-1.208-1.76,1.79442,1.79442,0,0,0-2.0468.1,2.00761,2.00761,0,0,0-.44688,2.09183,5.90084,5.90084,0,0,0,1.19222,1.90688" transform="translate(-10.05142 -11.08309)"/><path class="cls-14" d="M91.38982,247.61688q-4.04566-4.92678-7.752-10.11967c-.32963-.46187-.73287-.96971-1.29907-1.00707a1.747,1.747,0,0,0-1.40945.96111,3.05982,3.05982,0,0,1-1.1941,1.29409c-.41188.17017-.9148.12584-1.26274.4043a1.40833,1.40833,0,0,0-.42335,1.00452,4.441,4.441,0,0,0,1.14353,3.35521,2.38977,2.38977,0,0,1,3.88509,1.39531c.10369.509-.30036,1.3938.20042,1.68207a2.74228,2.74228,0,0,0,.94112.15529q.68184.08308,1.36368.16638l2.77144.33813,1.5397.18786C90.13947,247.46434,91.24715,247.44314,91.38982,247.61688Z" transform="translate(-10.05142 -11.08309)"/></g><g id="Layer_4" data-name="Layer 4"><path class="cls-15" d="M108.149,179.68882c-3.58281-11.465,1.43313-12.65928,1.43313-12.65928l-5.01594-3.58282s-15.04783-3.1051-24.84086-22.69116S78.531,92.26811,78.531,92.26811c-7.64335,9.07647-10.03189,22.93-10.03189,22.93-.47771-7.64334-.47771-29.37909,11.94272-48.24859s30.33451-31.05107,30.33451-31.05107c-11.465-3.10511-11.465-12.89814-11.465-12.89814s5.97136,8.59876,21.73575,6.21022,39.17212-11.70387,68.31236-4.29938S246.20681,55.96224,252.417,87.72988s8.59876,51.59255,26.51284,47.77088c0,0-8.59876,7.64334-19.3472-.71656,0,0,.23885,15.28668-2.6274,22.69116s-16.2421,15.52554-26.7517,16.00325c0,0,6.84111,5.34113,5.20547,12.6674s-8.957,9.34177-8.957,9.34177,8.1392,11.03778,11.2469,30.59949,3.92552,43.2784,3.92552,43.2784S124.77368,289.214,34.69961,268.64685L21.07,256.67231l2.37037-3.25926s1.18519-9.48148,6.22222-12.14814,8.2963.29629,8.2963.29629,7.11111-5.037,12.44444,2.07408c0,0,6.12977-7.8833,12.64829.413,0,0,6.90727-8.1167,12.83319,2.84627l3.25926-2.66667L77.66257,240.376l.91128-1.70249-2.038-2.64947s.61142-2.24185,2.64947-1.83424l2.13995,2.54756,2.24186.20381,4.73513,5.91035,5.26285-5.561c2.10159-6.54062,5.291-12.573,8.08719-18.84813s5.26732-12.81171,5.87-19.65518C108.05843,192.69906,109.97194,185.52236,108.149,179.68882Z" transform="translate(-10.05142 -11.08309)"/><path d="M107.8541,166.40972a53.43036,53.43036,0,0,1-6.16592-5.54046,65.77069,65.77069,0,0,1-5.37528-6.27558,64.33708,64.33708,0,0,1-8.22229-14.30032,60.54334,60.54334,0,0,1-4.124-15.97682,121.02072,121.02072,0,0,1-.682-16.45862,86.41516,86.41516,0,0,1,6.71722-32.12735,60.6256,60.6256,0,0,1,3.86326-7.31416c1.467-2.352,3.12133-4.54643,4.75873-6.73657,3.30458-4.37925,6.62671-8.71963,10.34382-12.81892a.42926.42926,0,0,1,.11565-.08976,45.70789,45.70789,0,0,1,7.52228-2.93506,79.76874,79.76874,0,0,1,7.79471-1.90923c2.62522-.51145,5.27334-.8871,7.92871-1.181,1.32681-.15658,2.66052-.2382,3.99046-.3608l3.99986-.21594-.40758.23739a31.48725,31.48725,0,0,1,3.03669-3.89692,34.84649,34.84649,0,0,1,3.54948-3.40572,29.63313,29.63313,0,0,1,4.01361-2.85646,28.32261,28.32261,0,0,1,4.44284-2.1553.4972.4972,0,0,1,.535.81526l-.01359.01318c-1.89478,1.86279-3.74012,3.804-5.47794,5.81741-.87079,1.00615-1.71591,2.03372-2.50157,3.09747a22.37874,22.37874,0,0,0-2.107,3.30645l-.49684-.71614a107.1162,107.1162,0,0,1,12.78409-.135A122.44548,122.44548,0,0,1,170.385,43.54923a92.6467,92.6467,0,0,1,12.478,2.77461,58.671,58.671,0,0,1,6.032,2.18012,27.58977,27.58977,0,0,1,5.68319,3.14076l-.63766-.00812a68.73077,68.73077,0,0,1,6.78978-4.70251,34.94031,34.94031,0,0,1,7.51015-3.53874.49837.49837,0,0,1,.525.80174l-.00455.00514L198.97967,55.478l-.10694-.74787a92.61313,92.61313,0,0,1,8.86144,6.85785,111.18907,111.18907,0,0,1,8.06437,7.7542,87.77377,87.77377,0,0,1,7.10039,8.65915,76.054,76.054,0,0,1,5.90491,9.53588l.00339.0066a.42753.42753,0,0,1,.04629.19033,92.09183,92.09183,0,0,1-1.35837,14.6464c-.77465,4.82979-1.76619,9.61947-2.91938,14.36758-1.15058,4.7503-2.48774,9.45821-4.05573,14.09351a85.4222,85.4222,0,0,1-5.73085,13.55145l-.64549-.70847a16.623,16.623,0,0,0,2.54571-1.75709c.82038-.65682,1.59539-1.37483,2.35179-2.11194a45.33344,45.33344,0,0,0,4.16895-4.79065c1.30618-1.67366,2.46919-3.457,3.60648-5.25291l1.6208-2.74933,1.5094-2.8147.015-.02792a.40712.40712,0,0,1,.12351-.13906,16.24025,16.24025,0,0,1,18.22348-.42279c.65645.46064,1.3313.87335,1.971,1.37583.3024.28334.63617.53956.90919.84919.25856.32142.53539.63173.77558.96515a12.10944,12.10944,0,0,1,1.83647,4.48745,21.37689,21.37689,0,0,1-.34653,9.50392,23.74208,23.74208,0,0,1-1.59917,4.49432,21.35921,21.35921,0,0,1-2.4658,4.09363,17.20517,17.20517,0,0,1-7.55876,5.78493,16.86063,16.86063,0,0,1-9.50687.47514,29.24687,29.24687,0,0,1-8.71828-3.75281l.69341-.16591a87.98161,87.98161,0,0,1-5.7715,8.30008,44.19466,44.19466,0,0,1-3.35144,3.81768,15.19584,15.19584,0,0,1-4.11519,3.14535l-.02687.01462-.19107-.95575a36.0305,36.0305,0,0,1,13.72687,3.05807,27.53257,27.53257,0,0,1,6.04748,3.80413,15.55876,15.55876,0,0,1,4.28066,5.7232.50187.50187,0,0,1-.84536.52182l-.02635-.0318a38.91962,38.91962,0,0,0-4.5393-4.89875,25.84706,25.84706,0,0,0-5.6146-3.62674,38.625,38.625,0,0,0-6.36455-2.31527,42.47287,42.47287,0,0,0-6.6931-1.235.5088.5088,0,0,1-.20188-.94992l.0108-.006.02365-.01312a14.32159,14.32159,0,0,0,3.82169-2.942,43.22147,43.22147,0,0,0,3.27478-3.73163,87.04845,87.04845,0,0,0,5.6986-8.1949.5048.5048,0,0,1,.69368-.166,28.26344,28.26344,0,0,0,8.40635,3.62471,15.85738,15.85738,0,0,0,8.94117-.43708,16.20547,16.20547,0,0,0,7.11133-5.45424,20.36242,20.36242,0,0,0,2.355-3.91095,22.74655,22.74655,0,0,0,1.53468-4.31327,20.39525,20.39525,0,0,0,.33833-9.05262,11.12543,11.12543,0,0,0-1.67961-4.12483c-.2156-.29793-.46252-.57064-.69038-.85878-.24149-.27523-.53636-.49468-.79993-.74695-.58514-.45966-1.24763-.86561-1.86679-1.3024a15.82381,15.82381,0,0,0-8.61269-2.43976,16.01905,16.01905,0,0,0-8.47512,2.8l.13823-.1667-1.527,2.84756-1.64193,2.78523c-1.15328,1.8217-2.33356,3.63091-3.66355,5.33576a46.32021,46.32021,0,0,1-4.26007,4.89405c-.77713.75751-1.57469,1.49637-2.42657,2.17876a17.28873,17.28873,0,0,1-2.739,1.87947.4933.4933,0,0,1-.667-.66984l.02138-.0387a84.79264,84.79264,0,0,0,5.64039-13.35692c1.5564-4.6011,2.88605-9.28148,4.03061-14.0071,1.148-4.72639,2.1343-9.4921,2.9038-14.28983a91.50559,91.50559,0,0,0,1.34674-14.44581l.04959.19655a75.21717,75.21717,0,0,0-5.81732-9.38881,86.775,86.775,0,0,0-7.01787-8.55873,110.1935,110.1935,0,0,0-7.99016-7.68276,91.7946,91.7946,0,0,0-8.74742-6.77235l-.00777-.0052a.5.5,0,0,1-.13678-.69377l.03757-.04915L208.00565,43.547l.5204.80679a34.01358,34.01358,0,0,0-7.27931,3.43675,67.8126,67.8126,0,0,0-6.67808,4.62431.50767.50767,0,0,1-.6193.00616l-.01867-.01427a27.01838,27.01838,0,0,0-5.432-2.98464,57.68187,57.68187,0,0,0-5.92633-2.14139A91.66151,91.66151,0,0,0,170.232,44.53744a121.45081,121.45081,0,0,0-12.601-1.24772,106.28216,106.28216,0,0,0-12.64418.13158l-.01176.00091a.49816.49816,0,0,1-.4852-.71722,23.27926,23.27926,0,0,1,2.20358-3.46563c.80647-1.09162,1.665-2.135,2.54739-3.15469,1.7641-2.04312,3.61422-3.98972,5.54043-5.8835l.52137.82838a27.32658,27.32658,0,0,0-4.27853,2.07656,28.63682,28.63682,0,0,0-3.88516,2.76537,33.84764,33.84764,0,0,0-3.44908,3.30925,30.65324,30.65324,0,0,0-2.92656,3.75019.5303.5303,0,0,1-.40789.23757l-3.9653.21409c-1.31756.12173-2.63966.20232-3.95352.35751-2.62978.2911-5.251.66291-7.84622,1.16856a78.77725,78.77725,0,0,0-7.6937,1.88417,45.02739,45.02739,0,0,0-7.32229,2.8495l.11535-.08951c-3.63688,4.01087-6.98124,8.37147-10.2653,12.72634-1.63851,2.191-3.282,4.3739-4.71063,6.66627a59.62886,59.62886,0,0,0-3.79757,7.19016,85.4291,85.4291,0,0,0-6.632,31.75154,120.0207,120.0207,0,0,0,.67639,16.32,59.53978,59.53978,0,0,0,4.05447,15.705,63.33767,63.33767,0,0,0,8.09457,14.07728,64.77662,64.77662,0,0,0,5.29623,6.18352,52.6108,52.6108,0,0,0,6.03046,5.4238l.02147.01626a.49982.49982,0,0,1-.6037.79677Z" transform="translate(-10.05142 -11.08309)"/><path class="cls-9" d="M243.97721,156.90519s-.99348,12.75638-7.62909,15.54835" transform="translate(-10.05142 -11.08309)"/><path class="cls-9" d="M236.34812,109.49209s-5.70232,17.23678-11.40625,24.035" transform="translate(-10.05142 -11.08309)"/><path class="cls-9" d="M243.97721,88.7064a121.49418,121.49418,0,0,1,1.08683,20.78569" transform="translate(-10.05142 -11.08309)"/><path class="cls-9" d="M227.53885,142.91221s4.08063-14.12883,17.59562-13.17785" transform="translate(-10.05142 -11.08309)"/><line class="cls-9" x1="249.14145" y1="118.60533" x2="249.14145" y2="128.29692"/><path class="cls-9" d="M228.21812,54.74285s.81513,8.2871-1.63025,12.77029" transform="translate(-10.05142 -11.08309)"/><path class="cls-9" d="M221.833,45.91233s-.951,9.50979-4.07563,13.58542" transform="translate(-10.05142 -11.08309)"/><path class="cls-9" d="M177.137,38.03278a50.66406,50.66406,0,0,1,14.5364-7.472" transform="translate(-10.05142 -11.08309)"/><path class="cls-9" d="M170.842,35.53119s7.74368-5.43417,15.35152-5.0266" transform="translate(-10.05142 -11.08309)"/><path class="cls-9" d="M126.32749,37.35351s8.55881-7.78735,19.01958-9.93918" transform="translate(-10.05142 -11.08309)"/><path class="cls-9" d="M106.84364,44.96135a27.10867,27.10867,0,0,0-8.36626,8.96637s10.782-5.78842,18.381-7.64911" transform="translate(-10.05142 -11.08309)"/><path d="M106.99367,164.31275c4.53693,2.83234,9.05153,5.74662,13.789,8.24544a81.75218,81.75218,0,0,0,14.72083,6.26839c1.27359.38641,2.56453.69763,3.86067.975,1.31674.243,2.628.51561,3.95236.71922,2.64112.44855,5.30051.79486,7.96714,1.06879a131.54443,131.54443,0,0,0,16.05014.75593l.00062,0-.30568.121a91.33561,91.33561,0,0,1,11.73613-8.2964,59.216,59.216,0,0,1,13.09131-5.96024,55.53021,55.53021,0,0,1,14.20709-2.2799,50.27389,50.27389,0,0,1,7.21027.26187,28.20032,28.20032,0,0,1,7.08574,1.62484.49989.49989,0,1,1-.36481.93085l-.0001,0-.0195-.00764a27.2931,27.2931,0,0,0-6.813-1.55428,49.28413,49.28413,0,0,0-7.06775-.25609,54.53548,54.53548,0,0,0-13.94925,2.2378,58.22541,58.22541,0,0,0-12.86906,5.86244,90.41562,90.41562,0,0,0-11.59355,8.19368l-.00934.00776a.49022.49022,0,0,1-.29669.11342l-.00066,0a128.38368,128.38368,0,0,1-16.2112-.57294c-2.691-.26474-5.37609-.60264-8.04606-1.04419-1.33826-.2-2.66535-.46962-3.9973-.70972-1.33775-.27983-2.6675-.59523-3.97276-.98507a83.00058,83.00058,0,0,1-14.98581-6.30292,94.26731,94.26731,0,0,1-13.75424-8.60628.50031.50031,0,0,1,.57137-.81956Z" transform="translate(-10.05142 -11.08309)"/><path d="M227.97248,199.32711a5.1195,5.1195,0,0,1-1.51677-1.911,22.47028,22.47028,0,0,0-1.34349-1.99031,21.04275,21.04275,0,0,0-3.30437-3.46116,18.06248,18.06248,0,0,0-8.57622-3.925,21.03,21.03,0,0,0-4.78895-.23523,11.44245,11.44245,0,0,0-4.51421,1.11281,29.58752,29.58752,0,0,0-7.81093,5.71513,94.76646,94.76646,0,0,0-12.34826,15.55,183.95145,183.95145,0,0,0-10.12258,17.23672l-.00531.0103a.49993.49993,0,0,1-.89373-.44812,184.36588,184.36588,0,0,1,9.78578-17.60078,96.26545,96.26545,0,0,1,12.36482-15.98995,30.112,30.112,0,0,1,8.27277-6.129,13.33071,13.33071,0,0,1,5.15669-1.29622,22.88164,22.88164,0,0,1,5.21139.23581,19.96021,19.96021,0,0,1,9.47977,4.29067,22.95757,22.95757,0,0,1,3.62726,3.76573,24.4003,24.4003,0,0,1,1.47182,2.16053,3.86991,3.86991,0,0,1,.78515,2.54311.56122.56122,0,0,1-.87021.40694Z" transform="translate(-10.05142 -11.08309)"/><path class="cls-9" d="M156.89468,202.36131s13.58542-.82616,22.28008-4.80082,18.14889-7.40212,20.55413-7.18279" transform="translate(-10.05142 -11.08309)"/><path class="cls-9" d="M152.13978,201.32951s-12.90615-1.23532-16.03079-4.965" transform="translate(-10.05142 -11.08309)"/><path class="cls-9" d="M143.51814,181.17973s10.116,8.05876,13.37654,13.76464c0,0,6.96791-8.96227,13.60509-14.60227" transform="translate(-10.05142 -11.08309)"/><path class="cls-9" d="M179.44647,231.08158s-13.31371-10.18906-28.80108-11.54761c0,0-8.19536-1.239-11.81932,1.22269l-2.01356.33556s5.40992,6.51481-3.69231,16.87882c-6.767,7.70509-11.87177,8.85589-14.04564,8.93923,0,0,1.40922,19.41289,27.76592,30.8649" transform="translate(-10.05142 -11.08309)"/><path class="cls-9" d="M120.89205,246.64446s2.99006,3.59256,10.32619,1.14718,12.90614-9.91735,12.90614-17.25348-5.29831-9.7815-5.29831-9.7815" transform="translate(-10.05142 -11.08309)"/><path class="cls-9" d="M228.76154,239.097s-11.54847,30.1509-25.94858,35.18187" transform="translate(-10.05142 -11.08309)"/><path class="cls-9" d="M164.823,214.08585a3.93958,3.93958,0,1,0-3.985-.58244,1.7101,1.7101,0,0,1,1.27575-1.41809,1.9565,1.9565,0,0,1,1.83322.46291A2.13658,2.13658,0,0,1,164.823,214.08585Z" transform="translate(-10.05142 -11.08309)"/><path class="cls-9" d="M142.9041,211.7441a5.25621,5.25621,0,0,1-.1157-1.43375,1.77238,1.77238,0,0,1,.63429-1.25069,1.54477,1.54477,0,0,1,1.62056-.074,2.18876,2.18876,0,0,1,1.01373,1.32493,3.82571,3.82571,0,0,1,.05489,1.69743,3.2253,3.2253,0,0,0,2.05646-2.02631,4.24693,4.24693,0,0,0-.04041-3.00378,3.66886,3.66886,0,0,0-3.22146-2.48078,3.33368,3.33368,0,0,0-2.43141,1.1701,4.858,4.858,0,0,0-1.09659,2.5133,4.30478,4.30478,0,0,0,.181,2.16654A2.20432,2.20432,0,0,0,142.9041,211.7441Z" transform="translate(-10.05142 -11.08309)"/><path class="cls-16" d="M87.844,184.7584a6.38373,6.38373,0,0,0,2.76161-3.23775c.66659-2.095,1.52365-3.04729,3.4282-2.47592s3.4282,3.71388,6.285,4.76139,4.47571-2.47592,5.23753-3.52343,3.04729-1.52364,4.57093,1.04751,2.95207,2.095,4.38048-.28569,2.95207-2.57115,5.14231,0a14.2786,14.2786,0,0,0,5.71367,3.71389s-.6666-3.66366,1.14273-5.06958,3.99957,4.1173,3.99957,4.1173,9.71324,9.90369,10.76074,19.90262-4.85662,22.09285-13.33189,24.47355a14.8671,14.8671,0,0,1-14.06785-3.25386s-6.88227.11134-3.64453,7.82479c0,0-5.39677.04728-7.77746-2.6191a5.883,5.883,0,0,0-.3169,7.7614s-16.85533,1.80933-27.13993-12.28438c-6.61154-9.06025-6.86732-17.56489-5.3086-24.30852a29.15613,29.15613,0,0,1,7.35259-13.39607c1.53257-1.619,3.10842-3.33037,3.86013-4.29089,1.7141-2.19024,2.28547-3.94933,4.19-3.92684S88.22489,182.66339,87.844,184.7584Z" transform="translate(-10.05142 -11.08309)"/><path class="cls-17" d="M87.44459,186.23248a1.93385,1.93385,0,0,1-.27289-.06079A9.01988,9.01988,0,0,0,87.793,190.472c.96386,2.12805,4.25018,2.095,6.43579-1.61884a18.04178,18.04178,0,0,1,1.447-2.14679A64.86175,64.86175,0,0,1,87.44459,186.23248Z" transform="translate(-10.05142 -11.08309)"/><path class="cls-17" d="M117.92322,186.97643c.81586.99787,1.76355,2.18561,2.96882,2.44812,2.149.468,5.257-1.40356,5.3623-3.186C124.55488,187.59149,120.90284,187.3576,117.92322,186.97643Z" transform="translate(-10.05142 -11.08309)"/><path class="cls-17" d="M113.93787,186.45251c-4.82458-.2179-9.61255.06885-14.39081.19708,1.19227,1.8114,3.06153,5.06751,4.77137,6.77612,2.28546,2.28388,6.57068.18885,8.47522-3.23931.98693-1.77649,1.51239-2.92994,1.96307-3.65125C114.438,186.49462,114.15,186.46209,113.93787,186.45251Z" transform="translate(-10.05142 -11.08309)"/><path class="cls-18" d="M107.12532,189.672c.41055.1347.87834.32633.9958.74214a.86388.86388,0,0,1-.48109.94278,1.78171,1.78171,0,0,1-1.12133.1019,4.00159,4.00159,0,0,1-2.27817-1.27035,1.61557,1.61557,0,0,1-.40733-.71063c-.19-.88673.51967-.7155,1.05136-.541Q106.00491,189.30452,107.12532,189.672Z" transform="translate(-10.05142 -11.08309)"/><path class="cls-18" d="M91.32477,188.44725c.17537.02174.38856.0837.42156.2573.03065.16126-.12147.29582-.26489.37567-.4376.24364-2.40934.576-2.47067-.32222C88.96856,188.13991,90.99425,188.40627,91.32477,188.44725Z" transform="translate(-10.05142 -11.08309)"/><path class="cls-19" d="M88.42961,183.94782a.9854.9854,0,0,0-.95887-.121c-.18806.09242-.06046.03-.0952.04639l.00716-.00466.02868-.01849.06317-.04234.13039-.0913.2601-.20016a6.014,6.014,0,0,0,.48924-.44109,5.3526,5.3526,0,0,0,.79846-.98805,3.96116,3.96116,0,0,0,.27505-.53491c.0783-.19038.1205-.32922.2178-.63188a7.326,7.326,0,0,1,.73577-1.6543,3.18854,3.18854,0,0,1,1.81325-1.41664,3.97155,3.97155,0,0,1,2.14343.08247,4.89162,4.89162,0,0,1,1.73136.98239c.4531.37648.838.75855,1.2056,1.126a17.29236,17.29236,0,0,0,2.12311,1.92363,3.63566,3.63566,0,0,0,2.04669.858,2.64812,2.64812,0,0,0,1.75278-1.11469,10.80192,10.80192,0,0,0,.818-1.124l.42062-.65036c.08758-.12567.14888-.23134.28161-.39349a2.81443,2.81443,0,0,1,.43411-.43995,3.53489,3.53489,0,0,1,4.14434-.168,4.67555,4.67555,0,0,1,1.3717,1.36915c.35838.569.51277.91388.75284,1.27416a1.67218,1.67218,0,0,0,.67642.64633c.15689.09224.43791.02669.77253-.217a15.32641,15.32641,0,0,0,1.92123-2.24562,3.28987,3.28987,0,0,1,1.51634-.97541,2.52082,2.52082,0,0,1,1.81214.30809,5.69346,5.69346,0,0,1,1.312,1.02127l1.071,1.0972a10.87013,10.87013,0,0,0,5.15066,2.59236.05756.05756,0,0,1,.0188.00624l-1.291,1.129a9.86021,9.86021,0,0,1,.12986-3.26817,5.02376,5.02376,0,0,1,.65092-1.62608,3.21273,3.21273,0,0,1,.60345-.72355,2.187,2.187,0,0,1,.98522-.548,1.79946,1.79946,0,0,1,1.18452.17841,3.27345,3.27345,0,0,1,.76263.57295,7.52841,7.52841,0,0,1,.96408,1.30409,17.23409,17.23409,0,0,1,1.28374,2.76408l.01411.0354-.105-.16154a49.90621,49.90621,0,0,1,5.37255,6.67961,38.72968,38.72968,0,0,1,4.06554,7.56688,21.79388,21.79388,0,0,1,1.59963,8.4819,27.95327,27.95327,0,0,1-1.45679,8.48583,27.41878,27.41878,0,0,1-3.922,7.66041,18.15188,18.15188,0,0,1-6.566,5.62415,16.86027,16.86027,0,0,1-2.06911.764,18.30258,18.30258,0,0,1-2.1456.44661,14.26271,14.26271,0,0,1-4.39643.00532,15.91129,15.91129,0,0,1-4.26342-1.19362,16.31319,16.31319,0,0,1-3.88716-2.32734l-.02815-.02541.72577.29532a5.1401,5.1401,0,0,0-2.07063.57341,2.72018,2.72018,0,0,0-1.25889,1.43,4.63692,4.63692,0,0,0-.1149,2.11861c.10016.38522.17033.77121.28606,1.15751l.41974,1.15824.02274.06273a.98781.98781,0,0,1-.59214,1.26527,1.00656,1.00656,0,0,1-.344.05908,17.33194,17.33194,0,0,1-2.242-.17181,15.95091,15.95091,0,0,1-2.19488-.45407,8.68824,8.68824,0,0,1-4.095-2.32707l1.44478.04908a5.37827,5.37827,0,0,0-.93465,1.44826,4.49626,4.49626,0,0,0-.38866,1.69046,4.42733,4.42733,0,0,0,.27121,1.70972,6.8439,6.8439,0,0,0,.84877,1.61479l.04162.06311a.97815.97815,0,0,1-.27809,1.35506.98964.98964,0,0,1-.46941.15912,33.76146,33.76146,0,0,1-11.556-1.28882,30.649,30.649,0,0,1-10.38858-5.16524,31.261,31.261,0,0,1-7.72306-8.65283,30.68351,30.68351,0,0,1-4.23881-10.80536,29.6038,29.6038,0,0,1,.31666-11.61369,29.22992,29.22992,0,0,1,4.75483-10.60312c.55811-.79668,1.16218-1.5595,1.79209-2.29879.63224-.74612,1.30924-1.44078,1.90775-2.12559l1.8594-2.06571a19.34907,19.34907,0,0,0,1.76305-2.10528,19.57732,19.57732,0,0,1,1.80193-2.3915,3.6317,3.6317,0,0,1,1.65421-.98124,3.80763,3.80763,0,0,1,.97816-.09893,3.03908,3.03908,0,0,1,1.0459.23688,4.56651,4.56651,0,0,1,2.28214,2.70239,6.52972,6.52972,0,0,1,.38283,1.60534,5.75738,5.75738,0,0,1,.04082.83763l-.00826.21333c-.00431.03922-.00375.22836-.01055.085A.54544.54544,0,0,0,88.42961,183.94782ZM87.25836,185.569a1.8731,1.8731,0,0,1-.3679-1.12682l.01806-.40666a3.78241,3.78241,0,0,0-.02846-.57153,4.54273,4.54273,0,0,0-.27072-1.1353,2.69659,2.69659,0,0,0-1.19764-1.561,1.05446,1.05446,0,0,0-.32281-.07512,1.88207,1.88207,0,0,0-.42294.03969,1.63665,1.63665,0,0,0-.73347.46159,19.33814,19.33814,0,0,0-1.57807,2.12721,20.53035,20.53035,0,0,1-1.85584,2.22629l-1.91977,2.13518c-.6426.73218-1.28161,1.38744-1.8667,2.07907-.59128.69411-1.15824,1.40946-1.68065,2.15579a27.2262,27.2262,0,0,0-4.434,9.87979,27.59647,27.59647,0,0,0-.3,10.83017,28.68182,28.68182,0,0,0,3.97088,10.10387,29.2377,29.2377,0,0,0,7.23515,8.11458,28.64731,28.64731,0,0,0,9.72658,4.83266,31.95063,31.95063,0,0,0,10.79129,1.22276l-.70578,1.5771a8.83145,8.83145,0,0,1-1.11206-2.12179,6.43072,6.43072,0,0,1-.38137-2.445,6.49947,6.49947,0,0,1,.55343-2.41228,7.17053,7.17053,0,0,1,1.37043-2.0802.95939.95939,0,0,1,1.35607-.04376l.04834.04861.04065.04425a6.77763,6.77763,0,0,0,3.151,1.73563,13.96574,13.96574,0,0,0,1.92189.39656,15.60016,15.60016,0,0,0,1.94971.15291l-.91327,1.3869-.4862-1.341c-.13914-.4608-.23433-.94858-.34867-1.42248a6.56011,6.56011,0,0,1,.21018-3.133,4.74325,4.74325,0,0,1,2.162-2.48828,7.015,7.015,0,0,1,3.013-.82681l.00771-.00045a.903.903,0,0,1,.71841.2959l.01216.01354a12.22724,12.22724,0,0,0,3.149,2.36166,13.84851,13.84851,0,0,0,3.8004,1.35021,13.09258,13.09258,0,0,0,4.05468.13447,13.84078,13.84078,0,0,0,2.01647-.35931,15.90847,15.90847,0,0,0,1.91147-.68659,17.02005,17.02005,0,0,0,6.22983-5.26547,26.452,26.452,0,0,0,3.74547-7.40344c1.71147-5.27524,1.96617-11.12117-.22653-16.25946a47.706,47.706,0,0,0-9.11191-13.96192l-.00891-.00982a.53667.53667,0,0,1-.09636-.15206l-.01218-.02935a16.1871,16.1871,0,0,0-1.41017-2.45678,6.29863,6.29863,0,0,0-.86716-.99c-.3103-.27073-.61746-.35125-.67149-.29121a1.7017,1.7017,0,0,0-.5388.644,3.39367,3.39367,0,0,0-.32993,1.12985,8.11273,8.11273,0,0,0,.12369,2.58713.98521.98521,0,0,1-1.28162,1.13255l-.00953-.00345a.2649.2649,0,0,1-.0405-.01365,19.59753,19.59753,0,0,1-5.24011-3.7625c-.37893-.406-.68393-.815-1.01275-1.15445a4.80261,4.80261,0,0,0-1.08472-.87621,1.48662,1.48662,0,0,0-2.102.54445,20.34113,20.34113,0,0,1-1.77443,2.62909,2.8113,2.8113,0,0,1-.83092.58475,2.058,2.058,0,0,1-1.18374.16649,3.15914,3.15914,0,0,1-1.7942-1.06722,15.863,15.863,0,0,1-.97241-1.26138,3.39347,3.39347,0,0,0-.84066-.72669,1.423,1.423,0,0,0-1.59779.0483,6.277,6.277,0,0,0-.66454.984,13.00218,13.00218,0,0,1-.96928,1.36794,6.671,6.671,0,0,1-1.36053,1.266,3.95479,3.95479,0,0,1-1.98669.706,4.27936,4.27936,0,0,1-2.02612-.37677,7.81182,7.81182,0,0,1-1.55989-.87654,18.49081,18.49081,0,0,1-2.40716-2.20467,5.94514,5.94514,0,0,0-1.92112-1.53919,1.79911,1.79911,0,0,0-.88094-.08839,1.01029,1.01029,0,0,0-.53648.44717,5.2076,5.2076,0,0,0-.539,1.12829c-.06663.1813-.18544.52955-.31573.80569a6.1305,6.1305,0,0,1-.45622.81183,7.15452,7.15452,0,0,1-1.17693,1.34965,8.07788,8.07788,0,0,1-.68355.54695l-.36335.24671-.19126.11767-.1.05846-.054.03018-.12942.066A1.06442,1.06442,0,0,1,87.25836,185.569Z" transform="translate(-10.05142 -11.08309)"/><path class="cls-20" d="M88.30221,202.36131a47.684,47.684,0,0,0,5.92663-9.60164" transform="translate(-10.05142 -11.08309)"/><path class="cls-20" d="M119.07453,193.42573a36.39,36.39,0,0,1,1.81752,6.47316" transform="translate(-10.05142 -11.08309)"/><path class="cls-20" d="M132.25593,197.26487a23.28584,23.28584,0,0,1,1.07618,19.22992" transform="translate(-10.05142 -11.08309)"/><path class="cls-20" d="M110.03207,218.37382s3.62689,6.70165,7.67,8.82642" transform="translate(-10.05142 -11.08309)"/><path class="cls-20" d="M100.41406,226.08727s2.5194,4.21848,5.59257,5.58506" transform="translate(-10.05142 -11.08309)"/><path class="cls-20" d="M87.793,182.845s-1.47457,4.37158,0,7.62706c.9639,2.12806,4.25018,2.095,6.43582-1.61888s3.51884-4.09479,4.37589-3.4282,3.4282,5.71688,5.71367,8.00074,6.57072.18886,8.47527-3.23935,2.095-4.57093,3.333-4.66616,2.57918,3.4282,4.7654,3.90434,5.3722-1.46922,5.3722-3.27855a6.56768,6.56768,0,0,0-1.01166-3.301" transform="translate(-10.05142 -11.08309)"/><path class="cls-20" d="M87.44922,186.65644s5.94661.66008,8.26538,0" transform="translate(-10.05142 -11.08309)"/><path class="cls-20" d="M99.55167,186.65644a43.85974,43.85974,0,0,1,14.95914.29337" transform="translate(-10.05142 -11.08309)"/><path class="cls-20" d="M117.90142,186.94981s6.41482.76065,7.93847-.28686" transform="translate(-10.05142 -11.08309)"/><path class="cls-9" d="M142.79717,219.43285V211.032s-.06384-2.23656,1.86377-2.191,1.40717,3.37633,1.40717,3.37633l-.46839,7.00481" transform="translate(-10.05142 -11.08309)"/><path class="cls-9" d="M160.69317,221.59167l.14482-8.08826a2.23689,2.23689,0,0,1,1.78878-1.48561,2.34745,2.34745,0,0,1,2.19626,2.068,13.90424,13.90424,0,0,0-.90411,2.718c-.05205.98213-.00023,5.9077-.00023,5.9077" transform="translate(-10.05142 -11.08309)"/><path class="cls-9" d="M122.17691,229.2967s-5.83772-1.16114-8.30986-3.89811a4.05774,4.05774,0,0,0-3.835,3.06872c-.7463,2.9276.75023,4.753,3.835,6.23312a45.584,45.584,0,0,0,8.30986,2.55836" transform="translate(-10.05142 -11.08309)"/><path class="cls-9" d="M111.21232,232.956s-4.02313,1.74447-9.14257-2.38079c0,0-2.9443,6.35187,3.93688,10.167s12.27217,1.99052,12.27217,1.99052" transform="translate(-10.05142 -11.08309)"/><path class="cls-9" d="M119.98329,246.82335s-21.94148,2.80783-23.76613-8.85231a14.68214,14.68214,0,0,0,6.82085.35289" transform="translate(-10.05142 -11.08309)"/><line class="cls-9" x1="100.81101" y1="239.68358" x2="101.11209" y2="254.37653"/><polyline class="cls-9" points="97.623 266.462 81.421 249.017 82.445 246.127 83.649 245.043 83.167 244.079 83.649 241.851 85.094 241.309 84.492 239.924 85.697 236.673 112.125 266.895"/><line class="cls-9" x1="85.09436" y1="241.30944" x2="107.13379" y2="266.23929"/><line class="cls-9" x1="83.49259" y1="244.72976" x2="95.08635" y2="256.24326"/><path class="cls-9" d="M98.57816,263.95419c.12043.18065,12.28427,13.36818,12.28427,13.36818" transform="translate(-10.05142 -11.08309)"/><path class="cls-9" d="M79.60979,244.50409a1.27829,1.27829,0,0,1,1.26456-1.62586c1.62586-.12043,3.01085,2.40868,2.64955,2.70977a5.89059,5.89059,0,0,1-.66239.48174L84.668,249.743H82.12181Z" transform="translate(-10.05142 -11.08309)"/><line class="cls-9" x1="85.69653" y1="236.67273" x2="73.19047" y2="235.76009"/><line class="cls-9" x1="75.70051" y1="229.26603" x2="81.12242" y2="236.33893"/><path class="cls-9" d="M79.07514,239.00726a2.3278,2.3278,0,0,0,1.87712-2.093" transform="translate(-10.05142 -11.08309)"/><path class="cls-9" d="M77.02106,236.54909a2.22912,2.22912,0,0,0,2.43729-2.16069" transform="translate(-10.05142 -11.08309)"/><path class="cls-9" d="M80.73137,246.84318s-2.56679,1.69545-2.14527,6.8139,5.54,7.87639,6.68409,7.91252.542,2.7459-2.70976,2.38459-6.98518-5.47975-6.925-10.65841.90408-6.21472,2.25855-8.04516" transform="translate(-10.05142 -11.08309)"/><path class="cls-9" d="M75.63475,246.84318h-4.636s-1.02369-2.29124-3.1915-1.59256-3.97433,3.70953-3.97433,8.04516,2.46818,7.768,5.90091,7.52713c0,0,1.86637,1.80651,0,2.89041s-8.18915-.50582-9.27306-7.90047,1.5-12.54263,8.42765-14.48492" transform="translate(-10.05142 -11.08309)"/><path class="cls-9" d="M61.79768,246.30852H59.25644s-2.70977-3.148-6.56366.53466a11.85509,11.85509,0,0,0-1.56564,8.96967c1.14412,5.25093,5.90127,4.22724,6.383,4.64876s.96348,3.43237-1.92694,3.49258S47.755,261.42194,47.213,254.619s2.52912-10.98747,7.52713-13.29106" transform="translate(-10.05142 -11.08309)"/><path class="cls-9" d="M48.58657,246.84318c-5.67186-8.68064-12.93521,3.502-10.58674,9.885S44.985,259.3777,44.985,259.3777s1.44521.42152,1.32478,2.52911c0,0-5.96149,3.55281-10.29711-2.228s-1.14413-15.89729,5.05823-19.32966" transform="translate(-10.05142 -11.08309)"/><path class="cls-9" d="M24.44724,249.00041c-2.23179,11.60192,7.89219,15.49574,9.81913,13.98661a2.1732,2.1732,0,0,0,.42152-3.248s-6.98517.30109-6.98517-8.73147,8.89322-8.54213,9.0231-6.5292" transform="translate(-10.05142 -11.08309)"/><line class="cls-9" x1="81.42112" y1="249.01722" x2="71.53317" y2="248.36801"/><line class="cls-9" x1="66.96964" y1="247.92222" x2="55.29991" y2="247.48446"/><line class="cls-9" x1="51.01848" y1="247.16946" x2="41.7381" y2="246.57103"/><line class="cls-9" x1="37.64969" y1="246.2095" x2="28.06269" y2="245.93571"/><line class="cls-9" x1="24.49008" y1="245.6942" x2="19.09582" y2="245.6942"/><line class="cls-9" x1="14.89496" y1="245.6942" x2="11.01856" y2="245.58923"/><line class="cls-9" x1="17.87704" y1="242.5166" x2="23.61278" y2="242.5166"/><line class="cls-9" x1="32.85619" y1="236.97381" x2="28.99517" y2="236.97381"/><line class="cls-9" x1="32.85619" y1="240.94814" x2="37.09991" y2="241.30944"/><line class="cls-9" x1="40.83653" y1="241.12879" x2="48.12111" y2="241.59117"/><line class="cls-9" x1="44.42308" y1="239.26206" x2="50.17125" y2="239.50293"/><line class="cls-9" x1="54.04043" y1="239.50293" x2="59.92364" y2="239.50293"/><line class="cls-9" x1="70.668" y1="238.65989" x2="84.64831" y2="239.50293"/><line class="cls-9" x1="71.53317" y1="241.59117" x2="83.22763" y2="242.5166"/><path class="cls-9" d="M84.668,257.01879c.06022-.04977,7.67089.63533,7.67089.63533" transform="translate(-10.05142 -11.08309)"/><line class="cls-9" x1="19.56455" y1="234.16754" x2="26.18887" y2="234.16754"/><line class="cls-9" x1="30.68758" y1="234.53511" x2="38.02758" y2="235.04438"/><line class="cls-9" x1="43.25276" y1="235.22544" x2="50.17125" y2="235.22544"/><path class="cls-9" d="M65.89771,246.58518c.05222-.06049,7.08821.258,7.08821.258" transform="translate(-10.05142 -11.08309)"/><path class="cls-9" d="M148.03294,136.30032s-7.85185-5.85023-4.59259-13.55393,13.037-5.48148,13.037-5.48148" transform="translate(-10.05142 -11.08309)"/><polyline class="cls-9" points="115.611 110.427 119.907 110.427 123.907 112.997 128.056 111.712 132.93 112.997"/><path class="cls-9" d="M151.44035,99.09924s-5.48148-15.01952,5.037-27.31581,30.51852-12.2963,39.55555-3.40741,10.68822,30.66666-4.35959,41.92592S154.84776,112.63728,151.44035,99.09924Z" transform="translate(-10.05142 -11.08309)"/><ellipse class="cls-21" cx="168.03294" cy="82.30194" rx="4.59259" ry="3.55556" transform="translate(38.49224 215.20146) rotate(-76.40661)"/><ellipse class="cls-21" cx="118.66641" cy="78.79517" rx="4.29644" ry="3.32628" transform="translate(4.13685 164.5352) rotate(-76.40661)"/><path class="cls-9" d="M140.15707,88.38593s5.5055-12.8988-3.23524-24.30621S102.69961,53.5612,95.5885,74.74639s12.21655,41.59481,37.88605,23.39" transform="translate(-10.05142 -11.08309)"/><path class="cls-22" d="M141.95657,88.7523s3.55785-8.90343,5.18748-36.04726c0,0-25.77777-6.1895-60.59259,0,0,0-6.66667,24.12065,1.62963,44.71063s34.6123,16.60194,45.89874,3.633" transform="translate(-10.05142 -11.08309)"/><path class="cls-22" d="M221.833,67.51314a122.65378,122.65378,0,0,1-12.4976,33.00481c-8.27351,15.06137-25.7155,23.0245-42.26371,18.39284-11.53725-3.22915-20.288-14.29567-19.79352-26.26795a115.86249,115.86249,0,0,1,9.19924-41.15571,173.81266,173.81266,0,0,1,33.33333,6.37037C208.96141,63.339,221.833,67.51314,221.833,67.51314Z" transform="translate(-10.05142 -11.08309)"/><line class="cls-22" x1="136.25735" y1="52.52919" x2="142.04261" y2="52.52919"/><line class="cls-22" x1="206.85472" y1="72.95462" x2="217.97234" y2="83.36613"/><path class="cls-9" d="M147.14405,90.59824s-7.65058-3.63554-11.30677-1.89184-3.45492,8.70665,0,17.89184" transform="translate(-10.05142 -11.08309)"/><path class="cls-9" d="M174.49508,51.48713s11.53951-3.91375,20.99581,8.01062" transform="translate(-10.05142 -11.08309)"/><path class="cls-9" d="M136.66063,47.12193s-6.61291-6.61334-17.99422,1.23039" transform="translate(-10.05142 -11.08309)"/></g></svg>