<svg xmlns="http://www.w3.org/2000/svg" viewBox="0 0 290.55836 239.28589"><defs><style>.cls-1{fill:#fff;}.cls-2{fill:#fefefe;}.cls-3{fill:#494949;}.cls-4{fill:#662c2f;}.cls-5{fill:#c13021;}.cls-6{fill:#fff6ee;}.cls-7{fill:#fcce38;}.cls-8{fill:#f22914;}.cls-10,.cls-12,.cls-13,.cls-14,.cls-9{fill:none;stroke-linecap:round;stroke-linejoin:round;}.cls-10,.cls-9{stroke:#821616;}.cls-12,.cls-14,.cls-9{stroke-width:1.5px;}.cls-11{fill:#ffe97b;}.cls-12{stroke:#ddad28;}.cls-13,.cls-14{stroke:#000;}.cls-13{stroke-width:2px;}</style></defs><title>panda bear in cinema</title><g id="Layer_6" data-name="Layer 6"><path class="cls-1" d="M211.7428,39.85705a18.41583,18.41583,0,0,1,6.9323,1.4143c12.50194,5.04494,8.06447,22.89259,7.18265,26.00782A431.19118,431.19118,0,0,1,250.806,117.12929c12.09667,28.43653,16.00093,60.88283,16.34276,63.89453.97754,1.61911,8.01761,13.26271,11.92771,19.43453,4.64358,7.33206,13.63476,33.835-.08594,49.84082a.99675.99675,0,0,1-.20892.18561c-.66895.43939-17.33014,10.65817-112.86919,10.65817-1.01953,0-2.03511-.00195-3.07224-.00391-98.04835-.22168-146.77294-8.63476-147.25341-8.71975a.99919.99919,0,0,1-.79106-.72165c-4.13423-15.16018,4.21241-37.95217,14.28959-48.92575,9.10741-9.91607,18.88424-21.44436,20.49753-23.3526.05959-3.373.87694-29.26365,11.87406-62.87888C71.806,84.90759,81.83233,73.09947,84.43733,70.41347c-1.814-2.833-7.4707-13.34617.49947-23.90724A15.83232,15.83232,0,0,1,97.96741,40.177a21.59865,21.59865,0,0,1,5.0021.61043c5.04346,1.19876,9.60406,4.07912,11.02052,6.79541a119.20065,119.20065,0,0,1,39.91554-7.39259q.5699-.006,1.1382-.00593c20.36577,0,38.66029,5.65451,42.3735,6.86923,1.51691-1.82568,6.63593-7.196,14.32553-7.19654M197.766,49.22532a.99057.99057,0,0,1-.33118-.057c-.2013-.07031-20.16957-6.98162-42.57089-6.98213-.31332,0-.62465.00134-.93887.00407a115.02825,115.02825,0,0,0-40.11765,7.62212,1.00986,1.00986,0,0,1-.39728.08161,1.00025,1.00025,0,0,1-.98361-.8209c-.31594-1.73777-4.2427-4.99071-9.91941-6.33983a20.06672,20.06672,0,0,0-4.59874-.55773,13.657,13.657,0,0,0-11.3749,5.53573c-8.34912,11.062-.34965,21.77347-.00489,22.22412a1.00057,1.00057,0,0,1-.13182,1.35794c-.11182.09959-11.46876,10.50194-23.03959,45.86911-11.644,35.59377-11.77876,62.36136-11.77876,62.628a1.00485,1.00485,0,0,1-.23489.64453c-.10741.12694-10.84229,12.86423-20.78564,23.69042-9.58694,10.43946-17.56888,31.9004-13.99218,46.4307,5.99312.97654,54.43312,8.37595,146.27829,8.583q1.51174.00294,2.99907.003c90.6543,0,110.165-9.419,111.73822-10.27246,12.94824-15.31154,3.61523-41.32425-.19428-47.34083-4.19824-6.62795-11.98635-19.5293-12.06448-19.65918a.99692.99692,0,0,1-.1377-.41211c-.03613-.33789-3.70413-34.126-16.21876-63.545A422.61026,422.61026,0,0,0,223.92121,67.9423a1.00348,1.00348,0,0,1-.10253-.81983c.05953-.192,5.82418-19.26859-5.89164-23.99659a16.65919,16.65919,0,0,0-6.26374-1.28268c-8.06271-.00067-12.83326,6.61023-13.078,6.9565a1.003,1.003,0,0,1-.81923.42562m80.4657,200.42349h0M211.74416,30.85706h-.00189a26.7257,26.7257,0,0,0-16.761,6.06723,153.93965,153.93965,0,0,0-39.93754-5.73994q-.61508,0-1.23294.00641a130.50681,130.50681,0,0,0-37.41129,6.022,32.56626,32.56626,0,0,0-11.34883-5.18132,30.65293,30.65293,0,0,0-7.08329-.85435,24.72052,24.72052,0,0,0-20.21412,9.90729A28.6648,28.6648,0,0,0,73.806,69.15946C68.668,76.1294,60.81339,89.56326,52.903,113.74189c-9.65732,29.51989-11.75073,53.08392-12.20289,62.23225-3.6759,4.30907-11.15231,12.98912-18.24334,20.70979-5.94194,6.47048-11.20065,16.04607-14.42823,26.272-3.59777,11.39871-4.27818,22.447-1.91583,31.10965a10.04337,10.04337,0,0,0,7.90871,7.21658c.48535.08588,49.92988,8.63336,148.79835,8.85693l.06653.00012c1.02095.0019,2.02159.00379,3.02606.00379,92.17183,0,113.4763-9.28894,117.81035-12.1359a10.0565,10.0565,0,0,0,2.1286-1.883c7.5314-8.78559,10.656-20.91377,9.00812-35.04071-1.23706-10.60559-4.99961-20.4193-8.1796-25.44042-3.2113-5.06875-8.60754-13.95355-10.83179-17.62635-1.07931-8.38083-5.48059-37.89426-16.76028-64.41028a454.56923,454.56923,0,0,0-23.63855-47.76707c2.46379-12.52032.30469-27.38113-13.40621-32.91394a27.46254,27.46254,0,0,0-10.29887-2.06823Zm-5.8416,23.18267c.14675-.191,2.51164-3.19685,5.76006-3.19656a7.82941,7.82941,0,0,1,2.89811.62941c2.42313.97789,1.99225,8.49965.64313,13.04536a10.01251,10.01251,0,0,0,1.04189,8.12412,416.03718,416.03718,0,0,1,24.43846,48.79323c11.88577,27.94064,15.51665,60.65465,15.55195,60.98183a10.05968,10.05968,0,0,0,1.37375,4.09088c.0737.12247,7.94052,13.15294,12.174,19.83659,2.30939,3.64739,9.67527,23.67342,2.0723,35.1809-5.82437,2.06509-30.27655,8.61651-106.01312,8.61651q-1.4768,0-2.98171-.003c-75.52584-.17022-121.48986-5.24618-138.17778-7.49228.0434-11.0281,5.96041-25.30926,12.50319-32.43388,9.61194-10.46535,19.87918-22.60417,21.01829-23.95383l.03718-.04411a10.02056,10.02056,0,0,0,2.33618-6.42453c.00129-.22853.26288-25.99106,11.3327-59.82965,10.16857-31.08115,19.97959-41.4299,20.60568-42.067a10.02388,10.02388,0,0,0,1.19288-13.38347,12.0754,12.0754,0,0,1-1.75932-4.1225,8.44457,8.44457,0,0,1,1.7667-7.25465,4.63434,4.63434,0,0,1,4.1913-1.95752,11.07987,11.07987,0,0,1,2.516.3134,11.907,11.907,0,0,1,3.939,1.6746,10.00683,10.00683,0,0,0,12.98607,4.92253,107.294,107.294,0,0,1,36.66206-6.89624c.27934-.00241.56494-.00365.8524-.00365,20.53955.00041,39.27144,6.36488,39.614,6.48256a9.99863,9.99863,0,0,0,11.42457-3.62906Z" transform="translate(-4.72975 -30.85706)"/></g><g id="Layer_5" data-name="Layer 5"><path class="cls-2" d="M278.23153,249.6491s-16.29283,10.7131-115.389,10.48991-147.08189-8.70439-147.08189-8.70439c-4.01741-14.73051,4.01742-37.04946,14.06094-47.98575s20.75663-23.65809,20.75663-23.65809,0-26.78274,11.829-62.93944S85.73493,70.54387,85.73493,70.54387s-8.92758-11.60586,0-23.4349,26.78274-3.12465,27.6755,1.78552a114.93267,114.93267,0,0,1,40.50454-7.7044c23.21171-.22318,43.85239,7.03483,43.85239,7.03483s7.81163-11.15948,20.53343-6.02612,6.4725,25.22042,6.4725,25.22042a419.41321,419.41321,0,0,1,25.11317,50.10169c12.72181,29.90739,16.29284,63.8322,16.29284,63.8322s7.81163,12.945,12.05223,19.64068S291.6229,234.02583,278.23153,249.6491Z" transform="translate(-4.72975 -30.85706)"/><path class="cls-3" d="M100.75823,93.12923S100.369,68.55848,125.669,64.77837a26.71467,26.71467,0,0,1,20.27247,5.06057,24.72571,24.72571,0,0,1,8.074,11.57751c2.29294,6.64191,4.01357,17.634-4.73312,26.45523,0,0-9.31236,9.13912-25.63656,7.47508A26.86962,26.86962,0,0,1,107.5105,108.137C100.26473,101.05658,100.75823,93.12923,100.75823,93.12923Z" transform="translate(-4.72975 -30.85706)"/><path class="cls-3" d="M199.37766,112.11744c5.13907-.48833,18.28277-9.45965,13.24581-29.07765s-30.09579-23.82572-42.3104-11.98888-6.58236,25.6106-6.58236,25.6106a34.56324,34.56324,0,0,1,19.29214,2.84819c10.4602,4.65918,13.93457,9.19515,13.93457,9.19515Z" transform="translate(-4.72975 -30.85706)"/><path class="cls-1" d="M105.44956,91.9302S105.127,70.96189,126.09528,67.736a21.62514,21.62514,0,0,1,16.80153,4.31862,21.1147,21.1147,0,0,1,6.69164,9.88008c1.90035,5.66811,3.32638,15.04855-3.92275,22.57649,0,0-7.71794,7.79919-21.24721,6.37912a21.97792,21.97792,0,0,1-13.37274-6.1527A18.10743,18.10743,0,0,1,105.44956,91.9302Z" transform="translate(-4.72975 -30.85706)"/><path class="cls-1" d="M196.95742,108.70485c9.67768-2.58072,14.0864-16.45206,10.43039-26.77492-3.36441-9.49951-16.38125-16.99568-29.33-11.00824a21.30172,21.30172,0,0,0-6.02942,4.17093,20.24615,20.24615,0,0,0-5.07179,21.2463s7.2045-1.18283,16.77465,2.9033S196.95742,108.70485,196.95742,108.70485Z" transform="translate(-4.72975 -30.85706)"/><path class="cls-4" d="M152.77941,158.06507a2.45682,2.45682,0,0,1-.27019-3.0108c1.032-1.64391,3.57612-4.54184,9.07089-5.59563,7.84968-1.50542,10.00027,5.59155,10.21533,6.77437s-2.15059,4.40873-11.07556,4.19367C155.98854,160.31267,153.79561,159.141,152.77941,158.06507Z" transform="translate(-4.72975 -30.85706)"/><path class="cls-3" d="M84.476,71.855c2.82154-.853,5.88867-4.816,8.114-6.55932,3.08319-2.41528,5.94525-5.09186,9.0368-7.49872,3.28137-2.55469,6.846-4.58453,10.31335-6.85651a30.79055,30.79055,0,0,0,3.79511-2.95129c-1.50946.553-2.32477.90533-2.32477.90533-.89276-4.91015-18.74792-13.61456-27.67554-1.78552s0,23.43488,0,23.43488A17.40019,17.40019,0,0,0,84.476,71.855Z" transform="translate(-4.72975 -30.85706)"/><path class="cls-3" d="M202.74431,52.31678c2.72644,1.87658,5.7486,3.29461,8.36634,5.33325,3.18512,2.48053,5.99481,5.53125,8.98114,8.25049,1.9245,1.75244,4.19976,4.88989,5.93994,3.63263-.81012-1.383-1.25843-2.114-1.25843-2.114s6.24927-20.087-6.47253-25.22039-20.53339,6.02612-20.53339,6.02612-.93341-.32733-2.61163-.83795C197.41405,49.219,200.78331,50.96705,202.74431,52.31678Z" transform="translate(-4.72975 -30.85706)"/><path class="cls-3" d="M278.23156,200.99378c-4.2406-6.69568-12.05225-19.64069-12.05225-19.64069s-.13678-1.29022-.44647-3.56793a75.21769,75.21769,0,0,1-22.4986,15.53632c-16.3244,7.2929-33.74432,10.44708-51.52508,11.698-17.30414,1.21741-34.8938,1.548-52.2403,1.67633A134.79172,134.79172,0,0,1,86.03124,196.244a316.51307,316.51307,0,0,1-35.4447-17.064c-.00782.395-.0083.61072-.0083.61072s-10.71314,12.7218-20.75666,23.65808-18.0783,33.25525-14.06091,47.98571c0,0,47.98572,8.48121,147.08191,8.70441s115.389-10.48987,115.389-10.48987C291.62291,234.02582,282.47216,207.68946,278.23156,200.99378Z" transform="translate(-4.72975 -30.85706)"/><path class="cls-5" d="M204.97565,228.31311l.71967-24.23628-14.80442,10.6453-8.15316-10.10891L172.0099,212.6591l-9.9769-7.9386s-9.01138,8.68955-9.33322,8.90411-11.157-8.79683-11.157-8.79683l-9.54778,7.9386-14.48258-8.68955,1.94465,24.23628a28.40278,28.40278,0,0,1,4.74268,14.22161c.31869,8.15768-1.72874,12.94025-1.72874,12.94025l-2.35489,3.74748,46.06129.92,41.85172-.792s-8.13546-6.08762-8.59591-13.44441a25.093,25.093,0,0,1,2.3759-12.54926Z" transform="translate(-4.72975 -30.85706)"/><polygon class="cls-6" points="127.265 181.909 130.439 228.629 140.707 228.365 148.97 196.312 147.97 182.768 136.813 173.971 127.265 181.909"/><path class="cls-6" d="M172.0099,212.6591s.638,22.972.54935,22.83564,17.7719-4.0258,17.7719-4.0258l.55975-16.74681-8.15316-10.10891Z" transform="translate(-4.72975 -30.85706)"/><path class="cls-7" d="M140.57605,259.9438c-4.88568-1.91-5.306-7.06185-4.6432-11.434a24.71464,24.71464,0,0,1,6.22773-12.88789,36.56569,36.56569,0,0,1,21.58888-11.484c18.77372-3.00379,34.22182,4.82753,26.92688,23.27942,0,0-3.00379,9.92671-15.12625,12.52649" transform="translate(-4.72975 -30.85706)"/><path class="cls-8" d="M154.67113,254.22a4.15744,4.15744,0,0,0-1.04114-1.7594,2.17842,2.17842,0,0,0-3.38787.42956c-.5777,1.14832.2832,3.03626.89758,3.99335a2.53824,2.53824,0,0,0,1.52148,1.23547,1.98449,1.98449,0,0,0,2.08185-1.2951A3.82986,3.82986,0,0,0,154.67113,254.22Zm-1.15716,1.61132a.84453.84453,0,0,1-1.03717.12622,1.38189,1.38189,0,0,1-.60669-.91888c-.11115-.51044-.30365-1.57941.44592-1.68048a.97545.97545,0,0,1,.8399.3739,2.44353,2.44353,0,0,1,.41822.85614A1.31193,1.31193,0,0,1,153.514,255.83136Z" transform="translate(-4.72975 -30.85706)"/><path class="cls-8" d="M161.81243,248.11725a4.66121,4.66121,0,0,0-3.58325-.32788,8.1346,8.1346,0,0,0-3.14624,1.87934,2.00615,2.00615,0,0,0-.53083.65588.7592.7592,0,0,0,.08472.79986c.19135.20917.83075.31324.97424.06873a47.40927,47.40927,0,0,1,4.77387,9.12024,3.1082,3.1082,0,0,0,1.79162-.57159,23.09783,23.09783,0,0,1-1.92248-4.57239,3.78543,3.78543,0,0,0,1.55835-7.05219Zm-1.1369,4.57227a1.01856,1.01856,0,0,1-.85993.53094,1.4016,1.4016,0,0,1-1.01672-.71527c-.44141-.638-1.18775-1.91522-.57947-2.65771a1.47332,1.47332,0,0,1,2.37512.33313,2.8033,2.8033,0,0,1,.32343,1.48877A2.10234,2.10234,0,0,1,160.67553,252.68952Z" transform="translate(-4.72975 -30.85706)"/><path class="cls-8" d="M152.52422,241.09082a3.38623,3.38623,0,0,0-2.15613-.40741,7.96983,7.96983,0,0,0-2.13714.62989,25.39529,25.39529,0,0,0-8.12683,5.43213.76078.76078,0,0,0-.14185.9458.80808.80808,0,0,0,.94409.29968c2.60394,3.985,5.11829,8.00378,7.72223,11.98883.08826-.70087,1.35571.16876,1.444-.5321l.02069-.16419c.3327-2.64191-4.26062-3.78955-3.92792-6.43146a21.17015,21.17015,0,0,0,5.81336-4.78552,7.65065,7.65065,0,0,0,1.87835-3.466A3.42124,3.42124,0,0,0,152.52422,241.09082Zm-2.16168,4.00769a3.71807,3.71807,0,0,1-.53046,1.44141,9.61379,9.61379,0,0,1-5.01294,4.226,9.82149,9.82149,0,0,1-2.18908-3.6488,10.777,10.777,0,0,1,4.8518-3.56116,2.39113,2.39113,0,0,1,2.41132.12616A1.695,1.695,0,0,1,150.36254,245.09851Z" transform="translate(-4.72975 -30.85706)"/><path class="cls-8" d="M190.05925,239.72382a1.16661,1.16661,0,0,0-1.14825.61273.51851.51851,0,0,1-.50153.607,12.06762,12.06762,0,0,0-.62909-2.5644,4.05253,4.05253,0,0,0-1.63275-2.02093,2.464,2.464,0,0,0-2.51458-.03363,3.4812,3.4812,0,0,0-1.10511,1.37286.66524.66524,0,0,0-.83709-.21136q.55023,2.19387,1.10052,4.38775a3.78728,3.78728,0,0,1,.165,1.58936,1.293,1.293,0,0,1-1.02393,1.09894,1.74081,1.74081,0,0,1-1.36474-.74152,9.03867,9.03867,0,0,1-1.8996-3.376,8.60632,8.60632,0,0,1-3.77991,1.67609,6.631,6.631,0,0,1,.95374,4.37763,7.70129,7.70129,0,0,0-.77411-1.82129,2.82154,2.82154,0,0,0-1.41455-1.21527,2.64351,2.64351,0,0,0-2.78192.88787,4.33908,4.33908,0,0,0-.892,2.90363,12.90428,12.90428,0,0,0,.56628,3.045c.09766.361-.28332.70313-.40338,1.05731a1.41827,1.41827,0,0,1-.68878.84748,1.74,1.74,0,0,1-1.81732-.51013,3.4913,3.4913,0,0,1-1.18317-2.40192,2.48834,2.48834,0,0,1,1.2638-2.27863,2.75352,2.75352,0,0,0,.83947-.47186c.21936-.23749.32025-.88336.05841-1.073a2.09117,2.09117,0,0,0-2.22967-.03741,3.06313,3.06313,0,0,0-1.33692,1.87134,5.87143,5.87143,0,0,0-.06836,2.34216,6.2266,6.2266,0,0,0,1.208,3.08838,3.371,3.371,0,0,0,2.9364,1.30865,2.338,2.338,0,0,0,2.05768-2.25915,3.09938,3.09938,0,0,0,3.63855.387,2.7173,2.7173,0,0,0,1.17828-3.19427l.33643-.2425a5.11611,5.11611,0,0,0,.38513-5.64483,1.27265,1.27265,0,0,0,1.32978-.64539,10.68514,10.68514,0,0,0,1.487,2.83026,3.26253,3.26253,0,0,0,2.63227,1.29865,2.944,2.944,0,0,0,2.32452-1.68549,4.84737,4.84737,0,0,0,.32575-2.93866,14.43965,14.43965,0,0,0-.90418-2.86047c-.19482-.49414.8031-.99347,1.30029-.80646a2.15319,2.15319,0,0,1,1.04145,1.15436,11.09456,11.09456,0,0,1,1.00323,3.09381c.11029.65778.25836,1.45551.88568,1.68207.62171.22455,1.26538-.30353,1.60492-.87061A4.19856,4.19856,0,0,0,190.05925,239.72382Zm-15.58935,9.61865a1.56842,1.56842,0,0,1-.557,1.07373,1.17266,1.17266,0,0,1-1.31146-.09991,2.43019,2.43019,0,0,1-.7702-1.14765c-.35181-.95019-.77234-4.88427,1.3623-3.88543a2.22676,2.22676,0,0,1,1.03339,1.32153A5.35886,5.35886,0,0,1,174.4699,249.34247Z" transform="translate(-4.72975 -30.85706)"/></g><g id="Layer_4" data-name="Layer 4"><line class="cls-9" x1="127.2653" y1="181.90933" x2="130.48365" y2="229.28539"/><path class="cls-9" d="M140.57605,259.9438c-4.88568-1.91-5.306-7.06185-4.6432-11.434a24.71464,24.71464,0,0,1,6.22773-12.88789,36.56569,36.56569,0,0,1,21.58888-11.484c18.77372-3.00379,34.22182,4.82753,26.92688,23.27942,0,0-3.00379,9.92671-15.12625,12.52649" transform="translate(-4.72975 -30.85706)"/><path class="cls-10" d="M154.67113,254.22a4.15744,4.15744,0,0,0-1.04114-1.7594,2.17842,2.17842,0,0,0-3.38787.42956c-.5777,1.14832.2832,3.03626.89758,3.99335a2.53824,2.53824,0,0,0,1.52148,1.23547,1.98449,1.98449,0,0,0,2.08185-1.2951A3.82986,3.82986,0,0,0,154.67113,254.22Zm-1.15716,1.61132a.84453.84453,0,0,1-1.03717.12622,1.38189,1.38189,0,0,1-.60669-.91888c-.11115-.51044-.30365-1.57941.44592-1.68048a.97545.97545,0,0,1,.8399.3739,2.44353,2.44353,0,0,1,.41822.85614A1.31193,1.31193,0,0,1,153.514,255.83136Z" transform="translate(-4.72975 -30.85706)"/><path class="cls-10" d="M161.81243,248.11725a4.66121,4.66121,0,0,0-3.58325-.32788,8.1346,8.1346,0,0,0-3.14624,1.87934,2.00615,2.00615,0,0,0-.53083.65588.7592.7592,0,0,0,.08472.79986c.19135.20917.83075.31324.97424.06873a47.40927,47.40927,0,0,1,4.77387,9.12024,3.1082,3.1082,0,0,0,1.79162-.57159,23.09783,23.09783,0,0,1-1.92248-4.57239,3.78543,3.78543,0,0,0,1.55835-7.05219Zm-1.1369,4.57227a1.01856,1.01856,0,0,1-.85993.53094,1.4016,1.4016,0,0,1-1.01672-.71527c-.44141-.638-1.18775-1.91522-.57947-2.65771a1.47332,1.47332,0,0,1,2.37512.33313,2.8033,2.8033,0,0,1,.32343,1.48877A2.10234,2.10234,0,0,1,160.67553,252.68952Z" transform="translate(-4.72975 -30.85706)"/><path class="cls-10" d="M152.52422,241.09082a3.38623,3.38623,0,0,0-2.15613-.40741,7.96983,7.96983,0,0,0-2.13714.62989,25.39529,25.39529,0,0,0-8.12683,5.43213.76078.76078,0,0,0-.14185.9458.80808.80808,0,0,0,.94409.29968c2.60394,3.985,5.11829,8.00378,7.72223,11.98883.08826-.70087,1.35571.16876,1.444-.5321l.02069-.16419c.3327-2.64191-4.26062-3.78955-3.92792-6.43146a21.17015,21.17015,0,0,0,5.81336-4.78552,7.65065,7.65065,0,0,0,1.87835-3.466A3.42124,3.42124,0,0,0,152.52422,241.09082Zm-2.16168,4.00769a3.71807,3.71807,0,0,1-.53046,1.44141,9.61379,9.61379,0,0,1-5.01294,4.226,9.82149,9.82149,0,0,1-2.18908-3.6488,10.777,10.777,0,0,1,4.8518-3.56116,2.39113,2.39113,0,0,1,2.41132.12616A1.695,1.695,0,0,1,150.36254,245.09851Z" transform="translate(-4.72975 -30.85706)"/><path class="cls-10" d="M190.05925,239.72382a1.16661,1.16661,0,0,0-1.14825.61273.51851.51851,0,0,1-.50153.607,12.06762,12.06762,0,0,0-.62909-2.5644,4.05253,4.05253,0,0,0-1.63275-2.02093,2.464,2.464,0,0,0-2.51458-.03363,3.4812,3.4812,0,0,0-1.10511,1.37286.66524.66524,0,0,0-.83709-.21136q.55023,2.19387,1.10052,4.38775a3.78728,3.78728,0,0,1,.165,1.58936,1.293,1.293,0,0,1-1.02393,1.09894,1.74081,1.74081,0,0,1-1.36474-.74152,9.03867,9.03867,0,0,1-1.8996-3.376,8.60632,8.60632,0,0,1-3.77991,1.67609,6.631,6.631,0,0,1,.95374,4.37763,7.70129,7.70129,0,0,0-.77411-1.82129,2.82154,2.82154,0,0,0-1.41455-1.21527,2.64351,2.64351,0,0,0-2.78192.88787,4.33908,4.33908,0,0,0-.892,2.90363,12.90428,12.90428,0,0,0,.56628,3.045c.09766.361-.28332.70313-.40338,1.05731a1.41827,1.41827,0,0,1-.68878.84748,1.74,1.74,0,0,1-1.81732-.51013,3.4913,3.4913,0,0,1-1.18317-2.40192,2.48834,2.48834,0,0,1,1.2638-2.27863,2.75352,2.75352,0,0,0,.83947-.47186c.21936-.23749.32025-.88336.05841-1.073a2.09117,2.09117,0,0,0-2.22967-.03741,3.06313,3.06313,0,0,0-1.33692,1.87134,5.87143,5.87143,0,0,0-.06836,2.34216,6.2266,6.2266,0,0,0,1.208,3.08838,3.371,3.371,0,0,0,2.9364,1.30865,2.338,2.338,0,0,0,2.05768-2.25915,3.09938,3.09938,0,0,0,3.63855.387,2.7173,2.7173,0,0,0,1.17828-3.19427l.33643-.2425a5.11611,5.11611,0,0,0,.38513-5.64483,1.27265,1.27265,0,0,0,1.32978-.64539,10.68514,10.68514,0,0,0,1.487,2.83026,3.26253,3.26253,0,0,0,2.63227,1.29865,2.944,2.944,0,0,0,2.32452-1.68549,4.84737,4.84737,0,0,0,.32575-2.93866,14.43965,14.43965,0,0,0-.90418-2.86047c-.19482-.49414.8031-.99347,1.30029-.80646a2.15319,2.15319,0,0,1,1.04145,1.15436,11.09456,11.09456,0,0,1,1.00323,3.09381c.11029.65778.25836,1.45551.88568,1.68207.62171.22455,1.26538-.30353,1.60492-.87061A4.19856,4.19856,0,0,0,190.05925,239.72382Zm-15.58935,9.61865a1.56842,1.56842,0,0,1-.557,1.07373,1.17266,1.17266,0,0,1-1.31146-.09991,2.43019,2.43019,0,0,1-.7702-1.14765c-.35181-.95019-.77234-4.88427,1.3623-3.88543a2.22676,2.22676,0,0,1,1.03339,1.32153A5.35886,5.35886,0,0,1,174.4699,249.34247Z" transform="translate(-4.72975 -30.85706)"/><path class="cls-11" d="M203.92969,205.06333c0-.33136.15578-.59517.09744-.92135a3.52231,3.52231,0,0,0-1.7811-2.52145,4.95158,4.95158,0,0,0-.59809-5.28052,4.73807,4.73807,0,0,0-4.9826-1.44677c-.102-.48429-.58813-.6212-.69009-1.10549A4.53659,4.53659,0,0,0,197.9,192.30719c.43513-.69522.64071-1.82417-.03725-2.28573a3.36422,3.36422,0,0,1-2.80032.35975,7.064,7.064,0,0,0-5.37893-5.62136,7.27853,7.27853,0,0,0-7.36284,2.88374,7.27405,7.27405,0,0,0-2.24552-4.95483,5.79079,5.79079,0,0,0-5.16821-1.4129,4.95865,4.95865,0,0,0-3.56789,3.96963l-.55084.67073c-.29993-.77853-1.08542-1.19019-1.4896-1.92006a4.59717,4.59717,0,0,0-3.975-2.32055,4.69478,4.69478,0,0,0-3.91442,2.51775,6.67472,6.67472,0,0,0-6.51237-1.32681,6.74692,6.74692,0,0,0-4.18386,5.21185,3.82727,3.82727,0,0,0-2.70582-.15476,5.10909,5.10909,0,0,0-2.505,1.89995,2.2135,2.2135,0,0,0-1.459-.97011,2.85516,2.85516,0,0,0-1.86563.70051,2.00378,2.00378,0,0,0-1.88883-1.37305c-.83462.012-1.38664.89544-1.60983,1.69976a2.15955,2.15955,0,0,0-2.09819-.21713,2.40759,2.40759,0,0,0-1.14943,1.91246,3.757,3.757,0,0,0-4.06566-1.39354,4.88065,4.88065,0,0,0-3.152,3.09979,7.47287,7.47287,0,0,0,.13383,4.65018c-.76182.26311-1.20245.75338-1.96428,1.01649a4.15431,4.15431,0,0,0-1.04521-2.66995,2.05228,2.05228,0,0,0-3.00774,2.76282,3.27777,3.27777,0,0,0-3.439,3.28339,5.33635,5.33635,0,0,0,1.46328,3.27184c2.90151,3.47312,7.7278,4.75593,11.555,7.1713,3.09994-2.68754,6.30545-5.39839,9.40539-8.08593a74.76276,74.76276,0,0,0,11.49912,8.87864c3.1199-2.76345,6.2071-5.528,9.327-8.29142a49.05908,49.05908,0,0,0,9.97747,7.28943c3.34707-2.52111,6.96984-5.06073,10.31692-7.58184,2.54882,3.13046,5.3609,6.17244,7.90973,9.30289C194.81891,211.40649,199.45575,207.937,203.92969,205.06333Z" transform="translate(-4.72975 -30.85706)"/><path class="cls-12" d="M120.35438,205.59705a5.33635,5.33635,0,0,1-1.46328-3.27184,3.27777,3.27777,0,0,1,3.439-3.28339,2.05228,2.05228,0,0,1,3.00774-2.76282,4.15431,4.15431,0,0,1,1.04521,2.67c.76183-.26311,1.20246-.75338,1.96428-1.01649a7.47287,7.47287,0,0,1-.13383-4.65018,4.88065,4.88065,0,0,1,3.152-3.09979,3.757,3.757,0,0,1,4.06566,1.39354,2.40759,2.40759,0,0,1,1.14943-1.91246,2.15955,2.15955,0,0,1,2.09819.21713c.22319-.80432.77521-1.6878,1.60983-1.69976a2.00378,2.00378,0,0,1,1.88883,1.37305,2.85516,2.85516,0,0,1,1.86563-.70051,2.2135,2.2135,0,0,1,1.459.97011,5.10909,5.10909,0,0,1,2.505-1.89995,3.82727,3.82727,0,0,1,2.70582.15476,6.74692,6.74692,0,0,1,4.18386-5.21185,6.67472,6.67472,0,0,1,6.51237,1.32681,4.69478,4.69478,0,0,1,3.91442-2.51775,4.59717,4.59717,0,0,1,3.975,2.32055c.40418.72987,1.18967,1.14153,1.4896,1.92006l.55084-.67073a4.95865,4.95865,0,0,1,3.56789-3.96963,5.79079,5.79079,0,0,1,5.16821,1.4129,7.27405,7.27405,0,0,1,2.24552,4.95483,7.27853,7.27853,0,0,1,7.36284-2.88374,7.064,7.064,0,0,1,5.37893,5.62136,3.36422,3.36422,0,0,0,2.80032-.35975c.678.46156.47238,1.59051.03725,2.28573a4.53659,4.53659,0,0,1-1.92477,1.48056c.102.48429.58813.6212.69009,1.10549a4.73807,4.73807,0,0,1,4.9826,1.44677,4.95158,4.95158,0,0,1,.59809,5.28052,3.52231,3.52231,0,0,1,1.7811,2.52145c.05834.32618-.09744.59-.09744.92135" transform="translate(-4.72975 -30.85706)"/><path class="cls-12" d="M124.07718,207.70512a6.04543,6.04543,0,1,1,11.07739-2.126,1.87858,1.87858,0,0,1,2.13287.121,1.91563,1.91563,0,0,1,.91178,1.96894" transform="translate(-4.72975 -30.85706)"/><path class="cls-12" d="M142.75209,205.49677a1.58483,1.58483,0,0,0-.99038-2.82752,6.36258,6.36258,0,0,0-1.06084-6.24115,5.91385,5.91385,0,0,0-10.27487,2.24266" transform="translate(-4.72975 -30.85706)"/><path class="cls-12" d="M151.01226,202.42263a6.40294,6.40294,0,0,1-5.83928-4.3001,6.22925,6.22925,0,0,1-.07371-3.60188,6.13946,6.13946,0,0,1,12.04271,1.90008,5.1899,5.1899,0,0,1,3.14436.18029c.31075.09837.65039.27113.72339.58879.103.44829-.3765.795-.78628,1.00394l-2.05454,1.04759a1.49591,1.49591,0,0,1,.84371,1.71864,2.07822,2.07822,0,0,1-1.40872,1.42231,3.47846,3.47846,0,0,1-2.06-.05382,6.75167,6.75167,0,0,1-1.0526,2.03211,1.82779,1.82779,0,0,1-1.76408.80646,1.8089,1.8089,0,0,1-1.13246-.915A8.83993,8.83993,0,0,1,151.01226,202.42263Z" transform="translate(-4.72975 -30.85706)"/><path class="cls-12" d="M135.67934,193.90436l-.37891-3.0591" transform="translate(-4.72975 -30.85706)"/><path class="cls-12" d="M144.9929,189.68034a4.6094,4.6094,0,0,1,.72956,3.37486" transform="translate(-4.72975 -30.85706)"/><path class="cls-12" d="M148.02325,209.72633a7.23628,7.23628,0,0,1,3.27593-4.92666" transform="translate(-4.72975 -30.85706)"/><path class="cls-12" d="M154.83546,203.8777a6.05837,6.05837,0,0,1,4.9542,2.11887" transform="translate(-4.72975 -30.85706)"/><path class="cls-12" d="M160.34359,196.19316l.35537-1.31832a1.27335,1.27335,0,0,0,1.95622.0249,2.473,2.473,0,0,0,.17256-1.96025,1.57279,1.57279,0,1,0,.55573-2.90333,8.92328,8.92328,0,0,0-3.56435-6.78051" transform="translate(-4.72975 -30.85706)"/><path class="cls-12" d="M151.16475,186.71041a6.3741,6.3741,0,0,0-.092,3.44656" transform="translate(-4.72975 -30.85706)"/><path class="cls-12" d="M162.97857,186.81138a4.76435,4.76435,0,0,1,7.64222-.35453,2.39955,2.39955,0,0,1,1.50638-1.47532,1.723,1.723,0,0,1,1.94869.468,1.38018,1.38018,0,0,1-.22276,1.908,1.68377,1.68377,0,1,1,.81435,3.255,2.05725,2.05725,0,1,1-2.14568,3.43342,2.68769,2.68769,0,0,1-2.54428,1.54546A7.00058,7.00058,0,0,0,163.639,193.33" transform="translate(-4.72975 -30.85706)"/><path class="cls-12" d="M166.95006,208.32713l.84416-1.60422a6.28222,6.28222,0,0,0,1.73568.26409,2.11757,2.11757,0,0,0,1.63319-.506,1.78188,1.78188,0,0,0,.31909-1.98691,2.25156,2.25156,0,0,0-1.67205-1.20925,6.65192,6.65192,0,0,0-1.8498-8.96082" transform="translate(-4.72975 -30.85706)"/><path class="cls-12" d="M175.53892,190.86089a5.21787,5.21787,0,0,1,9.45016-.7215,1.6624,1.6624,0,0,1,1.25955-1.47284,1.47979,1.47979,0,0,1,1.00889,2.70554,1.97035,1.97035,0,0,1,1.65039,1.718,1.63384,1.63384,0,0,1-1.41479,1.61085" transform="translate(-4.72975 -30.85706)"/><path class="cls-12" d="M174.17139,194.8174l.07607,1.52936" transform="translate(-4.72975 -30.85706)"/><path class="cls-12" d="M170.825,197.65364a5.32408,5.32408,0,0,1,8.28782,5.48878,2.47814,2.47814,0,0,1,1.738.66182,2.35648,2.35648,0,0,1,.90929,1.57368" transform="translate(-4.72975 -30.85706)"/><path class="cls-12" d="M170.02343,207.28728a1.60467,1.60467,0,0,0,2.58236.90634,2.05025,2.05025,0,0,0,1.01911,3.05443" transform="translate(-4.72975 -30.85706)"/><path class="cls-12" d="M178.44922,198.43036a4.19538,4.19538,0,0,1,5.41679-2.63655,1.927,1.927,0,1,1,3.75748.12535,1.48712,1.48712,0,0,1,1.95954.89044,1.58844,1.58844,0,0,1-.9842,2.01021,2.05272,2.05272,0,1,1-.49428,3.94107c.656,1.80751-.50079,4.05757-2.14661,5.05189" transform="translate(-4.72975 -30.85706)"/><path class="cls-12" d="M196.00331,194.3967a1.3442,1.3442,0,1,1-2.23339,1.48474,2.61025,2.61025,0,0,1-1.6656,1.87769,2.29466,2.29466,0,0,1-2.254-.63963" transform="translate(-4.72975 -30.85706)"/><path class="cls-12" d="M190.65414,201.49091a2.88837,2.88837,0,0,1,5.12518,2.45487c.34689-.50924,1.124-.9104,1.642-.57675a1.69121,1.69121,0,0,1,.68785,1.61288,2.6997,2.6997,0,0,1-.8705,1.58878,1.56836,1.56836,0,0,1,.85589,2.12876,2.62422,2.62422,0,0,1-2.02775,1.66674,5.40478,5.40478,0,0,1-2.71021-.28344,5.17151,5.17151,0,0,1-2.60268,3.73432" transform="translate(-4.72975 -30.85706)"/><path class="cls-12" d="M203.92609,203.68829a4.71344,4.71344,0,0,0-1.01851-1.59006,3.83944,3.83944,0,0,0-5.479-.22491,3.1692,3.1692,0,0,0-.68709,1.04882" transform="translate(-4.72975 -30.85706)"/><path class="cls-9" d="M119.45711,228.31311l-1.94465-24.23628,14.48258,8.68955,9.54778-7.9386s10.83513,9.01139,11.157,8.79683,9.33322-8.90411,9.33322-8.90411l9.9769,7.9386,10.72784-8.04588,8.15316,10.10891,14.80442-10.6453-.71967,24.23628" transform="translate(-4.72975 -30.85706)"/><path class="cls-13" d="M278.23153,249.6491s-16.29283,10.7131-115.389,10.48991-147.08189-8.70439-147.08189-8.70439c-4.01741-14.73051,4.01742-37.04946,14.06094-47.98575s20.75663-23.65809,20.75663-23.65809,0-26.78274,11.829-62.93944S85.73493,70.54387,85.73493,70.54387s-8.92758-11.60586,0-23.4349,26.78274-3.12465,27.6755,1.78552a114.93267,114.93267,0,0,1,40.50454-7.7044c23.21171-.22318,43.85239,7.03483,43.85239,7.03483s7.81163-11.15948,20.53343-6.02612,6.4725,25.22042,6.4725,25.22042a419.41321,419.41321,0,0,1,25.11317,50.10169c12.72181,29.90739,16.29284,63.8322,16.29284,63.8322s7.81163,12.945,12.05223,19.64068S291.6229,234.02583,278.23153,249.6491Z" transform="translate(-4.72975 -30.85706)"/><path class="cls-14" d="M79.1413,79.12905s17.93519-27.7929,54.16607-35.879" transform="translate(-4.72975 -30.85706)"/><path class="cls-14" d="M185.25726,44.78517s28.35868,7.11149,46.15915,34.34388" transform="translate(-4.72975 -30.85706)"/><path class="cls-14" d="M105.44956,91.9302S105.127,70.96189,126.09528,67.736a21.62514,21.62514,0,0,1,16.80153,4.31862,21.1147,21.1147,0,0,1,6.69164,9.88008c1.90035,5.66811,3.32638,15.04855-3.92275,22.57649,0,0-7.71794,7.79919-21.24721,6.37912a21.97792,21.97792,0,0,1-13.37274-6.1527A18.10743,18.10743,0,0,1,105.44956,91.9302Z" transform="translate(-4.72975 -30.85706)"/><circle cx="125.29229" cy="50.44497" r="1.73776"/><path class="cls-14" d="M196.95742,108.70485c9.67768-2.58072,14.0864-16.45206,10.43039-26.77492-3.36441-9.49951-16.38125-16.99568-29.33-11.00824a21.30172,21.30172,0,0,0-6.02942,4.17093,20.24615,20.24615,0,0,0-5.07179,21.2463s7.2045-1.18283,16.77465,2.9033S196.95742,108.70485,196.95742,108.70485Z" transform="translate(-4.72975 -30.85706)"/><circle cx="178.29311" cy="50.44497" r="1.73776"/><path d="M154.48315,102.89824s-1.61295-4.73131,9.24756-6.23673,12.68851,3.54848,12.796,4.83884-1.17875,4.83884-10.69717,5.37649S155.12833,104.9413,154.48315,102.89824Z" transform="translate(-4.72975 -30.85706)"/><path class="cls-14" d="M191.9348,103.89355A33.50172,33.50172,0,0,1,204.592,128.06021c.86024,15.80688-4.08613,22.43536-4.08613,22.43536" transform="translate(-4.72975 -30.85706)"/><path class="cls-14" d="M152.77941,158.06507a2.45682,2.45682,0,0,1-.27019-3.0108c1.032-1.64391,3.57612-4.54184,9.07089-5.59563,7.84968-1.50542,10.00027,5.59155,10.21533,6.77437s-2.15059,4.40873-11.07556,4.19367C155.98854,160.31267,153.79561,159.141,152.77941,158.06507Z" transform="translate(-4.72975 -30.85706)"/><path class="cls-14" d="M63.015,213.41005s24.03037-6.32943,44.41327,4.07658,19.30081,35.40158,12.43965,41.99936" transform="translate(-4.72975 -30.85706)"/><path class="cls-14" d="M103.99537,246.55909a22.398,22.398,0,0,1,20.32984-1.18014" transform="translate(-4.72975 -30.85706)"/><path class="cls-14" d="M100.66974,231.111s7.28281-4.82222,20.91323,1.18272" transform="translate(-4.72975 -30.85706)"/><path class="cls-14" d="M242.06271,215.77018s-20.27562-5.90032-35.18732,10.29873-4.20212,33.58339,4.291,33.14543" transform="translate(-4.72975 -30.85706)"/><path class="cls-14" d="M216.53045,243.45475s-15.2045,2.16568-16.02361,6.22883" transform="translate(-4.72975 -30.85706)"/><path class="cls-14" d="M215.88678,230.7866s-10.833,1.0062-15.71521,6.94109" transform="translate(-4.72975 -30.85706)"/><line class="cls-9" x1="147.97003" y1="182.76755" x2="148.47434" y2="196.54554"/><line class="cls-9" x1="167.28015" y1="181.80205" x2="167.28015" y2="192.10078"/><line class="cls-9" x1="186.16115" y1="183.86508" x2="185.78156" y2="200.61189"/></g></svg>