<svg xmlns="http://www.w3.org/2000/svg" viewBox="0 0 286.46067 297.75788"><defs><style>.cls-1{fill:#fff;}.cls-2{fill:#8c583d;}.cls-3{fill:#63292a;}.cls-4{fill:#fffafd;}.cls-5{fill:#ee8d93;}.cls-13,.cls-14,.cls-17,.cls-20,.cls-22,.cls-23,.cls-25,.cls-6,.cls-7{fill:none;stroke-linecap:round;stroke-linejoin:round;}.cls-6,.cls-7{stroke:#04080d;}.cls-6{stroke-width:1.5px;}.cls-8{fill:#04080d;}.cls-9{fill:#dda263;}.cls-10{fill:#ffe9b5;}.cls-11{fill:#af6c3e;}.cls-12{fill:#5aae59;}.cls-13{stroke:#3b5e2a;}.cls-14{stroke:#5f381c;}.cls-15{fill:#dfa163;}.cls-16{fill:#fffffd;}.cls-17{stroke:#b7b295;}.cls-18{fill:#ffd143;}.cls-19{fill:#f6d44e;}.cls-20{stroke:#755100;}.cls-21{fill:#e18529;}.cls-22{stroke:#dc8700;}.cls-23{stroke:#370a00;}.cls-24{fill:#e9740f;}.cls-25{stroke:#b35b00;}.cls-26{fill:#ffffc5;}.cls-27{fill:#e8a65d;}.cls-28{fill:#bd7f44;}</style></defs><title>we bare bear grizzly and food friends</title><g id="Layer_7" data-name="Layer 7"><path class="cls-1" d="M185.82294,10.81642a11.11912,11.11912,0,0,1,6.24887,1.8951c4.16212,2.85353,3.28512,7.61717,1.94917,10.41794,26.14259,4.71829,38.02542,21.57765,40.50589,25.56694a10.30481,10.30481,0,0,1,5.20995-1.77541q.26406-.01517.52273-.01515a7.28547,7.28547,0,0,1,5.85715,2.76173,8.57481,8.57481,0,0,1,1.81058,5.71924c-.21094,5.86817-4.72464,8.70359-6.3877,9.55177,3.3914,13.817.07471,26.09394-2.39259,32.53211a20.93887,20.93887,0,0,1,2.84471-.63517,33.4346,33.4346,0,0,1,4.8239-.35847c8.118,0,14.60571,3.18864,17.0141,8.41241,2.12411.00935,6.11554.8497,10.49792,5.95388,6.48343,7.55077,9.60062,18.11329,8.77054,23.56889-.45477,2.98916-1.644,5.14352-3.58219,6.49734.07786.16794.14942.33812.216.50754a11.9371,11.9371,0,0,1,.92776,5.11229.50323.50323,0,0,1-.19528.36424.49785.49785,0,0,1-.30161.10332.48707.48707,0,0,1-.10073-.01056,4.19238,4.19238,0,0,1-1.57914-.67577,58.49914,58.49914,0,0,0-4.52633,4.15918.50095.50095,0,0,1-.626.06935c-.27866-.17923-.54813-.37512-.81549-.57359a17.31822,17.31822,0,0,1-.91882,1.50906c1.019.98377,2.71237,2.86911,2.85055,4.65824a3.54684,3.54684,0,0,1-.01291.58229c2.01477,1.96518,4.44144,5.47682,6.45819,11.74,4.48829,13.9336-3.00781,28.95018-17.43753,34.92872a29.09678,29.09678,0,0,1-26.25288-1.81936c-6.25977,4.14847-16.584,5.74512-21.91406,6.31546,7.41012,3.417,17.25776,11.87206,19.23924,13.60642a25.74786,25.74786,0,0,1,8.47839-1.739,9.13564,9.13564,0,0,1,6.90444,2.58769c4.19528,4.36624,2.76558,12.94336.26658,18.96194-4.54493,10.95017-14.53906,22.91205-20.17482,24.14841a32.27634,32.27634,0,0,1-6.57948.543c-2.8662,0-5.81274-.19489-8.11581-.34671-1.45212-.09571-2.70507-.17871-3.45412-.17871-2.70119,0-18.76953-.48441-21.85153-.5781-8.24706,16.64453-28.83888,23.68939-35.74465,23.68939h-.01124c-3.0107-.00387-10.43358-2.041-19.832-4.62011-6.31059-1.73142-13.46388-3.69428-20.8247-5.47559-18.19342-4.40134-31.3423-8.8623-31.47318-8.90716C51.062,257.25787,38.08158,234.81358,35.81934,230.49423a10.24646,10.24646,0,0,1-4.73774,1.14607,12.70749,12.70749,0,0,1-7.1602-2.37361c-4.36718-2.99512-8.19288-9.08888-6.89406-15.95311.71682-3.78812,2.31153-6.47365,4.73976-7.98148A9.21621,9.21621,0,0,1,26.64788,204a10.486,10.486,0,0,1,1.21446.07036C24.38963,185.65534,32.67287,133.63093,80.917,81.38922c45.64553-49.42817,88.80618-58.416,94.4673-59.40717.2803-4.76518,2.291-8.32571,5.70312-10.06594a10.44276,10.44276,0,0,1,4.73554-1.09969M28.82321,205.75251a.72872.72872,0,0,1-.19963-.02781,8.33495,8.33495,0,0,0-1.96419-.21686,7.75272,7.75272,0,0,0-4.1154,1.1075c-2.04836,1.2783-3.40871,3.62594-4.043,6.97754-1.17283,6.19923,2.30323,11.71775,6.26853,14.43652a11.2216,11.2216,0,0,0,6.314,2.10531,8.75339,8.75339,0,0,0,4.65527-1.31819.75.75,0,0,1,1.07665.32323c.11764.25488,12.14988,25.67284,45.81788,39.0244.09571.03125,13.18453,4.47266,31.30712,8.85742,7.38329,1.78613,14.54782,3.752,20.86911,5.4863,9.29007,2.54983,16.62747,4.56354,19.437,4.5664h.00977c6.47952,0,26.90428-7.1474,34.60547-23.27728a.79583.79583,0,0,1,.70022-.42676c.19336.0058,19.38571.59275,22.29.59275.79788,0,2.0137.08008,3.55276.18167,2.28429.15146,5.21305.34512,8.03171.34512a30.73753,30.73753,0,0,0,6.24271-.50918c5.15428-1.13089,14.79881-12.86919,19.11229-23.25884,2.50876-6.04294,3.49318-13.75.03612-17.34764a7.79062,7.79062,0,0,0-5.863-2.10471,24.79474,24.79474,0,0,0-8.34016,1.77759.76764.76764,0,0,1-.25983.04546.74649.74649,0,0,1-.498-.189c-.14548-.12889-14.583-12.90625-22.19142-14.75489a.7498.7498,0,0,1,.13676-1.47754c.16794-.00875,16.88965-.959,24.94824-6.6211a.74976.74976,0,0,1,.86818.00393,27.14016,27.14016,0,0,0,14.495,4.12937,27.92384,27.92384,0,0,0,10.75692-2.186c13.7012-5.67575,20.83108-19.89847,16.584-33.083-1.71841-5.33618-3.7193-8.52623-5.42572-10.42823a23.67556,23.67556,0,0,1-4.172,7.54347.4946.4946,0,0,1-.75992-.62459,12.84715,12.84715,0,0,0-3.86215-.59146,12.98568,12.98568,0,0,0-1.72409.11493c-.01513.07271-.02484.12118-.02588.12648a.49992.49992,0,0,1-.49023.40529.54131.54131,0,0,1-.0957-.00876.50144.50144,0,0,1-.39649-.58595l.01187-.05947a7.428,7.428,0,0,1-1.79388.32236c-.07068.094-.13623.19153-.20923.284a.49982.49982,0,0,1-.70212.083.49251.49251,0,0,1-.175-.29671,25.1259,25.1259,0,0,0-3.41764.25224,21.564,21.564,0,0,0-2.32265.70707c-.15195.21823-.29372.44276-.45389.65576a.5.5,0,0,1-.70018.09865.48659.48659,0,0,1-.16029-.23088,21.0579,21.0579,0,0,0-2.18106,1.09146c-.02076.01207-.03682.02336-.057.03535a15.675,15.675,0,0,1-1.13777,1.34136.50173.50173,0,0,1-.36035.15329.49352.49352,0,0,1-.47365-.641,2.27653,2.27653,0,0,1-.4597-.11412,18.329,18.329,0,0,1-2.47494-1.58012,39.18864,39.18864,0,0,0-3.87612-1.92435c-.28752.14183-.57036.26935-.84646.38071a.49984.49984,0,0,1-.65036-.27736.48988.48988,0,0,1-.00489-.34288l-16.70387-5.59218-.00148-.00494c-1.07582-.33423-2.14577-.68352-3.20463-1.06011-.00719.00029-.01342.004-.02071.004l-.02342-.00094a.49118.49118,0,0,1-.30471-.13154q-1.51137-.547-2.98841-1.1777a108.32383,108.32383,0,0,1-11.6194-4.10341.507.507,0,0,1-.12848.022.50035.50035,0,0,1-.38382-.17872.468.468,0,0,1-.04142-.07658c-.23376-.09906-.46888-.195-.70193-.29571a24.2165,24.2165,0,0,1-2.81313-1.21529q-1.78571-.70775-3.57724-1.40042c-.94645-.36594-2.49952-.8727-3.07093-1.83388a.48753.48753,0,0,1-.26212.0846h-.01564a.50127.50127,0,0,1-.48436-.51566c.00177-.05823.01341-.11546.01724-.17358-.10923-.06153-.22113-.11831-.33018-.18018-1.03253-.58624-3.09917-.6667-3.86971-1.56694l-.005-.00859a.60158.60158,0,0,1-.0947.00815.42022.42022,0,0,1-.081-.00756.50066.50066,0,0,1-.38964-.58982c.04394-.21341,4.54689-21.47266,19.73829-33.11577,7.15856-5.48707,12.63091-6.97985,16.46941-6.97962a12.93765,12.93765,0,0,1,3.50154.46073,18.38843,18.38843,0,0,1,8.60411-7.06288c2.42677-5.88594,6.43465-18.79629,2.65341-33.40159a.75093.75093,0,0,1,.44435-.88329c.2383-.0967,5.83107-2.43606,6.04883-8.49317a7.08068,7.08068,0,0,0-1.47752-4.72218,5.784,5.784,0,0,0-4.706-2.204q-.20931,0-.42394.01157a7.78429,7.78429,0,0,0-4.82423,1.88041.7583.7583,0,0,1-.63829.34608l-.02383-.00038a.75071.75071,0,0,1-.63277-.39847c-.11035-.20847-11.3877-20.91211-40.958-25.81588a.75032.75032,0,0,1-.51665-1.13135c.15234-.24906,3.67187-6.14453-1.00288-9.35012a9.60813,9.60813,0,0,0-5.39591-1.63788,8.9525,8.9525,0,0,0-4.05922.94159c-2.15523,1.09911-4.75781,3.62058-4.91112,9.39158a.74987.74987,0,0,1-.6504.72318c-.45313.061-45.85153,6.69677-94.18894,59.03953C33.18116,135.29158,25.58252,187.72569,29.55422,204.8321a.75225.75225,0,0,1-.731.92041m157-204.93611h-.00031a20.50259,20.50259,0,0,0-9.27881,2.19135A19.83907,19.83907,0,0,0,167.06532,13.619a152.03,152.03,0,0,0-28.37086,10.94764c-23.19671,11.52771-45.10765,28.363-65.12406,50.03824-27.73789,30.03629-41.41806,58.722-48.00988,77.49724-5.64082,16.06642-8.589,31.895-8.40489,44.34163q-.336.18947-.664.39312c-3.37229,2.09407-7.7217,6.33-9.28994,14.61742-2.13706,11.2943,4.01689,21.22635,11.06383,26.0593A22.692,22.692,0,0,0,30.928,241.63972c6.64318,9.72667,21.33553,26.85207,47.50067,37.22749q.21918.08694.44236.16349c.13241.04541,13.764,4.66741,32.36559,9.16754,7.20458,1.74347,14.27312,3.6828,20.50953,5.39386,12.25546,3.36319,18.31964,4.97683,22.48564,4.98217,9.21646,0,29.91988-7.16775,41.32941-23.519,6.1412.1799,14.30871.40769,16.29089.40769.41359,0,1.7697.08935,2.75987.15466l.71736-9.97443-.65782,9.97837c2.34841.15481,5.56464.36682,8.75052.36682a41.12978,41.12978,0,0,0,8.72142-.77512c11.09506-2.43393,22.8307-19.38971,27.26894-30.08282,1.859-4.47724,7.18936-19.85642-2.29183-29.72394l-.041-.04256a39.99484,39.99484,0,0,0,10.20233-2.74144c19.28571-7.99048,29.22864-28.29635,23.12863-47.23341a47.01655,47.01655,0,0,0-4.50183-10.10628q.31206-.20365.60962-.42984l.0437-.03342a10.50788,10.50788,0,0,0,4.07471-7.6114,19.84724,19.84724,0,0,0-.13443-3.90074,21.29129,21.29129,0,0,0,2.48218-7.39114c1.40012-9.20206-3.2554-22.4866-11.06983-31.58742a26.792,26.792,0,0,0-12.10519-8.46472c-4.05118-4.76094-10.26652-7.95511-17.58978-9.00751a63.81709,63.81709,0,0,0,.24344-17.82615,20.61864,20.61864,0,0,0,5.45778-13.28444,18.56858,18.56858,0,0,0-4.02741-12.36518,17.21221,17.21221,0,0,0-13.63388-6.475q-.54247,0-1.09642.03159-.43584.02443-.87416.06963a70.26414,70.26414,0,0,0-33.4101-21.53826,16.72008,16.72008,0,0,0-7.15245-11.00508A21.22953,21.22953,0,0,0,185.82323.8164Zm-8.20675,32.45121a10.70915,10.70915,0,0,0,6.45359-3.39851,10.7285,10.7285,0,0,0,7.04233,4.42724c23.95785,3.973,33.31025,19.85938,33.815,20.74683a10.79433,10.79433,0,0,0,5.96193,5.02132,10.71625,10.71625,0,0,0-.63168,7.16462A42.73429,42.73429,0,0,1,229.252,90.98889a28.04478,28.04478,0,0,0-4.84106,3.736c-6.913.20909-14.23866,3.24485-21.7879,9.03135-18.09171,13.866-23.23906,38.01459-23.4493,39.03577a10.54187,10.54187,0,0,0,5.621,11.52447,14.53355,14.53355,0,0,0,3.07646,1.379,10.5144,10.5144,0,0,0,1.62636,1.02153,18.50363,18.50363,0,0,0,4.23407,2.12006l.21641.08223q1.70382.65883,3.40225,1.33146c.10349.04843.21239.10366.32534.1593a23.79515,23.79515,0,0,0,2.25032,1.0002,10.44371,10.44371,0,0,0,2.58162,1.03165c3.63806,1.47443,7.31453,2.76178,10.95387,3.83531.734.30583,1.4883.60368,2.25417.89021a10.54494,10.54494,0,0,0,1.77684.64135c.81413.2809,1.67713.564,2.61424.85771l.08171.02775,14.11075,4.72405a10.46522,10.46522,0,0,0,5.83552,2.03429q.06966.03852.13767.07684c.05827.04234.117.08632.1764.13006.36335.26735.83432.61391,1.40885.97594a10.424,10.424,0,0,0,6.99545,2.66741,10.56721,10.56721,0,0,0,7.00023-2.67473,10.59525,10.59525,0,0,0,2.657-1.1523,10.41207,10.41207,0,0,0,1.61816.12686,10.618,10.618,0,0,0,1.96393-.18233c.30371.02643.6084.03974.912.03974a10.47526,10.47526,0,0,0,2.18616-.23,10.51582,10.51582,0,0,0,4.32946.939,10.626,10.626,0,0,0,1.14838-.06208c.23557,6.88689-4.24478,13.59832-11.61519,16.65154a18.058,18.058,0,0,1-6.92976,1.42465,17.757,17.757,0,0,1-8.83144-2.3717,10.75123,10.75123,0,0,0-12.27409.05147c-3.94289,2.77035-13.928,4.48753-19.76088,4.82347a10.7498,10.7498,0,0,0-1.93912,21.18029c2.72023.66094,11.26235,6.62989,17.918,12.52218a10.75478,10.75478,0,0,0,10.76929,2.0693l.08282-.03012a23.47962,23.47962,0,0,1,2.90482-.88623,20.20326,20.20326,0,0,1-1.437,5.3457c-3.26011,7.85237-9.8373,15.67073-12.55373,17.41716a26.801,26.801,0,0,1-3.56557.18506c-2.49589,0-5.19847-.17923-7.37007-.32315-1.72429-.11383-3.08394-.20361-4.2144-.20361-1.848,0-12.34636-.29453-21.93094-.58646l-.058-.00177q-.15024-.00453-.30063-.00455-.10336,0-.20671.00214a10.73371,10.73371,0,0,0-9.5026,6.08371c-5.64074,11.81421-21.80085,17.4556-25.5279,17.61566-2.22907-.18906-10.33762-2.41458-16.86886-4.20718-6.39741-1.75525-13.637-3.74155-21.16465-5.56259-16.09837-3.895-28.06506-7.81369-30.21928-8.53193-29.02537-11.60611-39.64733-32.735-40.21112-33.89335a10.74946,10.74946,0,0,0-14.95194-4.81806,3.0462,3.0462,0,0,1-.48372-.27584,4.90561,4.90561,0,0,1-2.13945-4.04369q.268.01344.537.01344A10.75222,10.75222,0,0,0,39.29346,202.5634c-1.25353-5.39917-1.37177-20.389,6.14711-42.27842,5.87065-17.091,18.25659-43.29864,43.92459-71.09382,23.5803-25.53423,46.25818-39.3627,61.13029-46.46706,15.97153-7.62949,26.65637-9.38314,27.121-9.45649Z" transform="translate(-6.77118 -0.8164)"/></g><g id="Layer_6" data-name="Layer 6"><path class="cls-2" d="M270.2664,154.98717s5.77659.85652,9.91217,13.697-2.33379,27.92507-17.01156,34.00612a28.04671,28.04671,0,0,1-25.97518-2.027c-8.33329,5.85583-25.3397,6.75672-25.3397,6.75672,7.88085,1.91441,22.513,14.92256,22.513,14.92256,19.26765-7.11111,19.54718,8,15.11911,18.66667s-14.2386,22.51852-19.64353,23.7037-15.03951,0-17.98856,0-22.31357-.59259-22.31357-.59259c-7.78113,16.29629-30.44109,24-35.29294,23.7037s-22.11111-5.62963-40.48148-10.07407-31.40741-8.88889-31.40741-8.88889c-34.37037-13.62963-46.22222-39.40741-46.22222-39.40741-8.59259,5.33333-20.44445-5.037-18.37037-16s11.05955-8.45124,11.05955-8.45124c-3.85185-16.59259,3.16267-69.52229,52.64415-123.10431,49.11309-53.18311,94.64005-59.27422,94.64005-59.27422.30471-11.42664,10.2078-12.95019,15.54024-9.29367S192.867,23.6904,192.867,23.6904c30.31869,5.02772,41.49814,26.2051,41.49814,26.2051.8502-1.33311,7.40063-4.41592,11.16834.24371A7.85085,7.85085,0,0,1,247.17773,55.36c-.2384,6.64059-6.51742,9.16165-6.51742,9.16165,5.28622,20.4156-4.297,37.34086-4.297,37.34086a47.65364,47.65364,0,0,0,6.602,32.70038A49.712,49.712,0,0,0,270.2664,154.98717Z" transform="translate(-6.77118 -0.8164)"/><path class="cls-3" d="M195.1858,113.43346s-8.05255-4.85618-12.3841-12.1865-4.73139-12.44446-8.863-12.553-10.06253,13.0691-6.99712,24.73946,18.2594,12.78859,22.59084,10.33026A22.98582,22.98582,0,0,1,195.1858,113.43346Z" transform="translate(-6.77118 -0.8164)"/><path class="cls-4" d="M193.11079,112.029l-5.055-4.32327a41.14364,41.14364,0,0,1-8.16967-12.2545c-2.78511-6.93184-5.15234-6.55083-5.15234-6.55083a8.067,8.067,0,0,0-3.26828,5.60385,6.10373,6.10373,0,0,0,2.76635,5.70254,4.93055,4.93055,0,0,0,6.08856-.86212c-1.31107,1.709-2.68841,3.83787-2.39,5.97107a5.19127,5.19127,0,0,0,1.71024,3.02674,7.19333,7.19333,0,0,0,8.77756.52415,4.65145,4.65145,0,0,0-.7599,5.60925,4.958,4.958,0,0,0,5.45245,2.1612c.70206-1.05174,1.48969-2.12009,2.19175-3.17183A5.29538,5.29538,0,0,1,193.11079,112.029Z" transform="translate(-6.77118 -0.8164)"/><path class="cls-5" d="M177.59474,123.50747a13.02119,13.02119,0,0,0-11.314-18.32324,24.70735,24.70735,0,0,0,1.41276,10.31981,13.6186,13.6186,0,0,0,6.68427,7.21272Z" transform="translate(-6.77118 -0.8164)"/></g><g id="Layer_5" data-name="Layer 5"><path class="cls-6" d="M270.2664,154.98717s5.77659.85652,9.91217,13.697-2.33379,27.92507-17.01156,34.00612a28.04671,28.04671,0,0,1-25.97518-2.027c-8.33329,5.85583-25.3397,6.75672-25.3397,6.75672,7.88085,1.91441,22.513,14.92256,22.513,14.92256,19.26765-7.11111,19.54718,8,15.11911,18.66667s-14.2386,22.51852-19.64353,23.7037-15.03951,0-17.98856,0-22.31357-.59259-22.31357-.59259c-7.78113,16.29629-28.18649,23.71193-35.29294,23.7037-4.86089-.00563-22.11111-5.62963-40.48148-10.07407s-31.40741-8.88889-31.40741-8.88889c-34.37037-13.62963-46.22222-39.40741-46.22222-39.40741-8.59259,5.33333-20.44445-5.037-18.37037-16s11.05955-8.45124,11.05955-8.45124c-3.85185-16.59259,3.16267-69.52229,52.64415-123.10431,49.11309-53.18311,94.64005-59.27422,94.64005-59.27422.30471-11.42664,10.2078-12.95019,15.54024-9.29367S192.867,23.6904,192.867,23.6904c30.31869,5.02772,41.49814,26.2051,41.49814,26.2051.8502-1.33311,7.40063-4.41592,11.16834.24371A7.85085,7.85085,0,0,1,247.17773,55.36c-.2384,6.64059-6.51742,9.16165-6.51742,9.16165,5.28622,20.4156-4.297,37.34086-4.297,37.34086a47.65364,47.65364,0,0,0,6.602,32.70038A49.712,49.712,0,0,0,270.2664,154.98717Z" transform="translate(-6.77118 -0.8164)"/><path class="cls-7" d="M230.9076,44.90633A58.07592,58.07592,0,0,1,242.22851,75.6194" transform="translate(-6.77118 -0.8164)"/><path class="cls-7" d="M176.73948,18.48892s-.75856,4.56515,0,7.19953" transform="translate(-6.77118 -0.8164)"/><path class="cls-7" d="M189.4589,26.19024s2.2437-.42541,4.17358-4.10156" transform="translate(-6.77118 -0.8164)"/><path class="cls-7" d="M186.02841,68.59124s8.78128-1.37992,8.40494,6.52323" transform="translate(-6.77118 -0.8164)"/><path class="cls-7" d="M216.63742,88.78816s6.52323-1.25447,7.90314,5.39421" transform="translate(-6.77118 -0.8164)"/><path class="cls-7" d="M196.57274,81.88859s10.15439,1.75625,14.16868,10.41208" transform="translate(-6.77118 -0.8164)"/><path class="cls-7" d="M217.68252,99.20024a44.61889,44.61889,0,0,0-20.61479,12.04852C188.03556,120.77708,187.032,134.337,187.032,134.337" transform="translate(-6.77118 -0.8164)"/><path class="cls-8" d="M195.186,97.69488s-7.43995-5.58253-5.72713-9.00088,9.6575-.37634,12.89835,2.74418,5.84879,4.75134,4.36988,7.76206C205.08779,102.53755,197.857,100.043,195.186,97.69488Z" transform="translate(-6.77118 -0.8164)"/><path class="cls-7" d="M195.1858,113.43346s-8.05255-4.85618-12.3841-12.1865-4.73139-12.44446-8.863-12.553-10.06253,13.0691-6.99712,24.73946,18.2594,12.78859,22.59084,10.33026" transform="translate(-6.77118 -0.8164)"/><path class="cls-7" d="M174.73381,88.9004a8.067,8.067,0,0,0-3.26828,5.60385,6.10373,6.10373,0,0,0,2.76635,5.70254,4.93055,4.93055,0,0,0,6.08856-.86212c-1.31107,1.709-2.68841,3.83787-2.39,5.97107a5.19127,5.19127,0,0,0,1.71024,3.02674,7.19333,7.19333,0,0,0,8.77756.52415,4.65145,4.65145,0,0,0-.7599,5.60925,4.958,4.958,0,0,0,5.45245,2.1612" transform="translate(-6.77118 -0.8164)"/><path class="cls-7" d="M166.28079,105.18423a13.02119,13.02119,0,0,1,11.314,18.32324" transform="translate(-6.77118 -0.8164)"/><path class="cls-7" d="M260.12885,179.64783s-5.54439,1.50924-7.988.50308" transform="translate(-6.77118 -0.8164)"/><path class="cls-7" d="M240.66031,180.49678s8.915-.26005,11.114-3.63585" transform="translate(-6.77118 -0.8164)"/><path class="cls-7" d="M239.63569,190.84132c.37731.12577,6.73865,1.00843,9.21761-1.13079" transform="translate(-6.77118 -0.8164)"/><path class="cls-7" d="M256.13485,193.23094s-7.07845.23339-8.45591-1.83273" transform="translate(-6.77118 -0.8164)"/><path class="cls-7" d="M149.46566,185.93631s17.09793,13.96042,35.20875,18.23658,32.29192,3.54811,39.37169,1.536" transform="translate(-6.77118 -0.8164)"/><path class="cls-7" d="M244.2445,227.18872s6.78174,4.03389,7.37494,6.04157" transform="translate(-6.77118 -0.8164)"/><path class="cls-7" d="M242.15108,237.62759c.37731.25154,6.48711,2.48409,6.70222,4.82648" transform="translate(-6.77118 -0.8164)"/><path class="cls-7" d="M196.522,206.3752s-.77984,21.94545-15.87219,39.80472" transform="translate(-6.77118 -0.8164)"/><path class="cls-7" d="M130.97081,210.3356s20.62621,6.54,32.32278,17.3562a190.408,190.408,0,0,1,20.24889,22.13544,7.26884,7.26884,0,0,1,7.29463,2.01231c3.27,3.39578-3.46037,16.05517-3.46037,16.05517" transform="translate(-6.77118 -0.8164)"/><path class="cls-7" d="M185.05172,255.61263s4.28815,3.40058,4.65946,7.17127" transform="translate(-6.77118 -0.8164)"/><path class="cls-7" d="M180.64978,263.78765s5.96366,5.6998,3.594,8.11448" transform="translate(-6.77118 -0.8164)"/><path class="cls-7" d="M27.93474,196.25389s1.48411,22.83677,12.51692,40.34314" transform="translate(-6.77118 -0.8164)"/></g><g id="Layer_4" data-name="Layer 4"><path class="cls-9" d="M262.86653,165.00652a12.93218,12.93218,0,0,1,6.64727.51215,18.00086,18.00086,0,0,0,4.259-8.5474c.08893-.47687.111-1.07157-.296-1.33549a1.27291,1.27291,0,0,0-.96118-.05045,31.6733,31.6733,0,0,0-4.66364,1.40054,9.71958,9.71958,0,0,0-4.34407,2.83012C262.43749,161.201,261.81758,163.60522,262.86653,165.00652Z" transform="translate(-6.77118 -0.8164)"/><path class="cls-10" d="M271.827,152.80914a5.00856,5.00856,0,0,1,1.92492,3.07124,69.01742,69.01742,0,0,1-7.8461,4.59645c-.65462.30976-1.478.58479-2.05559.14793a1.591,1.591,0,0,1-.32555-1.8,3.11832,3.11832,0,0,1,1.944-1.88643,16.03841,16.03841,0,0,0,2.19133-.4262A8.85608,8.85608,0,0,0,271.827,152.80914Z" transform="translate(-6.77118 -0.8164)"/><path class="cls-11" d="M270.2664,154.98717a5.6217,5.6217,0,0,0,1.16507-1.01742,1.89574,1.89574,0,0,0,.44558-1.44021,1.15865,1.15865,0,0,0-1.03217-.991,1.88828,1.88828,0,0,0-1.02595.403l-1.86764,1.2059a8.14857,8.14857,0,0,0-1.96962,1.58427,2.828,2.828,0,0,0-.71408,1.7495c.03479.76651.5813.64816,1.21425.51247A10.48154,10.48154,0,0,0,270.2664,154.98717Z" transform="translate(-6.77118 -0.8164)"/><path class="cls-12" d="M271.69913,148.65745a14.22252,14.22252,0,0,0,1.90223,1.46052,58.49044,58.49044,0,0,1,4.87141-4.44348,3.77109,3.77109,0,0,0,1.68759.82141,11.49042,11.49042,0,0,0-.8937-4.89591,3.28379,3.28379,0,0,0-.94166-1.48547,3.11946,3.11946,0,0,0-1.98834-.45016,6.29983,6.29983,0,0,0-4.25354,1.40478,7.61081,7.61081,0,0,0-1.8038,4.13631,5.32614,5.32614,0,0,0-.14953,1.88737,1.86948,1.86948,0,0,0,1.05577,1.48113" transform="translate(-6.77118 -0.8164)"/><path class="cls-13" d="M271.69913,148.65745a14.22252,14.22252,0,0,0,1.90223,1.46052,58.49044,58.49044,0,0,1,4.87141-4.44348,3.77109,3.77109,0,0,0,1.68759.82141,11.49042,11.49042,0,0,0-.8937-4.89591,3.28379,3.28379,0,0,0-.94166-1.48547,3.11946,3.11946,0,0,0-1.98834-.45016,6.29983,6.29983,0,0,0-4.25354,1.40478,7.61081,7.61081,0,0,0-1.8038,4.13631,5.32614,5.32614,0,0,0-.14953,1.88737,1.86948,1.86948,0,0,0,1.05577,1.48113" transform="translate(-6.77118 -0.8164)"/><path class="cls-14" d="M270.51927,151.17389s3.249,2.66572,3.42942,4.99823-3.04067,8.16376-4.42906,9.49662" transform="translate(-6.77118 -0.8164)"/><path class="cls-14" d="M263.40759,160.81177a17.98066,17.98066,0,0,0,10.35892-5.00187" transform="translate(-6.77118 -0.8164)"/><path class="cls-14" d="M265.685,157.20507a8.76134,8.76134,0,0,0,6.42945-4.23072" transform="translate(-6.77118 -0.8164)"/><path class="cls-15" d="M262.37425,105.547s5.3745-1.59934,11.57444,5.62214S283.454,128.75144,282.604,134.337s-4.24972,8.13539-10.86041,7.75764S262.37425,105.547,262.37425,105.547Z" transform="translate(-6.77118 -0.8164)"/><path class="cls-14" d="M262.37425,105.547s5.3745-1.59934,11.57444,5.62214S283.454,128.75144,282.604,134.337s-4.24972,8.13539-10.86041,7.75764S262.37425,105.547,262.37425,105.547Z" transform="translate(-6.77118 -0.8164)"/><path class="cls-16" d="M228.03985,107.39824s3.23881-8.4921,14.02364-10.06795,20.50259,2.18868,22.07845,10.06795,3.5019,18.91024,4.72756,21.88686,5.1653,8.64585,5.07775,13.60295a15.88848,15.88848,0,0,1-6.21637,11.96126,10.81257,10.81257,0,0,0-3.18012,4.87009c-.50926,1.27693-.64715,3.64421-1.435,4.71467-.74649,1.01431-5.30374.63987-6.88957,1.01671a21.37431,21.37431,0,0,0-5.81808,2.322c-1.08728.63414-1.37765,1.17322-2.48844.77487a18.333,18.333,0,0,1-2.47492-1.58015,52.87072,52.87072,0,0,0-10.85247-4.49114c-7.62219-2.369-15.65989-3.92682-22.5932-8.06668a43.31379,43.31379,0,0,1,5.17-24.38948c2.09715-3.79807,4.754-7.258,6.98073-10.98161S227.86953,111.73349,228.03985,107.39824Z" transform="translate(-6.77118 -0.8164)"/><path class="cls-17" d="M228.03985,107.39824s3.23881-8.4921,14.02364-10.06795,20.50259,2.18868,22.07845,10.06795,3.5019,18.91024,4.72756,21.88686,5.1653,8.64585,5.07775,13.60295a15.88822,15.88822,0,0,1-6.21587,11.96089c-3.23925,2.36378-4.72756,10.11154-4.72756,10.11154" transform="translate(-6.77118 -0.8164)"/><path class="cls-17" d="M260.12885,165.10311A14.8989,14.8989,0,0,0,263.167,157.999" transform="translate(-6.77118 -0.8164)"/><path class="cls-17" d="M253.05046,166.51309a21.21755,21.21755,0,0,0,3.11641-5.88883" transform="translate(-6.77118 -0.8164)"/><path class="cls-17" d="M248.8533,168.80327a15.836,15.836,0,0,0,4.36454-10.27987" transform="translate(-6.77118 -0.8164)"/><path class="cls-17" d="M255.80658,103.70156a6.54274,6.54274,0,0,1,4.60731,3.63792,14.20612,14.20612,0,0,1,1.28056,5.91205c.08331,2.03074-.00814,4.07317.2495,6.08923.53733,4.2046,2.55056,8.04936,4.27159,11.923s3.20217,8.07962,2.58273,12.27291" transform="translate(-6.77118 -0.8164)"/><path class="cls-18" d="M223.363,159.21153a36.51225,36.51225,0,0,1,0-17.21251c2.23985-9.88967,12.54316-18.10245,23.21978-14.59335s9.258,15.90293,6.86887,22.7718-8.28745,12.91647-12.91647,14.783" transform="translate(-6.77118 -0.8164)"/><path class="cls-19" d="M220.1185,157.96844a71.26387,71.26387,0,0,1,1.99954-13.21917c1.66628-6.1097,6.8873-17.10717,10.442-22.9947a19.01051,19.01051,0,0,0,2.77714-11.4418c2.555-.55543,6.554-3.1104,6.554-3.1104.7776-4.44342-1.22194-5.77644-3.11039-5.221s-7.10947,5.221-7.10947,5.221-7.44273-6.77621-22.66147,4.88779c-6.86264,5.2597-11.89292,12.60974-15.43286,20.427a69.78983,69.78983,0,0,0-3.17111,8.38213c-.25669.8398-.50031,1.68478-.71362,2.53676-.1404.5608-.55243,1.50477-.15377,1.97051.77052.90016,2.83721.98072,3.86973,1.56693a108.41659,108.41659,0,0,0,26.96645,10.82939" transform="translate(-6.77118 -0.8164)"/><path class="cls-20" d="M220.1361,157.65062a68.81259,68.81259,0,0,1,1.98194-12.90135c1.66628-6.1097,6.8873-17.10717,10.442-22.9947a19.01051,19.01051,0,0,0,2.77714-11.4418c2.555-.55543,6.554-3.1104,6.554-3.1104.7776-4.44342-1.22194-5.77644-3.11039-5.221s-7.10947,5.221-7.10947,5.221-7.44273-6.77621-22.66144,4.88776-19.55105,32.81844-19.55105,32.81844" transform="translate(-6.77118 -0.8164)"/><path class="cls-20" d="M196.57274,134.2644a76.53526,76.53526,0,0,1,21.10978-23.09528" transform="translate(-6.77118 -0.8164)"/><path class="cls-20" d="M213.51391,149.29745a75.15319,75.15319,0,0,1,16.32678-38.04869" transform="translate(-6.77118 -0.8164)"/><path class="cls-20" d="M192.90985,141.999a7.151,7.151,0,0,1,1.60314-2.61252" transform="translate(-6.77118 -0.8164)"/><path class="cls-20" d="M200.32182,131.71855a7.00568,7.00568,0,0,1,1.58555-1.56866,2.10994,2.10994,0,0,1,3.38553,1.223,7.00221,7.00221,0,0,1,.21466,2.0163" transform="translate(-6.77118 -0.8164)"/><path class="cls-20" d="M208.39864,134.98584a6.07119,6.07119,0,0,1,1.16978-1.25519,2.49085,2.49085,0,0,1,1.596-.5461,2.54373,2.54373,0,0,1,2.13012,1.95854,6.23508,6.23508,0,0,1-.13983,3.0558" transform="translate(-6.77118 -0.8164)"/><path class="cls-21" d="M196.80879,143.10966a5.29452,5.29452,0,0,0-2.55809,3.82068c-.05993,1.53264,2.11441,2.20206,3.30358,2.66184q1.79155.69268,3.57725,1.40042c.95269.37757,2.36844,1.29675,3.395,1.30523,1.67376.01383,3.0408-3.06681,3.46072-4.38871a2.64787,2.64787,0,0,0-.173-2.47494,2.25953,2.25953,0,0,0-2.51439-.4087c-.84846.31978-1.56538.91157-2.37927,1.31126a2.65729,2.65729,0,0,1-2.59427.07847,4.09531,4.09531,0,0,1-1.22506-2.04532,3.69711,3.69711,0,0,0-.65058-1.10034A1.286,1.286,0,0,0,196.80879,143.10966Z" transform="translate(-6.77118 -0.8164)"/><path class="cls-20" d="M205.07181,152.25893a9.44014,9.44014,0,0,0,2.91547-4.34981,2.64787,2.64787,0,0,0-.173-2.47494,2.25953,2.25953,0,0,0-2.51439-.4087c-.84846.31978-1.56538.91157-2.37927,1.31126a2.65729,2.65729,0,0,1-2.59427.07847,4.09531,4.09531,0,0,1-1.22506-2.04532,3.69711,3.69711,0,0,0-.65058-1.10034,1.28594,1.28594,0,0,0-1.642-.15989,5.34662,5.34662,0,0,0-2.58761,4.2333" transform="translate(-6.77118 -0.8164)"/><path class="cls-22" d="M223.18379,158.5234s-2.06061-6.63472.17924-16.52438,12.54316-18.10245,23.21978-14.59335,9.258,15.90293,6.86887,22.7718-8.28745,12.91647-12.91647,14.783" transform="translate(-6.77118 -0.8164)"/><path class="cls-23" d="M238.55162,135.71407a4.91636,4.91636,0,0,1,2.58692-1.97538.69737.69737,0,0,1,.80651.28552,4.92792,4.92792,0,0,1,.794,3.23263" transform="translate(-6.77118 -0.8164)"/><path class="cls-23" d="M232.36691,133.86971a9.00323,9.00323,0,0,1,1.59093-1.7681,1.2189,1.2189,0,0,1,.73475-.36311,1.10173,1.10173,0,0,1,.76983.42362,3.43367,3.43367,0,0,1,.9009,2.17487" transform="translate(-6.77118 -0.8164)"/><path class="cls-24" d="M228.774,143.75719a1.67132,1.67132,0,0,1,2.50464.41989,1.04535,1.04535,0,0,0,.79751.49578c.92334.08793,5.0564-.80355,6.11164.52156s-.39572,6.1177-5.49608,6.42548-5.27623-6.59529-3.95718-7.82642Z" transform="translate(-6.77118 -0.8164)"/><path class="cls-25" d="M228.774,143.75719a1.67132,1.67132,0,0,1,2.50464.41989,1.04535,1.04535,0,0,0,.79751.49578c.92334.08793,5.0564-.80355,6.11164.52156s-.39572,6.1177-5.49608,6.42548-5.27623-6.59529-3.95718-7.82642Z" transform="translate(-6.77118 -0.8164)"/><path class="cls-26" d="M247.71926,133.76373a2.475,2.475,0,0,0,1.65216,1.90766,2.17964,2.17964,0,0,0,2.361-.77411,2.46135,2.46135,0,0,0,.403-1.565,2.67876,2.67876,0,0,0-1.30467-2.18454C249.03431,130.16756,247.3993,131.99346,247.71926,133.76373Z" transform="translate(-6.77118 -0.8164)"/><path class="cls-26" d="M250.76284,138.42931a34.80169,34.80169,0,0,1-2.814,11.69566c-2.63812,5.93576-2.9459,6.0237-2.77,6.947s2.2424,1.97859,5.584-4.52877,3.25368-11.29994,2.90193-13.63028S251.33444,136.40675,250.76284,138.42931Z" transform="translate(-6.77118 -0.8164)"/><path class="cls-27" d="M276.04807,124.8301a.78635.78635,0,0,0,.68142.01327.81845.81845,0,0,0,.34065-.56729,1.68612,1.68612,0,0,0-.27514-1.35727c-.39607-.51462-1.4373-.84217-1.71012-.05994A1.67469,1.67469,0,0,0,276.04807,124.8301Z" transform="translate(-6.77118 -0.8164)"/><path class="cls-28" d="M276.06245,124.79547c.276.14286.62976-.01528.63883-.23413l.09436-.70873a1.20843,1.20843,0,0,0-.05414-.8.84881.84881,0,0,0-.6879-.40051c-.6102-.00873-.63464.24409-.63513.73607a4.22535,4.22535,0,0,0,.12869.7304A.97628.97628,0,0,0,276.06245,124.79547Zm-.02874.06926a4.009,4.009,0,0,1-.88514-.45507,1.3802,1.3802,0,0,1-.52655-.94705,1.33427,1.33427,0,0,1,.39392-1.13944.97876.97876,0,0,1,1.16654-.061,2.72822,2.72822,0,0,1,.76.65356,2.08272,2.08272,0,0,1,.47708.91807,1.08177,1.08177,0,0,1-.35236,1.02362.71645.71645,0,0,1-.568.15192A2.01739,2.01739,0,0,1,276.03371,124.86473Z" transform="translate(-6.77118 -0.8164)"/><path class="cls-27" d="M267.18057,111.60746a1.13667,1.13667,0,0,0,.5408.32817.7778.7778,0,0,0,.6151-.09683.82858.82858,0,0,0,.32868-.70766,1.511,1.511,0,0,0-.26531-.75885c-.26057-.40748-1.04432-1.02562-1.47775-.47635A1.52716,1.52716,0,0,0,267.18057,111.60746Z" transform="translate(-6.77118 -0.8164)"/><path class="cls-28" d="M267.20766,111.58152a.61525.61525,0,0,0,.69711.14241,1.29729,1.29729,0,0,0,.38513-.29506.66665.66665,0,0,0,.19309-.61546.901.901,0,0,0-.46375-.57645,1.61939,1.61939,0,0,0-.614-.19877c-.13706.01431-.136.06431-.21509.18829a2.69211,2.69211,0,0,0-.14291.59776A.91323.91323,0,0,0,267.20766,111.58152Zm-.05417.05188c-.33927-.38854-.98468-.88395-.70734-1.70075a.959.959,0,0,1,.4104-.49747.91031.91031,0,0,1,.65936-.09372,1.274,1.274,0,0,1,.78907.6006,5.37405,5.37405,0,0,1,.40829.79319,1.29759,1.29759,0,0,1,.13233.97805.77627.77627,0,0,1-.95432.48118A1.85353,1.85353,0,0,1,267.15349,111.6334Z" transform="translate(-6.77118 -0.8164)"/><path class="cls-7" d="M164.10189,123.76372s17.24976,20.05893,36.21993,26.909,40.00794,13.65544,45.895,16.81639c0,0,6.96286,2.73064,5.45671,14.7798s-17.60031,21.66268-26.62849,23.215" transform="translate(-6.77118 -0.8164)"/><path class="cls-7" d="M248.8533,169.259c7.27218-4.7765,16.80121-5.34778,24.8986-2.16474" transform="translate(-6.77118 -0.8164)"/></g></svg>