<svg id="layout" xmlns="http://www.w3.org/2000/svg" viewBox="0 0 300.03 223.28"><defs><style>.cls-1,.cls-6{fill:#fff;}.cls-2{fill:#8f5a3f;}.cls-11,.cls-12,.cls-13,.cls-2,.cls-3,.cls-5,.cls-6,.cls-9{stroke:#000;stroke-linecap:round;stroke-linejoin:round;}.cls-3{fill:none;}.cls-4{fill:#681e1d;}.cls-5{fill:#ffa8a6;}.cls-13,.cls-7{fill:#f4f7e8;}.cls-8{fill:#d2d6c1;}.cls-10,.cls-9{fill:#494949;}.cls-11{fill:#a78967;}.cls-12{fill:#5d4f41;}</style></defs><title>we-bare-bears-free-bears</title><path class="cls-1" d="M253.45,256.64c-17.45-.07-36.19-.1-59-.1-15.38,0-30.7,0-45.78,0h-1.77c-14.53,0-29.26,0-44.06,0-23.22,0-42.21,0-59.77-.1a9.29,9.29,0,0,1-9.24-9.81c.81-14.82.89-30.17,1-45,.06-10.66.12-22.53.51-34.35l-5.73,0a7,7,0,0,1-7-7v-2.82a3,3,0,0,1,0-.42c0-.3.09-1.2.22-2.53l-6.26,2-.15.05a15,15,0,0,1-4.72,1,6.39,6.39,0,0,1-6.22-4c-1.55-3.86.82-16.13,3.77-23.09,4.12-9.71,21.48-14.65,24.92-15.54a3.82,3.82,0,0,1,.57-.11,3.68,3.68,0,0,1,.66-.06l1.48-.05c0-.29.08-.56.11-.82L39.77,91c1-8.4,2.59-17.17,7.22-24.76a10.12,10.12,0,0,1-.46-3.54,10.38,10.38,0,0,1,5.81-8.65,8.89,8.89,0,0,1,3.85-.87,9.19,9.19,0,0,1,3.6.73,40.74,40.74,0,0,1,14.33-4.89,30.77,30.77,0,0,1,4.36-.3A37,37,0,0,1,87.83,50a9.91,9.91,0,0,1,6.74-2.51l.69,0a9.89,9.89,0,0,1,9.32,10,10.46,10.46,0,0,1-.46,3,37.18,37.18,0,0,1,4.32,7.23,63.27,63.27,0,0,1,3.79,11.21,55.2,55.2,0,0,1,6.08-14.08,44.52,44.52,0,0,1,7.61-9.24,12,12,0,0,1,.52-5.35,10.2,10.2,0,0,1,5.15-5.93,9.54,9.54,0,0,1,7.14-.47,9.73,9.73,0,0,1,4.57,3.29l.63-.09a51.24,51.24,0,0,1,5.94-.36A32.68,32.68,0,0,1,165.6,50.3a30.78,30.78,0,0,1,4.33,2.85,9.49,9.49,0,0,1,3.81-.79,9.08,9.08,0,0,1,7.14,3.32,9.44,9.44,0,0,1,1.9,4.2,9.67,9.67,0,0,1,4.92-1.62h.38a9,9,0,0,1,3.2.58,37.6,37.6,0,0,1,18.9-4.71,44.28,44.28,0,0,1,7.52.63,27.6,27.6,0,0,1,4.13,1.07,13.51,13.51,0,0,1,1.29-.74,10.06,10.06,0,0,1,4.39-1,10.2,10.2,0,0,1,4.28.93,9.39,9.39,0,0,1,5.52,9.24,9.27,9.27,0,0,1-.34,2,32.23,32.23,0,0,1,5,7.51c2.37,5.09,3.38,10.37,4.35,15.48.29,1.48.57,3,.89,4.44a88.16,88.16,0,0,0,7.68,21.5l.06,0,.37.16.11.06c16,8.33,35.58,19.11,38.44,23.19,2.18,3.12,1.31,7.19-2.21,10.37l-.08.07a5.42,5.42,0,0,1-2.68,1.28l-8.17,1.38c.41.59.78,1.08,1.07,1.42a5.43,5.43,0,0,1,1.45,3c0,.21.05.42.06.62h0a5.49,5.49,0,0,1-.51,2.46,5,5,0,0,1-.41.76l-3.43,5a7.4,7.4,0,0,1-6.11,3.24l-9.65,0a618.89,618.89,0,0,1,.67,78.68,10.37,10.37,0,0,1-10.36,9.78Z" transform="translate(0 -38.36)"/><path class="cls-1" d="M135.74,48.36a4.57,4.57,0,0,1,1.41.23,5,5,0,0,1,3.23,4.27,25.84,25.84,0,0,1,4.15-.85,45.25,45.25,0,0,1,5.34-.33,27.76,27.76,0,0,1,13.35,3,27.17,27.17,0,0,1,6.59,5.06,4.85,4.85,0,0,1,1.44-1.65,4.46,4.46,0,0,1,2.49-.75A4.18,4.18,0,0,1,177,58.82a5.49,5.49,0,0,1,.92,4.2,6.1,6.1,0,0,1-2.78,4.58c.2.44.41.87.58,1.31,1.59,4.14,2.14,8.6,2.68,12.91.18,1.5.37,3.05.61,4.56a44.68,44.68,0,0,0,1.18,5.54,26.17,26.17,0,0,1,.15-3.57c.82-6.8,2.55-12.42,5.15-16.81l0,0a5,5,0,0,1-1.7-5.21,4.74,4.74,0,0,1,4.17-3.05h.16a4.05,4.05,0,0,1,3.22,1.59c5.41-4.21,12.51-5.72,18.88-5.72a39.58,39.58,0,0,1,6.66.56,24.31,24.31,0,0,1,6.17,2,5.05,5.05,0,0,1,2.32-2.12,4.9,4.9,0,0,1,2.18-.49,5.31,5.31,0,0,1,2.17.46,4.46,4.46,0,0,1,2.65,4.35,5.71,5.71,0,0,1-1.41,3.24,28.7,28.7,0,0,1,6.48,8.69c2.1,4.52,3,9.5,4,14.3.29,1.53.58,3,.91,4.57a93,93,0,0,0,9.29,24.94l1.32.13a.37.37,0,0,1,.18,0h0c1.38.72,33.94,17.75,36.65,21.62,1,1.47-1.15,3.51-1.46,3.8h0a.39.39,0,0,1-.25.12L272.3,148a87.61,87.61,0,0,0,5.8,8.48.46.46,0,0,1,.16.34v0h0a.5.5,0,0,1-.08.27,0,0,0,0,1,0,0l-3.4,5a2.39,2.39,0,0,1-2,1.05h0l-15-.06a614.46,614.46,0,0,1,1.08,83.42,5.37,5.37,0,0,1-5.37,5.06h0c-19.58-.07-39.35-.1-59-.1-15.39,0-30.71,0-45.79,0s-30.42,0-45.81,0c-19.91,0-39.94,0-59.77-.1a4.26,4.26,0,0,1-3.1-1.34,4.31,4.31,0,0,1-1.17-3.2c.82-15,.9-30.37,1-45.29.07-12.91.15-26.16.69-39.33l-10.89,0a2,2,0,0,1-2-2v-2.73h0c.05-.56.38-4.71,1-10.13l-13.57,4.33-.23.08a10.63,10.63,0,0,1-3.12.71,1.52,1.52,0,0,1-1.58-.84c-.59-1.48.52-11.7,3.74-19.28,3.32-7.84,20.82-12.47,21.56-12.66h.11l5.54-.18c.1-.59.22-1.19.33-1.78.22-1.18.44-2.29.56-3.32l2.74-22.86c1-8.39,2.61-17.13,7.47-24.21l.59-.81A5,5,0,0,1,51.53,63a5.3,5.3,0,0,1,3-4.43,3.89,3.89,0,0,1,1.68-.37,4.2,4.2,0,0,1,2.25.65,5.51,5.51,0,0,1,1.23,1.07A35,35,0,0,1,74.84,54a25.37,25.37,0,0,1,3.64-.25A32.12,32.12,0,0,1,89.8,55.86a5.18,5.18,0,0,1,.49-1.07,4.78,4.78,0,0,1,4.28-2.31H95a4.85,4.85,0,0,1,4.62,5,6,6,0,0,1-1.44,3.77,29.21,29.21,0,0,1,5.75,8.57c2.63,5.69,3.92,11.89,5.16,17.89.54,2.59,1,5.14,1.49,7.67a11,11,0,0,1,3.26-1.58l.32-1.45c1.87-8.62,3.82-17.53,8.42-24.83a38.35,38.35,0,0,1,9-10.13,5.18,5.18,0,0,1-.58-1.58,7.4,7.4,0,0,1,.16-3.93,5.21,5.21,0,0,1,2.59-3,4.55,4.55,0,0,1,2-.45m0-10h0a14.66,14.66,0,0,0-6.32,1.44,15.33,15.33,0,0,0-7.72,8.83,16.83,16.83,0,0,0-.87,4.92,51.29,51.29,0,0,0-6.75,8.61c-.54.85-1,1.71-1.51,2.58a42.66,42.66,0,0,0-3.11-5.42,13.57,13.57,0,0,0,.12-1.79,14.88,14.88,0,0,0-14.07-15c-.29,0-.62,0-.94,0a15.18,15.18,0,0,0-7.8,2.12,41.51,41.51,0,0,0-8.29-.85,36.36,36.36,0,0,0-5.07.35,46,46,0,0,0-14.14,4.44,14.32,14.32,0,0,0-3.08-.33,14,14,0,0,0-6,1.36,15.26,15.26,0,0,0-8.62,12.89,15.06,15.06,0,0,0,.15,3c-4.33,7.92-5.89,16.63-6.89,25l-2.37,19.8a82.61,82.61,0,0,0-10.84,3.86c-8.93,4-14.47,8.67-16.91,14.43a65.77,65.77,0,0,0-4,14.21c-1.43,8.75-.37,11.41.15,12.69a11.38,11.38,0,0,0,10.86,7.13,18.93,18.93,0,0,0,5.94-1.1A12,12,0,0,0,29.56,172.3h.6c-.25,10.15-.31,20.19-.36,29.32-.08,14.81-.17,30.1-1,44.79A14.3,14.3,0,0,0,43,261.5c17.56.07,36.57.1,59.81.1,14.77,0,29.47,0,44,0h1.85c15.08,0,30.39,0,45.78,0,22.8,0,41.54,0,59,.1h.05a15.38,15.38,0,0,0,15.36-14.51,622.59,622.59,0,0,0-.32-73.93l4.25,0a12.41,12.41,0,0,0,10.3-5.44l3.39-5a8.84,8.84,0,0,0,.84-1.5,10.42,10.42,0,0,0,1-4.7s0-.09,0-.14a7.77,7.77,0,0,0-.09-1l1.5-.26a10.53,10.53,0,0,0,5.25-2.52l.05,0,0,0c5.4-4.91,6.57-11.7,2.91-16.92-1.33-1.91-4.1-5.87-39.35-24.3a83.69,83.69,0,0,1-6.52-18.83c-.3-1.39-.58-2.88-.86-4.32-1-5.16-2.09-11-4.73-16.65a36.46,36.46,0,0,0-4.17-6.8c0-.06,0-.12,0-.17a14.36,14.36,0,0,0-8.4-14.15,15.19,15.19,0,0,0-12.63,0,26.5,26.5,0,0,0-2.72-.6,49,49,0,0,0-8.37-.71,43.59,43.59,0,0,0-19.53,4.37,13.73,13.73,0,0,0-2.57-.24h-.59a12.25,12.25,0,0,0-2,.23c-.22-.33-.46-.65-.71-1a14.08,14.08,0,0,0-11-5.18,14.5,14.5,0,0,0-2.88.29c-.94-.63-1.9-1.22-2.88-1.75a37.72,37.72,0,0,0-18.11-4.22c-1.52,0-3.09.07-4.69.21a14.36,14.36,0,0,0-9.44-3.53Z" transform="translate(0 -38.36)"/><path class="cls-2" d="M131.5,55.67a6.89,6.89,0,0,1,.14-3.66A4.76,4.76,0,0,1,134,49.26a4.08,4.08,0,0,1,3-.2,4.46,4.46,0,0,1,2.91,4,5.24,5.24,0,0,1-2.43,4.45C134.75,59.3,132.16,58.86,131.5,55.67Z" transform="translate(0 -38.36)"/><path class="cls-2" d="M171.53,58.53a3.9,3.9,0,0,1,5.07.6,5.07,5.07,0,0,1,.82,3.82c-.25,1.85-1.22,3.76-3,4.43a3.7,3.7,0,0,1-3.49-.5C168.57,65.05,169.17,60.13,171.53,58.53Z" transform="translate(0 -38.36)"/><path class="cls-2" d="M107,100.67a10.62,10.62,0,0,1,7.21-6.5c2-8.92,3.87-18.68,8.74-26.41s12.13-14.12,21.63-15.26c6.28-.75,12.83-.37,18.39,2.64a27.08,27.08,0,0,1,12.26,14c2.12,5.51,2.36,11.53,3.26,17.37s2.67,11.89,7,15.87c2.22,8,1.67,17-2.35,24.19a32.2,32.2,0,0,1-18.92,15.08c-8.33,2.43-17.32,1.35-25.66-1a98,98,0,0,1-24.39-11.05,36.12,36.12,0,0,1-7.91-6.2,15.11,15.11,0,0,1-4.12-9C101.91,109.81,105.46,104.89,107,100.67Z" transform="translate(0 -38.36)"/><path class="cls-3" d="M112.25,118.71a10.61,10.61,0,0,0,4.28-5.85" transform="translate(0 -38.36)"/><path class="cls-3" d="M161.65,78.33a13.75,13.75,0,0,1,.64,12.61" transform="translate(0 -38.36)"/><path class="cls-3" d="M145.77,70.82a10.27,10.27,0,0,1,10,2.48" transform="translate(0 -38.36)"/><circle cx="160.95" cy="34.53" r="1.57"/><circle cx="139.56" cy="30.47" r="1.57"/><ellipse cx="149.24" cy="76.28" rx="2.61" ry="5.44" transform="translate(35.04 160.6) rotate(-74.12)"/><path class="cls-4" d="M139.22,92a10.8,10.8,0,0,0,7.43,4.45,9.78,9.78,0,0,0,8.09-2.9,6.42,6.42,0,0,0,1.72-3.22,4.06,4.06,0,0,0-.91-3.45,6.77,6.77,0,0,0-3.19-1.58c-3.86-1.13-7.71-2.29-11.58-3.38-1.12-.32-2.69-.68-3.35.58s-.44,3.07-.25,4.37A11.78,11.78,0,0,0,139.22,92Z" transform="translate(0 -38.36)"/><path class="cls-5" d="M147,91.63A7.12,7.12,0,0,0,144.71,90a8.61,8.61,0,0,0-6.77-.28A11.29,11.29,0,0,0,139.22,92a10.8,10.8,0,0,0,7.43,4.45,9.48,9.48,0,0,0,2.13,0A7.43,7.43,0,0,0,147,91.63Z" transform="translate(0 -38.36)"/><path class="cls-6" d="M156,87.49a3.08,3.08,0,0,0-.42-.6,6.77,6.77,0,0,0-3.19-1.58c-3.86-1.13-7.71-2.29-11.58-3.38a3.74,3.74,0,0,0-2.75-.05,2.74,2.74,0,0,0,1.73,2.86,3.3,3.3,0,0,0,4.08-1.35c-.48,2.1,1,3,2.28,3.35A3.22,3.22,0,0,0,150,85c-.32,2.63,1.31,3.39,2.36,3.64S155.36,88.64,156,87.49Z" transform="translate(0 -38.36)"/><path class="cls-3" d="M139.22,92a10.8,10.8,0,0,0,7.43,4.45,9.78,9.78,0,0,0,8.09-2.9,6.42,6.42,0,0,0,1.72-3.22,4.06,4.06,0,0,0-.91-3.45,6.77,6.77,0,0,0-3.19-1.58c-3.86-1.13-7.71-2.29-11.58-3.38-1.12-.32-2.69-.68-3.35.58s-.44,3.07-.25,4.37A11.78,11.78,0,0,0,139.22,92Z" transform="translate(0 -38.36)"/><path class="cls-7" d="M58.17,59.28A4.13,4.13,0,0,0,54.73,59,4.87,4.87,0,0,0,52,63a4.58,4.58,0,0,0,2.33,4.2,4.35,4.35,0,0,0,4.75-.47C61.34,64.86,61,60.54,58.17,59.28Z" transform="translate(0 -38.36)"/><path class="cls-8" d="M59.22,66.1h-.07a4.91,4.91,0,0,1-3.35-1.38,4.83,4.83,0,0,1-1.38-3.34,4.63,4.63,0,0,1,.73-2.51c-.14.06-.29.09-.42.16A4.87,4.87,0,0,0,52,63a4.58,4.58,0,0,0,2.33,4.2,4.35,4.35,0,0,0,4.75-.47,3.56,3.56,0,0,0,.63-.71A4.4,4.4,0,0,1,59.22,66.1Z" transform="translate(0 -38.36)"/><path class="cls-3" d="M58.17,59.28A3.63,3.63,0,0,0,54.73,59,4.87,4.87,0,0,0,52,63a4.58,4.58,0,0,0,2.33,4.2,4.35,4.35,0,0,0,4.75-.47C61.34,64.86,61,61.07,58.17,59.28Z" transform="translate(0 -38.36)"/><path class="cls-7" d="M94.93,53a4.36,4.36,0,0,1,4.15,4.46c0,2.38-1.83,4.84-4.22,4.93C88.32,62.64,88.4,52.63,94.93,53Z" transform="translate(0 -38.36)"/><path class="cls-8" d="M96.27,54.34a5.53,5.53,0,0,1,1.13-.42A4.55,4.55,0,0,0,94.93,53c-5.59-.31-6.45,7-2.47,8.92C92.3,58.89,93.3,55.9,96.27,54.34Z" transform="translate(0 -38.36)"/><path class="cls-3" d="M94.93,53a4.36,4.36,0,0,1,4.15,4.46c0,2.38-1.83,4.84-4.22,4.93C88.32,62.64,88.4,52.63,94.93,53Z" transform="translate(0 -38.36)"/><path class="cls-7" d="M45.23,91.68c1-8.38,2.6-17,7.38-24,5.1-7.42,13.39-11.92,22.3-13.2a30.31,30.31,0,0,1,16.94,2.8c5.54,2.73,9,7.08,11.59,12.7s3.87,11.73,5.12,17.78c2.5,12,3.93,23,6.43,35,.46,2.21,2,5.54,1,7.61-.8,1.83-2.52,3-4.18,4.16a53.82,53.82,0,0,1-14.31,7.18c-7.29,2.14-15.14,1.71-22.54,0s-14.43-4.69-21.43-7.65c-3.6-1.53-11.88-4.54-12.36-9.13-.34-3.17.89-7.24,1.27-10.43l1.3-10.75Z" transform="translate(0 -38.36)"/><path class="cls-8" d="M50.55,99.9c0-8.75,1-17.85,4-26.09C57,67.49,60.83,62.4,65.08,57.38A30.4,30.4,0,0,0,52.61,67.7c-4.78,7-6.38,15.6-7.38,24q-.73,6.06-1.45,12.11-.64,5.37-1.3,10.75c-.38,3.19-1.61,7.26-1.27,10.43.36,3.37,4.9,5.88,8.73,7.59a15.68,15.68,0,0,0,1.56,2.08,13,13,0,0,0,7.62,4.3C51.21,128.35,50.55,112.45,50.55,99.9Z" transform="translate(0 -38.36)"/><path class="cls-3" d="M45.23,91.68c1-8.38,2.6-17,7.38-24,5.1-7.42,13.39-11.92,22.3-13.2a30.31,30.31,0,0,1,16.94,2.8c5.54,2.73,9,7.08,11.59,12.7s3.87,11.73,5.12,17.78c2.5,12,3.93,23,6.43,35,.46,2.21,2,5.54,1,7.61-.8,1.83-2.52,3-4.18,4.16a53.82,53.82,0,0,1-14.31,7.18c-7.29,2.14-15.14,1.71-22.54,0s-14.43-4.69-21.43-7.65c-3.6-1.53-11.88-4.54-12.36-9.13-.34-3.17.89-7.24,1.27-10.43l1.3-10.75Z" transform="translate(0 -38.36)"/><path class="cls-3" d="M66.37,84.47a9.95,9.95,0,0,0,.21,14.59" transform="translate(0 -38.36)"/><path class="cls-3" d="M79.21,96.64a5.64,5.64,0,0,0,4.86-2.89" transform="translate(0 -38.36)"/><circle cx="87.55" cy="38.96" r="1.57"/><circle cx="66.96" cy="39.84" r="1.57"/><ellipse cx="78.05" cy="82.71" rx="6.1" ry="2.93" transform="translate(-4.05 -34.34) rotate(-2.87)"/><path class="cls-9" d="M225.56,60a4.68,4.68,0,0,1,3.91,0,4,4,0,0,1,2.36,3.86,5.42,5.42,0,0,1-2.57,4,7.49,7.49,0,0,1-4.8,1,2.59,2.59,0,0,1-2-1,3,3,0,0,1-.06-2.13C222.91,63.19,223,61.27,225.56,60Z" transform="translate(0 -38.36)"/><path class="cls-9" d="M184.22,66.47a4.49,4.49,0,0,0,1.49,4.63c2.87,1.76,7.27-1.79,5.9-4.8C189.75,62.21,185.24,63.62,184.22,66.47Z" transform="translate(0 -38.36)"/><path class="cls-9" d="M185.32,120.12c2.27-3,4.7-6.08,8-7.84s7.84-1.89,10.58.71c2.52,2.4,2.84,6.5,1.52,9.73a20,20,0,0,1-6.6,8.21,20.52,20.52,0,0,1-13.9,4.33c-6.26-.4-12.14-5.43-12.15-11.71,0-7.13,6.24-12.75,7.76-19.72,1.06-4.82-.33-10.52.26-15.42.94-7.75,3.48-17.3,10.47-23s17.49-6.67,25.47-5.29c7.58,1.32,16.38,7.71,20.18,15.86,2.74,5.87,3.48,12.43,4.85,18.76a94.54,94.54,0,0,0,12,29.66L206,138.22Z" transform="translate(0 -38.36)"/><path class="cls-1" d="M180.57,103.77c9.45,10.9,29.53,9.73,36.42,9.38,6.3-.33,21.23-4.73,25-17.4-.07-.32-.16-.64-.23-1-1.37-6.33-2.11-12.89-4.85-18.76-3.8-8.15-12.6-14.54-20.18-15.86-8-1.38-18.47-.36-25.47,5.29s-9.53,15.2-10.47,23C180.23,93.29,181.61,99,180.57,103.77Z" transform="translate(0 -38.36)"/><path class="cls-10" d="M229,82.14A10.34,10.34,0,0,0,223,74.8a7.92,7.92,0,0,0-5.57-.07c-4.1,1.57-4.68,5.57-3.65,9.38a10.32,10.32,0,0,0,4.86,6.46,8.22,8.22,0,0,0,4.77.91C227.65,91,229.66,85.77,229,82.14Z" transform="translate(0 -38.36)"/><circle cx="219.03" cy="44.54" r="1.57"/><path class="cls-10" d="M203.07,77.88a8,8,0,0,0-9-.36,12,12,0,0,0-4.89,8.08,8.62,8.62,0,0,0,.68,5.82c1.6,2.74,5.38,3.67,8.38,2.63C204.12,92,207.54,81.32,203.07,77.88Z" transform="translate(0 -38.36)"/><circle cx="198.05" cy="46.11" r="1.57"/><path class="cls-6" d="M210.77,85.53a9.77,9.77,0,0,0-11.8,13" transform="translate(0 -38.36)"/><ellipse cx="208.07" cy="90.19" rx="4.96" ry="2.38" transform="translate(-10.3 -9.34) rotate(-7.79)"/><path class="cls-3" d="M209.87,101.6c2.35-.2,5.21-2.15,5.87-4.29" transform="translate(0 -38.36)"/><path class="cls-3" d="M185.32,120.12c2.27-3,4.7-6.08,8-7.84s7.84-1.89,10.58.71c2.52,2.4,2.84,6.5,1.52,9.73a20,20,0,0,1-6.6,8.21,20.52,20.52,0,0,1-13.9,4.33c-6.26-.4-12.14-5.43-12.15-11.71,0-7.13,6.24-12.75,7.76-19.72,1.06-4.82-.33-10.52.26-15.42.94-7.75,3.48-17.3,10.47-23s17.49-6.67,25.47-5.29c7.58,1.32,16.38,7.71,20.18,15.86,2.74,5.87,3.48,12.43,4.85,18.76a94.54,94.54,0,0,0,12,29.66L206,138.22Z" transform="translate(0 -38.36)"/><path class="cls-11" d="M35.58,120.25s-18,4.67-21.23,12.37-4.2,17.73-3.74,18.9,3.27.12,4.32-.23,14.32-4.58,14.32-4.58L35.58,127Z" transform="translate(0 -38.36)"/><path class="cls-12" d="M33.52,124.76s-11.42,2.73-14.68,8.68S14.93,150,14.93,151.29l14.32-4.58,9.36-10.55Z" transform="translate(0 -38.36)"/><path class="cls-11" d="M252.85,120.25s33.79,17.65,36.47,21.47c.82,1.17-1.4,3.15-1.4,3.15l-21.35,3.62Z" transform="translate(0 -38.36)"/><polygon class="cls-12" points="256.3 89.48 266.57 110.13 287.92 106.51 255.17 86.68 256.3 89.48"/><path class="cls-11" d="M256.91,158.76a611.09,611.09,0,0,1,1.43,87.79,4.86,4.86,0,0,1-4.88,4.59c-70.09-.26-140.3.13-210.38-.14a3.79,3.79,0,0,1-3.77-4c1.69-30.93.25-62.65,2.15-94.07Z" transform="translate(0 -38.36)"/><path class="cls-3" d="M233.63,183.9q9.31-8.67,19.22-16.7" transform="translate(0 -38.36)"/><path class="cls-3" d="M231.48,191.07l12-9.44" transform="translate(0 -38.36)"/><path class="cls-3" d="M44.28,245.87a120.65,120.65,0,0,1,27.5-17.75" transform="translate(0 -38.36)"/><path class="cls-3" d="M51,248.09a56.27,56.27,0,0,1,18.92-9.77" transform="translate(0 -38.36)"/><path d="M83.16,194.44c-.51.05-1.71.29-3.6.69s-3.28.73-4.16,1c0,.4,0,1.24,0,2.52s0,2.35.07,3.24q0,.51.12,1.14c.06.41.1.71.12.89.11.66.17,1,.17,1.17a2.3,2.3,0,0,1-.29.88c-.19.39-.35.59-.48.59a.5.5,0,0,1-.35-.19,1,1,0,0,1-.22-.47,25.86,25.86,0,0,1-.38-4c-.09-2.22-.13-4-.13-5.21l-.53.1c-.24,0-.46.08-.64.09a1.38,1.38,0,0,1-.57-.13q-.3-.13-.3-.33a.4.4,0,0,1,.15-.33,1.35,1.35,0,0,1,.34-.17l.27-.1c.66-.27,1.09-.44,1.31-.51l-.22-6.05a21.58,21.58,0,0,1-3,.32,1.78,1.78,0,0,1-1.46-.51,1.61,1.61,0,0,1-.38-.95c0-.16.11-.25.35-.25,0,0,.25.07.64.19a3.27,3.27,0,0,0,1,.19,22,22,0,0,0,2.77-.27s0-.18,0-.42a1.32,1.32,0,0,1,.24-.66,1.1,1.1,0,0,1,.25-.33.41.41,0,0,1,.24-.08c.35,0,.52.38.52,1.14l1.72-.33c.9-.16,1.92-.31,3.08-.46a25.56,25.56,0,0,1,3-.21c.69,0,1,.13,1,.4a2,2,0,0,1-.23.84c-.15.35-.33.52-.53.52a.29.29,0,0,1-.21-.12.62.62,0,0,0-.17-.15,1.79,1.79,0,0,0-.7-.11,31.27,31.27,0,0,0-3.35.35c-1.68.24-2.88.44-3.63.6l.19,5.89c1-.26,2.48-.6,4.51-1a30.57,30.57,0,0,1,3.55-.66.5.5,0,0,1,.3.07c.06.05.08.14.08.29C83.75,194.08,83.55,194.39,83.16,194.44Z" transform="translate(0 -38.36)"/><path d="M102.83,205.75c-.18.31-.37.46-.57.46a1.54,1.54,0,0,1-.52-.09c-.16-.07-.4-.19-.73-.37a24.87,24.87,0,0,0-4.47-1.95c-.82-.27-1.78-.56-2.9-.86s-2-.52-2.61-.66l.19,3.5a4.18,4.18,0,0,0,.19,1.23,3.63,3.63,0,0,1,.16.64.58.58,0,0,1-.3.5,1.08,1.08,0,0,1-.62.21c-.27,0-.45-.19-.52-.57a4.92,4.92,0,0,0-.07-.49,9.52,9.52,0,0,1-.06-1.22c0-.35,0-1.08-.11-2.2,0-.38,0-.75-.06-1.1s0-.67,0-.93l-.21-.19a.93.93,0,0,1-.2-.3,4.42,4.42,0,0,1-.14-.52,2.93,2.93,0,0,1-.05-.41.4.4,0,0,1,.11-.3,2,2,0,0,1,.32-.24q-.17-6.78-.16-7.76c0-.58,0-1.11,0-1.6s0-.81,0-1l-1,.14a12.53,12.53,0,0,0-1.31.22,18.73,18.73,0,0,0-2.64.77,14.78,14.78,0,0,0-1.75.83,2.76,2.76,0,0,1-.48.25,1,1,0,0,1-.44.1.46.46,0,0,1-.38-.21.76.76,0,0,1-.17-.5c0-.34.58-.74,1.74-1.19a24.88,24.88,0,0,1,3.77-1.11,23.9,23.9,0,0,1,2.91-.42,32.36,32.36,0,0,1,3.28-.18,15.11,15.11,0,0,1,4.44.57,6,6,0,0,1,2.76,1.6,3.39,3.39,0,0,1,.94,2.36,4.54,4.54,0,0,1-1,2.93,8.5,8.5,0,0,1-2.59,2.12,46.36,46.36,0,0,1-4.38,2c-.47.22-.94.42-1.4.6l-.94.38a.81.81,0,0,0,0,.25c2,.43,3.88.93,5.78,1.49l.57.16c2,.6,3.43,1.06,4.37,1.4s1.41.61,1.41.83A1.61,1.61,0,0,1,102.83,205.75Zm-3.74-14.62a5.82,5.82,0,0,0-2.38-1.24,13.43,13.43,0,0,0-3.84-.47c-1.12,0-1.83,0-2.12.05,0,.13,0,.43-.06.9s0,.94,0,1.41l.1,4.34.11,3.36a6.48,6.48,0,0,0,1-.25q.72-.24,1.2-.45A20,20,0,0,0,98.18,196a4.1,4.1,0,0,0,1.69-3.22A2.26,2.26,0,0,0,99.09,191.13Z" transform="translate(0 -38.36)"/><path d="M117.05,191.21a12.37,12.37,0,0,1-2.29.87c-1,.31-1.9.52-2.57.65-1,.2-2.1.36-3.16.47s-1.74.19-2,.21c0,1.05,0,2.13.08,3.24s.07,1.88.09,2.29c.7-.09,1.76-.26,3.17-.51l1-.17a5.46,5.46,0,0,0,2.63-1.08,1.52,1.52,0,0,1,.71-.38.37.37,0,0,1,.31.2.84.84,0,0,1,.12.42c0,.33-.36.69-1.1,1.08a9.18,9.18,0,0,1-2.43.85c-.74.16-1.57.32-2.49.46s-1.53.24-1.82.27a25.05,25.05,0,0,0,1,6.9,9,9,0,0,0,1.55.39,12.8,12.8,0,0,0,2,.12,8.1,8.1,0,0,0,2.28-.31,6.23,6.23,0,0,0,1.75-.77c.44-.31.67-.6.67-.87a1,1,0,0,0-.09-.42,2.42,2.42,0,0,0-.21-.43l-.18-.25a.56.56,0,0,1-.12-.29q0-.27.6-.27a.94.94,0,0,1,.74.37,1.19,1.19,0,0,1,.31.8,2.51,2.51,0,0,1-.77,1.71,5.72,5.72,0,0,1-2.12,1.37,8.05,8.05,0,0,1-3,.53,16.64,16.64,0,0,1-2.71-.18,3,3,0,0,1-1.6-.69,4.89,4.89,0,0,1-.91-2.55q-.25-1.81-.45-4.86a10.15,10.15,0,0,1-1.15.23,6.42,6.42,0,0,1-1,.1.72.72,0,0,1-.53-.21.69.69,0,0,1-.2-.5.7.7,0,0,1,.07-.33.27.27,0,0,1,.2-.16c.6-.07,1-.12,1.31-.13l1.16-.14c-.07-2.33-.14-4.23-.22-5.7a5.67,5.67,0,0,0-.65,0l-1.24,0a.51.51,0,0,1-.38-.14.42.42,0,0,1-.14-.3q0-.65.87-.87l.83-.12c.33,0,.55-.07.66-.07a1.51,1.51,0,0,1,1.14-.57q.11,0,.18.18a1,1,0,0,1,.07.26c1.19-.06,2.61-.19,4.25-.41,1.09-.14,2.76-.49,5-1l1-.22q.27,0,.27.33C117.51,190.86,117.36,191.05,117.05,191.21Z" transform="translate(0 -38.36)"/><path d="M133.11,185.41a12.08,12.08,0,0,1-2.29.87c-1,.31-1.89.52-2.56.65-1,.2-2.11.36-3.16.47s-1.75.19-2,.21c0,1,0,2.13.08,3.24s.06,1.88.08,2.29c.7-.09,1.76-.26,3.17-.51l1-.16a5.55,5.55,0,0,0,2.63-1.09,1.5,1.5,0,0,1,.7-.38.36.36,0,0,1,.31.2.76.76,0,0,1,.13.42c0,.33-.37.69-1.1,1.08a8.84,8.84,0,0,1-2.43.85c-.74.16-1.57.32-2.5.46s-1.53.24-1.81.27a25,25,0,0,0,.94,6.9,9.26,9.26,0,0,0,1.55.39,13,13,0,0,0,2,.12,8.1,8.1,0,0,0,2.28-.31,6.31,6.31,0,0,0,1.76-.77q.66-.47.66-.87a1.16,1.16,0,0,0-.08-.42,2.82,2.82,0,0,0-.22-.42l-.17-.26a.52.52,0,0,1-.13-.28c0-.19.2-.28.6-.28a1,1,0,0,1,.75.37,1.24,1.24,0,0,1,.31.8,2.52,2.52,0,0,1-.78,1.71,5.56,5.56,0,0,1-2.11,1.37,8.13,8.13,0,0,1-3,.53,16.78,16.78,0,0,1-2.72-.18,3,3,0,0,1-1.6-.69,5,5,0,0,1-.91-2.55q-.25-1.81-.45-4.86a9.72,9.72,0,0,1-1.15.23,6.2,6.2,0,0,1-1,.1.69.69,0,0,1-.53-.21.65.65,0,0,1-.2-.5.79.79,0,0,1,.06-.32.32.32,0,0,1,.21-.17c.59-.07,1-.11,1.3-.13l1.17-.14c-.08-2.33-.15-4.23-.22-5.7a5.55,5.55,0,0,0-.65,0l-1.25,0a.52.52,0,0,1-.38-.14.42.42,0,0,1-.14-.3c0-.43.29-.72.87-.86l.83-.12a5.37,5.37,0,0,1,.66-.07,1.54,1.54,0,0,1,1.14-.57c.08,0,.14,0,.18.17a.77.77,0,0,1,.07.26c1.19,0,2.61-.19,4.26-.41,1.08-.14,2.76-.48,5-1l1-.21c.18,0,.28.1.28.32S133.42,185.25,133.11,185.41Z" transform="translate(0 -38.36)"/><path d="M158.57,202.31a34.62,34.62,0,0,1-2.61,4,24.92,24.92,0,0,1-2.87,3.23,18.89,18.89,0,0,1-2.14,1.76,3.24,3.24,0,0,1-1.58.74.69.69,0,0,1-.48-.2.86.86,0,0,1-.2-.61,1.65,1.65,0,0,1,.32-1,2.38,2.38,0,0,1,.87-.68,4.36,4.36,0,0,1,.76-.29,3.42,3.42,0,0,0,1.12-.48,14.14,14.14,0,0,0,2.15-1.93,19.62,19.62,0,0,0,1.94-2.33,21.73,21.73,0,0,0,1.78-3,6.26,6.26,0,0,0,.61-2.7,1.24,1.24,0,0,0-.54-1.12,2.44,2.44,0,0,0-1.33-.35,7.14,7.14,0,0,0-3.66,1c-.49.29-.83.5-1,.62-.65.39-1.18.7-1.6.92s-.92.46-1.36.64l-.86.39.05,1.39c0,.37,0,1,0,1.77s0,1.57,0,2.28a25.23,25.23,0,0,1-.27,4.11,2.44,2.44,0,0,1-.24.74.6.6,0,0,1-.52.22.67.67,0,0,1-.46-.22.74.74,0,0,1-.22-.55c0-.08.08-.49.25-1.25a9.91,9.91,0,0,0,.24-2q0-2.87-.19-7.32l-.08-1.69c-.11-1.61-.16-2.89-.16-3.82,0-.71,0-1.61.1-2.7s.13-1.81.17-2.15A16.38,16.38,0,0,0,144,191a7.13,7.13,0,0,0-1.2.92c-.45.39-.76.59-.92.59a.46.46,0,0,1-.38-.26,1.12,1.12,0,0,1-.16-.62c0-.47.6-1.07,1.81-1.8a25.7,25.7,0,0,1,4-2,26.14,26.14,0,0,1,3.41-1.14,13.09,13.09,0,0,1,3.07-.37,3.79,3.79,0,0,1,2.4.76,2.53,2.53,0,0,1,1,2.11,11.18,11.18,0,0,1-2.61,6.69,11.23,11.23,0,0,1,2.12-.22,3.41,3.41,0,0,1,2.14.69,2.81,2.81,0,0,1,.9,2.36A7.59,7.59,0,0,1,158.57,202.31Zm-3.5-13.93a2.78,2.78,0,0,0-1.69-.46A17.07,17.07,0,0,0,148,189a24.54,24.54,0,0,0-.46,4.19q0,2.39.17,6a3.89,3.89,0,0,0,.88-.29,9.73,9.73,0,0,0,1.12-.55,13.46,13.46,0,0,0,4.29-3.82,8.17,8.17,0,0,0,1.71-4.85A1.56,1.56,0,0,0,155.07,188.38Z" transform="translate(0 -38.36)"/><path d="M175.69,186.3a12.37,12.37,0,0,1-2.29.87c-1,.31-1.9.52-2.57.65-1.05.2-2.1.36-3.16.47s-1.74.19-2,.21c0,1.05,0,2.13.08,3.24s.07,1.88.08,2.29q1.07-.14,3.18-.51l1-.17a5.37,5.37,0,0,0,2.63-1.08,1.52,1.52,0,0,1,.71-.38.37.37,0,0,1,.31.2.84.84,0,0,1,.12.42c0,.33-.36.69-1.1,1.08a9.18,9.18,0,0,1-2.43.85c-.74.16-1.57.32-2.49.46s-1.53.24-1.82.27a25,25,0,0,0,1,6.9,9,9,0,0,0,1.55.39,12.8,12.8,0,0,0,2,.12,8.1,8.1,0,0,0,2.28-.31,6.23,6.23,0,0,0,1.75-.77c.44-.31.67-.6.67-.87a1,1,0,0,0-.09-.42,2.06,2.06,0,0,0-.21-.42l-.18-.26a.56.56,0,0,1-.12-.29q0-.27.6-.27a.94.94,0,0,1,.74.37,1.19,1.19,0,0,1,.31.8,2.51,2.51,0,0,1-.77,1.71,5.6,5.6,0,0,1-2.12,1.37,8.05,8.05,0,0,1-3,.53,16.64,16.64,0,0,1-2.71-.18,3,3,0,0,1-1.6-.69,4.89,4.89,0,0,1-.91-2.55q-.25-1.82-.45-4.86a10.15,10.15,0,0,1-1.15.23,6.42,6.42,0,0,1-1,.1.72.72,0,0,1-.53-.21.69.69,0,0,1-.2-.5.63.63,0,0,1,.07-.32.26.26,0,0,1,.2-.17l1.3-.13,1.17-.14c-.07-2.33-.14-4.23-.22-5.7a5.67,5.67,0,0,0-.65,0l-1.25,0a.5.5,0,0,1-.37-.14.39.39,0,0,1-.14-.3c0-.43.29-.72.87-.86l.83-.13.66-.06a1.51,1.51,0,0,1,1.14-.57c.07,0,.13.05.18.17a1,1,0,0,1,.06.26c1.2-.05,2.62-.19,4.26-.41,1.09-.14,2.76-.49,5-1l1-.22q.27,0,.27.33C176.15,186,176,186.14,175.69,186.3Z" transform="translate(0 -38.36)"/><path d="M192.58,197.65a.78.78,0,0,1-.26.33,2,2,0,0,1-.78.28l-.82.15c.15.69.22,1,.22,1,.13.46.26,1.08.41,1.88.32,1.82.66,3.38,1,4.66a7.12,7.12,0,0,1,.14.73.62.62,0,0,1-.22.47.81.81,0,0,1-.52.19.6.6,0,0,1-.48-.29,1.87,1.87,0,0,1-.3-.5c-.17-.62-.32-1.3-.45-2.06s-.3-1.68-.48-2.74c-.07-.47-.19-1.06-.35-1.75s-.27-1.16-.33-1.37c-1.06.14-2.9.43-5.5.86l-1.58.28-.57,1.6-.76,2.17q-.94,3-1.35,4.56a1.36,1.36,0,0,1-.33.63.76.76,0,0,1-.6.26.77.77,0,0,1-.5-.16.57.57,0,0,1-.2-.46,5.49,5.49,0,0,1,.32-1.26c.22-.65.35-1,.38-1.16s.22-.59.44-1.25.54-1.56.91-2.56l.74-2c-.92.21-1.61.38-2.06.51a7.67,7.67,0,0,1-1.27.27.49.49,0,0,1-.45-.23.89.89,0,0,1-.15-.5.52.52,0,0,1,.16-.45,1.76,1.76,0,0,1,.54-.23l2.19-.49,1.59-.32c.18-.53.31-1,.4-1.33s.17-.53.29-.88.25-.8.39-1.32l.41-1.38c.69-2.43,1.08-3.81,1.19-4.15a3.64,3.64,0,0,1,.26-.6.36.36,0,0,1,.34-.22,2.76,2.76,0,0,1,1,.16,1.91,1.91,0,0,0,.17-.23.61.61,0,0,1,.27-.24.9.9,0,0,1,.4-.07c.32,0,.7.37,1.12,1.11a19.93,19.93,0,0,1,1.24,2.64c.23.59.53,1.48.89,2.67s.6,2,.71,2.35a4.53,4.53,0,0,0,.69-.15l.37-.13a1,1,0,0,0,.3-.19,1.17,1.17,0,0,1,.29-.2.32.32,0,0,1,.3,0,.67.67,0,0,1,.36.68A1.11,1.11,0,0,1,192.58,197.65Zm-4-2.27c-.29-1-.56-1.88-.81-2.53a16,16,0,0,0-1-2.07,4.25,4.25,0,0,0-1-1.33l-.3.71a12.92,12.92,0,0,0-.79,1.87q-.64,2-2.06,6.46l3.17-.54,2.61-.41.73-.11Z" transform="translate(0 -38.36)"/><path d="M210.58,199.15c-.18.31-.37.47-.57.47a1.25,1.25,0,0,1-.51-.1,5,5,0,0,1-.73-.37,25.75,25.75,0,0,0-4.48-2c-.81-.27-1.78-.56-2.89-.85s-2-.52-2.62-.67l.19,3.5a4.69,4.69,0,0,0,.19,1.24,2.71,2.71,0,0,1,.16.63.62.62,0,0,1-.29.51,1.14,1.14,0,0,1-.63.2q-.41,0-.51-.57s0-.2-.07-.49a7.75,7.75,0,0,1-.07-1.22c0-.34,0-1.08-.11-2.2,0-.38,0-.74,0-1.1s0-.66,0-.93a1.88,1.88,0,0,0-.2-.19.88.88,0,0,1-.21-.3,4,4,0,0,1-.13-.52,2,2,0,0,1-.06-.4.41.41,0,0,1,.11-.3,1.74,1.74,0,0,1,.33-.25q-.17-6.78-.17-7.76c0-.58,0-1.11,0-1.6s0-.81,0-1l-1,.14c-.54.07-1,.15-1.3.22a20,20,0,0,0-2.65.77,17.54,17.54,0,0,0-1.75.83,3.19,3.19,0,0,1-.47.26,1.24,1.24,0,0,1-.45.09.5.5,0,0,1-.38-.2.79.79,0,0,1-.16-.5c0-.35.58-.75,1.73-1.2a24.67,24.67,0,0,1,3.78-1.11,28.39,28.39,0,0,1,2.9-.42,32.52,32.52,0,0,1,3.28-.18,15.07,15.07,0,0,1,4.44.57,6.21,6.21,0,0,1,2.77,1.6,3.44,3.44,0,0,1,.93,2.36,4.54,4.54,0,0,1-1,2.93,8.48,8.48,0,0,1-2.59,2.12,43,43,0,0,1-4.39,2c-.47.21-.93.41-1.39.59s-.78.31-.94.38a.81.81,0,0,0,0,.25q2.93.64,5.78,1.49l.57.16c2,.6,3.42,1.06,4.37,1.4s1.41.61,1.41.83A1.51,1.51,0,0,1,210.58,199.15Zm-3.74-14.62a5.77,5.77,0,0,0-2.37-1.24,13.8,13.8,0,0,0-3.84-.47c-1.13,0-1.83,0-2.12.05,0,.13,0,.43-.07.9s0,.94,0,1.41l.11,4.34.11,3.37a7.37,7.37,0,0,0,1-.26,12.86,12.86,0,0,0,1.21-.45,19.89,19.89,0,0,0,5.14-2.78,4.1,4.1,0,0,0,1.7-3.22A2.28,2.28,0,0,0,206.84,184.53Z" transform="translate(0 -38.36)"/><path d="M223.57,201a6.77,6.77,0,0,1-2.55,2.14,8.22,8.22,0,0,1-3.73.83,10.91,10.91,0,0,1-2.8-.29c-.68-.19-1-.45-1-.8a2.13,2.13,0,0,1,.4-.91c.26-.42.46-.63.61-.63s.32,0,.32.13a.3.3,0,0,1-.09.19.32.32,0,0,0-.1.22c0,.05.11.13.34.24a4.42,4.42,0,0,0,1.05.3,9.17,9.17,0,0,0,1.7.14,6,6,0,0,0,2.81-.63,4.85,4.85,0,0,0,1.86-1.57,3.23,3.23,0,0,0,.65-1.85,2.46,2.46,0,0,0-1.12-2,12.36,12.36,0,0,0-3.63-1.6c-1.61-.52-2.85-1-3.73-1.31a6.88,6.88,0,0,1-2.13-1.3,2.53,2.53,0,0,1-.81-1.89,4,4,0,0,1,1.68-2.94,14.6,14.6,0,0,1,8.74-3.27c.72,0,1.11.14,1.17.43a5.8,5.8,0,0,1,.08,1c0,.27-.1.4-.3.4a.67.67,0,0,1-.31-.09l-.31-.15-.38-.11a3.32,3.32,0,0,0-.63-.05,10,10,0,0,0-3.39.73,13.25,13.25,0,0,0-3.43,1.82c-1,.72-1.46,1.42-1.46,2.09a1.86,1.86,0,0,0,.67,1.41,5.56,5.56,0,0,0,1.78,1c.74.28,1.79.62,3.14,1a14,14,0,0,1,4.41,1.95,3.27,3.27,0,0,1,1.43,2.66A4.65,4.65,0,0,1,223.57,201Z" transform="translate(0 -38.36)"/><path class="cls-11" d="M35.58,120.25s161.08-5.36,217.27,0c10,12.37,21.19,32.44,24.92,36.64l-3.4,5a1.89,1.89,0,0,1-1.57.83L29.6,161.8a1.5,1.5,0,0,1-1.49-1.5v-2.71S30.45,127.72,35.58,120.25Z" transform="translate(0 -38.36)"/><path class="cls-11" d="M277.77,156.89s-83.76,2.56-145.83,2.56-103.83-1.86-103.83-1.86" transform="translate(0 -38.36)"/><path class="cls-3" d="M211.15,146.73a19.66,19.66,0,0,0,8.34,3.08" transform="translate(0 -38.36)"/><path class="cls-3" d="M209.87,152.65a17.71,17.71,0,0,1,8.71,1" transform="translate(0 -38.36)"/><path class="cls-13" d="M92.89,108.59a20.93,20.93,0,0,1-2.83,8.28,44.39,44.39,0,0,0-3.76,7.95c-.83,2.82-.89,6,.6,8.55,2.19,3.69,7.31,4.94,11.35,3.49s6.36-5.42,8-9.37a45.35,45.35,0,0,0,3.35-12.18" transform="translate(0 -38.36)"/><path class="cls-3" d="M88.06,134.85a6.81,6.81,0,0,0,2.7-4.68" transform="translate(0 -38.36)"/><path class="cls-3" d="M92.73,137.25a6.65,6.65,0,0,0,2.93-3.93" transform="translate(0 -38.36)"/><path class="cls-7" d="M44.78,113.19c.7,3.73,1.06,7.53,1.92,11.24a23.06,23.06,0,0,0,4.8,10.21c2.52,2.85,6.29,4.77,10.07,4.37s7.31-3.47,7.56-7.26a14.15,14.15,0,0,0-1.34-5.89L62,111" transform="translate(0 -38.36)"/><path class="cls-3" d="M67,136.37a10.1,10.1,0,0,1-2.68-3.86" transform="translate(0 -38.36)"/><path class="cls-3" d="M61.57,139c-1.14-.67-2-3.73-2-3.73" transform="translate(0 -38.36)"/><path class="cls-8" d="M50.15,111c-1.82.83-4,1.32-5.65,2.35l-.13.07c.42,3.24,1.49,6.44,2.21,9.61A30.65,30.65,0,0,0,50,132.69l.08.13a15.27,15.27,0,0,0,1.38,1.82,13,13,0,0,0,7.62,4.3c-5.76-7.71-7.67-18.24-8.28-28.24Z" transform="translate(0 -38.36)"/><path class="cls-3" d="M44.78,113.19c.7,3.73,1.06,7.53,1.92,11.24a23.06,23.06,0,0,0,4.8,10.21c2.52,2.85,6.29,4.77,10.07,4.37s7.31-3.47,7.56-7.26a14.15,14.15,0,0,0-1.34-5.89L62,111" transform="translate(0 -38.36)"/><path class="cls-9" d="M229.86,114.83a29.1,29.1,0,0,0-6.1-3.26,13.46,13.46,0,0,0-7.28-.41c-2.24.56-4.74,2-5.62,4.19a8.71,8.71,0,0,0-.27,5.48c1,3.78,4.43,7.13,7.62,9.38a19.1,19.1,0,0,0,11,3.38,16.15,16.15,0,0,0,10.69-3.78,11.94,11.94,0,0,0,3.79-10.69" transform="translate(0 -38.36)"/><path class="cls-3" d="M213.28,112.58a10.43,10.43,0,0,1,4.18,2.25" transform="translate(0 -38.36)"/><path class="cls-3" d="M210.28,118.15c1.2,0,3.82,1.4,5.09,2.75" transform="translate(0 -38.36)"/><path class="cls-9" d="M180.56,103.83c-1.52,7-7.78,12.59-7.76,19.72,0,6.28,5.89,11.31,12.15,11.71a20.52,20.52,0,0,0,13.9-4.33,20,20,0,0,0,6.6-8.21c1.32-3.23,1-7.33-1.52-9.73-2.74-2.6-7.24-2.48-10.58-.71a20.83,20.83,0,0,0-6.67,5.47" transform="translate(0 -38.36)"/><path class="cls-3" d="M205.66,115.66a25.12,25.12,0,0,1-3.87,4.44" transform="translate(0 -38.36)"/><path class="cls-3" d="M201.37,111.46a12,12,0,0,0-3.49,3.5" transform="translate(0 -38.36)"/></svg>