<svg xmlns="http://www.w3.org/2000/svg" viewBox="0 0 277.9072 270.87367"><defs><style>.cls-1{fill:#fff;}.cls-2,.cls-3{fill:#8f5a3f;}.cls-2,.cls-5,.cls-6{stroke:#000;}.cls-11,.cls-12,.cls-16,.cls-2,.cls-5,.cls-6{stroke-linecap:round;stroke-linejoin:round;}.cls-2,.cls-5{stroke-width:2px;}.cls-4{fill:#8c2511;}.cls-11,.cls-12,.cls-14,.cls-16,.cls-5,.cls-6{fill:none;}.cls-11,.cls-6{stroke-width:1.5px;}.cls-7{fill:#ffc17d;}.cls-8{fill:#e29860;}.cls-9{fill:#fbf5c4;}.cls-10{fill:#f4d682;}.cls-11,.cls-12{stroke:#bf8b56;}.cls-13{fill:#fefee5;}.cls-15{fill:#fe9;}.cls-16{stroke:#fe9;}</style></defs><title>we-bare-bear-grizz-eating-pie</title><g id="Layer_9"><path d="M110.65131,24.56317a8.854,8.854,0,0,1,5.62832,1.88493c3.52339,2.77344,4.54394,7.79638,4.82177,9.86038A39.14516,39.14516,0,0,1,145.223,47.06137c9.65866,9.11039,13.72022,15.77639,14.80127,17.73683.19331-.00386.42516-.00664.69292-.00663,5.27864,0,24.43156,1.08073,33.97014,16.2288,9.67973,15.375,7.0625,28.58011,5.49905,36.46972-.20311,1.02539-.39061,1.97073-.53416,2.83106-.02988.19578-2.03455,13.55011-2.75838,28.4169q9.75066,10.21407,20.50032,19.41211A247.53258,247.53258,0,0,0,239.74185,185.43q5.84183,3.97081,11.938,7.54493,3.04223,1.77794,6.14689,3.448a27.1926,27.1926,0,0,1,5.87815-2.49971,7.25154,7.25154,0,0,1,1.58-.16447c3.36277,0,7.21476,1.97683,7.84085,3.85a34.5207,34.5207,0,0,1,.74216,3.45216,98.682,98.682,0,0,0,2.56155,10.97461c1.40723,4.53124.54978,7.04489.03223,8.19528.01563.01368.03027.02735.0459.042,1.126,1.05466,3.04782,5.09961,2.26273,12.8535-.69046,6.82521-3.49222,9.26566-5.16608,10.72366a4.61228,4.61228,0,0,0-.95993.97851,4.008,4.008,0,0,0-.04978,1.69332,15.63911,15.63911,0,0,1-1.93554,9.4278c-2.977,5.75558-9.42066,6.24951-11.43173,6.24951-.03864,0-.076-.00018-.11127-.00052-1.09281,2.09571-5.98441,10.76856-12.10646,10.76956-.03711,0-.07228,0-.10939-.001-6.30367-.10739-6.46189-5.34473-6.53806-7.86133-.01172-.37106-.02049-.69434-.04783-.9473-.084-.75195-.10061-.75778-.95806-1.08493a12.64524,12.64524,0,0,1-2.66794-1.34085,11.25263,11.25263,0,0,1-1.21861-.94565c-4.532,4.17005-13.0005,8.44672-28.67984,8.44767-2.81932,0-5.8701-.13874-9.17576-.44046-1.4679-.13422-2.98395-.31321-4.52024-.51178-.13644.16424-.23105.27536-.26393.3135a1.00728,1.00728,0,0,1-.40628.28424c-.32173.12082-7.2,2.59006-35.7325,5.42011-12.78628.71881-25.629,1.13647-38.46994,1.13647-16.05819,0-32.11285-.65332-48.04307-2.1878a371.03019,371.03019,0,0,1-38.05705-5.77783c-3.584-.7273-7.36039-1.51664-11.07472-2.56952.663-19.29044,5.18672-56.66571,8.20589-75.47361,3.44144-21.44433,3.91994-25.09571,7.64311-53.51028l.90039-6.86861A223.6259,223.6259,0,0,1,53.72785,70.28649c-2.04495-1.86962-7.958-8.52878-2.16506-18.80662,2.39692-4.25221,5.86347-6.54955,9.74777-6.54938a10.50908,10.50908,0,0,1,2.36457.27594,11.8043,11.8043,0,0,1,8.2495,6.94283,66.198,66.198,0,0,1,26.45505-13.746c-.08883-2.90039.42923-11.93411,10.10745-13.64212a12.44731,12.44731,0,0,1,2.16418-.19792M196.849,155.10133a.34783.34783,0,0,0,.059-.0054.37892.37892,0,0,0,.04211-.016c.00766-.00067.01223-.0099.02155-.0099l.00233.00018.07434.08444a.023.023,0,0,0,.01285.00675c.00524,0,.00637-.006.01166-.006l.00032,0a.55425.55425,0,0,0,.14351-.11013c.19583-.22633.12733-.48527.206-.85354a3.89844,3.89844,0,0,0-.45016-.99718c-.07134-.11244-.16417-.21188-.24266-.32039q-.03316,1.08684-.05478,2.17456l.01266.00978a.35362.35362,0,0,0,.1613.04279m31.50325,52.54637c.64335-.3466,1.2455-.67265,1.775-.96178-1.79116-1.63878-3.55677-3.30261-5.315-4.97448-1.70928-1.60323-3.39211-3.297-4.98539-5.01439-.8065-.8535-1.60871-1.7089-2.428-2.53518-.40979-.4116-.82445-.81828-1.24861-1.19288-.145-.12483-.29224-.24545-.43779-.35634a5.67336,5.67336,0,0,0,.35123.91116,12.52312,12.52312,0,0,0,.88322,1.438c.65578.943,1.38384,1.85406,2.12727,2.75122,1.49222,1.79306,3.06762,3.52862,4.661,5.24656,1.38479,1.49527,2.79694,2.96384,4.21151,4.43206l.40554.2561M110.65179,14.56315h-.0005a22.52961,22.52961,0,0,0-3.9025.35017A21.32536,21.32536,0,0,0,89.2684,30.747a77.77967,77.77967,0,0,0-15.988,7.92932,22.12038,22.12038,0,0,0-7.35705-3.21387,20.55729,20.55729,0,0,0-4.61206-.53195c-7.56194-.00033-14.29016,4.24189-18.45983,11.63889C37.3358,56.35531,38.5994,65.30473,42.27564,71.753a241.56748,241.56748,0,0,0-14.395,55.99583l-.90045,6.86922c-3.7065,28.28723-4.18272,31.92161-7.60161,53.22551-2.95894,18.4327-7.62667,56.35821-8.32633,76.71464a10,10,0,0,0,7.26689,9.96445c4.02883,1.142,8.045,1.98419,11.81322,2.74884a381.974,381.974,0,0,0,39.087,5.93152c15.388,1.48227,31.87461,2.23382,49.00183,2.23382,12.473,0,25.24023-.37689,39.03123-1.15222q.21326-.012.42572-.03305c24.65993-2.44595,34.07179-4.68805,37.26845-5.6752.61333.06671,1.19434.125,1.75688.17642,3.50455.31989,6.89755.482,10.08638.482,10.09268-.00061,18.66429-1.577,25.62378-4.70054,2.6983,5.24033,7.899,8.31083,14.28011,8.43082.10582.00229.20848.00311.31584.00311,8.45071-.00137,14.55311-6.27966,18.15993-11.48568a21.13208,21.13208,0,0,0,14.37173-10.93872,26.17854,26.17854,0,0,0,3.13852-11.57318c2.397-2.6695,5.26547-7.18287,6.03982-14.83782.60712-5.99589.021-11.31589-1.62625-15.44a23.9779,23.9779,0,0,0-1.11374-9.62315,90.12083,90.12083,0,0,1-2.284-9.85722l-.01532-.08129a36.48124,36.48124,0,0,0-1.06613-4.67993c-2.32282-6.9494-10.661-10.69244-17.3292-10.69244a17.26958,17.26958,0,0,0-3.76272.40555,22.5165,22.5165,0,0,0-3.30612,1.0383q-.7577-.43309-1.49067-.86141c-3.73411-2.17866-7.55473-4.59361-11.36206-7.18156a236.07287,236.07287,0,0,1-21.44166-16.58512c-5.86325-5.03032-11.49384-10.278-16.79288-15.64877.78984-11.99937,2.2646-22.12187,2.4001-23.0371.11646-.687.27678-1.49617.46127-2.42779,1.73679-8.76417,4.95928-25.026-6.84039-43.76827-10.09959-16.039-27.81967-19.84435-37.53209-20.68094a104.27371,104.27371,0,0,0-13.53323-15.22479A49.61565,49.61565,0,0,0,128.968,27.36907a21.76277,21.76277,0,0,0-6.50314-8.77864,18.89241,18.89241,0,0,0-11.81306-4.02728Z" class="cls-1" transform="translate(-11.04628 -14.56315)"/><path d="M165.97213,199.66239a86.305,86.305,0,0,0,34.03349,44.92392,47.50571,47.50571,0,0,0,15.70084,7.21319,54.94325,54.94325,0,0,0,14.83854.79256c6.60688-.34346,13.77107-1.342,18.3923-6.07623,2.6851-2.75078,4.15863-6.43785,5.42887-10.06595,1.87534-5.35637,3.46494-10.88518,3.68234-16.55618.39269-10.24313-3.78057-20.27733-9.94955-28.46387s-14.24062-14.73064-22.53273-20.757a299.22362,299.22362,0,0,0-33.83006-21.2849c-6.08825-3.28448-13.24439-6.83182-20.39661-5.43851-5.758,1.1217-6.42244,6.045-7.53526,11.21531A86.37688,86.37688,0,0,0,165.97213,199.66239Z" class="cls-1" transform="translate(-11.04628 -14.56315)"/></g><g id="Layer_8"><path d="M187.12925,184.54455c11.39267,5.44992,22.101,12.21014,32.77906,18.95353l10.95139,6.916c3.88559,2.45383,7.772,4.90817,11.57652,7.48587a28.85679,28.85679,0,0,1-1.38759,10.25919,15.48879,15.48879,0,0,1-3.965,6.41958,13.04025,13.04025,0,0,1-9.19,3.05428,22.25308,22.25308,0,0,1-9.439-2.79816c-6.57327-3.46643-11.88029-8.981-16.14961-15.06357s-7.58927-12.76708-11.02159-19.35824a36.23465,36.23465,0,0,1-3.53493-8.3928C187.14289,189.40526,187.94886,187.10055,187.12925,184.54455Z" class="cls-2" transform="translate(-11.04628 -14.56315)"/></g><g id="Layer_4"><path d="M198.83118,197.61834c-1.75659-8.21374-1.45233-16.88354-2.47321-25.22076-2.51764-20.56061,2.3078-52.24073,2.3078-52.24073,1.25885-7.55291,5.87451-21.60961-4.82544-38.60357S159.4328,65.81811,159.4328,65.81811s-3.56665-7.34308-14.89593-18.02905a37.86,37.86,0,0,0-24.337-10.504s-.83923-13.42737-11.53912-11.53913-9.23127,13.42731-9.23127,13.42731a64.371,64.371,0,0,0-28.11352,14.896c-.3692-6.1767-12.3783-13.63715-18.88214-2.098s2.51758,18.043,2.51758,18.043-11.6048,24.40247-16.16382,59.16492-4.84394,37.32684-8.54816,60.4068c-3.02557,18.85193-7.57123,56.52014-8.20367,75.59045,3.39325.91767,6.81921,1.63215,10.08538,2.29487a371.0051,371.0051,0,0,0,38.057,5.77783,526.682,526.682,0,0,0,62.907,2.00555c2.35737-.14068,4.64978-.29706,6.85529-.47235,43.02557-3.41925,52.13147-6.8385,52.13147-6.8385s10.55481-12.25232,12.26447-24.78955S202.56915,215.09631,198.83118,197.61834Z" class="cls-3" transform="translate(-11.04628 -14.56315)"/><path d="M149.07805,52.30989c5.46642,5.36493,6.5106,16.64745-.64629,18.23787S129.84371,58.5202,130.63892,49.37528s10.08276-4.757,10.08276-4.757C142.88873,47.01443,146.77226,50.04692,149.07805,52.30989Z" class="cls-1" transform="translate(-11.04628 -14.56315)"/><path d="M103.30355,85.458s-7.0575-10.90292-2.38563-19.26824,15.606-7.73769,21.47069,0,9.84073,17.37962.79521,24.23831S105.84025,90.75169,103.30355,85.458Z" class="cls-1" transform="translate(-11.04628 -14.56315)"/><path d="M166.22577,132.71478a10.23114,10.23114,0,0,0-.13472,2.1471,9.39521,9.39521,0,0,0,.66794,3.73507,5.67356,5.67356,0,0,0,4.89764,3.24261,8.31207,8.31207,0,0,0,1.94387-.21617,5.366,5.366,0,0,0,4.434-3.47557,10.86439,10.86439,0,0,0,.81883-8.00843,4.42831,4.42831,0,0,0-.65225-1.29567,4.19691,4.19691,0,0,0-.81995-.78254,6.86154,6.86154,0,0,0-5.48255-1.17171,7.59943,7.59943,0,0,0-4.36092,2.98033A6.92059,6.92059,0,0,0,166.22577,132.71478Z" class="cls-4" transform="translate(-11.04628 -14.56315)"/><path d="M198.83118,197.61834c-1.75659-8.21374-1.45233-16.88354-2.47321-25.22076-2.51764-20.56061,2.3078-52.24073,2.3078-52.24073,1.25885-7.55291,5.87451-21.60961-4.82544-38.60357S159.4328,65.81811,159.4328,65.81811s-3.56665-7.34308-14.89593-18.02905a37.86,37.86,0,0,0-24.337-10.504s-.83923-13.42737-11.53912-11.53913-9.23127,13.42731-9.23127,13.42731a64.371,64.371,0,0,0-28.11352,14.896c-.3692-6.1767-12.3783-13.63715-18.88214-2.098s2.51758,18.043,2.51758,18.043-11.6048,24.40247-16.16382,59.16492-4.84394,37.32684-8.54816,60.4068c-3.02557,18.85193-7.57123,56.52014-8.20367,75.59045,3.39325.91767,6.81921,1.63215,10.08538,2.29487a371.0051,371.0051,0,0,0,38.057,5.77783,526.682,526.682,0,0,0,62.907,2.00555c2.35737-.14068,4.64978-.29706,6.85529-.47235,43.02557-3.41925,52.13147-6.8385,52.13147-6.8385s10.55481-12.25232,12.26447-24.78955S202.56915,215.09631,198.83118,197.61834Z" class="cls-5" transform="translate(-11.04628 -14.56315)"/><path d="M51.70739,66.18972A9.94856,9.94856,0,0,0,59.956,71.29957" class="cls-6" transform="translate(-11.04628 -14.56315)"/><path d="M70.29779,50.89527a16.10922,16.10922,0,0,1,1.27433,7.19578" class="cls-6" transform="translate(-11.04628 -14.56315)"/><path d="M91.78727,41.54579s17.17407-5.42018,34.84325-3.3943" class="cls-5" transform="translate(-11.04628 -14.56315)"/><path d="M153.45329,101.37563s8.10746,5.75369,10.1997,22.36091-1.04612,25.49927-1.04612,25.49927" class="cls-6" transform="translate(-11.04628 -14.56315)"/><path d="M173.19888,93.922s-1.04613,27.33,8.369,39.09889" class="cls-6" transform="translate(-11.04628 -14.56315)"/><path d="M166.96145,139.0532a5.35,5.35,0,0,0,1.23709,1.90171,4.29618,4.29618,0,0,0,1.47119.85228c2.70839.96114,5.88-.38772,7.56878-2.71308a11.219,11.219,0,0,0,1.64142-8.24253,6.39659,6.39659,0,0,0-1.11821-3.02729c-1.312-1.67949-3.81545-2.01706-5.84585-1.36928C166.31422,128.24214,164.75465,133.84559,166.96145,139.0532Z" class="cls-6" transform="translate(-11.04628 -14.56315)"/><path d="M140.72168,44.61828s-9.28755-4.38793-10.08276,4.757,10.63594,22.7629,17.79284,21.17248,6.11271-12.87294.64629-18.23787" class="cls-6" transform="translate(-11.04628 -14.56315)"/><path d="M103.30355,85.458s-7.0575-10.90292-2.38563-19.26824,15.606-7.73769,21.47069,0,9.84073,17.37962.79521,24.23831S105.84025,90.75169,103.30355,85.458Z" class="cls-6" transform="translate(-11.04628 -14.56315)"/><path d="M117.71422,83.92518a4.19737,4.19737,0,0,0,1.44687,3.01242,3.11528,3.11528,0,0,0,2.33315,1.00464,2.56188,2.56188,0,0,0,2.08177-1.98733,4.84445,4.84445,0,0,0-.37678-2.99242,3.1644,3.1644,0,0,0-.50081-.87328C121.17327,80.33423,117.75587,81.65981,117.71422,83.92518Z" transform="translate(-11.04628 -14.56315)"/><path d="M145.26758,63.23017a4.074,4.074,0,0,0,.68566,2.45,2.71534,2.71534,0,0,0,.65027.73343,3.17107,3.17107,0,0,0,1.842.48021,3.3666,3.3666,0,0,0,1.43923-.21709,2.40048,2.40048,0,0,0,1.30532-1.74257,3.74537,3.74537,0,0,0-.3131-2.20611C149.67576,60.00935,145.50456,59.80122,145.26758,63.23017Z" transform="translate(-11.04628 -14.56315)"/><path d="M157.21528,94.46594a4.67869,4.67869,0,0,1-3.18868-3.90628c-.23543-2.19607.4735-5.44019,4.88615-8.87895,7.90826-6.16288,15.16455-6.06348,18.04719-2.08743s-2.68383,10.13894-6.36168,12.42517C167.43582,93.98429,161.92159,96.05461,157.21528,94.46594Z" transform="translate(-11.04628 -14.56315)"/></g><g id="Layer_6"><path d="M218.17564,213.90845a2.71528,2.71528,0,0,0-1.65024,3.29538c.66009,2.42544,2.20032,3.74563,2.42035,4.9558,0,0,6.49093,19.03274,8.3612,24.86358s6.93321,12.21176,9.79251,14.082,3.73944.99014,3.95947,2.97042-.61345,8.03116,5.85416,8.14117,11.74837-10.78155,11.74837-10.78155,8.03115.55008,11.33163-5.83084,1.21017-9.57137,1.98028-11.11159,5.17075-2.7504,6.05087-11.44165-1.76025-12.5418-2.42035-12.43179,2.09031-1.98028.11-8.3612-2.75039-12.76183-3.30047-14.41207-5.098-3.96057-8.54487-3.19046-9.82778,4.87342-12.68819,6.23226-16.7224,4.15471-18.70269,5.34214S218.17564,213.90845,218.17564,213.90845Z" class="cls-7" transform="translate(-11.04628 -14.56315)"/><path d="M269.85321,195.93226c.15-.07762.27032.15378.26331.32257a3.01362,3.01362,0,0,1-1.49548,2.07811,6.05842,6.05842,0,0,0-1.84475,2.14513,12.6813,12.6813,0,0,0-1.07793,3.97651,4.73784,4.73784,0,0,1-.60861,2.416c-.57828.7773-1.63908,1.03678-2.31259,1.73319-.80817.83564-.94224,2.17321-1.79335,2.96508a4.11387,4.11387,0,0,1-2.5707.84293,22.3151,22.3151,0,0,1-4.701-.16441,4.742,4.742,0,0,1-2.49986,1.34215,5.62968,5.62968,0,0,0-5.01886.70784c-1.272.89994-2.13214,2.31138-3.46154,3.12419-2.231,1.364-5.07626.70365-7.65824.28984-2.62314-.4204-5.49627-.48746-7.73008.9505a9.457,9.457,0,0,1-1.42641.88612c-2.406.99931-4.94807-1.65313-7.53245-1.32374a1.66909,1.66909,0,0,1-1.756-1.78871,3.8541,3.8541,0,0,1,1.737-2.0797,64.36839,64.36839,0,0,1,5.75971-3.68,76.23381,76.23381,0,0,1,12.91514-5.845c5.8814-2.02642,12.03467-3.3421,17.63695-6.04611a61.63509,61.63509,0,0,1,7.30542-3.44485A10.16916,10.16916,0,0,1,269.85321,195.93226Z" class="cls-8" transform="translate(-11.04628 -14.56315)"/><path d="M239.05507,226.8164a1.87376,1.87376,0,0,0-.3379,1.53816,1.23615,1.23615,0,0,0,1.33977.64973,3.09264,3.09264,0,0,0,1.40963-.7324c2.85814-2.27529,4.70983-5.54957,6.491-8.73916a7.4483,7.4483,0,0,0,1.02042-2.50138c.20769-1.44222-.67237-2.97447-2.29152-2.66556-1.1843.226-1.38742,1.17649-1.86861,2.13831C243.06214,220.01344,240.97217,223.392,239.05507,226.8164Z" class="cls-8" transform="translate(-11.04628 -14.56315)"/><path d="M245.64265,215.784a.60256.60256,0,0,1,.92621.10261,1.48122,1.48122,0,0,1,.15319,1.05174,10.95,10.95,0,0,1-1.7477,4.2365,34.85037,34.85037,0,0,1-4.233,5.51714,2.41,2.41,0,0,1-1.911,1.017A82.271,82.271,0,0,1,245.64265,215.784Z" class="cls-9" transform="translate(-11.04628 -14.56315)"/><path d="M241.01417,232.15758s-1.00771-1.28911,4.9546-4.92734,9.48932-5.56969,10.16113-2.79848-4.50255,4.19882-7.1219,6.29822S242.18984,234.42494,241.01417,232.15758Z" class="cls-8" transform="translate(-11.04628 -14.56315)"/><path d="M254.75138,223.42463a2.71305,2.71305,0,0,1-.7291,2.28014,8.02411,8.02411,0,0,1-1.98126,1.4793,48.46731,48.46731,0,0,1-7.94432,4.09935c-.91953.33887-2.116.55441-2.74109-.20032A33.83224,33.83224,0,0,1,254.75138,223.42463Z" class="cls-9" transform="translate(-11.04628 -14.56315)"/><path d="M245.36514,240.09974a8.98408,8.98408,0,0,0,2.41646.56375l2.22628.30618a16.52131,16.52131,0,0,0,3.66372.22879,5.55018,5.55018,0,0,0,3.34817-1.35046,2.98262,2.98262,0,0,0,.977-1.82647,1.92558,1.92558,0,0,0-.83526-1.82448,3.21514,3.21514,0,0,0-1.77765-.28937c-3.19184.0936-6.42843.0405-9.60941.32891-.84181.07632-1.86332.10695-2.17922,1.03857C243.1813,238.49594,244.3683,239.66124,245.36514,240.09974Z" class="cls-8" transform="translate(-11.04628 -14.56315)"/><path d="M257.45407,236.54944a2.80016,2.80016,0,0,1-1.68406,1.57873,7.47563,7.47563,0,0,1-2.34037.383,50.09446,50.09446,0,0,1-5.63854-.04779,3.80074,3.80074,0,0,1-1.74157-.40772,1.369,1.369,0,0,1-.68428-1.52263,45.37891,45.37891,0,0,1,10.8014-.7622C256.70147,235.79834,257.32,236.031,257.45407,236.54944Z" class="cls-9" transform="translate(-11.04628 -14.56315)"/><path d="M235.16641,209.91094a30.08357,30.08357,0,0,0-7.51956,2.90663c-1.11529.61429-2.29473,1.44613-2.50905,2.70124a5.08792,5.08792,0,0,0,4.08457.25876,9.778,9.778,0,0,1,4.14244-.58421,3.12459,3.12459,0,0,0,1.44591.12862c.38443-.115.70138-.43533,1.1015-.46548a1.9076,1.9076,0,0,1,.84877.23351,5.02783,5.02783,0,0,0,4.45169-.32776c1.72215-1.03634,2.63907-2.98585,3.99773-4.467,4.00511.3785,8.23226-1.05563,12.17394-1.86016a3.53581,3.53581,0,0,1,2.04478.008,1.73375,1.73375,0,0,0,.69312.22675c.38281-.01426.64507-.37938.83884-.70984a29.29654,29.29654,0,0,0,3.34864-8.57665,1.26853,1.26853,0,0,0-.1259-1.13618,1.15946,1.15946,0,0,0-1.00449-.23125,11.07172,11.07172,0,0,0-4.75133,2.24106l-4.6807,3.21094a21.95828,21.95828,0,0,1-9.1218,4.1203C241.37665,208.43994,238.43334,209.13133,235.16641,209.91094Z" class="cls-10" transform="translate(-11.04628 -14.56315)"/><path d="M218.17564,213.90845a2.71528,2.71528,0,0,0-1.65024,3.29538c.66009,2.42544,2.20032,3.74563,2.42035,4.9558,0,0,6.49093,19.03274,8.3612,24.86358s6.93321,12.21176,9.79251,14.082,3.73944.99014,3.95947,2.97042-.61345,8.03116,5.85416,8.14117,11.74837-10.78155,11.74837-10.78155,8.03115.55008,11.33163-5.83084,1.21017-9.57137,1.98028-11.11159,5.17075-2.7504,6.05087-11.44165-1.76025-12.5418-2.42035-12.43179,2.09031-1.98028.11-8.3612-2.75039-12.76183-3.30047-14.41207-5.098-3.96057-8.54487-3.19046-9.82778,4.87342-12.68819,6.23226-16.7224,4.15471-18.70269,5.34214S218.17564,213.90845,218.17564,213.90845Z" class="cls-11" transform="translate(-11.04628 -14.56315)"/><path d="M218.38464,218.22425c2.58438-.32939,5.12644,2.323,7.53245,1.32374a9.457,9.457,0,0,0,1.42641-.88612c2.23381-1.438,5.10694-1.3709,7.73008-.9505,2.582.41381,5.42726,1.0742,7.65824-.28984,1.3294-.81281,2.18951-2.22425,3.46154-3.12419a5.62968,5.62968,0,0,1,5.01886-.70784" class="cls-12" transform="translate(-11.04628 -14.56315)"/><path d="M253.71208,212.24735a22.3151,22.3151,0,0,0,4.701.16441,4.11387,4.11387,0,0,0,2.5707-.84293c.85111-.79187.98518-2.12944,1.79335-2.96508.67351-.69641,1.73431-.95589,2.31259-1.73319a4.73784,4.73784,0,0,0,.60861-2.416,12.6813,12.6813,0,0,1,1.07793-3.97651" class="cls-12" transform="translate(-11.04628 -14.56315)"/><path d="M264.58942,208.85552l2.29029,6.2585a39.49381,39.49381,0,0,1,1.88235,6.16574,36.50761,36.50761,0,0,1,.46712,6.60865q.01512,2.82108-.0358,5.642c-.07584,4.20047-.35184,8.673-2.81749,12.07453" class="cls-12" transform="translate(-11.04628 -14.56315)"/><path d="M272.63347,217.539l-.33,2.86041" class="cls-12" transform="translate(-11.04628 -14.56315)"/><path d="M276.25152,217.97505c-.43385,1.35885-1.75851,3.156-2.19235,4.51486" class="cls-12" transform="translate(-11.04628 -14.56315)"/><path d="M255.16552,248.12427l-.12562,3.40992" class="cls-12" transform="translate(-11.04628 -14.56315)"/><path d="M257.66018,248.01225l-.22927,2.30941" class="cls-12" transform="translate(-11.04628 -14.56315)"/><path d="M259.6516,246.47313v2.7504" class="cls-12" transform="translate(-11.04628 -14.56315)"/><path d="M263.28189,224.90963a10.8263,10.8263,0,0,0,2.86092-2.41972" class="cls-12" transform="translate(-11.04628 -14.56315)"/><path d="M262.61752,220.2825l2.85714-1.87525" class="cls-12" transform="translate(-11.04628 -14.56315)"/><path d="M242.25162,262.10292a68.21477,68.21477,0,0,0,11.865-4.87,26.32726,26.32726,0,0,0,9.48575-8.469" class="cls-12" transform="translate(-11.04628 -14.56315)"/><path d="M266.25689,248.02722a5.305,5.305,0,0,0,2.08056-1.22967" class="cls-12" transform="translate(-11.04628 -14.56315)"/><path d="M255.03761,261.28607l4.62265-.35191c1.20852-.092,5.08407-.22139,5.994-1.022" class="cls-12" transform="translate(-11.04628 -14.56315)"/><path d="M239.05507,226.8164a1.87376,1.87376,0,0,0-.3379,1.53816,1.23615,1.23615,0,0,0,1.33977.64973,3.09264,3.09264,0,0,0,1.40963-.7324c2.85814-2.27529,4.70983-5.54957,6.491-8.73916a7.4483,7.4483,0,0,0,1.02042-2.50138c.20769-1.44222-.67237-2.97447-2.29152-2.66556-1.1843.226-1.38742,1.17649-1.86861,2.13831C243.06214,220.01344,240.97217,223.392,239.05507,226.8164Z" class="cls-12" transform="translate(-11.04628 -14.56315)"/><path d="M238.83034,227.70907a2.41,2.41,0,0,0,1.911-1.017,34.85037,34.85037,0,0,0,4.233-5.51714,10.95,10.95,0,0,0,1.7477-4.2365,1.48122,1.48122,0,0,0-.15319-1.05174.60256.60256,0,0,0-.92621-.10261" class="cls-12" transform="translate(-11.04628 -14.56315)"/><path d="M241.01417,232.15758s-1.00771-1.28911,4.9546-4.92734,9.48932-5.56969,10.16113-2.79848-4.50255,4.19882-7.1219,6.29822S242.18984,234.42494,241.01417,232.15758Z" class="cls-12" transform="translate(-11.04628 -14.56315)"/><path d="M241.35561,231.0831c.62509.75473,1.82156.53919,2.74109.20032a48.46731,48.46731,0,0,0,7.94432-4.09935,8.02411,8.02411,0,0,0,1.98126-1.4793,2.71305,2.71305,0,0,0,.7291-2.28014" class="cls-12" transform="translate(-11.04628 -14.56315)"/><path d="M245.36514,240.09974a8.98408,8.98408,0,0,0,2.41646.56375l2.22628.30618a16.52131,16.52131,0,0,0,3.66372.22879,5.55018,5.55018,0,0,0,3.34817-1.35046,2.98262,2.98262,0,0,0,.977-1.82647,1.92558,1.92558,0,0,0-.83526-1.82448,3.21514,3.21514,0,0,0-1.77765-.28937c-3.19184.0936-6.42843.0405-9.60941.32891-.84181.07632-1.86332.10695-2.17922,1.03857C243.1813,238.49594,244.3683,239.66124,245.36514,240.09974Z" class="cls-12" transform="translate(-11.04628 -14.56315)"/><path d="M245.36525,236.533a1.369,1.369,0,0,0,.68428,1.52263,3.80074,3.80074,0,0,0,1.74157.40772,50.09446,50.09446,0,0,0,5.63854.04779,7.47563,7.47563,0,0,0,2.34037-.383,2.80016,2.80016,0,0,0,1.68406-1.57873" class="cls-12" transform="translate(-11.04628 -14.56315)"/><path d="M228.16507,212.47065a7.76485,7.76485,0,0,1,4.22756-1.91033q1.8759-.38895,3.77851-.62964" class="cls-12" transform="translate(-11.04628 -14.56315)"/><path d="M236.28854,211.478a4.97056,4.97056,0,0,1-1.34569,1.88" class="cls-12" transform="translate(-11.04628 -14.56315)"/></g><g id="Layer_5"><path d="M263.71661,200.39111c-.68017-1.36042-16.73266-7.34607-40.53936-26.79956s-38.77088-37.54651-44.62049-46.389c0,0-2.31268-.136-.81622,2.17657s10.33887,14.69214,10.33887,14.69214a87.04966,87.04966,0,0,1-12.7876-16.87024s-1.76849-.95074-1.90454.68171c0,0,13.46777,21.222,13.46777,22.17419s-5.71356-5.44153-10.47491-14.0119-6.3938-9.52265-5.98566-7.48212,3.94507,6.66589,3.673,7.61817-4.62531-7.34607-4.62531-7.34607-2.17664.27209-1.08832,2.99285,7.34607,12.51551,7.074,14.148-7.8902-12.78759-8.43439-13.05969-.847,1.08765-.847,1.08765a530.81183,530.81183,0,0,0,26.43506,48.25445c16.15479,26.22528,27.48407,34.61737,27.48407,34.61737s2.29541,1.33649,4.336-1.38427c0,0-5.71362-4.76136-4.8974-6.12171s6.12171,6.52979,7.75421,6.93793,3.12885-.95227,3.94507-.95227,3.12891.27209,3.12891-.40814-17.14081-17.00476-18.9093-21.63007,4.21716,2.72077,8.02624,6.3938,15.91644,15.23627,17.54889,14.69214-.95227-2.17664,6.52985-3.673,11.42718-.40808,12.10742-1.63244l.68017-1.22437s-7.61816-3.673-8.70642-4.35321-.27209-1.36035.81623-1.76849,8.29828,5.44153,9.25055,5.03339S264.39679,201.75146,263.71661,200.39111Zm-71.51995-51.46173c1.16754-1.39826,4.67639,3.64624,5.11,4.4375a2.51946,2.51946,0,0,1,.39783,1.2561.98889.98889,0,0,1-.74866.97394c-.47571.06878-.88135-.324-1.1925-.69037C195.12622,154.15661,191.34314,149.95153,192.19666,148.92938Zm14.796,45.24865a2.19933,2.19933,0,0,1-1.06611-.72686,100.62408,100.62408,0,0,1-7.11828-8.22632c-7.2508-9.31134-19.77716-30.109-19.17029-30.5542s3.78137,5.12219,5.6355,7.65576q11.19626,15.29892,22.39239,30.5979a1.12133,1.12133,0,0,1,.28034.62085C207.94922,193.98223,207.42108,194.26446,206.99262,194.178Zm-11.4311-23.03515c-11.56323-15.50836-17.23455-24.39673-16.46063-25.031s2.31262,1.08832,9.52265,11.69928,20.40576,25.3031,20.13366,26.93555S207.12476,186.65124,195.56152,171.14288Zm37.68256,30.47253c-1.08832,1.08832-3.40094-.40808-13.05969-10.06683s-18.77033-20.78613-18.07862-21.39118c1.164-1.01812,11.00464,7.37928,16.99036,13.637S234.3324,200.52709,233.24408,201.61541Z" class="cls-13" transform="translate(-11.04628 -14.56315)"/><path d="M202.10577,170.1574c-.69171.60505,8.41993,11.73249,18.07862,21.39118s11.97137,11.15515,13.05969,10.06683-8.16229-11.56323-14.148-17.821S203.26978,169.13928,202.10577,170.1574Z" class="cls-14" transform="translate(-11.04628 -14.56315)"/><path d="M185.27344,162.32641c-1.85413-2.53357-5.02863-8.101-5.6355-7.65576s11.91949,21.24286,19.17029,30.5542a100.62408,100.62408,0,0,0,7.11828,8.22632,2.19933,2.19933,0,0,0,1.06611.72686c.42846.08643.9566-.1958.95355-.63287a1.12133,1.12133,0,0,0-.28034-.62085Q196.46967,177.62539,185.27344,162.32641Z" class="cls-14" transform="translate(-11.04628 -14.56315)"/><path d="M179.10089,146.11187c-.77392.63428,4.8974,9.52265,16.46063,25.031s12.92359,15.23626,13.19568,13.60382-12.92364-16.32459-20.13366-26.93555S179.87482,145.47753,179.10089,146.11187Z" class="cls-14" transform="translate(-11.04628 -14.56315)"/><path d="M263.28769,200.60555c-.02847-.00813.00244.00069-.04593-.03973l-.12543-.10785c-.11227-.07551-.21026-.15442-.33322-.22867-.23459-.15155-.48547-.29666-.73535-.44194l-1.541-.846-3.11881-1.67614q-3.118-1.688-6.18246-3.47893-6.12426-3.58425-11.98243-7.59578a248.43989,248.43989,0,0,1-22.40445-17.3719q-10.74774-9.24648-20.55525-19.51892a195.02736,195.02736,0,0,1-18.12147-21.82253l.38557.22208-.00523.00183c-.31984-.06539-.74533-.01154-.853.15394a.95657.95657,0,0,0,.07856.92363,20.75542,20.75542,0,0,0,1.44712,2.164l3.06,4.3066q3.07794,4.29414,6.23084,8.53169a.49861.49861,0,0,1-.74571.6571l-.014-.01364-.01126-.01086c-1.23081-1.30315-2.3891-2.63991-3.52777-4.00469q-1.72252-2.03011-3.32895-4.15451c-1.07675-1.4109-2.09886-2.86383-3.07926-4.34421-.48953-.7409-.9674-1.48933-1.42279-2.25242a11.00826,11.00826,0,0,0-1.495-2.21858l.19764.19546-.009.00182a1.81719,1.81719,0,0,0-.90689-.31642.39607.39607,0,0,0-.30659.14186,1.002,1.002,0,0,0-.19033.44242l-.03947-.16043.00613.01209c3.224,5.10278,6.43328,10.21329,9.5786,15.36677.78388,1.29015,1.56763,2.57987,2.32848,3.8862.38374.6516.75827,1.3066,1.11838,1.98015l.26519.50971a2.61973,2.61973,0,0,1,.12346.31871l.05411.16823c.0054.03677.024.0362.018.10347a.348.348,0,0,1-.095.21531.31579.31579,0,0,1-.25639.08777.49473.49473,0,0,1-.14439-.03506,1.17047,1.17047,0,0,1-.16382-.08847,2.54421,2.54421,0,0,1-.25055-.18665c-.15471-.12733-.29549-.25981-.43434-.39406a54.47025,54.47025,0,0,1-5.63393-7.1327c-1.71327-2.49134-3.25793-5.11-4.71167-7.74706-.74634-1.30734-1.51363-2.603-2.33151-3.86177-.41066-.62749-.83176-1.2491-1.28671-1.83711a8.83221,8.83221,0,0,0-.71653-.83551,2.2845,2.2845,0,0,0-.3882-.32506.336.336,0,0,0-.12625-.05656c.02758.00071.054-.04938.026.00939a4.1139,4.1139,0,0,0,.56163,1.9926c.32315.66846.69757,1.32026,1.074,1.97092l1.14046,1.95743a7.44716,7.44716,0,0,1,.94444,2.155l-.00905.20192a.3258.3258,0,0,1-.20834.28642.2863.2863,0,0,1-.22092-.00354.52684.52684,0,0,1-.11931-.06038,1.42823,1.42823,0,0,1-.1381-.11635,4.01744,4.01744,0,0,1-.38744-.46281c-.23-.31227-.43688-.63144-.64069-.95271-.40616-.6427-.78766-1.296-1.16429-1.952-.76291-1.30725-1.43236-2.65978-2.249-3.93952l.3116.16286-.00323.00113a1.284,1.284,0,0,0-1.1158,1.30023,4.85438,4.85438,0,0,0,.63182,2.05168c.67778,1.36448,1.44261,2.70643,2.19418,4.04995l2.26638,4.03686a36.9031,36.9031,0,0,1,2.04957,4.19638,2.86793,2.86793,0,0,1,.22808,1.32732.43867.43867,0,0,1-.39212.32446.533.533,0,0,1-.32673-.104,1.64077,1.64077,0,0,1-.27385-.239,5.86733,5.86733,0,0,1-.39482-.47079c-.47821-.63341-.89663-1.28432-1.31245-1.93929-.82547-1.3112-1.61021-2.64074-2.39012-3.97245l-2.32416-3.99813c-.389-.66287-.77817-1.32949-1.183-1.97035-.10079-.15777-.2056-.31911-.30588-.45286l-.0556-.06759c.05935.04293.06027.04366.06312.03829.03092.01425.0672-.0078.0443.00932a1.47741,1.47741,0,0,0-.24716.84691l.00035.00272-.03481-.31926c3.55423,7.461,7.378,14.8139,11.31758,22.0907q5.93391,10.90618,12.32007,21.5578c4.25546,7.10049,8.73155,14.05616,13.64641,20.70271,2.47255,3.30876,5.03474,6.55131,7.75388,9.65439a74.02052,74.02052,0,0,0,8.72665,8.67524l-.04593-.03024a2.527,2.527,0,0,0,.97185.25246,2.62865,2.62865,0,0,0,1.02289-.1453,3.32774,3.32774,0,0,0,.919-.54251,5.21137,5.21137,0,0,0,.77059-.81677l.07988.684c-.91309-.77387-1.78379-1.56952-2.62661-2.4175a12.67358,12.67358,0,0,1-2.28768-2.87727,1.8345,1.8345,0,0,1-.20734-1.1837.88291.88291,0,0,1,.695-.67287,1.207,1.207,0,0,1,.72284.16017,7.00149,7.00149,0,0,1,1.47241,1.21832c.84285.85881,1.60747,1.75391,2.38292,2.635.77345.87576,1.54257,1.76945,2.365,2.53a4.296,4.296,0,0,0,.61189.47343.59263.59263,0,0,0,.2589.09715,1.88227,1.88227,0,0,0,.35245.04213,3.63532,3.63532,0,0,0,1.49512-.34582l.79083-.35742a3.11963,3.11963,0,0,1,1.00735-.31533c.69243-.00642,1.21007.05588,1.78794.04636a4.48317,4.48317,0,0,0,.7835-.0582.79816.79816,0,0,0,.20787-.06537c.01311-.00212-.00674.00531-.0243.02655-.00913.0197-.01818.041-.03531.0745-.00917.03428-.00118.05842-.00945.12019-.0102.04341.06087.1353.02166.0815-.28441-.38263-.72088-.843-1.10512-1.25957-3.22061-3.395-6.54206-6.73566-9.73885-10.18764-1.60066-1.72593-3.18428-3.47-4.69731-5.28785-.75462-.91112-1.49519-1.8362-2.18072-2.82164a13.44009,13.44009,0,0,1-.95672-1.56273,7.62011,7.62011,0,0,1-.35777-.879,3.02482,3.02482,0,0,1-.19823-1.06238,1.54623,1.54623,0,0,1,.04047-.22349.88506.88506,0,0,1,.21762-.3178.78311.78311,0,0,1,.38408-.14586,1.33834,1.33834,0,0,1,.27.026,2.03955,2.03955,0,0,1,.53938.26512,7.23476,7.23476,0,0,1,.74649.58673c.4561.40294.88.8196,1.29874,1.24.8345.84172,1.639,1.69993,2.44574,2.55354,1.60265,1.72632,3.2316,3.366,4.94858,4.97736,3.39874,3.23231,6.82692,6.44354,10.39805,9.46162.89481.74989,1.80008,1.4885,2.73152,2.17137a15.38645,15.38645,0,0,0,1.41675.94684,3.79659,3.79659,0,0,0,.68676.32465.82088.82088,0,0,1,.12046.02807c.00594-.02139-.03914.01329.00353-.00168a.76717.76717,0,0,0,.21307-.11462c.08211-.04767.14534-.25388.27089-.59129a2.78337,2.78337,0,0,1,.59721-.89911,5.23224,5.23224,0,0,1,1.66146-1.0018,20.2375,20.2375,0,0,1,3.47209-.99471,46.31806,46.31806,0,0,1,7.05525-.91965l3.51291-.15344a3.52939,3.52939,0,0,0,1.445-.29121.10905.10905,0,0,0,.07126-.062c.01617-.02927.03009-.00826.072-.095l.21387-.385.42773-.77.00595-.01074.21988.69307c-2.25479-1.09291-4.50406-2.189-6.74474-3.32-.56071-.28612-1.11753-.56693-1.68058-.87676a2.40006,2.40006,0,0,1-.91442-.746.99872.99872,0,0,1-.09129-.87412,1.4706,1.4706,0,0,1,.41923-.57326,3.68442,3.68442,0,0,1,.939-.55162l.25067-.097a1.3134,1.3134,0,0,1,.2693-.04443l.191.01555a2.6175,2.6175,0,0,1,.56314.16453,13.20744,13.20744,0,0,1,1.724.92543c1.08188.66407,2.11832,1.36815,3.16175,2.054a23.06645,23.06645,0,0,0,3.13192,1.85172c.11423.0554.26093.06425.21552.06785-.09662.02789.03509-.02426.09683-.11528a3.645,3.645,0,0,0,.46091-.67354,10.90146,10.90146,0,0,0,.72473-1.64125,11.5185,11.5185,0,0,0,.4736-1.73222A3.22383,3.22383,0,0,0,263.28769,200.60555Zm.85785-.42889a3.84143,3.84143,0,0,1,.09006,2.1496,12.46071,12.46071,0,0,1-.5116,1.88554,11.832,11.832,0,0,1-.789,1.78951,4.50241,4.50241,0,0,1-.60156.86749,1.17915,1.17915,0,0,1-.65778.40868,1.45754,1.45754,0,0,1-.69431-.11672,23.0281,23.0281,0,0,1-3.33145-1.94684c-1.04864-.68742-2.08436-1.38832-3.13667-2.032a12.46693,12.46693,0,0,0-1.57944-.85008,1.76917,1.76917,0,0,0-.33394-.10274.16684.16684,0,0,1-.04266-.00591.03908.03908,0,0,0,.03787-.00846l-.18632.07273a2.77641,2.77641,0,0,0-.67677.38964.57261.57261,0,0,0-.13924.168c.00015.02327-.01389-.02413.00857.02385a1.74069,1.74069,0,0,0,.5504.39442c.53371.29288,1.09462.57532,1.6489.85707,2.22925,1.12152,4.48126,2.21518,6.73212,3.30237a.50011.50011,0,0,1,.23327.66766l-.0133.02567-.006.01074-.42774.77-.21387.385a1.44552,1.44552,0,0,1-.43963.48756,4.087,4.087,0,0,1-1.95325.47257l-3.52632.15429a45.31421,45.31421,0,0,0-6.90506.89969,19.34444,19.34444,0,0,0-3.29273.93888,4.336,4.336,0,0,0-1.34637.79254,1.76861,1.76861,0,0,0-.37009.55854,2.235,2.235,0,0,1-.52446.95691,1.70533,1.70533,0,0,1-.548.31684,1.3238,1.3238,0,0,1-.42957.05726l-.31034-.06329a4.60577,4.60577,0,0,1-.90619-.41731,16.293,16.293,0,0,1-1.51163-1.00839c-.96292-.70618-1.87834-1.45377-2.78357-2.21219-3.60529-3.04723-7.03726-6.26305-10.4456-9.5042-1.70928-1.60326-3.39218-3.297-4.98545-5.01443-.80647-.85346-1.60865-1.70887-2.42793-2.53515-.40983-.41165-.82446-.81825-1.24866-1.19287a6.35394,6.35394,0,0,0-.636-.50267,1.42991,1.42991,0,0,0-.2424-.13325.05685.05685,0,0,0,.05106.00384c.01782.00016.14119-.01812.17865-.07661a.20806.20806,0,0,0,.09741-.13558c.00706-.00679.00847-.0061.00847-.0061a4.65488,4.65488,0,0,0,.45628,1.40517,12.53373,12.53373,0,0,0,.88321,1.438c.65579.943,1.3839,1.854,2.12729,2.75119,1.49222,1.793,3.0676,3.52858,4.661,5.2465,3.18729,3.44176,6.49166,6.76471,9.73691,10.18558a16.804,16.804,0,0,1,1.2101,1.39308.88435.88435,0,0,1,.12392.27538.55415.55415,0,0,1-.00569.32974.77345.77345,0,0,1-.31116.44459,1.53155,1.53155,0,0,1-.60941.243,5.36535,5.36535,0,0,1-.97036.07715c-.59684.00847-1.25174-.05309-1.73264-.04826a8.71042,8.71042,0,0,0-1.47279.59645,4.60328,4.60328,0,0,1-1.9139.42357,2.8755,2.8755,0,0,1-.52064-.0617,1.62934,1.62934,0,0,1-.55928-.21086,5.14875,5.14875,0,0,1-.7826-.59761,35.55936,35.55936,0,0,1-2.44665-2.61291c-.7757-.882-1.53888-1.77332-2.34191-2.591a6.37557,6.37557,0,0,0-1.22131-1.03354c-.07832-.047-.18851-.063-.11587-.059a.17014.17014,0,0,0,.128-.07354,1.057,1.057,0,0,0,.13957.50993,11.99573,11.99573,0,0,0,2.09591,2.60466c.81262.81824,1.67762,1.60841,2.55625,2.35294l.01181.01a.489.489,0,0,1,.0681.67424,6.19852,6.19852,0,0,1-.93406.988,4.32081,4.32081,0,0,1-1.21593.71181,3.63116,3.63116,0,0,1-1.42355.20283,3.433,3.433,0,0,1-1.41382-.38632.30373.30373,0,0,1-.04627-.03046,74.586,74.586,0,0,1-8.88313-8.81932c-2.74129-3.12842-5.31894-6.39082-7.80516-9.71789-4.93906-6.67865-9.439-13.67278-13.70016-20.783q-6.41769-10.65573-12.34221-21.59648c-3.94745-7.294-7.77484-14.64534-11.34278-22.1458l-.02456-.05163a.34133.34133,0,0,1-.01027-.268l.00247-.00643a3.497,3.497,0,0,1,.73-1.21495.73139.73139,0,0,1,.57839-.15416.64668.64668,0,0,1,.32029.15991,1.4285,1.4285,0,0,1,.13047.15326c.12973.17556.233.33907.339.50638.4146.665.79868,1.33231,1.18607,2.0011l2.30116,4.01149c.7704,1.33305,1.54553,2.66347,2.35524,3.96611.40616.64861.81958,1.29765,1.26723,1.89729a5.27056,5.27056,0,0,0,.34468.41715,1.09477,1.09477,0,0,0,.15717.14406c.00746.01461.04727.007-.06221-.00157-.12847-.00945-.2286.16853-.20426.1399a3.31153,3.31153,0,0,0-.212-.91948,36.54789,36.54789,0,0,0-1.98555-4.118l-2.2383-4.04106c-.75511-1.34574-1.52378-2.68058-2.22145-4.07581a5.37133,5.37133,0,0,1-.69975-2.32962,1.892,1.892,0,0,1,.4577-1.262,2.03594,2.03594,0,0,1,1.1863-.639l.01152-.00115.03139-.00307a.27627.27627,0,0,1,.2805.16608,42.43294,42.43294,0,0,0,2.10185,3.99739c.375.65192.755,1.30138,1.1554,1.9337.20034.31542.40458.62938.62231.92432a3.64877,3.64877,0,0,0,.33708.40472c.02907.03163.05216.0426.07714.06665.01545.0139.0052-.00184.00576.004.01393.01224-.021-.01279-.08654.00783-.152.14355-.0645.0204-.08584-.021a7.573,7.573,0,0,0-.88676-1.95691l-1.1395-1.95209c-.37925-.65453-.758-1.31162-1.09236-2.0015a4.27357,4.27357,0,0,1-.59482-2.31707.45717.45717,0,0,1,.39769-.36013.70679.70679,0,0,1,.40047.12189,2.69657,2.69657,0,0,1,.48.39584,9.26885,9.26885,0,0,1,.75692.8799c.46878.605.89483,1.23346,1.31067,1.86762.82712,1.27078,1.59888,2.57191,2.34938,3.884,1.46154,2.64558,2.98865,5.22894,4.6973,7.71036a54.12732,54.12732,0,0,0,5.57634,7.053c.13229.1278.26675.25367.40341.36584a2.08731,2.08731,0,0,0,.20244.15157.729.729,0,0,0,.08382.04725c-.00313.02031.03387-.04545-.13454.05709-.03568.05056-.04623.05267-.04688.08932.00209.02164-.01352-.02206-.01907-.02978l-.04466-.09684c-.033-.068-.04131-.12217-.08565-.20625l-.25767-.4937c-.35157-.6562-.72649-1.31135-1.10883-1.9591-.75873-1.30033-1.543-2.58863-2.32684-3.87636-3.14673-5.14546-6.35865-10.25438-9.5871-15.35062l-.00832-.01069a.19635.19635,0,0,1-.0412-.13169l.00165-.02911a1.59418,1.59418,0,0,1,.16942-.74491,1.10447,1.10447,0,0,1,.6966-.54177,1.91752,1.91752,0,0,1,.797-.02405,2.99119,2.99119,0,0,1,.71348.20054l.01958.01658.16289.13786a.10584.10584,0,0,1,.035.05788,8.15534,8.15534,0,0,0,1.18826,2.3544c.45981.74945.94223,1.48477,1.43625,2.21273.98933,1.45452,2.02,2.8821,3.10527,4.26822a78.10837,78.10837,0,0,0,6.97018,7.90885l.01.01068-.7597.64343q-2.92687-4.41392-5.93837-8.76144l-3.02454-4.34-.75607-1.08492a10.91521,10.91521,0,0,1-.75047-1.12967,1.66309,1.66309,0,0,1-.15851-1.59288,1.90738,1.90738,0,0,1,1.5179-.74959l.023.0029.08345.0105a.39932.39932,0,0,1,.30244.21175,23.9544,23.9544,0,0,0,1.93657,2.94149c.67673.96054,1.40294,1.88717,2.10623,2.82946q2.1595,2.79162,4.42864,5.49919,4.54639,5.40569,9.43147,10.52012,9.759,10.22491,20.51948,19.43172A247.53517,247.53517,0,0,0,239.74181,185.43q5.84186,3.9708,11.93806,7.545,3.04869,1.78169,6.16,3.45521l3.11884,1.6707,1.56265.85529c.26032.15086.52048.3006.7818.46877A2.48924,2.48924,0,0,1,264.14554,200.17666Z" class="cls-15" transform="translate(-11.04628 -14.56315)"/><path d="M191.82857,148.622a1.13743,1.13743,0,0,1,.86888-.39807,1.76288,1.76288,0,0,1,.75719.20511,5.1321,5.1321,0,0,1,1.03141.75822,11.52361,11.52361,0,0,1,.842.86168l.19557.2243.09575.11341.04774.05678c.01159.02265.02543.04319.10473.00837.09149-.01219-.057.1778-.04926.235a.28269.28269,0,0,0,.10626.10318c.08817.05455.196.09346.29466.141a.64687.64687,0,0,1,.33316.48968.95114.95114,0,0,0,.11011.28579l.01973.03112c.01167.0066-.00923.03728.07144-.00717.18569-.10676.0997-.01227.04139.061-.08249.09113-.07523.11595-.05454.13112l.039.0623c.19983.33826.40754.66774.62088.99849a4.32605,4.32605,0,0,1,.55432,1.08776,1.21913,1.21913,0,0,1-.0831,1.37045,1.28991,1.28991,0,0,1-.25752.30618c-.01107.01473-.03241.01445-.03362.04376.00194.03318.02455.1035.01331.12352a.5526.5526,0,0,1-.1026.06121,1.25608,1.25608,0,0,1-1.13749-.00509,3.26192,3.26192,0,0,1-1.02429-.89714c-.5094-.584-1.02575-1.17553-1.50956-1.79408a21.44031,21.44031,0,0,1-1.37426-1.94345,7.51173,7.51173,0,0,1-.568-1.113,2.8652,2.8652,0,0,1-.18179-.67671,2.23944,2.23944,0,0,1,.00994-.43463A1.45129,1.45129,0,0,1,191.82857,148.622Zm.73617.61471a1.33615,1.33615,0,0,0,.14881.62142,6.57636,6.57636,0,0,0,.49873.94577,20.47634,20.47634,0,0,0,1.32723,1.83168c.47575.59656.96267,1.18463,1.46713,1.77054a2.47237,2.47237,0,0,0,.681.65239.32956.32956,0,0,0,.22028.03744.38268.38268,0,0,0,.04214-.01594c.0083-.00072.013-.01146.02385-.00977l.07437.08447c.01828.015.01639.00032.02482.00071a.5537.5537,0,0,0,.14349-.11007c.19588-.22639.12733-.48533.206-.85362a3.90119,3.90119,0,0,0-.45018-.99718,7.33717,7.33717,0,0,0-.69349-.91555l-.04694-.05469c-.00793-.02384-.0293-.038-.14041.01411-.087.03427-.20155.08979-.0445-.056.06635-.064.03115-.05278.02849-.06566l-.02385-.02692a.85229.85229,0,0,0-.23936-.17779c-.18083-.10182-.34575-.21129-.38208-.42494a2.52545,2.52545,0,0,0-.07157-.3095.26649.26649,0,0,0-.07962-.11976c-.05456-.01685-.264.098-.23579.01263.04773-.07149.03-.08762.01-.10162l-.04694-.05323-.094-.10624-.19091-.2089a10.707,10.707,0,0,0-.79856-.78051,3.74612,3.74612,0,0,0-.85724-.58089.876.876,0,0,0-.35554-.08643C192.62967,149.16282,192.62009,149.17585,192.56474,149.23673Z" class="cls-15" transform="translate(-11.04628 -14.56315)"/><path d="M206.89783,194.64811a2.98961,2.98961,0,0,1-1.46245-1.0267l-1.05219-1.12058q-1.04257-1.12928-2.04821-2.29091c-1.34134-1.54814-2.62954-3.14007-3.88509-4.75616-1.25375-1.62273-2.44444-3.28535-3.61163-4.96286l-.86959-1.26178-.43109-.63321-.21455-.31724a.60732.60732,0,0,0-.27625-.27546c-.207-.16836-.1546-.51188-.27233-.74-.1346-.217-.28405-.424-.43844-.62768-.31089-.406-.64341-.7979-.96345-1.19838a16.00647,16.00647,0,0,1-1.64163-2.58582c-.24472-.44954-.48479-.90176-.75711-1.33323l-.10062-.16277c-.039-.05078-.04382-.12334-.15517-.12795-.24916.00762-.21191-.16761-.20329-.32429a.46085.46085,0,0,0-.10284-.38806l-.2002-.32608-3.18448-5.22759c-1.06776-1.73863-2.12219-3.48568-3.14615-5.25238a5.448,5.448,0,0,0-.40277-.6521,2.44234,2.44234,0,0,1-.427-.63939l-.74383-1.34379c-.24283-.45212-.48226-.9059-.7031-1.37926a4.8178,4.8178,0,0,1-.30086-.77769.73183.73183,0,0,1-.02258-.16352.4761.4761,0,0,1,.01521-.14406.41039.41039,0,0,1,.18044-.2337.52031.52031,0,0,1,.49254-.00735,1.58067,1.58067,0,0,1,.40345.29158,9.9976,9.9976,0,0,1,1.02764,1.2153.72842.72842,0,0,0,.12576.14851c.05917.037.15648.04744.20152.09491.0812.10137.14905.21089.22388.316l.432.639,1.67508,2.56559c1.08208,1.71756,2.2997,3.31619,3.509,4.97541l7.22507,9.87262,7.22505,9.87262,3.61252,4.93631,1.7986,2.47376.44936.61867a3.67,3.67,0,0,1,.47534.75477,1.07965,1.07965,0,0,1,.03854.67734,1.10016,1.10016,0,0,1-.3768.55467A1.38071,1.38071,0,0,1,206.89783,194.64811Zm.18957-.94015a.43741.43741,0,0,0,.3226-.08393c.067-.08381.05979-.03592.03669-.13609a3.47754,3.47754,0,0,0-.35593-.52351l-.45377-.61542-1.81393-2.46254-3.61252-4.9363-7.225-9.8726-7.225-9.87259c-2.47844-3.19627-4.66524-6.84265-6.862-10.05038a.90152.90152,0,0,0-.20372-.16631c-.026-.02173.01621.02875.12827-.03142-.00678.00374.12073-.08148.12382-.16269.01119-.05386.00924-.03022.0102-.04969-.00621-.03125.00543.01907.00569.02487a4.51649,4.51649,0,0,0,.25093.64616c.2061.45256.434.90532.66774,1.35437l.71808,1.34262a2.5283,2.5283,0,0,1,.3213.69426,5.04126,5.04126,0,0,0,.35314.67726c1.004,1.77134,2.039,3.52677,3.08955,5.27268q1.58752,2.612,3.2709,5.16443l.20913.31976a.45957.45957,0,0,0,.30761.257c.14557.05826.3192.09836.20748.32062-.04271.10277.02108.13757.05075.19417l.10531.15933c.27689.42746.5882.83276.89684,1.23947a17.72384,17.72384,0,0,1,1.70271,2.53595c.24158.45038.47313.90773.72843,1.34953.12826.22048.26378.43617.41287.6427.1664.19505.50485.27349.58278.52777a.598.598,0,0,0,.1531.35723l.2152.31518.43233.629.87156,1.25272c1.16915,1.66458,2.36116,3.31315,3.608,4.9121q1.87377,2.40294,3.893,4.68473,1.00754,1.1412,2.051,2.24893l1.05229,1.09872A2.24352,2.24352,0,0,0,207.0874,193.708Z" class="cls-15" transform="translate(-11.04628 -14.56315)"/><path d="M195.17708,171.42951c-4.91672-6.69127-9.78034-13.41288-14.29317-20.41534a12.75869,12.75869,0,0,1-1.53526-2.74181,14.10693,14.10693,0,0,1-.56546-1.52678,2.02746,2.02746,0,0,1-.04863-.22268.60445.60445,0,0,0-.07541-.28333c-.02205-.07326-.07362-.12826-.05272-.23779a.50767.50767,0,0,1,.20061-.28233.64945.64945,0,0,1,.36954-.063c.26727.05542.41108.11581.58074.15982a2.097,2.097,0,0,1,.38318.23141,13.60253,13.60253,0,0,1,2.10776,2.37046c.634.82626,1.245,1.66661,1.84692,2.51275,1.21636,1.68328,2.40209,3.38622,3.58313,5.09218a5.42286,5.42286,0,0,0,.46125.62715,2.57127,2.57127,0,0,1,.4875.60935l.88771,1.27336,1.81911,2.5139.94453,1.23215a.71378.71378,0,0,0,.12836.14634c.06038.03565.15794.04343.20419.08956l.23548.30825.46769.61918,1.88893,2.46437,3.84731,4.88127c2.5787,3.24753,5.21022,6.44967,7.72836,9.77084.62548.83606,1.245,1.67348,1.81545,2.58014a7.87147,7.87147,0,0,1,.40782.72,2.61768,2.61768,0,0,1,.179.42861,1.26,1.26,0,0,1,.05336.62458,1.94988,1.94988,0,0,1-.1568.49584.99841.99841,0,0,1-.52977.51246,1.39673,1.39673,0,0,1-1.15865-.16909,11.98643,11.98643,0,0,1-2.465-2.13366c-.72482-.76319-1.41084-1.5509-2.08435-2.34733C200.15379,178.08019,197.6496,174.76609,195.17708,171.42951Zm.76889-.57327c2.49763,3.30426,5.00478,6.607,7.65732,9.76819.66551.78711,1.3425,1.564,2.04609,2.30466a11.4175,11.4175,0,0,0,2.20987,1.9396,1.21158,1.21158,0,0,0,.31891.12253c-.06582.067.04637-.052.07471-.27058a1.023,1.023,0,0,0-.14955-.42311,6.95317,6.95317,0,0,0-.35927-.632c-.534-.84938-1.14787-1.68225-1.76483-2.50605-2.49426-3.29-5.13075-6.49922-7.71074-9.7481l-3.85556-4.89176-1.89613-2.47375-.46984-.622c-.07725-.10443-.15893-.20568-.23059-.31436-.03119-.05783-.01108-.154-.02814-.22229a.71962.71962,0,0,0-.104-.1655l-.90359-1.27031c-.60857-.84233-1.21148-1.68942-1.799-2.54765l-.87321-1.29126a2.56691,2.56691,0,0,1-.38876-.67582,5.41491,5.41491,0,0,0-.415-.658c-1.16382-1.7155-2.33119-3.42879-3.52935-5.11833a26.98761,26.98761,0,0,0-3.92462-4.70471c-.17106-.099-.43721-.326-.46287-.07492a.34869.34869,0,0,0,.02627.11245c.01619.00157.105-.06273.08826-.12637-.00925-.05324-.05251-.03809-.08737-.0488-.10256-.01558-.04706.07222-.05246.10275a1.488,1.488,0,0,0,.04.15541,6.05032,6.05032,0,0,0,.66618,1.32457,27.65715,27.65715,0,0,1,1.57179,2.64719c.23157.46288.45549.93239.70651,1.38571a7.49335,7.49335,0,0,0,.4079.66011c.16484.2016.50409.28855.58145.54671a.61856.61856,0,0,0,.15122.36465l.2149.323.43157.64486.87231,1.28421q1.75331,2.56314,3.56447,5.08921C190.98178,164.2163,193.45471,167.54325,195.946,170.85624Z" class="cls-15" transform="translate(-11.04628 -14.56315)"/><path d="M233.58316,201.95449a1.48969,1.48969,0,0,1-.917.42337,1.32673,1.32673,0,0,1-.4718-.02305,1.55888,1.55888,0,0,1-.41371-.10889,6.17487,6.17487,0,0,1-1.35128-.71246,25.36086,25.36086,0,0,1-2.26445-1.77314c-1.43774-1.24008-2.79487-2.549-4.15391-3.85525-1.357-1.30818-2.68822-2.63913-4.01941-3.97006l-.99419-1.00426-.49371-.50546-.24683-.25275a.52706.52706,0,0,0-.29985-.20108c-.21962-.1151-.21426-.44881-.35689-.63817-.15736-.17526-.32754-.3381-.50117-.49768-.349-.31744-.7202-.61409-1.077-.92482a13.48462,13.48462,0,0,1-1.90521-2.08746c-.29281-.37076-.57967-.74658-.89563-1.09555l-.11725-.132c-.04386-.03964-.0578-.1066-.165-.08835-.2375.05746-.224-.11449-.23562-.26309a.40429.40429,0,0,0-.14751-.34311l-.23331-.26494-3.69714-4.26916c-1.233-1.42254-2.45-2.85953-3.62825-4.33086a4.922,4.922,0,0,0-.45882-.53877c-.22352-.12488-.32179-.34752-.47979-.52391l-.85669-1.13134q-.423-.57091-.81821-1.1716c-.12961-.20254-.25652-.40927-.37614-.62655-.05874-.11255-.11561-.22452-.16942-.34911a1.0158,1.0158,0,0,1-.09693-.538.55029.55029,0,0,1,.15718-.2716,1.29338,1.29338,0,0,1,.15821-.09052.68691.68691,0,0,1,.2928-.06534,1.51091,1.51091,0,0,1,.45483.05448,4.19485,4.19485,0,0,1,.72331.27124.65847.65847,0,0,0,.17325.06881c.06865.00272.15714-.03256.215-.01062.111.0533.216.118.32389.17675l.61743.38241c.80862.52268,1.5759,1.08415,2.32989,1.66023,1.50446,1.15531,2.95343,2.36843,4.37615,3.61017,2.83977,2.48848,5.58606,5.08118,8.19289,7.819q3.89631,4.098,7.60038,8.37186c1.22994,1.43,2.44191,2.87681,3.60373,4.37333.57944.74986,1.14311,1.5137,1.67491,2.3127a13.60339,13.60339,0,0,1,.7529,1.25262,4.49837,4.49837,0,0,1,.31429.71758,2.07524,2.07524,0,0,1,.10335.45074,1.48413,1.48413,0,0,1-.01792.31992A.96357.96357,0,0,1,233.58316,201.95449Zm-.67816-.67816c-.04326.00415-.0547.08772-.05566.07886-.00994-.01262.00146-.002-.00213-.03107a1.21351,1.21351,0,0,0-.06152-.233,3.61007,3.61007,0,0,0-.25761-.5693,12.69283,12.69283,0,0,0-.70943-1.15776c-.51509-.76341-1.07751-1.50722-1.649-2.24422-1.1447-1.47459-2.34862-2.91212-3.57106-4.33337-2.45007-2.83927-4.98118-5.6154-7.56672-8.33469-2.58036-2.71033-5.30961-5.28715-8.1267-7.75566-1.41061-1.23128-2.84721-2.43361-4.326-3.56912-.74-.56557-1.492-1.11505-2.263-1.61324l-.58142-.36032c-.097-.0563-.19749-.10591-.29169-.16733-.04425-.03622-.05867-.12823-.09628-.176a.53158.53158,0,0,0-.14252-.0881,3.54078,3.54078,0,0,0-.58493-.24924.89461.89461,0,0,0-.23878-.04474c-.01633.00426-.06891-.00688-.04788.00159a.0096.0096,0,0,0,.001-.0106c.00771-.00286.08287-.06636.0777-.11965.00218-.0632.01355.05619.05467.13985.03891.09088.08754.18976.13664.2857.10579.19552.22313.39042.34549.58492.249.38733.5076.77342.78,1.15227l.82859,1.13054a2.205,2.205,0,0,1,.38227.59236,4.07007,4.07007,0,0,0,.41275.5701c1.15748,1.47667,2.35565,2.924,3.572,4.35545q1.83609,2.13774,3.76949,4.18983l.24089.257a.402.402,0,0,0,.32671.17885c.14662.02522.31764.02774.23892.25854-.02774.10483.03779.12447.07342.1714l.12122.12774c.31956.344.66829.66111,1.01639.97836a15.25348,15.25348,0,0,1,1.9554,2.02634c.28816.37344.57128.75213.87182,1.11451a6.29476,6.29476,0,0,0,.47858.51688c.18464.14815.51729.152.62494.37439a.512.512,0,0,0,.193.30325l.2471.2506.49422.50114.99518.99561c1.3349,1.32183,2.67,2.64387,4.02711,3.93954,1.35462,1.29714,2.72786,2.57793,4.1496,3.78179a24.56907,24.56907,0,0,0,2.19163,1.6808C231.66457,201.24189,232.60019,201.67677,232.905,201.27633Z" class="cls-15" transform="translate(-11.04628 -14.56315)"/><path d="M237.09946,192.32195A65.63568,65.63568,0,0,0,260.154,208.34347" class="cls-16" transform="translate(-11.04628 -14.56315)"/><path d="M198.8312,157.53564a92.76085,92.76085,0,0,0,31.2528,27.40518" class="cls-16" transform="translate(-11.04628 -14.56315)"/><path d="M196.65415,162.8828a142.2174,142.2174,0,0,1,22.97221,21.78235" class="cls-16" transform="translate(-11.04628 -14.56315)"/><path d="M245.16886,195.54579a73.99245,73.99245,0,0,0,15.56038,10.68429" class="cls-16" transform="translate(-11.04628 -14.56315)"/><path d="M240.49186,200.62647a31.66632,31.66632,0,0,1,6.42123,9.66773" class="cls-16" transform="translate(-11.04628 -14.56315)"/><path d="M225.00653,216.40335a2.86517,2.86517,0,0,0,2.29377.427,19.75339,19.75339,0,0,0,2.29475-.71586,9.91566,9.91566,0,0,1,3.2471-.44464,8.09927,8.09927,0,0,0,1.44974-.00732,1.76941,1.76941,0,0,0,1.23045-.68888" class="cls-12" transform="translate(-11.04628 -14.56315)"/><path d="M236.62933,215.3528a6.24786,6.24786,0,0,0,3.82146-.04872,5.29709,5.29709,0,0,0,.96039-.61073,18.37938,18.37938,0,0,0,1.99893-1.75705" class="cls-12" transform="translate(-11.04628 -14.56315)"/><path d="M264.1896,197.61834c.52529,1.84906-.14351,4.95139-1.11809,6.9572" class="cls-12" transform="translate(-11.04628 -14.56315)"/><path d="M247.5689,211.15767a20.48735,20.48735,0,0,1,4.42117-.77554,49.73734,49.73734,0,0,0,6.0165-.55208,4.28355,4.28355,0,0,0,3.42391-2.68444" class="cls-12" transform="translate(-11.04628 -14.56315)"/></g><g id="Layer_7"><path d="M118.09874,162.8828S160.222,195.807,187.27683,208.34347s52.20907,20.75566,53.673,34.79675-9.52851,27.73973-43.24461,24.65754S110.222,243.78591,91.38642,233.36033" class="cls-3" transform="translate(-11.04628 -14.56315)"/><path d="M118.09874,162.8828S160.222,195.807,187.27683,208.34347s52.20907,20.75566,53.673,34.79675-9.52851,27.73973-43.24461,24.65754S110.222,243.78591,91.38642,233.36033" class="cls-5" transform="translate(-11.04628 -14.56315)"/><path d="M230.76257,243.75586a12.607,12.607,0,0,0,10.09386.04721" class="cls-6" transform="translate(-11.04628 -14.56315)"/><path d="M226.39056,254.36638a12.22912,12.22912,0,0,0,12.38564.10968" class="cls-6" transform="translate(-11.04628 -14.56315)"/></g></svg>