<svg id="layout" xmlns="http://www.w3.org/2000/svg" viewBox="0 0 300 186.82"><defs><style>.cls-1,.cls-4{fill:#fff;}.cls-2{fill:#f4f7e8;}.cls-10,.cls-11,.cls-13,.cls-2,.cls-3,.cls-4,.cls-5,.cls-6,.cls-7,.cls-8,.cls-9{stroke:#000;stroke-linecap:round;stroke-linejoin:round;stroke-width:0.75px;}.cls-3{fill:none;}.cls-5{fill:#8f5a3f;}.cls-6{fill:#e09e4f;}.cls-7{fill:#c95d4f;}.cls-8{fill:#ffce00;}.cls-9{fill:#fcc;}.cls-10{fill:#ffe3e3;}.cls-11,.cls-14{fill:#494949;}.cls-12{fill:#681e1d;}.cls-13{fill:#ffa8a6;}</style></defs><title>we-bare-bears-trick-or-treat</title><path class="cls-1" d="M45.5,238.41a37.37,37.37,0,0,1-5.15-.36c-8.07-1.14-13.42-3.86-16.36-8.34-3.29-5-3.65-13.74-3.26-20.85-.68-.85-1.33-1.74-1.95-2.64a14.73,14.73,0,0,1-5.65-2.29,19,19,0,0,1-7-21.77,14.31,14.31,0,0,1,3.56-5.48,51.22,51.22,0,0,1,.36-5.86,96.9,96.9,0,0,1,2.4-11.61c.75-3,1.52-6.07,2-9A102.12,102.12,0,0,0,15.22,137c.14-6.47.28-13.13,2-19.75a45.44,45.44,0,0,1,12.4-20.87,29.78,29.78,0,0,1-3.6-5,26.54,26.54,0,0,1-3.75-14.29C22.59,71.73,25,67.31,29,65a12.44,12.44,0,0,1,6.34-1.67,16.35,16.35,0,0,1,7.49,1.94,23.28,23.28,0,0,1,5.54,4c2-4.19,5.42-6.94,9.38-7.57a11.63,11.63,0,0,1,1.77-.14,13.43,13.43,0,0,1,9.88,4.83,23.36,23.36,0,0,1,5.39,11.89,24.85,24.85,0,0,1,0,7.79c1.41.4,2.8.87,4.18,1.41,9.49,3.71,17.31,10.37,20.9,17.81a47.57,47.57,0,0,1,3.64,11.18,20.8,20.8,0,0,1,6.33-5.83,54.13,54.13,0,0,1,7.22-17c.36-.54.74-1.06,1.12-1.57a10.72,10.72,0,0,1,10.43-13,10.52,10.52,0,0,1,2.57.32,10.82,10.82,0,0,1-.14-2c.13-3.88,2.79-6.84,6.25-7.05.12-.21.25-.41.38-.61a7.05,7.05,0,0,1,5.69-3.08,7.47,7.47,0,0,1,5,2l.29.26h.34a7.69,7.69,0,0,1,3.08.64,7.6,7.6,0,0,1,4.1,4.72c.08.28.15.55.21.83a9.77,9.77,0,0,1,3.69-.7A10.05,10.05,0,0,1,168.06,78a9.75,9.75,0,0,1,1,1.73,29.87,29.87,0,0,1,4.13,1.88,36.8,36.8,0,0,1,15.87,17.51,18.65,18.65,0,0,1,5.29,3.11,25,25,0,0,1,5.1,6.3,53.65,53.65,0,0,1,11.59-17.93c.22-3.19,1-6.52,3.37-9.16a11.66,11.66,0,0,1,8.62-3.69c.36,0,.72,0,1.08.05a13.38,13.38,0,0,1,5.46,1.79A47.62,47.62,0,0,1,244.88,77q1.67,0,3.3.12a10.61,10.61,0,0,1,4.28-2.78,11.32,11.32,0,0,1,3.66-.6,10.89,10.89,0,0,1,6,1.78A10.3,10.3,0,0,1,266.24,81a45.19,45.19,0,0,1,19.47,20.77A73.23,73.23,0,0,1,290.49,118c4.61,23,4.55,48.58,4.5,71.13,0,0,0,5.06,0,7,0,5.34-5.73,6.48-9.16,7.16-.4.08-1,.2-1.35.28a13.57,13.57,0,0,0-1.46.91,25.82,25.82,0,0,1-2.61,1.58c-.15,1.88-.41,3.81-.77,5.84a8.62,8.62,0,0,1,.09,8.61,12.22,12.22,0,0,1-5.16,4.92,5.36,5.36,0,0,1-2.24.94,33.21,33.21,0,0,1-10.12,1.47,28.87,28.87,0,0,1-15.45-4,11.49,11.49,0,0,1-5.86,4.39,31.26,31.26,0,0,1-10.8,1.6h-.35l-.44,0c-1.76,0-3.69-.12-6-.3a20,20,0,0,1-13.21-5.77c-3.72-3.78-4.7-8.88-5.12-12.38-.13-1.16-.23-2.33-.29-3.51a14.3,14.3,0,0,1-6-4.35l-.18-.23a20.73,20.73,0,0,1-2.7,1.25c-.1,3-.46,6-.83,9.18-.08.61-.15,1.24-.22,1.87a10.35,10.35,0,0,1,.5,10,12.21,12.21,0,0,1-5.15,4.9,5.3,5.3,0,0,1-2.26,1A33.25,33.25,0,0,1,177.67,233,29,29,0,0,1,162.36,229a13.26,13.26,0,0,1-6,4.3,31.36,31.36,0,0,1-10.81,1.6h-.35l-.42,0c-2.31,0-4.55-.18-6-.3a20,20,0,0,1-13.22-5.77c-3.72-3.77-4.7-8.87-5.11-12.38a53,53,0,0,1-.33-8.45,27.75,27.75,0,0,1-13.6-6.05c-.3-.27-.6-.54-.89-.83a30.76,30.76,0,0,1-4.45,5.95,95.42,95.42,0,0,1-1.47,10.35,9.11,9.11,0,0,1,1.17,4.81,11.37,11.37,0,0,1-5.29,9.08A28.13,28.13,0,0,1,80.93,235a37.12,37.12,0,0,1-5.14-.36c-4.79-.67-8.6-1.78-11.4-4.43a11.63,11.63,0,0,1-4.27,4.48A28.13,28.13,0,0,1,45.5,238.41Z" transform="translate(0 -56.59)"/><path class="cls-1" d="M59.52,66.59a8.44,8.44,0,0,1,6.16,3.17,18.37,18.37,0,0,1,4.18,9.34A17.94,17.94,0,0,1,68.5,89.81a41,41,0,0,1,8.7,2.36c8.34,3.26,15.16,9,18.22,15.33C99,115,99.82,124.13,100,128.92a86.94,86.94,0,0,0,1.22,11.64c.13-1.21.25-2.42.4-3.63.71-5.65,3.35-19.12,12.63-22.83a52.14,52.14,0,0,1,7.05-17.61,33,33,0,0,1,2.62-3.38,6.24,6.24,0,0,1-.59-5,5.9,5.9,0,0,1,4.55-3.94,4.47,4.47,0,0,1,.82-.07,5.64,5.64,0,0,1,4.44,2.2,39.43,39.43,0,0,1,7-2.28,15.82,15.82,0,0,1-2.48-2.43,6.41,6.41,0,0,1-1.48-4.06c0-1.09.62-2.22,1.65-2.22h0c1.45,0,2.93,1.34,4,2.57a9.12,9.12,0,0,1-.54-3.67,4,4,0,0,1,.59-1.65,2,2,0,0,1,1.63-.93h0a2.69,2.69,0,0,1,1.67.76,6.88,6.88,0,0,1,1.74,3.46,5.24,5.24,0,0,1,.36-1,1.94,1.94,0,0,1,1.81-1,2.61,2.61,0,0,1,1,.21,2.58,2.58,0,0,1,1.36,1.63,4.69,4.69,0,0,1,.11,2,9.13,9.13,0,0,1-2.07,4.65c1.62-.11,3.16-.17,4.64-.17.61,0,1.21,0,1.79,0a4.31,4.31,0,0,1,4.21-2.88A5.22,5.22,0,0,1,164.08,81a4.77,4.77,0,0,1,.9,2.62A27.32,27.32,0,0,1,170.81,86a31.67,31.67,0,0,1,14.4,16.93.42.42,0,0,1,0,.1,17.87,17.87,0,0,1,5.81,3,20,20,0,0,1,6.6,12.81,18.44,18.44,0,0,1,.05,3,10.78,10.78,0,0,1,2.25,2.39h0c.13.2.24.41.37.62a65.9,65.9,0,0,1,3.23-12.91,48.33,48.33,0,0,1,12.43-19c0-3,.34-6,2.14-8a6.67,6.67,0,0,1,4.93-2.06c.21,0,.42,0,.63,0a8.76,8.76,0,0,1,5.14,2.44,42.5,42.5,0,0,1,16-3.19,39.58,39.58,0,0,1,5.57.39,7,7,0,0,1,3.62-3.31,6.25,6.25,0,0,1,2.05-.34,5.85,5.85,0,0,1,3.27,1,5.14,5.14,0,0,1,2.3,4.56,40.42,40.42,0,0,1,19.47,19.55A69.43,69.43,0,0,1,285.59,119c4.51,22.54,4.45,47.84,4.4,70.15q0,3.56,0,7c0,1.15-2.13,1.66-5.13,2.25a15.53,15.53,0,0,0-2.25.54,16.68,16.68,0,0,0-2.39,1.41,12.85,12.85,0,0,1-4.64,2.19,55.09,55.09,0,0,1-1.3,10.72,3.73,3.73,0,0,1,1.07,4.86,7.58,7.58,0,0,1-3.59,3.14s0,0,0,0a.39.39,0,0,1-.33.19.45.45,0,0,1-.11,0l-.19.08a27.59,27.59,0,0,1-8.91,1.34c-5.06,0-10.78-1.17-14.7-4.68-1.32-1.18-1.51-3.4-1.77-6.21l-.07-.79c-.09-1-.15-2-.19-3.07-.89,0-1.76-.11-2.59-.19-.14,1.43-.3,2.87-.47,4.3-.11,1-.23,2.06-.33,3.08a4.06,4.06,0,0,1,.88,5.16,6.43,6.43,0,0,1-3.79,3.09,26.9,26.9,0,0,1-9.08,1.29h-.32l0,0-.08,0c-2,0-4.08-.14-6-.29a15,15,0,0,1-10-4.29c-2.64-2.68-3.38-6.68-3.71-9.46a48.93,48.93,0,0,1-.32-6.73,11,11,0,0,1-7-3.65,14.53,14.53,0,0,1-1.06-1.58,10.31,10.31,0,0,0-1.55-2.09,1.06,1.06,0,0,0-.62-.23c-.36.34-.73.67-1.13,1a16.85,16.85,0,0,1-7.48,3.29,68.35,68.35,0,0,1-.76,12.35c-.15,1.28-.31,2.6-.45,4a5.51,5.51,0,0,1,1.32,6.09,7.56,7.56,0,0,1-3.59,3.13v0a.39.39,0,0,1-.33.19l-.11,0-.19.08a27.59,27.59,0,0,1-8.91,1.34c-5.06,0-10.78-1.17-14.7-4.68-2.11-1.89-2.64-6.92-2.56-12-.54,0-1.08,0-1.62,0-.14,2.47-.37,5.11-.68,8.05,1.7,1.41,1.61,4.44.76,6a7.77,7.77,0,0,1-4.23,3.39,26.86,26.86,0,0,1-9.08,1.29h-.35l-.08,0c-2,0-4.08-.13-6-.28a15,15,0,0,1-10-4.3c-2.64-2.68-3.38-6.68-3.71-9.46a48.77,48.77,0,0,1,.12-12.31c-5.6-.2-11.62-1.77-15.71-5.36a22.25,22.25,0,0,1-5.51-7.6,26.58,26.58,0,0,1-8,14.27,92.14,92.14,0,0,1-2,13.82v0a3.94,3.94,0,0,1,1.55,3.36,6.37,6.37,0,0,1-2.92,5,23.24,23.24,0,0,1-12,2.94,30.68,30.68,0,0,1-4.45-.32c-6.69-.93-9.24-2.47-10.88-6.57a19.64,19.64,0,0,1-.88-7c-1.34,0-2.7-.08-4.09-.2a62.07,62.07,0,0,1-.92,8.38,3.25,3.25,0,0,1,.61,2.54,5.69,5.69,0,0,1-2.83,3.63,23.24,23.24,0,0,1-12,2.94,32.12,32.12,0,0,1-4.45-.31c-6.57-.93-10.78-2.93-12.87-6.13-3.1-4.72-2.67-15.27-2.33-19.76a44.44,44.44,0,0,1-4.27-5.85c-.2,0-.4,0-.6,0a9.2,9.2,0,0,1-5.08-1.63,14,14,0,0,1-5.14-15.86,8.91,8.91,0,0,1,3.94-4.79,43.94,43.94,0,0,1,.27-7.69,91.44,91.44,0,0,1,2.28-11c.78-3.09,1.58-6.29,2.07-9.48a107.24,107.24,0,0,0,.9-13.85c.13-6.15.27-12.5,1.87-18.55A40.45,40.45,0,0,1,37.33,96.47a22.45,22.45,0,0,1-6.94-7.55,21.48,21.48,0,0,1-3.08-11.54c.19-3.73,1.68-6.58,4.19-8a7.54,7.54,0,0,1,3.84-1,11.56,11.56,0,0,1,5.21,1.39A21.46,21.46,0,0,1,49,78.18a21.2,21.2,0,0,1,3,12.08c.85-.15,1.73-.28,2.62-.41a19.16,19.16,0,0,1-3-7.85c-1.22-7.65,1.88-14.53,6.9-15.33a6.61,6.61,0,0,1,1-.08m0-10a15.94,15.94,0,0,0-2.58.21,16.7,16.7,0,0,0-9.67,5.28c-.71-.45-1.43-.87-2.16-1.25a21.46,21.46,0,0,0-9.77-2.48,17.65,17.65,0,0,0-8.84,2.34c-5.47,3.16-8.82,9.06-9.18,16.19a31.53,31.53,0,0,0,4.41,17c.43.74.88,1.45,1.35,2.15A50.31,50.31,0,0,0,12.43,116c-1.92,7.21-2.07,14.49-2.21,20.91a97.19,97.19,0,0,1-.79,12.53c-.42,2.73-1.16,5.7-1.88,8.56A104.31,104.31,0,0,0,5,170.21c-.18,1.46-.3,2.95-.35,4.46a19.79,19.79,0,0,0-3.3,5.74,24,24,0,0,0,9,27.69,20.1,20.1,0,0,0,5.28,2.51c-.33,9.78,1.06,17.12,4.16,21.84,3.77,5.75,10.26,9.2,19.85,10.55a42.58,42.58,0,0,0,5.84.41A33.17,33.17,0,0,0,62.75,239a17.28,17.28,0,0,0,2.66-2,32.12,32.12,0,0,0,9.68,2.65,42.58,42.58,0,0,0,5.84.41,33.17,33.17,0,0,0,17.25-4.44,16.49,16.49,0,0,0,7.66-13.18,14.36,14.36,0,0,0-1-5.6c.38-2.08.78-4.65,1.08-7.6.25-.29.5-.58.73-.87a33.19,33.19,0,0,0,8.37,3.67c.06,1.69.18,3.38.38,5.06.29,2.44,1.17,9.87,6.52,15.3a24.92,24.92,0,0,0,16.39,7.25c1.54.12,3.81.27,6.2.31l.66,0h.35a36.17,36.17,0,0,0,12.52-1.9,18.78,18.78,0,0,0,5.18-2.87A36.1,36.1,0,0,0,177.67,238,38.92,38.92,0,0,0,189,236.34a10.41,10.41,0,0,0,3.6-1.51,17.21,17.21,0,0,0,6.93-6.78,15.22,15.22,0,0,0,.26-13.32l0-.37c.07-.53.13-1.06.19-1.59.39,3,1.54,9.59,6.42,14.54a24.93,24.93,0,0,0,16.4,7.26c2.38.18,4.36.28,6.18.3.22,0,.45,0,.68,0h.35a36.21,36.21,0,0,0,12.52-1.9,17.77,17.77,0,0,0,5.16-2.88,36.25,36.25,0,0,0,14.43,2.8,38.92,38.92,0,0,0,11.37-1.62,10.36,10.36,0,0,0,3.59-1.51A17.17,17.17,0,0,0,284.1,223a13.63,13.63,0,0,0,.73-11.82c.1-.68.2-1.36.28-2l.67-.45.52-.34.49-.1a31.91,31.91,0,0,0,5.3-1.38C299.4,204.1,300,198,300,196.21c0-2,0-4,0-6v-1c.05-22.78.11-48.61-4.59-72.13a78.43,78.43,0,0,0-5.13-17.38,50,50,0,0,0-20-22.17,15.27,15.27,0,0,0-5.33-6.16,15.9,15.9,0,0,0-8.82-2.62,16.33,16.33,0,0,0-5.28.87A15.22,15.22,0,0,0,246.38,72c-.5,0-1,0-1.5,0A52.37,52.37,0,0,0,230,74.17a17.9,17.9,0,0,0-5.4-1.38c-.52-.05-1-.07-1.55-.07A16.6,16.6,0,0,0,210.75,78a18.71,18.71,0,0,0-4.5,10.33,56.87,56.87,0,0,0-7.81,10.77l-.75-.69a21.51,21.51,0,0,0-4.85-3.16,41.88,41.88,0,0,0-17.21-18.09c-1-.54-2-1-3-1.49-.17-.26-.35-.51-.54-.76a15.09,15.09,0,0,0-11.9-5.54l-.74,0A12.39,12.39,0,0,0,154.17,65a12.77,12.77,0,0,0-3.57-1,12.17,12.17,0,0,0-7.12-2.34h-.11a12,12,0,0,0-8.93,4.17,12,12,0,0,0-7.92,8.45l-.25,0a15.91,15.91,0,0,0-12.49,10.75A15.52,15.52,0,0,0,113,90.8l-.08.11a57,57,0,0,0-7.1,15.55c-.43-1.12-.91-2.23-1.44-3.32-4.19-8.67-12.79-16.07-23.58-20.29l-.72-.27a31.06,31.06,0,0,0-.39-5.06,28.39,28.39,0,0,0-6.61-14.45,18.34,18.34,0,0,0-13.6-6.48Z" transform="translate(0 -56.59)"/><path class="cls-2" d="M242.83,196.74c.54,5.31-.45,12.14-1.15,18.78a3.67,3.67,0,0,1,.95,4.81,6,6,0,0,1-3.59,2.92c-4.51,1.65-10.29,1.36-15.37,1a14.72,14.72,0,0,1-9.79-4.18c-2.37-2.4-3.21-5.9-3.61-9.24a48.79,48.79,0,0,1,.32-13.6,22.26,22.26,0,0,1,16.79-6.2C233.73,191.33,238.7,191.91,242.83,196.74Z" transform="translate(0 -56.59)"/><path class="cls-3" d="M229.74,224.52c.92-.84,1-3.81,0-5.78" transform="translate(0 -56.59)"/><path class="cls-3" d="M237.68,223.68c.55-1,.76-4.27-.29-5.73" transform="translate(0 -56.59)"/><path class="cls-2" d="M274.77,194.71a52.78,52.78,0,0,1-.92,18.75A3.39,3.39,0,0,1,275,218a7.45,7.45,0,0,1-4,3.23c-4.51,1.65-16.52,2.75-23.23-3.27-1.32-1.19-1.43-3.71-1.71-6.75a90.75,90.75,0,0,1,.52-18.35c4.6-4.38,6.42-4.2,12.76-3.88S270.64,189.88,274.77,194.71Z" transform="translate(0 -56.59)"/><path class="cls-3" d="M264.59,222.35c.92-.84,1.05-3.81,0-5.78" transform="translate(0 -56.59)"/><path class="cls-3" d="M271.41,221.15c.55-1,.76-4.27-.29-5.74" transform="translate(0 -56.59)"/><path class="cls-4" d="M289.6,196.2c0,1.37-5.9,1.89-7.15,2.45-2.48,1.12-3.83,2.95-7.22,3.64-3.16.65-6.85.85-10.92,1.88-2.09.54-7.46,2.47-12.73,3.35a34.29,34.29,0,0,1-9.33,0c-7.11-.76-13.81-3.6-21-3.86-3.25-.11-6.5.43-9.75.27s-6.69-1.17-8.71-3.72c-1-1.19-1.54-2.66-2.65-3.7s-3.76.62-4.65-.39,3.53-41.08,4.28-61.69a72.56,72.56,0,0,1,4.1-22.49,47.81,47.81,0,0,1,12.45-19c0-2.71.22-5.91,2-7.91a6.33,6.33,0,0,1,5.24-1.91,8.45,8.45,0,0,1,5.1,2.5,41.34,41.34,0,0,1,21.89-2.83,6.89,6.89,0,0,1,3.55-3.37,5.8,5.8,0,0,1,5,.57,4.76,4.76,0,0,1,2.1,4.47,40.41,40.41,0,0,1,19.53,19.48,69.72,69.72,0,0,1,4.4,15.16C290.19,143.93,289.61,171.5,289.6,196.2Z" transform="translate(0 -56.59)"/><path class="cls-3" d="M228.75,85.62a8.33,8.33,0,0,0-2.65,1.89" transform="translate(0 -56.59)"/><path class="cls-3" d="M250.64,82.79c1.12.21,3,.83,3,.83" transform="translate(0 -56.59)"/><path class="cls-3" d="M281.9,159a53.77,53.77,0,0,1-10.15,28.38" transform="translate(0 -56.59)"/><path class="cls-3" d="M213.55,177.25a42.63,42.63,0,0,0,6.94,14.15" transform="translate(0 -56.59)"/><circle class="cls-4" cx="241.53" cy="46.37" r="9.1"/><circle class="cls-4" cx="264.61" cy="45.18" r="8.2"/><circle cx="245.05" cy="44.93" r="1.63"/><circle cx="263.41" cy="43.38" r="1.56"/><path class="cls-1" d="M253.65,103.06c4-.17,16.35-1.34,19.53,12.55l-8.57,2.84Z" transform="translate(0 -56.59)"/><path class="cls-4" d="M253.65,103.06c4-.17,16.35-1.34,19.53,12.55" transform="translate(0 -56.59)"/><path class="cls-5" d="M158.3,201.79c.55,5.31.12,11-.58,17.65,1.63,1.17,1.67,4.1.82,5.64a7.43,7.43,0,0,1-4,3.22c-4.51,1.65-10.29,1.36-15.37,1a14.74,14.74,0,0,1-9.79-4.18c-2.37-2.4-3.21-5.9-3.61-9.24a48.8,48.8,0,0,1,.32-13.6,22.21,22.21,0,0,1,16.79-6.19C149.2,196.38,154.17,197,158.3,201.79Z" transform="translate(0 -56.59)"/><path class="cls-3" d="M145.21,229.57c.92-.84,1-3.81,0-5.78" transform="translate(0 -56.59)"/><path class="cls-3" d="M153.15,228.73c.55-1,.76-4.27-.29-5.73" transform="translate(0 -56.59)"/><path class="cls-5" d="M190.24,199.76c.55,5.31-.44,10.91-1.15,17.55a5.1,5.1,0,0,1,1.39,5.74,7.47,7.47,0,0,1-4,3.22c-4.51,1.65-16.51,2.75-23.23-3.27-4.13-3.7-1.94-20.61-1.19-25.1,4.6-4.38,6.42-4.2,12.77-3.87S186.11,194.93,190.24,199.76Z" transform="translate(0 -56.59)"/><path class="cls-3" d="M180.06,227.4c.92-.84,1.05-3.81,0-5.78" transform="translate(0 -56.59)"/><path class="cls-3" d="M186.88,226.2c.55-1,.76-4.27-.28-5.73" transform="translate(0 -56.59)"/><path class="cls-5" d="M164.35,85.57a4.85,4.85,0,0,0-.57-4.35,5.08,5.08,0,0,0-5.64-1,4.15,4.15,0,0,0-2.09,3.11A14.06,14.06,0,0,0,164.35,85.57Z" transform="translate(0 -56.59)"/><path class="cls-5" d="M215,151.36a18.92,18.92,0,0,1,3.12,8.47c.18,3-1,6.3-3.57,7.93a8,8,0,0,1-7.89.08,12.05,12.05,0,0,1-5.29-6.15,24.87,24.87,0,0,1-1.61-8.07c-.16-2.86-6.11-21.33-.79-19.94,2.4.63,9.43,9.12,11,10.89A45.69,45.69,0,0,1,215,151.36Z" transform="translate(0 -56.59)"/><path class="cls-6" d="M199.65,124.33a21.38,21.38,0,0,1,2.72,6.27c4.21,14.21,4.31,29.29,3.64,44.09-.35,7.83-1.44,17.34-8.06,22.55a18.1,18.1,0,0,1-11.1,3.63c-3.84.1-4.94-3.91-5.21-7.2-1-11.84,3.72-23.33,5.6-35.06a75.22,75.22,0,0,0-.59-27.05c-.54-2.59-1.16-5.49.26-7.72s4.11-2.94,6.44-3.19C195.93,120.37,198.24,122.3,199.65,124.33Z" transform="translate(0 -56.59)"/><path class="cls-7" d="M130.78,200c9.31,9.25,25.74,12.55,38.66,10.22,6.32-1.14,12.58-3.72,17-8.41,6.73-7.17,8-17.78,8.46-27.6.41-8.58.45-17.27-1.43-25.66-1.33-5.92-3.6-11.61-4.72-17.58-1.75-9.26-.71-19-3.87-27.92a31.2,31.2,0,0,0-14.23-16.72c-6.55-3.61-14.38-4.06-22-3.41a9,9,0,0,0,2.6-5.15,4.32,4.32,0,0,0-.1-1.86,2.21,2.21,0,0,0-1.15-1.4,1.89,1.89,0,0,0-2.37.57c-.87,1.77-.5,4.94-.5,4.94s-.17-5.51-2.18-7.27a2.28,2.28,0,0,0-1.44-.67,1.67,1.67,0,0,0-1.32.78,3.65,3.65,0,0,0-.53,1.49c-.32,2.08,1.48,6,1.48,6s-2.78-4.5-5.32-4.57c-.83,0-1.28,1-1.31,1.86a6.13,6.13,0,0,0,1.4,3.82,18.41,18.41,0,0,0,3,2.84c-4.38,1.1-12.77,2.76-19.3,12.47-8,12-8.89,29.54-8.7,33.63.57,12.22,3.18,25.95,6,37.86S121.85,191.08,130.78,200Z" transform="translate(0 -56.59)"/><path class="cls-5" d="M124.82,93.8a5.85,5.85,0,0,1-1.17-5.54,5.49,5.49,0,0,1,4.25-3.69A5.2,5.2,0,0,1,133,86.83c.86,1.72.12,3.74-1.46,5.14C129.52,93.78,126.73,94.7,124.82,93.8Z" transform="translate(0 -56.59)"/><path class="cls-5" d="M173.51,92.76a29.1,29.1,0,0,0-14.45-3.43,28.55,28.55,0,0,0-22,12.93,30.81,30.81,0,0,0-3.18,26.34c3,8.48,8.59,14.9,17.14,17.66A48.49,48.49,0,0,0,168.17,148c7.61-.58,14.37-2.74,20-7.88s9.9-13.75,9.12-21.34a19.7,19.7,0,0,0-6.47-12.57c-1.82-1.6-4.95-2.7-7.71-3.51A27.9,27.9,0,0,0,173.51,92.76Z" transform="translate(0 -56.59)"/><path class="cls-6" d="M114.59,114.35C105,118,102.52,132.45,102,137a196.16,196.16,0,0,0-.58,39.81c.62,7.75,2.81,16,8.66,21.15,5.43,4.77,14.48,6.07,21.62,4.92,12.43-2,15.55-10.28,16.45-17,1.64-12.37,2.63-39.28-6.25-51.79-6.37-9-16.73-10.34-28.25-14.16Z" transform="translate(0 -56.59)"/><path class="cls-5" d="M100.8,161.64a27.68,27.68,0,0,0-3.64,9.1c-.57,3.24-.67,7,1.47,9.53,4.06,4.72,11.94,3.95,14.76,2.2a63.94,63.94,0,0,0,11.5-9c3.43-3.41,6.49-7,7.23-11.81s-1.87-10-5.42-13.12c-3-2.56-8.39-4.11-12.17-2.32C108.82,148.89,102.19,159.26,100.8,161.64Z" transform="translate(0 -56.59)"/><path class="cls-8" d="M175.11,157.5a16,16,0,0,0,1.29,5,9.44,9.44,0,0,1,.73,5.06c-.48,2.26-2.41,4.05-2.69,6.34-.33,2.71,1.72,5.11,2.29,7.79.49,2.29-.13,4.65-.6,6.94a9.4,9.4,0,0,0-.26,3.21,3.52,3.52,0,0,0,1.66,2.64,4.18,4.18,0,0,0,3,.16,10.23,10.23,0,0,0,7.55-9.64c0-4.45-3-8.66-2.28-13.05.47-3,2.6-5.62,2.62-8.64a8.48,8.48,0,0,0-2.26-5.48,25.05,25.05,0,0,0-4.61-3.91c-1.24-.89-3.1-2-4.49-.77A5.94,5.94,0,0,0,175.11,157.5Z" transform="translate(0 -56.59)"/><path class="cls-8" d="M165,158.2a16.27,16.27,0,0,0,1.33,5.13,9.67,9.67,0,0,1,.74,5.2c-.49,2.32-2.47,4.15-2.75,6.5-.35,2.79,1.76,5.26,2.34,8,.51,2.35-.13,4.77-.61,7.12a9.4,9.4,0,0,0-.27,3.29,3.62,3.62,0,0,0,1.7,2.71,4.3,4.3,0,0,0,3.08.17,10.48,10.48,0,0,0,7.75-9.9c0-4.57-3.05-8.89-2.33-13.4.48-3.07,2.67-5.76,2.69-8.86a8.79,8.79,0,0,0-2.32-5.63,26,26,0,0,0-4.73-4c-1.28-.92-3.19-2.07-4.61-.79A6.06,6.06,0,0,0,165,158.2Z" transform="translate(0 -56.59)"/><path class="cls-3" d="M166.47,126.7a8.31,8.31,0,0,0,12.42.71" transform="translate(0 -56.59)"/><path class="cls-3" d="M166.55,105.16a8.07,8.07,0,0,1,6.15-1.55" transform="translate(0 -56.59)"/><circle cx="158.63" cy="48.16" r="1.63"/><circle cx="175.89" cy="44.9" r="1.56"/><ellipse cx="177.69" cy="107.63" rx="5.61" ry="2.94" transform="translate(-13.3 -30.71) rotate(-8.03)"/><path class="cls-8" d="M147.34,83c.51-.07.95-.13,1.26-.15" transform="translate(0 -56.59)"/><path class="cls-8" d="M140.87,84.23c.63-.15,1.42-.32,2.26-.49" transform="translate(0 -56.59)"/><path class="cls-3" d="M215,167.45a7.17,7.17,0,0,0-.73-6.09" transform="translate(0 -56.59)"/><path class="cls-3" d="M217.6,163.7a11.71,11.71,0,0,0-1.5-5.07" transform="translate(0 -56.59)"/><path class="cls-9" d="M66.2,202.29c-.52,6.6-2.07,16.15-.25,20.71,1.63,4.08,4.16,5.44,10.58,6.34,6.24.88,12.24-.12,16.19-2.57,2.51-1.55,4.11-5.78,1.16-7.85A90,90,0,0,0,96.07,200Z" transform="translate(0 -56.59)"/><ellipse class="cls-10" cx="19.73" cy="189.76" rx="9.1" ry="11.46" transform="translate(-57.54 -41.27) rotate(-17.95)"/><ellipse class="cls-9" cx="60.74" cy="80.55" rx="8.85" ry="13.68" transform="translate(-11.92 -46.03) rotate(-9.05)"/><path class="cls-9" d="M107.24,155.19c-.86-1.78-3.63-4.37-5.21-9.38-1.79-5.73-2.36-14-2.44-16.88-.21-7-1.46-15-4.5-21.27-2.64-5.44-8.73-11.51-18-15.15-10.28-4-19.19-2.9-25.44-1.8h0a20.52,20.52,0,0,0-2.94-12.35c-4.43-7.66-12-11.55-17-8.69s-5.4,11.4-1,19.06A21.71,21.71,0,0,0,38,96.46h0a40.16,40.16,0,0,0-15.55,22.17c-2.78,10.49-1.11,21.64-2.76,32.37-1.07,6.9-3.5,13.55-4.35,20.48a46.26,46.26,0,0,0,10.9,35.6c-.52,6.61-.44,15.58,2.25,19.68,2,3.09,6.18,5.06,12.61,6,6.24.87,12.24-.13,16.19-2.58,2.51-1.55,3.49-3.92,2-5.75a61.4,61.4,0,0,0,1-8.88c11.51,1,23.49-.93,32-7.67s12.09-12.43,13-28.21C110.84,173,111,162.88,107.24,155.19Z" transform="translate(0 -56.59)"/><path class="cls-3" d="M51.62,90.71A20.73,20.73,0,0,0,47.69,92" transform="translate(0 -56.59)"/><path class="cls-3" d="M26.24,207.08a8,8,0,0,0,2.25,1.53" transform="translate(0 -56.59)"/><path class="cls-3" d="M60.28,215.52A57.32,57.32,0,0,1,53.34,214" transform="translate(0 -56.59)"/><ellipse class="cls-11" cx="85.14" cy="112.43" rx="12.78" ry="12.33"/><path class="cls-3" d="M72.78,171.8s1-1,4.86-1.16" transform="translate(0 -56.59)"/><path class="cls-3" d="M73.25,164.5s1-1.21,4-1.17" transform="translate(0 -56.59)"/><circle class="cls-11" cx="60.47" cy="114.7" r="12.78"/><path class="cls-3" d="M73.19,172.56s-1.15-.83-5-.39" transform="translate(0 -56.59)"/><path class="cls-3" d="M71.83,165.43s-1.42-1-4.37-.54" transform="translate(0 -56.59)"/><path class="cls-9" d="M30.15,178c5.74,7.06,32.2,11.77,30.61,5.82-3.85-3-6.85-7.63-6.86-12.52a16.09,16.09,0,0,1,5.75-12.75c3.1-4-12.52,0-17.94-8.47" transform="translate(0 -56.59)"/><path class="cls-9" d="M92.76,151.65a9.35,9.35,0,0,1-1.06,3.06A3.18,3.18,0,0,1,89,156.29c-.61,0-1.17-.31-1.77-.39a1.25,1.25,0,0,0-1.38.81,13.57,13.57,0,0,1,5.95,13.13,13.72,13.72,0,0,1-9.06,11.3c-4.05,4.1,17.27,4.46,22.58-1.5" transform="translate(0 -56.59)"/><path class="cls-4" d="M97.14,122.93c0,16-10.12,27.57-28,27.57-16,0-30-11.55-30-27.57S51.25,94.69,67.27,94.69,97.14,106.91,97.14,122.93Z" transform="translate(0 -56.59)"/><path class="cls-12" d="M62.4,128.79c2.83,3.49,7,4.43,11.27,4.43,2.58,0,6-.63,7.24-2.9a2.69,2.69,0,0,0,0-2.85,3.5,3.5,0,0,0-2.85-.94c-3,0-6.07.45-8.85-.62-1.14-.44-2.18-1.12-3.31-1.61s-2.89-1-3.9-.21C60.65,125.21,61.52,127.7,62.4,128.79Z" transform="translate(0 -56.59)"/><path class="cls-13" d="M66.07,124.37l-.15-.07c-1.06-.46-2.89-1-3.9-.21-1.37,1.12-.5,3.61.38,4.7,2.65,3.26,6.47,4.3,10.45,4.42C72.15,129.47,68.78,126.91,66.07,124.37Z" transform="translate(0 -56.59)"/><path class="cls-4" d="M77,129a3.37,3.37,0,0,0,.69-2.48c-2.85,0-5.8.4-8.46-.62-1.14-.44-2.18-1.12-3.31-1.61s-2.89-1-3.9-.21c-1.37,1.12-.5,3.61.38,4.7l.09.09h.06a3.91,3.91,0,0,0,2.84-1,3.69,3.69,0,0,0,2.77,2.3,3.94,3.94,0,0,0,3.49-1.31,4.25,4.25,0,0,0,2.66,1.21A3.39,3.39,0,0,0,77,129Z" transform="translate(0 -56.59)"/><ellipse class="cls-14" cx="61.06" cy="111.37" rx="8.38" ry="7.99" transform="translate(-59.52 14.87) rotate(-42.95)"/><ellipse class="cls-14" cx="81.62" cy="108.49" rx="5.92" ry="8.28" transform="translate(-52.81 32.9) rotate(-45)"/><circle cx="62.94" cy="51.82" r="1.63"/><circle cx="80.19" cy="49.81" r="1.56"/><path class="cls-4" d="M56,103.74A8.4,8.4,0,0,0,65,100.06" transform="translate(0 -56.59)"/><path class="cls-4" d="M75.68,100.51a9.88,9.88,0,0,0,8.8.81" transform="translate(0 -56.59)"/><path class="cls-1" d="M78.73,110.14a13.38,13.38,0,0,1,9.42,3.34c3.51,3.14,4.34,7.19,3.43,12.39l-13.2-5.41Z" transform="translate(0 -56.59)"/><ellipse cx="78.01" cy="112.31" rx="4.35" ry="2.28" transform="matrix(0.99, -0.14, 0.14, 0.99, -14.93, -44.59)"/><path class="cls-3" d="M62.4,128.79c2.83,3.49,7,4.43,11.27,4.43,2.58,0,6-.63,7.24-2.9a2.69,2.69,0,0,0,0-2.85,3.5,3.5,0,0,0-2.85-.94c-3,0-6.07.45-8.85-.62-1.14-.44-2.18-1.12-3.31-1.61s-2.89-1-3.9-.21C60.65,125.21,61.52,127.7,62.4,128.79Z" transform="translate(0 -56.59)"/><path class="cls-3" d="M78.71,110.26a13.32,13.32,0,0,1,9.44,3.22c3.51,3.14,4.34,7.19,3.43,12.39" transform="translate(0 -56.59)"/></svg>