<svg xmlns="http://www.w3.org/2000/svg" viewBox="0 0 289.81 169.27">
  <defs>
    <style>
      .cls-1 {
        fill: #fff;
      }

      .cls-2 {
        fill: #fcfbff;
      }

      .cls-3 {
        fill: #c18c63;
      }

      .cls-4 {
        fill: #7e313e;
      }

      .cls-5 {
        fill: #fff2ee;
      }

      .cls-6 {
        fill: #6d686f;
      }

      .cls-7 {
        fill: #f8a5b8;
      }

      .cls-8 {
        fill: none;
        stroke: #000;
        stroke-miterlimit: 10;
        stroke-width: 2px;
      }

      .cls-9 {
        fill: #00000c;
      }

      .cls-10 {
        fill: #060203;
      }
    </style>
  </defs>
  <title>we bare bears</title>
  <g id="Слой_8" data-name="Слой 8">
    <path class="cls-1" d="M163.79,75.06a5.82,5.82,0,0,1,1.38.18c4.14,1,4.45,6.93,4.45,8.68a49,49,0,0,1,12.52,21.17,7.69,7.69,0,0,1,3.49-2.53,6.11,6.11,0,0,1,1.94-.31,8.33,8.33,0,0,1,4.18,1.27c1.88-1.56,8.51-6.15,22.17-6.15,1.7,0,3.51.08,5.43.23a4.75,4.75,0,0,1,4.42-2.79,6.81,6.81,0,0,1,1.49.17,5.81,5.81,0,0,1,4.54,5.71c2.89,1.33,14.55,7.57,22.25,24.6,7.05,15.62,12.86,26.49,16.71,33.68.8,1.5,1.51,2.81,2.1,3.95.4.77,1,1.75,1.64,2.88,4.87,8.35,15,25.73,11.79,49.94l-.09.66-.63.17c-14,3.91-28.6,5.19-41.68,5.19a214.22,214.22,0,0,1-44.41-4.65,174.56,174.56,0,0,1-49.68,7.21c-27.91,0-47.16-6.67-49.86-7.66-20.29,5.72-36,7.64-48,7.64-23.63,0-32.65-7.46-33.19-7.93l-.29-.25-.05-.37c-5.3-37.61,6.3-60.94,19.74-88,1.42-2.85,2.86-5.74,4.31-8.72,13.73-28.1,28.37-35.48,32-36.95a6.48,6.48,0,0,1,.91-4.34,6.18,6.18,0,0,1,4.7-2.5,9.75,9.75,0,0,1,1.3-.08,5.9,5.9,0,0,1,4.19,1.43A5,5,0,0,1,85,79.31c.48,0,1.12-.07,1.88-.07,4.67,0,14.24,1.2,24,9.54a8,8,0,0,1,2-.26A4.92,4.92,0,0,1,117,90.43a6,6,0,0,1,.5,5.9c1.11-2.43,3.17-6.22,6.06-8.46-.26-2.22-.75-9.62,4.08-11.13a5,5,0,0,1,1.52-.25,3.38,3.38,0,0,1,2.16.73,6,6,0,0,1,1.79,4c2.36-1.78,7.22-4.52,14.88-4.66h1.13A36,36,0,0,1,160.26,78a3.94,3.94,0,0,1,1.28-2.2,3.42,3.42,0,0,1,2.25-.76m-1.61,6.08-1.54-.82s-3.42-1.74-11.51-1.74H148c-10.22.18-15.08,5.44-15.13,5.49l-2,2.19.24-2.94c.07-.9,0-3.66-1.1-4.55a1.26,1.26,0,0,0-.9-.3,3.07,3.07,0,0,0-.92.17c-3.88,1.21-2.64,9.43-2.62,9.52l.1.62-.52.36C121,92,118.43,99.22,118.41,99.29l-.71,2L115,96.76l.3-.51s1.53-2.68.06-4.61a3,3,0,0,0-2.52-1.12,6,6,0,0,0-1.82.31l-.56.22-.45-.4c-9.49-8.3-19-9.38-23.32-9.38a19.44,19.44,0,0,0-2.41.13l-1.23.2.07-1.24a3.29,3.29,0,0,0-.93-2.29,4,4,0,0,0-2.8-.87,10.3,10.3,0,0,0-1.07.06,4.36,4.36,0,0,0-3.27,1.63,5,5,0,0,0-.48,3.63l.25.93-.93.29c-.16,0-16.57,5.37-31.64,36.21-1.45,3-2.9,5.88-4.32,8.73-13.79,27.72-24.69,49.64-19.6,86.39,1.66,1.21,10.92,7.14,31.93,7.14,11.84,0,27.4-1.88,47.45-7.56l.32-.09.32.12c.29.11,20,7.65,49.43,7.65a172.64,172.64,0,0,0,49.38-7.21l.26-.08.26.06a210.18,210.18,0,0,0,44.21,4.67,155.59,155.59,0,0,0,40.5-5c2.87-23.19-6.9-39.93-11.62-48-.67-1.15-1.26-2.15-1.68-3q-.88-1.69-2.09-3.93c-3.86-7.22-9.69-18.12-16.78-33.8-8.29-18.36-21.66-23.8-21.79-23.85l-.69-.27.06-.74c0-.14.22-3.63-3-4.33a5.11,5.11,0,0,0-1-.12,2.78,2.78,0,0,0-2.8,2.1l-.2.83-.86-.08c-2.17-.2-4.19-.29-6.07-.29-12.93,0-19.07,4.24-20.8,5.7a2,2,0,0,1-1.28.46,2.08,2.08,0,0,1-1-.28,6.35,6.35,0,0,0-3.18-1,4.07,4.07,0,0,0-1.3.21c-2.38.77-3.6,3.53-3.61,3.55l-1.25,2.87-.65-3.06c-2.9-13.64-12.71-22.65-12.81-22.74l-.35-.31,0-.47c0-.07.2-6.36-2.92-7.12a3.7,3.7,0,0,0-.88-.12,1.52,1.52,0,0,0-1,.3,2.84,2.84,0,0,0-.71,2l.07,1.74m1.61-16.08a13.43,13.43,0,0,0-7.14,2,58,58,0,0,0-7.57-.47h-1.31a38.42,38.42,0,0,0-11.51,1.92,13.28,13.28,0,0,0-7.14-2,15,15,0,0,0-4.5.7c-5.24,1.64-8.86,5.73-10.41,11.38h-.11a47.21,47.21,0,0,0-23.6-9.16l-.06,0a15.64,15.64,0,0,0-11-4.16,22.61,22.61,0,0,0-2.44.14A16.21,16.21,0,0,0,65.1,72.18a15.22,15.22,0,0,0-1.7,3.37C55.51,80.29,43,91,31.47,114.68c-1.43,2.92-2.86,5.8-4.25,8.59l0,.06C13.6,150.66.76,176.47,6.5,217.15l0,.37a10,10,0,0,0,3.35,6.16l.29.24c2,1.74,13.33,10.38,39.74,10.38,14,0,30-2.41,47.71-7.18,7.5,2.38,25.69,7.2,50.16,7.2a184.19,184.19,0,0,0,50-6.91,231.15,231.15,0,0,0,44,4.35,166.34,166.34,0,0,0,44.36-5.55l.64-.18a10,10,0,0,0,7.23-8.32l.08-.65c3.68-27.61-8.05-47.72-13.07-56.3l-.06-.11c-.55-.94-1.07-1.83-1.35-2.37q-.92-1.74-2.14-4c-3.78-7.06-9.5-17.74-16.42-33.07S244.36,97.75,238.28,94a15.59,15.59,0,0,0-10.88-8.74,16.82,16.82,0,0,0-3.63-.4,14.78,14.78,0,0,0-8.42,2.58l-1.43,0c-11,0-18.62,2.52-23.51,5.12a18.47,18.47,0,0,0-2.56-.24,61.13,61.13,0,0,0-8.58-12.68c-1.2-7.29-5.47-12.52-11.72-14a15.78,15.78,0,0,0-3.76-.46ZM140.05,91c.49-.4,3.07-2.35,8.12-2.44h1a25.18,25.18,0,0,1,7.26.81l1.09.57a9.52,9.52,0,0,0,2.14.84,9.13,9.13,0,0,0,1.26,1.38l.3.27c.4.39,7.66,7.46,9.79,17.46l.65,3a10,10,0,0,0,8.78,7.87c.34,0,.67,0,1,0a10,10,0,0,0,8.89-5.44,12.25,12.25,0,0,0,1.48.09,12,12,0,0,0,7.75-2.83c.15-.13,4.05-3.33,14.33-3.33,1.64,0,3.37.08,5.15.25l.85.08c.31,0,.62,0,.93,0l.59,0a10.18,10.18,0,0,0,2.69,1.58l.56.22c.86.39,10.24,4.9,16.48,18.71,7.22,16,13.15,27.07,17.07,34.4.78,1.47,1.47,2.75,2.05,3.86s1.2,2.16,1.91,3.37c3.94,6.75,10.87,18.63,10.77,34.95a153.33,153.33,0,0,1-31,3A202,202,0,0,1,200,205.38l-.22,0a9.71,9.71,0,0,0-2.39-.29,10.09,10.09,0,0,0-2.88.42l-.26.08a162.55,162.55,0,0,1-46.5,6.79c-27,0-45.27-6.77-45.82-7l-.28-.11a10.08,10.08,0,0,0-6.37-.32L95,205c-16.83,4.76-31.88,7.18-44.73,7.18-11.58,0-18.8-2-22.63-3.53C24.57,178,34,159,46.89,133.13l0-.08c1.4-2.82,2.85-5.73,4.3-8.71C63.37,99.51,76,93.7,77.07,93.22l.66-.2a9.92,9.92,0,0,0,3.2-1.65,10,10,0,0,0,2.12.23,9.59,9.59,0,0,0,1.6-.13l1-.16a8.6,8.6,0,0,1,1,0c2.66,0,9.61.67,16.73,6.91l.46.39a9.3,9.3,0,0,0,1.56,1.12,9.58,9.58,0,0,0,1,2.15l2.7,4.58a10,10,0,0,0,8.61,4.91c.33,0,.66,0,1,0a10,10,0,0,0,8.46-6.66l.69-2a16.36,16.36,0,0,1,3-5.25l.5-.35a9.43,9.43,0,0,0,1.1-.88A10,10,0,0,0,138.3,93L140.05,91Z" transform="translate(-5.1 -65.06)"/>
  </g>
  <g id="Слой_7" data-name="Слой 7">
    <path class="cls-2" d="M283.3,215.61c3.63-27.23-10-45.8-13.33-52.23s-10.26-18.69-18.84-37.68-22.34-24.36-22.34-24.36.36-4.49-3.75-5.39a4,4,0,0,0-5,2.71c-17.55-1.62-25.58,3.93-27.61,5.64a1,1,0,0,1-1.17.08c-6.49-3.82-9.52,3.23-9.52,3.23-3-14.15-13.11-23.27-13.11-23.27s.33-7.16-3.68-8.14-3.82,3.23-3.82,3.23-3.76-2-13.14-1.84c-10.84.19-15.86,5.82-15.86,5.82s.6-7.23-4.21-5.72-3.31,10.63-3.31,10.63C120.07,91.43,117.46,99,117.46,99l-1.3-2.21s1.9-3.21,0-5.72-5.5-1.14-5.5-1.14c-13.32-11.65-26.54-9.48-26.54-9.48s.27-4.86-5.92-4.14-4.6,6.5-4.6,6.5-16.76,5-32.25,36.74-29.77,54.93-24,96.1c0,0,19.84,17.2,80.59,0,0,0,43.56,17.16,99.46.46C197.44,216.07,242.33,227,283.3,215.61Z" transform="translate(-5.1 -65.06)"/>
    <path class="cls-3" d="M109.25,89.62S117.36,96.47,120,107c0,0,6.88,0,7.85,9s-8.07,20.55-8.07,20.55,9.57,1.07,9.9,7.95-4.74,14.09-25.71,20.55c0,0-8.14,26.4-6,49.89l.06.6c-60.75,17.21-80.59,0-80.59,0-5.81-41.16,8.47-64.39,24-96.1S73.6,82.78,73.6,82.78,72,77,78.2,76.27s5.92,4.15,5.92,4.15,13.22-2.17,26.54,9.48c0,0,3.59-1.37,5.5,1.14s0,5.72,0,5.72l1.3,2.21" transform="translate(-5.1 -65.06)"/>
    <path class="cls-4" d="M108,126.38s-2.76,5.1-10.44,8.11-20.34,1.22-24.24-10.32-.89-19.65,6.58-20.13,17.66,12.82,17.66,12.82a30,30,0,0,1,11.67-1.26,22.7,22.7,0,0,0-1.4,5.69C107.85,123.28,108,126.38,108,126.38Z" transform="translate(-5.1 -65.06)"/>
    <path class="cls-5" d="M98,116.73a3.11,3.11,0,0,1-4.43.38c-2.51-2-.14-4.63-.14-4.63s-2,2.84-4.28,1.38c-2.91-1.84-.45-5.73-.45-5.73s-2.6,3.7-5.77,1.75S81.14,104,81.14,104s4,.54,9,5a54.57,54.57,0,0,1,7.41,7.83Z" transform="translate(-5.1 -65.06)"/>
    <path class="cls-6" d="M226.18,160.88s-8.88,1.16-23.26-2S177,151.36,169,155.38s-5.82,10.6-1.8,15.45,24.52,19,51.16,16.58" transform="translate(-5.1 -65.06)"/>
    <path class="cls-7" d="M71.72,116.88a14.05,14.05,0,0,1,12,3.43c5.67,5,4.13,15.38,4.13,15.38s-8.89-1.34-13-8C71.64,121.54,71.72,116.88,71.72,116.88Z" transform="translate(-5.1 -65.06)"/>
    <path class="cls-6" d="M209.49,160.48c36.77-2,46.32-24.7,46.32-24.7l10.29,20.34,8,14.6s-24.6,38.61-77.26,31.9l-.68-6.7-.71-3.87-1.84-6.91Z" transform="translate(-5.1 -65.06)"/>
    <path class="cls-6" d="M264,220.22l17-4.53a3.25,3.25,0,0,0,1.39-.62,3.09,3.09,0,0,0,.78-1.55,31,31,0,0,0,1.1-8.52c0-.7.3-3.29-.73-3-.76.22-1.58,2.17-2,2.8A50,50,0,0,1,271.2,215.6,49.39,49.39,0,0,1,264,220.22Z" transform="translate(-5.1 -65.06)"/>
    <path class="cls-6" d="M193.39,103.86a83.46,83.46,0,0,0-8.83,10.77,4.62,4.62,0,0,1-2.73-3,5.84,5.84,0,0,1,.28-4,6.87,6.87,0,0,1,8.75-3.74,6.41,6.41,0,0,0,1.46.48A.9.9,0,0,0,193.39,103.86Z" transform="translate(-5.1 -65.06)"/>
    <path class="cls-6" d="M228.57,102a3.78,3.78,0,0,0-.59-3.54,6.15,6.15,0,0,0-3-2.06,5,5,0,0,0-1.75-.3,2.77,2.77,0,0,0-1.66.56,6.61,6.61,0,0,0-1,1.18,2.79,2.79,0,0,1-.68.69c-.14.09-.75.25-.74.37,0,.34,1.78.57,2.06.64,1.61.41,3.2.9,4.76,1.45C226.83,101.27,227.71,101.6,228.57,102Z" transform="translate(-5.1 -65.06)"/>
    <path class="cls-6" d="M194.61,112.45a9,9,0,0,0-1.82,4.51,5.68,5.68,0,0,0,1.56,4.51,6.15,6.15,0,0,0,6.34,1,13.06,13.06,0,0,0,5.26-4.13,8.64,8.64,0,0,0,2.44-5.22,5.69,5.69,0,0,0-3.64-5.15C200.59,106.33,197,109.29,194.61,112.45Z" transform="translate(-5.1 -65.06)"/>
    <path class="cls-6" d="M227.37,115.79a5.36,5.36,0,0,0,1.31-5.41,9,9,0,0,0-3.49-4.59,8.11,8.11,0,0,0-3.34-1.55,5.76,5.76,0,0,0-5.75,9,9.29,9.29,0,0,1,5.69,0A23.38,23.38,0,0,1,227.37,115.79Z" transform="translate(-5.1 -65.06)"/>
  </g>
  <g id="Слой_6" data-name="Слой 6">
    <path class="cls-8" d="M283.3,215.61c3.63-27.23-10-45.8-13.33-52.23s-10.26-18.69-18.84-37.68-22.34-24.36-22.34-24.36.36-4.49-3.75-5.39a4,4,0,0,0-5,2.71c-17.55-1.62-25.58,3.93-27.61,5.64a1,1,0,0,1-1.17.08c-6.49-3.82-9.52,3.23-9.52,3.23-3-14.15-13.11-23.27-13.11-23.27s.33-7.16-3.68-8.14-3.82,3.23-3.82,3.23-3.76-2-13.14-1.84c-10.84.19-15.86,5.82-15.86,5.82s.6-7.23-4.21-5.72-3.31,10.63-3.31,10.63C120.07,91.43,117.46,99,117.46,99l-1.3-2.21s1.9-3.21,0-5.72-5.5-1.14-5.5-1.14c-13.32-11.65-26.54-9.48-26.54-9.48s.27-4.86-5.92-4.14-4.6,6.5-4.6,6.5-16.76,5-32.25,36.74-29.77,54.93-24,96.1c0,0,19.84,17.2,80.59,0,0,0,43.56,17.16,99.46.46C197.44,216.07,242.33,227,283.3,215.61Z" transform="translate(-5.1 -65.06)"/>
    <path d="M72.21,83.72a31.13,31.13,0,0,1,7.89-2.5,26.71,26.71,0,0,1,8.27-.37c-2.73.44-5.41.84-8.09,1.35S74.94,83.25,72.21,83.72Z" transform="translate(-5.1 -65.06)"/>
    <path d="M109.25,89.62a15.07,15.07,0,0,1,3.89,3.49,40.17,40.17,0,0,1,3.09,4.23,31.08,31.08,0,0,1,2.42,4.65,28.16,28.16,0,0,1,1.6,5l-.25-.2h0a7.87,7.87,0,0,1,4.29,1.54,8.79,8.79,0,0,1,2.82,3.57,15,15,0,0,1,.83,8.94,32.7,32.7,0,0,1-3.07,8.44,53.15,53.15,0,0,1-4.75,7.61l-.29-.69a17.22,17.22,0,0,1,6,1.93,8.2,8.2,0,0,1,4.09,4.82,9.41,9.41,0,0,1,.24,3.2,12.29,12.29,0,0,1-.65,3.12,14.23,14.23,0,0,1-3.46,5.26,35.49,35.49,0,0,1-10.38,6.73,85.5,85.5,0,0,1-11.56,4.22h0l.24-.24c-1.1,4.09-2,8.25-2.86,12.4s-1.53,8.36-2.1,12.56-.92,8.44-1.18,12.67c-.06,1.06-.1,2.12-.13,3.18s-.08,2.12-.1,3.18q0,3.18,0,6.39a69.27,69.27,0,0,1-.84-12.79,114,114,0,0,1,1-12.79c.53-4.24,1.28-8.45,2.19-12.63s2-8.31,3.28-12.39l.06-.19.18,0h0a103,103,0,0,0,11.4-4.35,34.77,34.77,0,0,0,10.06-6.59,13.89,13.89,0,0,0,3.24-4.9,11.15,11.15,0,0,0,.62-2.86,8.36,8.36,0,0,0-.2-2.88,7.24,7.24,0,0,0-3.63-4.29,16.27,16.27,0,0,0-5.62-1.86l-.73-.11.45-.58a52.28,52.28,0,0,0,4.71-7.45,32.09,32.09,0,0,0,3.06-8.22,14.53,14.53,0,0,0-.69-8.53,8.19,8.19,0,0,0-2.58-3.37,7.47,7.47,0,0,0-4-1.49h-.19l-.06-.19a37.41,37.41,0,0,0-4.24-9.31,39.57,39.57,0,0,0-3-4.17C111.42,92.3,110.3,91,109.25,89.62Z" transform="translate(-5.1 -65.06)"/>
    <path d="M72.6,164.29a17.07,17.07,0,0,0,4.2,1.48,32.24,32.24,0,0,0,4.38.71,52.53,52.53,0,0,0,8.87.1c1.48,0,3-.26,4.43-.39s3-.43,4.42-.61l4.4-.8c1.47-.29,2.93-.61,4.4-.88-1.41.49-2.85.91-4.28,1.36s-2.92.71-4.38,1.07-3,.56-4.44.79-3,.4-4.49.45a40.16,40.16,0,0,1-9-.33A20.24,20.24,0,0,1,72.6,164.29Z" transform="translate(-5.1 -65.06)"/>
    <path d="M120.28,149.72a8.56,8.56,0,0,1,2-1.49,11.31,11.31,0,0,1,2.36-.95,9,9,0,0,1,2.54-.31,5.51,5.51,0,0,1,2.47.66,16.08,16.08,0,0,0-2.43.12,20.38,20.38,0,0,0-2.32.5C123.39,148.66,121.89,149.22,120.28,149.72Z" transform="translate(-5.1 -65.06)"/>
    <path d="M121,141.2a14.79,14.79,0,0,1,4.09-.1,14.31,14.31,0,0,1,4,.89,14.71,14.71,0,0,1-4.08.1A15.22,15.22,0,0,1,121,141.2Z" transform="translate(-5.1 -65.06)"/>
    <path d="M74.44,138.21c4.11-.48,8.23-.81,12.35-1.1s8.26-.47,12.39-.65,8.27-.2,12.4-.11c2.07.06,4.14.14,6.21.29,1,.09,2.06.2,3.09.35a13,13,0,0,1,3,.72,27.43,27.43,0,0,0-6.14-.58c-2.05,0-4.12,0-6.18,0-4.12.07-8.25.16-12.37.34l-12.38.41-6.19.2Z" transform="translate(-5.1 -65.06)"/>
    <path d="M91.05,89.65a34.54,34.54,0,0,0,4.13.41,5.78,5.78,0,0,0,1.91-.28,4.53,4.53,0,0,0,1.67-1.1,2.91,2.91,0,0,1-1.33,1.8,4.38,4.38,0,0,1-2.24.58,6.73,6.73,0,0,1-2.2-.38A6.14,6.14,0,0,1,91.05,89.65Z" transform="translate(-5.1 -65.06)"/>
    <path d="M108,92.74a12.67,12.67,0,0,0,2.25,2.79,9,9,0,0,0,1.4,1c.5.32,1,.56,1.63.89a4.19,4.19,0,0,1-2-.18,4.74,4.74,0,0,1-1.74-1,4.82,4.82,0,0,1-1.19-1.61A3.89,3.89,0,0,1,108,92.74Z" transform="translate(-5.1 -65.06)"/>
    <path d="M105.83,102.73A4.61,4.61,0,0,1,108,102a5,5,0,0,1,2.35.32,4.65,4.65,0,0,1,1.92,1.4,4.74,4.74,0,0,1,1,2,19.76,19.76,0,0,0-1.57-1.5,6.31,6.31,0,0,0-1.75-1A9.24,9.24,0,0,0,105.83,102.73Z" transform="translate(-5.1 -65.06)"/>
    <path d="M85.12,94.69a7.05,7.05,0,0,1,2.63-.12,8,8,0,0,1,2.58.79,5.84,5.84,0,0,1,2,1.81,4.58,4.58,0,0,1,.78,2.55,9.14,9.14,0,0,0-1.39-2.07,7.81,7.81,0,0,0-1.91-1.41A20.43,20.43,0,0,0,85.12,94.69Z" transform="translate(-5.1 -65.06)"/>
    <path d="M112.9,109.88a18.47,18.47,0,0,0-2.79,4.71,23.17,23.17,0,0,0-1.47,5.22,24.46,24.46,0,0,0-.28,2.7c-.09.91,0,1.82,0,2.73s.13,1.83.17,2.75.26,1.83.34,2.76c-.3-.88-.57-1.77-.82-2.68s-.4-1.83-.47-2.77a21.83,21.83,0,0,1,.1-5.65,18.53,18.53,0,0,1,1.76-5.39A12.88,12.88,0,0,1,112.9,109.88Z" transform="translate(-5.1 -65.06)"/>
    <path d="M109.24,115.65a34.87,34.87,0,0,0-5.87.24c-1,.12-1.93.29-2.88.5a24.8,24.8,0,0,0-2.79.83l-.25.08-.17-.21a63.84,63.84,0,0,0-7.74-8,31.08,31.08,0,0,0-4.49-3.25,9.93,9.93,0,0,0-5.17-1.54,7.91,7.91,0,0,0-5,2,9.34,9.34,0,0,0-2.62,4.78c-.8,3.64-.17,7.42.84,11a26.09,26.09,0,0,0,.9,2.62l.53,1.27c.2.41.45.79.67,1.2a17.11,17.11,0,0,0,1.54,2.24,18.5,18.5,0,0,0,2,1.9A16.17,16.17,0,0,0,83.38,134a18,18,0,0,0,5.32,1.21,21.38,21.38,0,0,0,5.48-.21,20.39,20.39,0,0,0,5.23-1.7,23.44,23.44,0,0,0,4.74-2.88,17.67,17.67,0,0,0,3.83-4l.09,0a21.39,21.39,0,0,1-19.45,9.78A19.39,19.39,0,0,1,83,135a18.49,18.49,0,0,1-2.63-1.23A17.67,17.67,0,0,1,78,132c-3.05-2.45-4.78-6.16-5.71-9.79A23.5,23.5,0,0,1,71.9,111,10,10,0,0,1,74.66,106a8.53,8.53,0,0,1,5.19-2.21,10.53,10.53,0,0,1,5.54,1.37,25.22,25.22,0,0,1,4.71,3.2,42.19,42.19,0,0,1,4.1,3.92c1.29,1.38,2.52,2.81,3.68,4.31l-.43-.12a25.26,25.26,0,0,1,5.87-1.12,28.66,28.66,0,0,1,5.93.16Z" transform="translate(-5.1 -65.06)"/>
    <path d="M81.14,104a6.31,6.31,0,0,0,0,3.23,4.06,4.06,0,0,0,1.93,2.35,3.1,3.1,0,0,0,2.85.18,5.81,5.81,0,0,0,2.33-1.93l.79.52a6.38,6.38,0,0,0-.85,2.47,2.61,2.61,0,0,0,.68,2.22,2.2,2.2,0,0,0,2.14.65,4.14,4.14,0,0,0,2-1.48l.67.52a4,4,0,0,0-1,2,2.28,2.28,0,0,0,.85,2,3.27,3.27,0,0,0,2.15.93,3.36,3.36,0,0,0,2.22-1,3.31,3.31,0,0,1-2.2,1.3,3.44,3.44,0,0,1-2.52-.81,2.93,2.93,0,0,1-1.21-2.46,4.51,4.51,0,0,1,1-2.56l.67.52a5,5,0,0,1-2.45,1.91,2.83,2.83,0,0,1-1.68,0,3.57,3.57,0,0,1-1.4-.85,3.52,3.52,0,0,1-1-3,7.44,7.44,0,0,1,1-2.87l.8.52a6.6,6.6,0,0,1-2.8,2.18,3.84,3.84,0,0,1-3.5-.41,4.35,4.35,0,0,1-2-2.81A6,6,0,0,1,81.14,104Z" transform="translate(-5.1 -65.06)"/>
    <path d="M100.27,100a1.73,1.73,0,0,1,1.42-.15,1.77,1.77,0,0,1,1.09.94,2.2,2.2,0,0,1-1.39,0A2.25,2.25,0,0,1,100.27,100Z" transform="translate(-5.1 -65.06)"/>
    <path class="cls-9" d="M97.34,100.68a6.57,6.57,0,0,1,2.56.32,15.43,15.43,0,0,1,5,2.53,3,3,0,0,1,1.2,1.47,2,2,0,0,1-.89,2.12,3.3,3.3,0,0,1-2.37.39,8.87,8.87,0,0,1-2.3-.85,27.31,27.31,0,0,1-3.59-2c-.77-.52-1.89-1.36-1.85-2.41S96.54,100.77,97.34,100.68Z" transform="translate(-5.1 -65.06)"/>
    <circle class="cls-9" cx="137.51" cy="29.02" r="1.59"/>
    <circle class="cls-9" cx="155.01" cy="29.27" r="1.59"/>
    <path class="cls-10" d="M157.07,96.6c.8.31,1.63.88,1.66,1.73a2.22,2.22,0,0,1-1.38,1.81,7.68,7.68,0,0,1-4.73.8c-1.16-.18-4.56-1.17-3.8-3,.63-1.48,3.66-1.92,5-1.95A8.21,8.21,0,0,1,157.07,96.6Z" transform="translate(-5.1 -65.06)"/>
    <path d="M135,100.81a15.73,15.73,0,0,1,6.84,10.06,10.26,10.26,0,0,1,.21,1.56,8.23,8.23,0,0,1,.08,1.57l-.06,1.56c-.08.52-.17,1-.26,1.55l-.14.76c-.07.25-.15.5-.23.75l-.48,1.47c-.4,1-.87,1.87-1.33,2.78.26-1,.62-1.94.86-2.93l.31-1.48.16-.73.07-.75.17-1.48,0-1.49a8.12,8.12,0,0,0-.1-1.48,8.87,8.87,0,0,0-.22-1.46,17.21,17.21,0,0,0-2.11-5.54A21.18,21.18,0,0,0,135,100.81Z" transform="translate(-5.1 -65.06)"/>
    <path d="M147.49,118.88c1.14.36,2.13.84,3.13,1.26a14.08,14.08,0,0,0,1.49.55,4,4,0,0,0,1.61.19,2.26,2.26,0,0,1-1.72.58,5,5,0,0,1-1.77-.4A6.43,6.43,0,0,1,147.49,118.88Z" transform="translate(-5.1 -65.06)"/>
    <path d="M160.11,97a14.65,14.65,0,0,1,6.41,4.7,11.83,11.83,0,0,1,1.9,3.62,11.39,11.39,0,0,1,.42,2c0,.34.1.69.1,1v1a22.44,22.44,0,0,1-1.82,7.83,18,18,0,0,1-4.6,6.48,18.27,18.27,0,0,0,2.24-3.23A23.23,23.23,0,0,0,166.4,117a25.68,25.68,0,0,0,1.53-7.58l0-1c0-.31-.06-.62-.08-.94a10.72,10.72,0,0,0-.36-1.86,12.41,12.41,0,0,0-1.61-3.44,15,15,0,0,0-2.58-2.88A17.72,17.72,0,0,0,160.11,97Z" transform="translate(-5.1 -65.06)"/>
    <path d="M159.36,79.18a17.75,17.75,0,0,1,3.17,1.18,25.2,25.2,0,0,1,3,1.66,16.37,16.37,0,0,1,4.87,4.69c-.91-.69-1.79-1.35-2.68-2s-1.82-1.25-2.74-1.86C163.1,81.63,161.22,80.48,159.36,79.18Z" transform="translate(-5.1 -65.06)"/>
    <path d="M127.84,151.48a46,46,0,0,1,4.94-6.29,25.92,25.92,0,0,1,6.29-5.05A9.94,9.94,0,0,1,143,138.9a7.69,7.69,0,0,1,2.1.16,15.71,15.71,0,0,1,2,.48,9.55,9.55,0,0,1,3.62,2.05,6.42,6.42,0,0,1,2.08,3.73l-.94-.17a10.58,10.58,0,0,1,2.43-3,8.37,8.37,0,0,1,3.45-1.81,9.71,9.71,0,0,1,7.41,1.48,17.32,17.32,0,0,1,5.23,5.38,26.2,26.2,0,0,1,3,6.8,28.06,28.06,0,0,0-3.43-6.53,16.85,16.85,0,0,0-5.22-5,9.3,9.3,0,0,0-6.8-1.25,8.67,8.67,0,0,0-5.21,4.4l-.7,1.31-.24-1.49a5.73,5.73,0,0,0-1.75-3.11,8.65,8.65,0,0,0-3.25-1.88,14.76,14.76,0,0,0-1.88-.47,7,7,0,0,0-1.87-.17,10.25,10.25,0,0,0-3.65,1.06,25.57,25.57,0,0,0-6.28,4.71A53.4,53.4,0,0,0,127.84,151.48Z" transform="translate(-5.1 -65.06)"/>
    <path d="M174,145.15a2.76,2.76,0,0,1-.18,1.25,4.05,4.05,0,0,1-.61,1.09,3.25,3.25,0,0,1-1,.82,2,2,0,0,1-1.27.22c.31-.31.56-.57.8-.84l.68-.83A12.66,12.66,0,0,1,174,145.15Z" transform="translate(-5.1 -65.06)"/>
    <path d="M151.77,144.45a32.5,32.5,0,0,1-1.56,17.82,26.7,26.7,0,0,1-4.7,7.79,27.87,27.87,0,0,1-7,5.87,22.18,22.18,0,0,1-8.66,2.91,15.66,15.66,0,0,1-9-1.53,12.37,12.37,0,0,1-5.91-6.82,27.59,27.59,0,0,1-1.23-4.35,12.17,12.17,0,0,1-.12-4.5,12.75,12.75,0,0,0,.38,4.44,26.32,26.32,0,0,0,1.43,4.23,11.72,11.72,0,0,0,5.8,6.31,15.31,15.31,0,0,0,8.53,1.31,21.21,21.21,0,0,0,8.25-2.86A27.51,27.51,0,0,0,149.5,162a31.3,31.3,0,0,0,2.26-8.59A34.74,34.74,0,0,0,151.77,144.45Z" transform="translate(-5.1 -65.06)"/>
    <path d="M140.33,145.77a10.46,10.46,0,0,1,2.34-3.43,10.2,10.2,0,0,1,3.44-2.34,29.75,29.75,0,0,1-2.73,3A28.74,28.74,0,0,1,140.33,145.77Z" transform="translate(-5.1 -65.06)"/>
    <path d="M146.12,150.39a10.22,10.22,0,0,1,2-3.77,10.12,10.12,0,0,1,3.25-2.74,36,36,0,0,1-2.47,3.36A39.55,39.55,0,0,1,146.12,150.39Z" transform="translate(-5.1 -65.06)"/>
    <path d="M152.84,144.24a6.59,6.59,0,0,1,4.28,5.06,32.87,32.87,0,0,1-2.22-2.46C154.21,146,153.5,145.21,152.84,144.24Z" transform="translate(-5.1 -65.06)"/>
    <path d="M157.75,140.88a6.63,6.63,0,0,1,4.36,5,31.58,31.58,0,0,1-2.27-2.42A32.58,32.58,0,0,1,157.75,140.88Z" transform="translate(-5.1 -65.06)"/>
    <path d="M150,161.91c.53,1.35,1.1,2.69,1.75,4a38.67,38.67,0,0,0,2.08,3.79,25.09,25.09,0,0,0,5.52,6.46,18.41,18.41,0,0,0,1.73,1.2,17.56,17.56,0,0,0,1.9.93,14.29,14.29,0,0,0,4.07,1.06,12.26,12.26,0,0,0,4.22-.29,6.4,6.4,0,0,0,3.65-2.08,4.26,4.26,0,0,1-1.52,1.58,9.17,9.17,0,0,1-2,1,12.67,12.67,0,0,1-4.41.59,14.52,14.52,0,0,1-8.26-3.18,22.07,22.07,0,0,1-5.57-6.86A33.05,33.05,0,0,1,150,161.91Z" transform="translate(-5.1 -65.06)"/>
    <path d="M226.18,160.88a53,53,0,0,1-8.26.23q-4.14-.18-8.25-.75c-5.47-.74-10.84-2.1-16.2-3.35s-10.71-2.66-16.15-2.78a17.7,17.7,0,0,0-7.84,1.46c-2.39,1.11-4.63,2.94-5.22,5.46s.42,5.19,1.86,7.42a17.64,17.64,0,0,0,2.53,3.11,37.52,37.52,0,0,0,3.13,2.6,67.16,67.16,0,0,0,14.34,7.89,72.68,72.68,0,0,0,32.23,5.24,69.12,69.12,0,0,1-16.51-.31,72.05,72.05,0,0,1-16-4.22,64.34,64.34,0,0,1-14.6-7.87,37.2,37.2,0,0,1-3.24-2.66,18.9,18.9,0,0,1-2.68-3.26,14.53,14.53,0,0,1-1.84-3.85,8.46,8.46,0,0,1-.19-4.33,7.69,7.69,0,0,1,2.23-3.72,12.64,12.64,0,0,1,3.55-2.36,18.73,18.73,0,0,1,8.27-1.51,47.62,47.62,0,0,1,8.26,1.05c2.71.54,5.39,1.22,8.06,1.9,5.34,1.34,10.65,2.77,16.09,3.61A72.3,72.3,0,0,0,226.18,160.88Z" transform="translate(-5.1 -65.06)"/>
    <path d="M163.63,161.84a5.69,5.69,0,0,1,7.21,1.31,23,23,0,0,0-3.54-1A21.43,21.43,0,0,0,163.63,161.84Z" transform="translate(-5.1 -65.06)"/>
    <path d="M167.49,156.12a5.23,5.23,0,0,1,2.78.09,6.41,6.41,0,0,1,1.28.53,1.91,1.91,0,0,1,1,1.09,5.36,5.36,0,0,0-1.26-.36c-.42-.08-.86-.19-1.28-.3A10.1,10.1,0,0,1,167.49,156.12Z" transform="translate(-5.1 -65.06)"/>
    <path d="M195.5,102.91a30.72,30.72,0,0,0-5.24,4.68A34.14,34.14,0,0,0,188,110.3c-.34.47-.71.92-1,1.41l-.93,1.48A44.83,44.83,0,0,0,180.72,126l-.74,3.42c-.23,1.15-.3,2.32-.46,3.47a68.26,68.26,0,0,0-.39,7l0,.88.05.88.1,1.75.19,3.52c.27,2.33.61,4.66.87,7-.48-2.31-.92-4.63-1.36-6.95l-.33-3.53-.17-1.77-.08-.89V140a52.76,52.76,0,0,1,.26-7.11c.14-1.18.2-2.37.42-3.54l.71-3.5a43.37,43.37,0,0,1,5.67-13l1-1.47c.35-.48.74-.93,1.11-1.39a29.86,29.86,0,0,1,2.37-2.65A27.63,27.63,0,0,1,195.5,102.91Z" transform="translate(-5.1 -65.06)"/>
    <path d="M181.05,106.24a20.75,20.75,0,0,1,.94,3.34,28.51,28.51,0,0,1,.5,3.44,20.34,20.34,0,0,1,0,3.49,9.09,9.09,0,0,1-.83,3.4,20.59,20.59,0,0,0,.05-3.42c-.05-1.13-.12-2.26-.23-3.39C181.32,110.83,181.09,108.56,181.05,106.24Z" transform="translate(-5.1 -65.06)"/>
    <path d="M218.59,99a14.85,14.85,0,0,1,3.33.3,21.49,21.49,0,0,1,3.24.86,18.53,18.53,0,0,1,5.85,3.19c-1.06-.35-2.07-.77-3.1-1.14s-2-.76-3.08-1.11C222.77,100.33,220.7,99.69,218.59,99Z" transform="translate(-5.1 -65.06)"/>
    <path d="M195.5,106.49c1.24-.64,2.37-1.2,3.45-1.9s2.1-1.46,3.21-2.29a6.88,6.88,0,0,1-6.66,4.19Z" transform="translate(-5.1 -65.06)"/>
    <path d="M214.58,100.52c1.18.24,2.2.56,3.27.8s2.11.47,3.26.81a6.19,6.19,0,0,1-6.53-1.61Z" transform="translate(-5.1 -65.06)"/>
    <circle cx="197.99" cy="49.08" r="1.65"/>
    <circle cx="215.26" cy="45.39" r="1.54"/>
    <path d="M211.64,115.92a2,2,0,0,0-1,1.75c.14.78,1,1.17,1.8,1.31a8.21,8.21,0,0,0,6-1.22,2.18,2.18,0,0,0,1.15-1.59,1.65,1.65,0,0,0-1.13-1.46,8,8,0,0,0-3.45-.13A7.36,7.36,0,0,0,211.64,115.92Z" transform="translate(-5.1 -65.06)"/>
    <path d="M215.08,113.32a15.34,15.34,0,0,1,8.07,0,14.16,14.16,0,0,1,6.91,4.35,27.09,27.09,0,0,1,4.25,7c1,2.51,1.74,5.27,1.2,8a11.64,11.64,0,0,0-.5-3.94,20.68,20.68,0,0,0-1.4-3.7,32.29,32.29,0,0,0-2-3.43,26.69,26.69,0,0,0-2.33-3.17,14.76,14.76,0,0,0-6.4-4.29,16.65,16.65,0,0,0-3.85-.78A17.19,17.19,0,0,0,215.08,113.32Z" transform="translate(-5.1 -65.06)"/>
    <path d="M200.22,130.11a19.14,19.14,0,0,0,3.09,1.5,22.07,22.07,0,0,0,3.25,1.07,24,24,0,0,0,13.37-.4,29.5,29.5,0,0,0,6.25-2.82,20.06,20.06,0,0,1-6,3.54,20.42,20.42,0,0,1-6.88,1.43,20.75,20.75,0,0,1-7-1A18.18,18.18,0,0,1,200.22,130.11Z" transform="translate(-5.1 -65.06)"/>
    <path d="M193.66,185.14a48.57,48.57,0,0,1,2.35,7.49,53.5,53.5,0,0,1,1.24,7.77c.19,2.63.22,5.22.26,7.84l0,3.91c0,1.31,0,2.61-.09,3.92-.16-1.3-.26-2.6-.4-3.9l-.3-3.9c-.22-2.6-.28-5.22-.49-7.79s-.56-5.14-1-7.7c-.21-1.28-.47-2.56-.74-3.83S194,186.41,193.66,185.14Z" transform="translate(-5.1 -65.06)"/>
    <path d="M181.36,108l.48,1.81c.17.58.31,1.15.52,1.69a10.53,10.53,0,0,0,.72,1.56,8.38,8.38,0,0,0,1.15,1.39,3.22,3.22,0,0,1-1.75-.9,5,5,0,0,1-1.06-1.71,6.44,6.44,0,0,1-.35-1.93A5.22,5.22,0,0,1,181.36,108Z" transform="translate(-5.1 -65.06)"/>
  </g>
</svg>
