<svg xmlns="http://www.w3.org/2000/svg" viewBox="0 0 265.4 296.42"><defs><style>.cls-1{fill:#fff;}.cls-2{fill:#f4f7e8;}.cls-3{fill:#d6d8ce;}.cls-10,.cls-4,.cls-6,.cls-9{fill:none;stroke-linecap:round;stroke-linejoin:round;}.cls-4{stroke:#000;}.cls-10,.cls-4,.cls-6,.cls-7,.cls-9{stroke-width:1.93px;}.cls-5{fill:#f4e9b3;}.cls-6{stroke:#cec2a3;}.cls-7{fill:#e5a35a;stroke:#c98745;stroke-miterlimit:10;}.cls-8{fill:#de79a7;}.cls-9{stroke:#b7447e;}.cls-10{stroke:#ffaed7;}</style></defs><title>We-Bare -Bears-Ice-Bear-with-ice-cream</title><g id="Layer_5" data-name="Layer 5"><path class="cls-1" d="M199,11.79a11.93,11.93,0,0,1,2,.18,12.53,12.53,0,0,1,10,8.68c1.31,4,.77,8.52-1.29,11.31,4,3.55,23.49,21.84,34.8,54.74.3.93,29.76,91.38,28.06,131.61v0c-2,30-25.32,51.56-67.4,62.42-26.79,6.92-53.44,7.46-61.12,7.46-1.37,0-2.14,0-2.19,0-48.76-1.15-63.39-15.84-66.23-19.4a35.78,35.78,0,0,1-16.52,3.75,35.1,35.1,0,0,1-19-5.19c-7-4.57-14.85-14.21-12.42-34.22,2.08-17,14.13-30.89,34.87-40a122.67,122.67,0,0,1,30.64-8.68L107.54,176c.18-.39.75-2.09,1.41-8.63s-7.15-12.54-15.44-18.86c-2.78-2.12-5.66-4.32-8.25-6.58-12.33-10.73-16.51-31.51-9.72-48.34,6.62-16.39,30.78-17.26,35.66-17.27,6.42-33.24,27.51-45.22,32.6-47.66a11.45,11.45,0,0,1,1.52-13.56A11.1,11.1,0,0,1,153.13,12a10.85,10.85,0,0,1,6.75,2.25c2.66,2.11,4.1,5.33,4.31,9.58,2.14-.2,7.25-.61,12.85-.61a70.82,70.82,0,0,1,11.77.84c.28-2.29,1.28-7.57,4.81-10.4A8.46,8.46,0,0,1,199,11.79m-9.37,14.36a.62.62,0,0,1-.19,0,64.21,64.21,0,0,0-12.37-1c-7.19,0-13.65.68-13.76.69h-.1a.93.93,0,0,1-.64-.24,1,1,0,0,1-.32-.72c0-4.22-1.18-7.2-3.61-9.13a8.9,8.9,0,0,0-5.56-1.86,9.08,9.08,0,0,0-6.43,2.54,9.37,9.37,0,0,0-.69,12,1,1,0,0,1-.41,1.5c-.26.1-25.79,10.26-32.65,47.51a1,1,0,0,1-.91.79h-.49c-3.53,0-27.95.56-34.21,16.05-6.5,16.1-2.55,36,9.19,46.17,2.55,2.22,5.4,4.39,8.16,6.5,8.73,6.66,17,12.95,16.19,20.59-.92,9.08-1.72,9.66-2.1,9.94a.67.67,0,0,1-.18.11l-14.52,8.62a1.07,1.07,0,0,1-.38.13c-.59.07-59.21,7.43-64,47.05-1.83,15,2.17,26.24,11.56,32.36a33.14,33.14,0,0,0,18,4.91c6.23,0,12.16-1.48,16.28-3.94a1,1,0,0,1,.5-.14.94.94,0,0,1,.81.46c.12.17,12.08,18,65.2,19.24.05,0,.81,0,2.18,0,7.63,0,34.07-.54,60.63-7.4,28.71-7.42,63.45-24,65.93-60.67,1.67-39.88-27.67-130-28-130.89C230.32,51.17,208,33,207.82,32.83a.91.91,0,0,1-.36-.69,1,1,0,0,1,.26-.73c2.09-2.16,2.72-6.43,1.51-10.16a10.54,10.54,0,0,0-8.51-7.38,9.66,9.66,0,0,0-1.66-.15,6.61,6.61,0,0,0-4.23,1.42c-3.83,3.07-4.19,10-4.19,10.09a1,1,0,0,1-.37.72,1,1,0,0,1-.6.2m-81.55,149.6h0m163.55,42.52h0M199,1.79h0a18.43,18.43,0,0,0-11.67,4.05,21.22,21.22,0,0,0-5.79,7.45c-1.45-.06-3-.09-4.54-.09-1.86,0-3.67.05-5.35.11A20.48,20.48,0,0,0,166.1,6.4a20.86,20.86,0,0,0-13-4.42,21.15,21.15,0,0,0-14.88,6,21.29,21.29,0,0,0-6,15.82c-9.09,6.28-22.57,19.16-29.13,43a68,68,0,0,0-12,2.44C78.8,72.93,70.2,80.06,66.27,89.8A56.84,56.84,0,0,0,63.43,122c2.22,11.07,7.64,20.82,15.26,27.45,2.84,2.47,5.85,4.77,8.75,7,3.92,3,10.4,7.94,11.52,10.36-.12,1.14-.23,2.08-.33,2.85l-8.78,5.2A132.82,132.82,0,0,0,58.59,184c-30.51,13.43-39,33.5-40.77,48-3.21,26.44,9.21,38.79,16.89,43.8,8.65,5.62,18.07,6.81,24.46,6.81a49.15,49.15,0,0,0,14.28-2.07c9.18,7.28,28.67,16.79,68.24,17.72.11,0,.95,0,2.42,0,7.86,0,35.67-.56,63.62-7.78,22.56-5.82,40.4-14.7,53-26.39,13.32-12.34,20.68-27.49,21.86-45,0-.08,0-.17,0-.25v0c1.77-42-27.31-131.35-28.55-135.13l0-.14a148.06,148.06,0,0,0-32.61-54.14,24.33,24.33,0,0,0-.84-11.75A22.49,22.49,0,0,0,202.79,2.13,21.09,21.09,0,0,0,199,1.79Zm-49.73,37.4a11,11,0,0,0,6.26-6.49l.33.3a10.93,10.93,0,0,0,7.35,2.83,11.41,11.41,0,0,0,1.16-.06c.23,0,6.16-.63,12.7-.63a51.68,51.68,0,0,1,10.32.78l.07,0a11.32,11.32,0,0,0,2.17.21,11,11,0,0,0,6.7-2.28,9.48,9.48,0,0,0,1.11-1,11,11,0,0,0,4,7.7C202,41,222,57.9,233.26,90.5c8.1,24.73,28.73,95.5,27.46,127.17-2.15,30.66-33,44.94-58.44,51.52s-50.93,7.09-58.13,7.09h-2c-44.31-1-56.47-14.12-57.27-15a10.94,10.94,0,0,0-14.58-3.12,23.13,23.13,0,0,1-11.17,2.53,23.15,23.15,0,0,1-12.5-3.29c-6.06-4-8.45-11.61-7.09-22.78C43.43,203,94.38,196.31,94.9,196.24a10.74,10.74,0,0,0,4.26-1.45l14.29-8.48a9.24,9.24,0,0,0,1.26-.8c4.27-3.15,5.18-7.81,6.11-17,1.34-13.2-10-21.89-20.07-29.55-2.63-2-5.35-4.08-7.66-6.09C84.56,125.46,81.71,110.14,86.6,98c2.91-7.19,16.51-9.81,24.94-9.8H112a11,11,0,0,0,10.75-9c5.68-30.85,25.49-39.6,26.53-40Z" transform="translate(-17.3 -1.79)"/></g><g id="Layer_4" data-name="Layer 4"><path class="cls-2" d="M271.67,218.27c-4.85,72.19-129.72,69-129.72,69-54.46-1.28-66-19.7-66-19.7C61.7,276,23.74,274.09,28.71,233.25s64.87-47.89,64.87-47.89l14.57-8.65s.8.16,1.76-9.29-13.66-17.25-24-26.27c-11.39-9.91-16.5-29.79-9.45-47.25S112,77.25,112,77.25C119,39,145.25,29,145.25,29A10.33,10.33,0,0,1,146,15.74,10.34,10.34,0,0,1,159.28,15c3,2.38,4,6,4,9.89,0,0,16.5-1.76,26.43.32,0,0,.64-14.12,11.21-12.27s12,14.51,7.53,19.16c0,0,22.58,18.1,35.23,54.94C243.65,87,273.38,177.75,271.67,218.27Z" transform="translate(-17.3 -1.79)"/><path class="cls-3" d="M243.65,87C231,50.18,208.42,32.08,208.42,32.08c4.48-4.65,3-17.3-7.53-19.16s-11.21,12.27-11.21,12.27c-9.93-2.08-26.43-.32-26.43-.32,0-3.9-1-7.51-4-9.89a10.34,10.34,0,0,0-13.28.76A10.33,10.33,0,0,0,145.25,29a39.28,39.28,0,0,0-8.71,5.2c8.63-5.07,18.47-8.09,28.56-7.72a48.9,48.9,0,0,1,13.63,2.44,64,64,0,0,1,29.14,16.12c34.07,37.24,63.86,170.09,56.92,196.71a54.6,54.6,0,0,0,6.88-23.49C273.38,177.75,243.65,87,243.65,87Z" transform="translate(-17.3 -1.79)"/><path class="cls-4" d="M271.67,218.27c-4.85,72.19-129.72,69-129.72,69-54.46-1.28-66-19.7-66-19.7C61.7,276,23.74,274.09,28.71,233.25s64.87-47.89,64.87-47.89l14.57-8.65s.8.16,1.76-9.29-13.66-17.25-24-26.27c-11.39-9.91-16.5-29.79-9.45-47.25S112,77.25,112,77.25C119,39,145.25,29,145.25,29A10.33,10.33,0,0,1,146,15.74,10.34,10.34,0,0,1,159.28,15c3,2.38,4,6,4,9.89,0,0,16.5-1.76,26.43.32,0,0,.64-14.12,11.21-12.27s12,14.51,7.53,19.16c0,0,22.58,18.1,35.23,54.94C243.65,87,273.38,177.75,271.67,218.27Z" transform="translate(-17.3 -1.79)"/><path class="cls-4" d="M139.57,32.08s8.18-5.61,28.2-7.58" transform="translate(-17.3 -1.79)"/><circle cx="103.44" cy="77.54" r="2.96"/><circle cx="140.72" cy="79.61" r="3.48"/><path d="M88.12,99a3.31,3.31,0,0,1-.13-3.7c1.22-2,4.47-4.9,13-5,12.87-.1,13.5,4.78,13.6,5.82s-2.18,6.74-13.65,7C92.86,103.2,89.49,100.83,88.12,99Z" transform="translate(-17.3 -1.79)"/><path class="cls-5" d="M116.73,127.9c4.13.56,8.11,3.23,12.15,2.22,2.65-.67,4.67-2.79,7.19-3.83,3.48-1.43,7.59-.6,10.76,1.41a25.62,25.62,0,0,1,7.57,8.23A24.78,24.78,0,0,1,158,144a11.37,11.37,0,0,1-1.33,8.57,7.43,7.43,0,0,1-7.67,3.29c-3-.75-5.25-3.73-8.36-4-2.18-.21-4.26,1-5.9,2.43s-3,3.2-4.77,4.5-4.09,2.13-6.14,1.36c-2.82-1.05-3.84-4.4-5.57-6.85a11.49,11.49,0,0,0-7.84-4.69,17.41,17.41,0,0,1-4.45-.66c-2.57-1-3.79-4.17-3.51-6.94a13.93,13.93,0,0,1,1.42-4.62c.57-1.17,1-2.33,1.5-3.52,1-2.37,4.33-4,6.67-4.62A11.91,11.91,0,0,1,116.73,127.9Z" transform="translate(-17.3 -1.79)"/><path class="cls-5" d="M161.89,142.83a3.88,3.88,0,0,0,1.64,3.39,3.48,3.48,0,0,0,4.39-.8,4,4,0,0,0,.14-4.57c-.77-1.15-2.6-2.31-4.05-1.89S161.94,141.54,161.89,142.83Z" transform="translate(-17.3 -1.79)"/><path class="cls-5" d="M174.32,147.46a1.65,1.65,0,0,0,3-1.31A1.65,1.65,0,1,0,174.32,147.46Z" transform="translate(-17.3 -1.79)"/><path class="cls-4" d="M119.71,143.21a10.49,10.49,0,0,1,8.4,2" transform="translate(-17.3 -1.79)"/><path class="cls-6" d="M116.73,127.9c4.13.56,8.11,3.23,12.15,2.22,2.65-.67,4.67-2.79,7.19-3.83,3.48-1.43,7.59-.6,10.76,1.41a25.62,25.62,0,0,1,7.57,8.23A24.78,24.78,0,0,1,158,144a11.37,11.37,0,0,1-1.33,8.57,7.43,7.43,0,0,1-7.67,3.29c-3-.75-5.25-3.73-8.36-4-2.18-.21-4.26,1-5.9,2.43s-3,3.2-4.77,4.5-4.09,2.13-6.14,1.36c-2.82-1.05-3.84-4.4-5.57-6.85a11.49,11.49,0,0,0-7.84-4.69,17.41,17.41,0,0,1-4.45-.66c-2.57-1-3.79-4.17-3.51-6.94a13.93,13.93,0,0,1,1.42-4.62c.57-1.17,1-2.33,1.5-3.52,1-2.37,4.33-4,6.67-4.62A11.91,11.91,0,0,1,116.73,127.9Z" transform="translate(-17.3 -1.79)"/><path class="cls-6" d="M161.89,142.83a3.88,3.88,0,0,0,1.64,3.39,3.48,3.48,0,0,0,4.39-.8,4,4,0,0,0,.14-4.57c-.77-1.15-2.6-2.31-4.05-1.89S161.94,141.54,161.89,142.83Z" transform="translate(-17.3 -1.79)"/><path class="cls-6" d="M174.32,147.46a1.65,1.65,0,0,0,3-1.31A1.65,1.65,0,1,0,174.32,147.46Z" transform="translate(-17.3 -1.79)"/><path class="cls-4" d="M109.36,172c0,5.31-21.87,53.68-21.87,53.68" transform="translate(-17.3 -1.79)"/><path class="cls-7" d="M50.48,217.58c4.77-1.47,10-.79,14.76.54s9.45,3.28,14.32,4.39a7.56,7.56,0,0,0,4.82-.07c2-.93,2.91-3.24,3.59-5.35.84-2.59,1.63-5.47.56-8-.92-2.14-3-3.52-5-4.7-5.67-3.31-11.84-6.09-18.38-6.54-5.49-.37-11.35,1.08-15.56,4.75-2.33,2-2.77,3.81-2.44,6.9A15.22,15.22,0,0,0,50.48,217.58Z" transform="translate(-17.3 -1.79)"/><path class="cls-7" d="M136.72,209.26c0,.72.35,7.73,1.78,11.28s4.35,6.73,8.12,7.4a127.46,127.46,0,0,1,9.07,32.25,49.15,49.15,0,0,0,1.59,8.36,13.37,13.37,0,0,0,4.69,6.94s5.49-.24,7.81-13.55l-11.45-7.5-4.13-16.26,5.93-13,15.37-4,9.59-1.74V204.1l-30.89-1.73S136.54,201.54,136.72,209.26Z" transform="translate(-17.3 -1.79)"/><path class="cls-4" d="M245.7,215.41s-2.28,43.11-31.38,53.36S154.55,251,154.55,251" transform="translate(-17.3 -1.79)"/><path class="cls-4" d="M203.47,225.69s-10-8.56-20.54-8.56" transform="translate(-17.3 -1.79)"/><path class="cls-4" d="M202.05,205.71s-2.57,11.5-8.85,13.74" transform="translate(-17.3 -1.79)"/><path class="cls-4" d="M41.4,221.41s9.61-5.56,21-4.7" transform="translate(-17.3 -1.79)"/><path class="cls-8" d="M48.16,179.11c-1.93,2.3-2,5.57-2.6,8.5-.56,2.59-1.66,5-2.14,7.64s-.23,5.54,1.56,7.48c.73.79,1.67,1.37,2.35,2.2,1.2,1.46,1.46,3.51,2.62,5,1.44,1.84,3.91,2.42,6,3.45,2.56,1.26,4.65,3.27,6.82,5.11s4.58,3.58,7.38,4.13,6.07-.43,7.43-2.93c1-1.91.85-4.36,2.15-6.1,1.5-2,4.35-2.28,6.55-3.49,2.64-1.45,4.24-4.2,5.72-6.82s3-5.44,3.3-8.49c.29-3.56-1.19-7-2.64-10.25l-1.41-3.16a25.17,25.17,0,0,0-3.11-5.64A13,13,0,0,0,75.8,171.2c-1.38.27-3,.72-4.06-.15s-1.14-2.67-2.33-3.4a2.85,2.85,0,0,0-2.92.32c-.88.55-1.61,1.32-2.52,1.8-2.88,1.51-6.59-.08-8.8,2.78a15.45,15.45,0,0,1-2.51,3.15C51.19,176.89,49.39,177.63,48.16,179.11Z" transform="translate(-17.3 -1.79)"/><path class="cls-9" d="M48.16,179.11c-1.93,2.3-2,5.57-2.6,8.5-.56,2.59-1.66,5-2.14,7.64s-.23,5.54,1.56,7.48c.73.79,1.67,1.37,2.35,2.2,1.2,1.46,1.46,3.51,2.62,5,1.44,1.84,3.91,2.42,6,3.45,2.56,1.26,4.65,3.27,6.82,5.11s4.58,3.58,7.38,4.13,6.07-.43,7.43-2.93c1-1.91.85-4.36,2.15-6.1,1.5-2,4.35-2.28,6.55-3.49,2.64-1.45,4.24-4.2,5.72-6.82s3-5.44,3.3-8.49c.29-3.56-1.19-7-2.64-10.25l-1.41-3.16a25.17,25.17,0,0,0-3.11-5.64A13,13,0,0,0,75.8,171.2c-1.38.27-3,.72-4.06-.15s-1.14-2.67-2.33-3.4a2.85,2.85,0,0,0-2.92.32c-.88.55-1.61,1.32-2.52,1.8-2.88,1.51-6.59-.08-8.8,2.78a15.45,15.45,0,0,1-2.51,3.15C51.19,176.89,49.39,177.63,48.16,179.11Z" transform="translate(-17.3 -1.79)"/><path class="cls-10" d="M52.31,187.07a4.63,4.63,0,0,0,.73,8.65c.7.19,1.44.22,2.15.41a2.45,2.45,0,0,1,1.69,1.28c.35.87-.11,1.9.21,2.78A2.24,2.24,0,0,0,59,201.48a6.6,6.6,0,0,0,2.37-.32" transform="translate(-17.3 -1.79)"/><path class="cls-10" d="M69.21,208c.35,1.33,2.07,1.86,3.39,1.48a9.67,9.67,0,0,0,3.39-2.3,5.72,5.72,0,0,1,3.65-1.75c1.23,0,2.58.75,3.63.09s.88-2.54,1.28-3.89c.55-1.91,2.57-2.95,3.9-4.43a7.54,7.54,0,0,0-1.38-10.87" transform="translate(-17.3 -1.79)"/><path class="cls-8" d="M56.64,219.26a5.43,5.43,0,0,0,.63,5.91c2.41,2.86,7.34,2.74,9.36,5.89,1.23,1.91.92,4.47-.11,6.49a25.84,25.84,0,0,1-4.2,5.32,13.07,13.07,0,0,0-3.44,5.78,7.45,7.45,0,0,0,7.58,9c1.5-.06,3-.58,4.44-.72A4.42,4.42,0,0,1,75,258.3c.78,1.06.73,2.49.79,3.8s.39,2.81,1.54,3.44,2.65.07,3.82-.59a26.49,26.49,0,0,0,13.11-20.16c1.48-26.82-29.11-28-31.81-28.08C60,216.64,57.94,216.79,56.64,219.26Z" transform="translate(-17.3 -1.79)"/><path class="cls-8" d="M49.27,234.08A3.41,3.41,0,1,0,56,235C56.36,230.85,50.16,230,49.27,234.08Z" transform="translate(-17.3 -1.79)"/><path class="cls-9" d="M56.64,219.26a5.43,5.43,0,0,0,.63,5.91c2.41,2.86,7.34,2.74,9.36,5.89,1.23,1.91.92,4.47-.11,6.49a25.84,25.84,0,0,1-4.2,5.32,13.07,13.07,0,0,0-3.44,5.78,7.45,7.45,0,0,0,7.58,9c1.5-.06,3-.58,4.44-.72A4.42,4.42,0,0,1,75,258.3c.78,1.06.73,2.49.79,3.8s.39,2.81,1.54,3.44,2.65.07,3.82-.59a26.49,26.49,0,0,0,13.11-20.16c1.48-26.82-29.11-28-31.81-28.08C60,216.64,57.94,216.79,56.64,219.26Z" transform="translate(-17.3 -1.79)"/><path class="cls-9" d="M75.05,237a23.36,23.36,0,0,0,15.85-3.52" transform="translate(-17.3 -1.79)"/><path class="cls-9" d="M80.45,250.6A48.93,48.93,0,0,0,94,245.15" transform="translate(-17.3 -1.79)"/><path class="cls-9" d="M49.27,234.08A3.41,3.41,0,1,0,56,235C56.36,230.85,50.16,230,49.27,234.08Z" transform="translate(-17.3 -1.79)"/><path class="cls-5" d="M173.17,231.06c-.26-2.07,1.62-3.88,3.63-4.46s4.14-.29,6.23-.37,4.37-.65,5.55-2.37a5.06,5.06,0,0,0-.06-5.35,8.24,8.24,0,0,0-4.43-3.33,35,35,0,0,0-6.64-1.49c2.35-1.61,5.5-3,7.36-5.19a11.35,11.35,0,0,0,3.06-7.77c-.09-1.69-.69-3.31-.92-5-.45-3.11.35-6.37-.57-9.37s-3.36-5.22-5.71-7.29c-4-3.58-8.5-7.34-13.89-7.8-3.12-.26-6.27.63-9.39.25-2.52-.31-5.2-1.43-7.48-.31s-3,3.88-4.75,5.7c-2.47,2.62-7,3.4-8.11,6.8-.56,1.65-.12,3.47-.32,5.2-.45,3.93-4.15,7.34-3.3,11.2.53,2.39,2.71,4.09,3.59,6.38s.57,5.54,2.67,7c1.39,1,3.25.7,4.93.95,2.55.4,4.71,2.06,6.73,3.66-5.89,5.87-8.17,14.94-4.57,22.44a9.91,9.91,0,0,0,.83,12.56c2.5,2.52,2.51,6.71,3.76,10,.46,1.22,1.34,2.7,2.62,2.44a2.11,2.11,0,0,0,1.46-1.76c.17-.79.11-1.62.28-2.41.62-2.86,4-4.4,4.82-7.22a7.64,7.64,0,0,0-.57-4.69,17.31,17.31,0,0,1-1.45-4.56,4.18,4.18,0,0,1,1.8-4.15c2-1.1,4.45.42,6.74.7a6.36,6.36,0,0,0,6-2.87C174.34,236.64,173.47,233.39,173.17,231.06Z" transform="translate(-17.3 -1.79)"/><path class="cls-6" d="M173.17,231.06c-.26-2.07,1.62-3.88,3.63-4.46s4.14-.29,6.23-.37,4.37-.65,5.55-2.37a5.06,5.06,0,0,0-.06-5.35,8.24,8.24,0,0,0-4.43-3.33,35,35,0,0,0-6.64-1.49c2.35-1.61,5.5-3,7.36-5.19a11.35,11.35,0,0,0,3.06-7.77c-.09-1.69-.69-3.31-.92-5-.45-3.11.35-6.37-.57-9.37s-3.36-5.22-5.71-7.29c-4-3.58-8.5-7.34-13.89-7.8-3.12-.26-6.27.63-9.39.25-2.52-.31-5.2-1.43-7.48-.31s-3,3.88-4.75,5.7c-2.47,2.62-7,3.4-8.11,6.8-.56,1.65-.12,3.47-.32,5.2-.45,3.93-4.15,7.34-3.3,11.2.53,2.39,2.71,4.09,3.59,6.38s.57,5.54,2.67,7c1.39,1,3.25.7,4.93.95,2.55.4,4.71,2.06,6.73,3.66-5.89,5.87-8.17,14.94-4.57,22.44a9.91,9.91,0,0,0,.83,12.56c2.5,2.52,2.51,6.71,3.76,10,.46,1.22,1.34,2.7,2.62,2.44a2.11,2.11,0,0,0,1.46-1.76c.17-.79.11-1.62.28-2.41.62-2.86,4-4.4,4.82-7.22a7.64,7.64,0,0,0-.57-4.69,17.31,17.31,0,0,1-1.45-4.56,4.18,4.18,0,0,1,1.8-4.15c2-1.1,4.45.42,6.74.7a6.36,6.36,0,0,0,6-2.87C174.34,236.64,173.47,233.39,173.17,231.06Z" transform="translate(-17.3 -1.79)"/><path class="cls-6" d="M142.74,187.5a8.94,8.94,0,0,0,1.2,11.43c.8.78,1.86,1.7,1.56,2.78a5.39,5.39,0,0,0-.28.86c0,.3.22.65.51.58" transform="translate(-17.3 -1.79)"/><path class="cls-6" d="M146.85,206.89a6.35,6.35,0,0,0,5.79,2.53" transform="translate(-17.3 -1.79)"/><path class="cls-6" d="M173.81,198.06a8.79,8.79,0,0,1-4,8.63" transform="translate(-17.3 -1.79)"/><path class="cls-6" d="M176.81,203.18c.18-1.12,1.34-1.76,2.33-2.33s2-1.5,1.79-2.62c-.2-.92-1.25-1.55-1.23-2.49a3.34,3.34,0,0,1,.64-1.46,4.34,4.34,0,0,0-.8-5.15" transform="translate(-17.3 -1.79)"/><path class="cls-6" d="M147.81,222.75s8.42-14.39,33.16-8.32" transform="translate(-17.3 -1.79)"/><path class="cls-6" d="M149.19,221.19a16.72,16.72,0,0,0,10,8" transform="translate(-17.3 -1.79)"/><path class="cls-6" d="M167.56,221.44a33.11,33.11,0,0,1-9.71-6.3" transform="translate(-17.3 -1.79)"/><path class="cls-4" d="M190.81,28.64s-1.38-3.2-.9-5.42" transform="translate(-17.3 -1.79)"/><path class="cls-4" d="M206.08,33.26s2.62-1,3.32-2.49" transform="translate(-17.3 -1.79)"/></g></svg>