<svg xmlns="http://www.w3.org/2000/svg" viewBox="0 0 286.40361 209.84877"><defs><style>.cls-1{fill:#fff;}.cls-2{fill:#f4f7e8;}.cls-3{fill:#ff9e93;}.cls-4{fill:#fefefe;}.cls-5{fill:#8f5a3f;}.cls-6{fill:#473c42;}.cls-7{fill:#64292f;}.cls-8{fill:#61292c;}.cls-9{fill:#ee8c96;}.cls-10,.cls-17{fill:none;stroke:#000;stroke-linecap:round;stroke-linejoin:round;}.cls-11{fill:#c9beaf;}.cls-12{fill:#3c3435;}.cls-13{fill:#645b5b;}.cls-14{fill:#464040;}.cls-15{fill:#67292f;}.cls-16{fill:#ef8998;}.cls-17{stroke-width:2px;}.cls-18{fill:#d8e6e2;}</style></defs><title>we bare bears selfie</title><g id="Layer_6" data-name="Layer 6"><path class="cls-1" d="M140.62993,54.76157q.26636,0,.54538.01721c4.72365.28612,6.04006,4.75682,6.11818,7.60253a38.31232,38.31232,0,0,1,20.478,26.06347c2.38477-5.05124,7.62206-15.37012,11.833-18.22559a13.59131,13.59131,0,0,1,7.5327-2.22272,13.03476,13.03476,0,0,1,3.96829.60213c2.87205.92042,6.78317,3.33494,9.10741,9.61129.10159.32083,2.03418,6.68265.5303,16.99512a40.85681,40.85681,0,0,1,23.20212,15.13577c.127.17917,11.51953,16.354,16.25,35.38088a34.89471,34.89471,0,0,0,6.59669-12.60941c1.56542-5.63229.69142-9.85494-.15428-13.93894a38.18514,38.18514,0,0,1-.84865-5.34471,4.57034,4.57034,0,0,1-2.417-1.11671c-2.16306-1.751-10.33689-22.81694-11.2607-25.94435-.98535-3.33494-1.11624-5.27488.90428-6.62259,1.32324-.88182,7.84177-4.22506,10.25777-5.2607a18.89879,18.89879,0,0,1,6.22348-1.41986,3.40026,3.40026,0,0,1,1.57541.29339c1.44429.78711,8.457,18.03565,9.88669,21.59523,2.627.186,11.75784,1.77536,18.14941,14.63424.34573.60694,8.9639,16.24853.03613,39.09523-7.88965,20.19289-22.54394,27.95847-26.32423,29.67431a110.72813,110.72813,0,0,1,5.01369,33.18357,27.31613,27.31613,0,0,1-17.0557,24.97559,102.44825,102.44825,0,0,1-38.77241,7.69437c-16.74418,0-36.47658-4.20995-57.39258-17.26854l-9.9253-3.07424c-3.05194,2.13156-22.16847,14.60013-51.04485,14.60013a108.82052,108.82052,0,0,1-39.67686-7.729,26.946,26.946,0,0,1-16.76558-19.76953,65.52168,65.52168,0,0,1-.51712-23.41019A26.89237,26.89237,0,0,1,23.12208,175.873c-.50388-6.96876,1.48682-14.82129,1.96629-16.58694a92.74762,92.74762,0,0,1-6.85153-28.30518c-.82276-12.49217,1.09177-20.04735,1.92577-22.65375-1.46971-.64848-3.74465-2.42824-3.30612-7.18119a5.24108,5.24108,0,0,1,4.40283-5.09176,7.26042,7.26042,0,0,1,4.69088.78559c1.89306-2.71482,7.92335-9.95747,20.627-14.01512.29147-1.49023,1.59176-3.58106,5.1997-4.23047a7.93338,7.93338,0,0,1,1.40114-.13066,5.21344,5.21344,0,0,1,5.01239,3.264c1.11771.08988,3.50783.31152,6.44824.75782.47411-2.91847,2.53417-10.82471,11.08647-13.35888a10.12667,10.12667,0,0,1,8.05564.93265c4.99365,2.76852,8.87648,9.50776,11.29689,16.05564,1.01023-5.585,3.94823-14.84764,12.48288-20.53471a6.48683,6.48683,0,0,1-.81294-3.80029,5.84085,5.84085,0,0,1,2.47064-3.96235,5.42967,5.42967,0,0,1,3.34436-1.184c2.49249,0,4.77024,1.7507,6.07606,3.24007a52.88486,52.88486,0,0,1,8.0651-.50513c2.42972,0,5.389.10428,8.90366.39872a5.35125,5.35125,0,0,1,1.1626-3.48,4.86312,4.86312,0,0,1,3.8599-1.5255m-3.93954,7.10486q-.04525,0-.09078-.00418c-3.92756-.364-7.19738-.48793-9.82831-.488a45.749,45.749,0,0,0-8.323.56467,1.0067,1.0067,0,0,1-1.00094-.36724c-.11682-.1507-2.3051-2.93116-4.84491-2.93148a3.52519,3.52519,0,0,0-2.17415.76942,3.92694,3.92694,0,0,0-1.69582,2.61471,4.98632,4.98632,0,0,0,.98581,3.23729,1.00011,1.00011,0,0,1-.25876,1.47853C96.9722,74.37543,96.55131,90.67625,96.54884,90.83978a1.00072,1.00072,0,0,1-.87353.97512,1.012,1.012,0,0,1-.13171.00865.996.996,0,0,1-.95864-.73377c-2.01853-7.28465-6.17135-16.17523-11.77388-19.28124a8.18209,8.18209,0,0,0-6.51759-.76411C67.12308,73.7612,66.50638,83.58689,66.501,83.686a1.00014,1.00014,0,0,1-.99829.94751,1.01125,1.01125,0,0,1-.16142-.013c-4.40917-.71971-7.92041-.94483-7.95552-.94677a1.0007,1.0007,0,0,1-.91312-.77783,3.25287,3.25287,0,0,0-3.32194-2.42913,5.77479,5.77479,0,0,0-1.01936.09613c-3.56252.64065-3.625,2.74318-3.62011,2.98094a1.02153,1.02153,0,0,1-.70753.99318c-15.17724,4.63671-20.73,14.23583-20.78418,14.33253a1.03879,1.03879,0,0,1-.904.5093h-.00413a1,1,0,0,1-.8687-.57276,4.328,4.328,0,0,0-2.79994-.85431,4.67792,4.67792,0,0,0-1.096.12578,3.26313,3.26313,0,0,0-2.49906,3.25195c-.44288,4.79982,2.39553,5.32323,2.7207,5.36717a1.00843,1.00843,0,0,1,.80371,1.37212c-.03124.07665-3.12306,7.853-2.13918,22.78023a90.21072,90.21072,0,0,0,6.82424,27.94482,1.0051,1.0051,0,0,1,.05129.69336c-.02541.08788-2.52494,8.86429-1.99123,16.24123.52294,7.24118,3.40335,11.38866,3.43211,11.42972a1.00324,1.00324,0,0,1,.17094.74705,63.42067,63.42067,0,0,0,.44042,23.06542,24.95585,24.95585,0,0,0,15.53076,18.3047A106.94118,106.94118,0,0,0,83.66408,236.869c30.63459,0,49.978-14.29985,50.24123-14.4999a1.006,1.006,0,0,1,.605-.20319.98961.98961,0,0,1,.29541.045l10.52347,3.25876a.98716.98716,0,0,1,.23436.10747c20.58377,12.87965,39.99577,17.02843,56.45553,17.02843a100.371,100.371,0,0,0,37.99758-7.53919A25.32012,25.32012,0,0,0,255.834,211.92283,107.047,107.047,0,0,0,250.63773,178.54a1.00157,1.00157,0,0,1,.582-1.27347c.17382-.06642,17.48342-6.957,26.06154-28.91159,8.585-21.96924.14847-37.27689.06152-37.42924C270.545,97.25289,260.751,97.334,260.29986,97.33l-.02866.00041a.99681.99681,0,0,1-.93912-.66c-1.10159-3.04836-7.99023-19.27442-9.31642-21.18459a2.24062,2.24062,0,0,0-.41667-.03065,16.82511,16.82511,0,0,0-5.53844,1.267c-2.23242.95753-8.73335,4.28565-9.93553,5.08695-.65041.43358-1.16406.77635-.0957,4.39205,1.15335,3.90577,9.07911,23.55076,10.60841,24.96288a2.427,2.427,0,0,0,1.44211.6765.54453.54453,0,0,0,.18582-.02514.76622.76622,0,0,1,.53623-.22227,1.1354,1.1354,0,0,1,.45108.107,1.02451,1.02451,0,0,1,.50293.99124,29.622,29.622,0,0,0,.84083,6.07665c.85153,4.11623,1.81735,8.78076.123,14.87941a35.40284,35.40284,0,0,1-8.3613,14.88577,1.00036,1.00036,0,0,1-1.67288-.50054c-4.32812-19.437-16.24118-36.35153-16.3613-36.52047-8.88771-12.09135-22.73829-14.50588-22.87693-14.52882a1.00167,1.00167,0,0,1-.82524-1.14748c1.68753-10.36717-.28124-16.917-.30176-16.98194-1.60153-4.32029-4.31348-7.22558-7.82518-8.35106a10.95825,10.95825,0,0,0-3.35326-.51873,11.8055,11.8055,0,0,0-6.41434,1.89032c-5.04687,3.42189-12.333,20.00583-12.40623,20.17283a1.002,1.002,0,0,1-.91548.59986.98307.98307,0,0,1-.12163-.00756,1.00041,1.00041,0,0,1-.86523-.82518c-3.60743-21.24853-20.314-27.77836-20.48243-27.84182a1.0016,1.0016,0,0,1-.64746-.98436c.01076-.2407.21195-5.94383-4.23489-6.21341q-.21151-.01257-.41031-.01257a3.00123,3.00123,0,0,0-2.36116.83339,4.15962,4.15962,0,0,0-.60934,3.07865,1.00272,1.00272,0,0,1-.983,1.19212M140.63,44.76155a14.86711,14.86711,0,0,0-11.1215,4.64651q-1.43379-.03963-2.80467-.03969c-1.87677,0-3.505.05474-4.89849.13878a16.85023,16.85023,0,0,0-9.24269-2.87372,15.4365,15.4365,0,0,0-9.39524,3.22235A15.6869,15.6869,0,0,0,96.823,60.55425q-.06177.5005-.09042,1.00342a36.54014,36.54014,0,0,0-3.0863,3.46038,25.0761,25.0761,0,0,0-5.01669-3.7048,20.12007,20.12007,0,0,0-15.74288-1.77553A24.95209,24.95209,0,0,0,59.14042,69.60206a15.86,15.86,0,0,0-5.9624-1.13852,17.99128,17.99128,0,0,0-3.16747.28789,16.51266,16.51266,0,0,0-10.36794,5.93719A51.5069,51.5069,0,0,0,22.13227,85.95535a16.915,16.915,0,0,0-2.60654.25025A15.19668,15.19668,0,0,0,6.89878,100.22749,17.91229,17.91229,0,0,0,9.171,111.30242a83.51711,83.51711,0,0,0-.91254,20.33565,103.06546,103.06546,0,0,0,6.36262,28.40354,61.40531,61.40531,0,0,0-1.473,16.55258A39.32555,39.32555,0,0,0,16.34639,189.72a76.18957,76.18957,0,0,0,1.05487,23.64177A36.9053,36.9053,0,0,0,40.3409,240.45837a119.198,119.198,0,0,0,43.30229,8.40929,105.629,105.629,0,0,0,52.47713-13.68776l4.31923,1.33783c19.63312,12.00586,40.34061,18.09259,61.56635,18.09259a112.92813,112.92813,0,0,0,42.58107-8.44806,37.29778,37.29778,0,0,0,23.24664-34.13083,120.84129,120.84129,0,0,0-3.32694-28.50063,65.92551,65.92551,0,0,0,23.95218-30.80908c10.09091-25.82336,1.22183-44.22063-.496-47.38629-5.84259-11.62579-13.84421-16.50054-19.69519-18.53862-.88953-2.1508-1.97852-4.74617-3.07675-7.2705-4.24643-9.76053-5.88642-12.67076-9.33324-14.54923a13.11,13.11,0,0,0-6.36076-1.51271,28.38109,28.38109,0,0,0-10.16472,2.22929,124.40072,124.40072,0,0,0-11.86205,6.12983,13.25755,13.25755,0,0,0-5.9933,9.98794,20.79225,20.79225,0,0,0,1.04436,7.78965c.37566,1.27172,1.40724,4.09694,2.67238,7.3669a51.89882,51.89882,0,0,0-13.88049-8.74563,43.36056,43.36056,0,0,0-1.56672-13.03122q-.07244-.2288-.15582-.45394c-2.90347-7.84053-8.38447-13.40259-15.43324-15.66153a22.96005,22.96005,0,0,0-7.02011-1.07917,23.62106,23.62106,0,0,0-13.14459,3.94582,22.24459,22.24459,0,0,0-5.39461,5.26507,48.13557,48.13557,0,0,0-12.4292-11.34486,16.043,16.043,0,0,0-14.3889-11.06545c-.37871-.02335-.76923-.03552-1.14994-.03552Zm-20.24922,26.989a41.54426,41.54426,0,0,1,6.39046-.37623c2.72134,0,5.71753.14982,8.90558.4453.333.03093.67518.04682,1.01359.04682A10.96325,10.96325,0,0,0,139.312,71.548a11.0409,11.0409,0,0,0,2.93871,1.72074c.75541.32258,11.77179,5.27274,14.30931,20.21948a11.07117,11.07117,0,0,0,9.51112,9.07759,10.99707,10.99707,0,0,0,11.42311-6.53635c2.89559-6.59333,7.06362-14.00186,8.92945-15.90443a2.13671,2.13671,0,0,1,.7182-.14087.97853.97853,0,0,1,.30066.04147c.26724.08565.81871.65947,1.33793,1.891a34.45253,34.45253,0,0,1-.02853,12.3127,11.02494,11.02494,0,0,0,8.94791,12.60027c.43212.08677,10.30522,2.16158,16.50587,10.52253.64825.938,10.98462,16.084,14.71887,32.85408a10.9998,10.9998,0,0,0,18.40941,5.49229,45.56164,45.56164,0,0,0,11.02077-19.37428c2.34183-8.429,1.0087-14.87312.03534-19.57836a24.03711,24.03711,0,0,1-.6344-3.99441,11.29728,11.29728,0,0,0-1.89246-6.349,10.94137,10.94137,0,0,0,4.29929.92743c.50094.06025,4.60785.77065,8.22586,8.04771q.08193.16486.17.32658c.36835.71905,5.98611,12.1795-.59125,29.01107-6.79593,17.39336-19.9321,23.04547-20.488,23.27753.10172-.04241.16036-.06336.1716-.06764a11.07436,11.07436,0,0,0-6.41971,14.00817,98.12887,98.12887,0,0,1,4.60341,29.89895,15.33879,15.33879,0,0,1-9.62677,13.98793,90.666,90.666,0,0,1-34.18864,6.78535c-17.49823,0-34.708-5.21687-51.15117-15.50565a10.96957,10.96957,0,0,0-2.596-1.1874l-10.50818-3.25406a10.94949,10.94949,0,0,0-3.25346-.49248,11.07319,11.07319,0,0,0-6.57561,2.18126c-.49156.35347-17.68764,12.52186-44.27057,12.52186a97.386,97.386,0,0,1-35.34741-6.91346,14.99681,14.99681,0,0,1-9.35665-10.978,53.32269,53.32269,0,0,1-.38218-19.39053,11.08175,11.08175,0,0,0-1.71123-7.98119,15.70445,15.70445,0,0,1-1.77541-6.5977c-.33024-4.56482,1.068-10.77388,1.63459-12.7813a10.99936,10.99936,0,0,0-.56712-7.57563,80.87786,80.87786,0,0,1-5.94735-24.45919C29.434,118.39892,31.57046,112.04438,31.7,111.67315a10.99229,10.99229,0,0,0,.73155-4.2729,10.96176,10.96176,0,0,0,3.18828-3.42771c.34525-.53373,4.47823-6.62509,15.10563-9.87182a10.88161,10.88161,0,0,0,2.64516-1.21649,10.87458,10.87458,0,0,0,3.38884.7699h0c.15725.01064,3.20886.22172,6.97086.83582A11.00027,11.00027,0,0,0,76.47284,84.43968a4.69926,4.69926,0,0,1,1.991-3.52394c1.71231,1.4701,4.601,6.048,6.48425,12.84433a11.00017,11.00017,0,0,0,21.597-2.64537c.02312-.47093.64608-11.26645,8.13089-15.84292a11,11,0,0,0,3.43364-3.3123c.04413.00055.0886.00083.13277.00083a11.0282,11.0282,0,0,0,2.13831-.20977Z" transform="translate(-6.80245 -44.76155)"/></g><g id="Layer_5" data-name="Layer 5"><path class="cls-2" d="M278.21322,110.43252c-7.17621-14.43579-17.94049-14.102-17.94049-14.102-.33417-.92542-1.29492-3.29407-2.49-6.14087-.2674.1958-.54065.38324-.80048.58966a24.98284,24.98284,0,0,0-4.43951,4.55914,19.92345,19.92345,0,0,0-3.28229,6.1145,42.54186,42.54186,0,0,0-1.087,7.66083c-.13568,1.26337-.36511,2.51209-.52655,3.772a6.3553,6.3553,0,0,1-.37915,1.74627c-.09985.23114-.21209.45313-.31829.677.69134,5.06568,2.94006,10.39032.8067,18.07062a34.6812,34.6812,0,0,1-8.09406,14.43579c-4.42254-19.85968-16.522-36.88226-16.522-36.88226a40.05553,40.05553,0,0,0-23.53119-14.93646c1.75232-10.76429-.3338-17.43982-.3338-17.43982-4.17218-11.265-14.18549-10.84772-19.10864-7.51-5.34681,3.62494-12.76111,20.59973-12.76111,20.59973-3.755-22.11267-21.11719-28.61035-21.11719-28.61035s.3338-6.92584-5.17352-7.25964-4.42255,5.09008-4.42255,5.09008c-12.6-1.16821-18.45349.09394-18.45349.09394s-4.24329-5.51783-8.41547-2.34693-.88519,7.2732-.88519,7.2732C95.83724,73.89767,95.54873,90.82272,95.54873,90.82272,92.859,81.11459,85.9634,67.13589,76.00942,70.08523s-10.507,13.54846-10.507,13.54846c-4.51611-.7373-8.05432-.95795-8.05432-.95795s-.8858-3.92688-5.49414-3.09735-4.44238,4.00238-4.44238,4.00238C31.71706,88.4056,26.1473,98.38033,26.1473,98.38033c-.73736-1.56683-7.742-3.13366-8.295,2.85718s3.59454,6.45166,3.59454,6.45166-3.22589,7.83417-2.212,23.226a90.458,90.458,0,0,0,6.91254,28.29517s-2.58069,8.94019-2.02771,16.59S27.73464,187.737,27.73464,187.737a64.09447,64.09447,0,0,0,.44617,23.43256A26.113,26.113,0,0,0,44.3287,230.20675c53.51263,20.81732,90.18121-7.04059,90.18121-7.04059l10.52356,3.259c40.43829,25.303,76.22388,17.45044,95.36432,9.5658a26.38311,26.38311,0,0,0,16.43628-24.0592,107.18652,107.18652,0,0,0-5.2558-33.73157s17.77777-6.81476,26.63495-29.48145S278.21322,110.43252,278.21322,110.43252Z" transform="translate(-6.80245 -44.76155)"/><path class="cls-3" d="M244.00112,111.93453c1.75232,1.41858,2.755.751,2.755.751a18.23146,18.23146,0,0,0,.16894,2.45141,6.96521,6.96521,0,0,0,.3664-.83428,11.61061,11.61061,0,0,0,.35131-2.17267c.20417-1.53656.44452-3.05609.58228-4.60205a25.02971,25.02971,0,0,1,1.41229-7.44251,22.872,22.872,0,0,1,3.37189-5.50854,25.08536,25.08536,0,0,1,4.73254-4.48493c-2.68243-6.38562-6.51672-15.11224-7.14856-15.45691-.9179-.50067-4.58941.16693-6.92584,1.16822s-8.84509,4.33911-10.09674,5.17352-1.58545,1.83581-.50067,5.50732S242.2488,110.516,244.00112,111.93453Z" transform="translate(-6.80245 -44.76155)"/><path class="cls-4" d="M145.03347,226.42519c40.43829,25.303,76.22388,17.45044,95.36432,9.5658a26.38311,26.38311,0,0,0,16.43628-24.0592,107.18652,107.18652,0,0,0-5.2558-33.73157s17.77777-6.81476,26.63495-29.48145,0-38.28625,0-38.28625c-7.17621-14.43579-17.94049-14.102-17.94049-14.102-.33417-.92542-1.29492-3.29407-2.49-6.14087-.2674.1958-.54065.38324-.80048.58966a24.98284,24.98284,0,0,0-4.43951,4.55914,19.92345,19.92345,0,0,0-3.28229,6.1145,42.54186,42.54186,0,0,0-1.087,7.66083c-.13568,1.26337-.36511,2.51209-.52655,3.772a6.3553,6.3553,0,0,1-.37915,1.74627c-.09985.23114-.21209.45313-.31829.677.69134,5.06568,2.94006,10.39032.8067,18.07062a34.6812,34.6812,0,0,1-8.09406,14.43579c-4.42254-19.85968-16.522-36.88226-16.522-36.88226a40.05553,40.05553,0,0,0-23.53119-14.93646,3.18354,3.18354,0,0,1-1.96044.19043c-6.55526-.87408-14.64093-.72951-21.53078,2.30669-12.48181,5.50046-17.87232,14.17426-17.87232,14.17426-4.47741-1.45445-7.02106-.15708-8.40367,1.30508a6.743,6.743,0,0,0-1.712,4.31777c-.32571,6.33389,4.92839,7.49363,4.92839,7.49363-1.904,6.02934-1.57173,17.37224-1.57173,17.37224s-8.70114-1.32563-19.18485,8.1367a27.31774,27.31774,0,0,0-9.21605,24.56632c.47832,4.21816,4.66866,11.20207,10.72138,13.53a45.69814,45.69814,0,0,0,10.99014,2.783h3.21153l-1.27727,6.46855-1.34839,9.70322-.53515,8.04914-.05072,6.98442Z" transform="translate(-6.80245 -44.76155)"/><path class="cls-5" d="M134.50991,223.16616s-36.66858,27.85791-90.18121,7.04059a26.113,26.113,0,0,1-16.14789-19.03723,64.09447,64.09447,0,0,1-.44617-23.43256s-3.062-4.2868-3.615-11.93664,2.02771-16.59,2.02771-16.59a90.458,90.458,0,0,1-6.91254-28.29517c-1.01385-15.39184,2.212-23.226,2.212-23.226s-4.14752-.46081-3.59454-6.45166,7.55768-4.424,8.295-2.85718c0,0,5.56976-9.97473,21.36426-14.79956,0,0-.166-3.17291,4.44238-4.00238s5.49414,3.09735,5.49414,3.09735,3.53821.22065,8.05432.95795c1.38525.22616,2.55369,1.20628,3.88632,1.64693A39.16426,39.16426,0,0,1,82.299,92.27475c8.58761,7.26644,22.17679,27.83895,23.21485,30.38692,0,0,13.77792,5.94526,20.38377,15.854s4.71846,14.62724,4.71846,14.62724a27.692,27.692,0,0,0-7.69431,20.48c.78,12.47948,12.18893,16.10743,12.18893,16.10743a59.1289,59.1289,0,0,1-4.0326,27.31417l1.65972,2.927Z" transform="translate(-6.80245 -44.76155)"/><path class="cls-6" d="M278.21322,110.43252c-7.17621-14.43579-17.94049-14.102-17.94049-14.102-.33417-.92542-1.29492-3.29407-2.49-6.14087-.2674.1958-.54065.38324-.80048.58966a24.98284,24.98284,0,0,0-4.43951,4.55914,19.92345,19.92345,0,0,0-3.28229,6.1145,42.54186,42.54186,0,0,0-1.087,7.66083c-.13568,1.26337-.36511,2.51209-.52655,3.772a6.3553,6.3553,0,0,1-.37915,1.74627c-.09985.23114-.21209.45313-.31829.677.69134,5.06568,2.94006,10.39032.8067,18.07062a34.6812,34.6812,0,0,1-8.09406,14.43579c-.03607-.162-.07684-.32208-.11395-.4837a16.568,16.568,0,0,1-1.54034,2.51587,15.87739,15.87739,0,0,1-2.538,2.65576,32.92549,32.92549,0,0,1-3.34363,2.29181c-5.13745,3.276-10.57074,6.40442-16.40039,8.27386a96.1159,96.1159,0,0,1-18.74335,3.89734,126.2307,126.2307,0,0,1-19.67468.53223c-3.214-.14636-6.41217-.48517-9.62335-.66132a60.88679,60.88679,0,0,1-8.94183-.83807.05025.05025,0,0,1-.022-.08356,12.25756,12.25756,0,0,0,3.83124-5.6076,15.55857,15.55857,0,0,0,1.22955-5.9054,10.77917,10.77917,0,0,0-1.72229-5.51874,13.16212,13.16212,0,0,0-4.78894-4.21466,11.16963,11.16963,0,0,0-5.78631-1.614l.00262.10156s-.19415-.02868-.55108-.04748c-.09821.01153-.19623.01342-.29444.029a.05263.05263,0,0,1-.06-.04187c-2.48419-.05225-9.7973.54132-18.27935,8.197a27.31759,27.31759,0,0,0-9.216,24.56629c.47827,4.2182,4.66864,11.20208,10.72138,13.53a45.69556,45.69556,0,0,0,10.99011,2.783h3.21155l-1.27729,6.46857-.31079,2.23651c.10218.08954.19526.18842.30109.27417,2.652,2.14887,6.06769,3.283,9.24231,4.41059a100.83929,100.83929,0,0,0,11.96509,3.41992,121.14945,121.14945,0,0,0,24.11316,2.87781,107.88954,107.88954,0,0,0,23.9884-2.21985c3.93738-.82813,7.78937-1.95392,11.62781-3.15143,3.92108-1.22327,7.81152-2.55982,11.5979-4.15619a92.72164,92.72164,0,0,0,11.1344-5.55554c1.60968-.95111,3.1878-1.96509,4.75512-2.9845.06885-.0448.13514-.09326.20368-.13849a97.32,97.32,0,0,0-3.77112-15.45422s17.77777-6.81476,26.63495-29.48145S278.21322,110.43252,278.21322,110.43252Z" transform="translate(-6.80245 -44.76155)"/><path class="cls-7" d="M118.27743,101.76369a2.84846,2.84846,0,0,1-.29267-3.7893c.90216-1.16134,2.72272-2.60763,6.39608-3.66981,7.19509-2.0805,17.35049-1.387,23.97564-.60681s12.69329,4.23237,8.09884,9.09455C152.24375,107.24931,124.65008,107.83926,118.27743,101.76369Z" transform="translate(-6.80245 -44.76155)"/><path class="cls-1" d="M154.89137,95.86191c-.65059,1.42529-2.11885,1.93322-3.682,2.03951a4.50814,4.50814,0,0,1-3.96623-2.12366,5.75367,5.75367,0,0,1-8.57318-.08841,5.19379,5.19379,0,0,1-8.2393.27037,5.43942,5.43942,0,0,1-8.79041-.5224A60.94594,60.94594,0,0,1,151.41713,94.363,8.36355,8.36355,0,0,1,154.89137,95.86191Z" transform="translate(-6.80245 -44.76155)"/><path class="cls-1" d="M155.55913,103.43406a4.8014,4.8014,0,0,0-3.83832-2.73117,4.88031,4.88031,0,0,0-4.31109,1.999,4.95564,4.95564,0,0,0-4.30061-1.686,4.63261,4.63261,0,0,0-3.62658,2.5903,5.58306,5.58306,0,0,0-9.05-.45572,5.66111,5.66111,0,0,0-9.77971.04684A59.62384,59.62384,0,0,0,155.55913,103.43406Z" transform="translate(-6.80245 -44.76155)"/><path class="cls-1" d="M35.86932,107.37384a8.277,8.277,0,0,1,.56621-8.49323c2.92545-4.6241,9.5313-6.01513,12.45675-3.5266s5.19031,8.4338-1.2268,12.96353S36.43418,108.75444,35.86932,107.37384Z" transform="translate(-6.80245 -44.76155)"/><path class="cls-1" d="M71.72888,99.45325s2.64311-.00643,2.73748-4.09924-5.28468-6.0047-8.5876-5.816-7.26644,1.88738-6.889,6.32386,3.43858,4.50337,3.43858,4.50337C64.66052,99.79764,68.76812,98.6184,71.72888,99.45325Z" transform="translate(-6.80245 -44.76155)"/><path class="cls-8" d="M49.16743,114.73275s9.335.96719,17.54874-1.231,10.32393-6.12935,14.1927-3.10864,1.84645,20.43015-7.56167,27.816c0,0,3.86876,10.87558-4.748,14.93384S53.65168,142.6834,53.56375,141.941c0,0-8.6101-.39069-12.39428-11.82112S44.7726,114.52455,49.16743,114.73275Z" transform="translate(-6.80245 -44.76155)"/><path class="cls-9" d="M74.07988,141.55739c-.41036-5.62022-7.06339-12.22885-15.59225-11.34959a17.87586,17.87586,0,0,0-12.70453,7.77982l2.70541,2.15077,3.30448,1.46529,1.77076.33732c.08793.7424,6.41863,15.26021,15.03542,11.202s4.748-14.93384,4.748-14.93384" transform="translate(-6.80245 -44.76155)"/><path class="cls-1" d="M69.3886,112.6624c-.70531,6.72228-7.94385,3.74095-7.94385,3.74095-3.90114,4.22047-8.58441.52756-8.58441.52756-5.0118,3.42913-7.97235-1.177-7.97235-1.177,1.94134-1.13074,4.92675-1.03623,7.42062-.99214C58.06554,114.86351,63.96631,114.5992,69.3886,112.6624Z" transform="translate(-6.80245 -44.76155)"/><path class="cls-10" d="M149.9756,174.61064s14.19958-10.02361,13.9358-19.69552-11.51836-14.59578-21.27819-10.19946-16.58814,11.31159-19.31386,21.88076,2.432,27.70974,30.21674,25.2478" transform="translate(-6.80245 -44.76155)"/><path class="cls-10" d="M182.60836,96.32666a4.78861,4.78861,0,0,1,2.19295-5.59333,6.30928,6.30928,0,0,1,6.232.22966,9.37118,9.37118,0,0,1,3.89016,5.085" transform="translate(-6.80245 -44.76155)"/><path class="cls-11" d="M182.253,83.67973a2.89223,2.89223,0,0,0,2.56264,1.35689,2.98861,2.98861,0,0,0,2.11343-1.30035,6.24638,6.24638,0,0,0,.63556-5.1476,2.9573,2.9573,0,0,0-4.77594-1.1359A5.91055,5.91055,0,0,0,182.253,83.67973Z" transform="translate(-6.80245 -44.76155)"/><path class="cls-11" d="M180.43044,75.42943a1.29568,1.29568,0,0,0,1.01866.89008,1.24166,1.24166,0,0,0,1.221-.56638,1.19217,1.19217,0,0,0-.08976-1.3359,1.28224,1.28224,0,0,0-.853-.44461A1.11091,1.11091,0,0,0,180.43044,75.42943Z" transform="translate(-6.80245 -44.76155)"/><path class="cls-11" d="M185.94285,73.54546a1.93643,1.93643,0,0,0-.09873,1.06307,1.16491,1.16491,0,0,0,1.28517.79067,1.33714,1.33714,0,0,0,1.05427-1.12893,1.57316,1.57316,0,0,0-.64484-1.43762C186.816,72.30674,186.16234,72.82747,185.94285,73.54546Z" transform="translate(-6.80245 -44.76155)"/><path class="cls-11" d="M190.07247,80.51434a1.51593,1.51593,0,0,0,1.63595-.07328,1.5704,1.5704,0,0,0,.60081-1.53074,1.40077,1.40077,0,0,0-2.142-.94418A1.50058,1.50058,0,0,0,190.07247,80.51434Z" transform="translate(-6.80245 -44.76155)"/><path class="cls-11" d="M75.1472,85.00814a3.5834,3.5834,0,1,0,5.9722-3.4456A3.58042,3.58042,0,0,0,75.1472,85.00814Z" transform="translate(-6.80245 -44.76155)"/><path class="cls-11" d="M70.22153,81.66914a1.38864,1.38864,0,1,0,2.38414-1.15909A1.39959,1.39959,0,0,0,70.22153,81.66914Z" transform="translate(-6.80245 -44.76155)"/><path class="cls-11" d="M75.22065,76.10834a1.50914,1.50914,0,0,0,.10893.95362,1.835,1.835,0,0,0,.89876.98989,1.49491,1.49491,0,0,0,1.80583-.55224,1.56133,1.56133,0,0,0-.22265-1.88975C77.12667,74.93342,75.50159,75.043,75.22065,76.10834Z" transform="translate(-6.80245 -44.76155)"/><path class="cls-11" d="M81.70674,78.87111a1.43081,1.43081,0,1,0,2.442-1.24468A1.43813,1.43813,0,0,0,81.70674,78.87111Z" transform="translate(-6.80245 -44.76155)"/><path class="cls-12" d="M236.73139,79.22041a3.975,3.975,0,0,0-.83311,3.501c.44429,2.22143,9.33,25.21327,10.2186,26.324a2.49387,2.49387,0,0,0,2.00676,1.01879,14.4046,14.4046,0,0,1,12.51185-13.20569l-10.031-21.23383a2.40662,2.40662,0,0,0-.82872-1.117,2.34385,2.34385,0,0,0-1.72695-.0542A37.51862,37.51862,0,0,0,236.73139,79.22041Z" transform="translate(-6.80245 -44.76155)"/><path class="cls-13" d="M235.429,87.59722a.67973.67973,0,0,0,.80828.02684.75885.75885,0,0,0,.11162-.69181,4.90225,4.90225,0,0,0-.29895-.9805,1.14436,1.14436,0,0,0-.41708-.5661.65624.65624,0,0,0-.69779.02611C234.1265,85.98127,234.80168,87.21119,235.429,87.59722Z" transform="translate(-6.80245 -44.76155)"/><path class="cls-13" d="M236.89586,91.39662a.71458.71458,0,0,0,.41242.2511.50794.50794,0,0,0,.48669-.3504,1.22022,1.22022,0,0,0,.01788-.63688,2.08144,2.08144,0,0,0-.35765-.92059,1.017,1.017,0,0,0-.85675-.42463C235.23672,89.42923,236.484,90.97625,236.89586,91.39662Z" transform="translate(-6.80245 -44.76155)"/><path class="cls-14" d="M238.59021,84.092a2.498,2.498,0,0,0,2.1015,1.94253,2.31664,2.31664,0,0,0,2.28545-1.45651,2.53816,2.53816,0,0,0-.6246-2.6719,2.9416,2.9416,0,0,0-2.816-.65033C238.61607,81.64711,238.40022,83.253,238.59021,84.092Z" transform="translate(-6.80245 -44.76155)"/><path class="cls-15" d="M193.77117,141.54462s10.731-1.21026,16.29826-3.14669,9.68214-3.71149,11.53788-1.291-2.50122,13.23631-12.82883,14.6866-16.379-4.19762-17.26648-7.02158S193.77117,141.54462,193.77117,141.54462Z" transform="translate(-6.80245 -44.76155)"/><path class="cls-1" d="M216.03686,136.54684a4.58717,4.58717,0,0,1-6.64,4.40822,5.39278,5.39278,0,0,1-4.18608,2.83821,11.4353,11.4353,0,0,1-5.04949-.78291,6.167,6.167,0,0,1-8.87183.61057,3.89054,3.89054,0,0,1,2.227-1.88212,13.01548,13.01548,0,0,1,2.92741-.42165A58.67142,58.67142,0,0,0,216.03686,136.54684Z" transform="translate(-6.80245 -44.76155)"/><path class="cls-16" d="M210.57569,151.29353a10.24332,10.24332,0,0,0-15.3894-2.28811A19.50551,19.50551,0,0,0,210.57569,151.29353Z" transform="translate(-6.80245 -44.76155)"/><path class="cls-6" d="M175.4227,127.67981c-.09469,3.1369,1.42428,6.50811,4.3108,7.73983a8.32849,8.32849,0,0,0,6.86015-.55761,11.34566,11.34566,0,0,0,6.18639-8.06787,9.22941,9.22941,0,0,0-3.92489-9.15638c-3.01711-1.89355-6.77765-1.26356-9.56863.73481C176.75547,120.18483,175.51122,124.74777,175.4227,127.67981Z" transform="translate(-6.80245 -44.76155)"/><path class="cls-6" d="M204.88436,117.75729a21.98218,21.98218,0,0,1,6.55878-.94263,15.651,15.651,0,0,1,2.28693.18164,6.341,6.341,0,0,0,.61157-.5473,6.69163,6.69163,0,0,0,1.50183-6.46759A7.94174,7.94174,0,0,0,211.263,105.044a10.92746,10.92746,0,0,0-7.45874-.17432c-2.25.95972-4.0252,4.10388-4.4273,6.39215a6.85906,6.85906,0,0,0,3.40942,7.30964A15.40413,15.40413,0,0,1,204.88436,117.75729Z" transform="translate(-6.80245 -44.76155)"/><path class="cls-6" d="M158.197,112.47905a13.67183,13.67183,0,0,1-5.135,13.44993,7.86193,7.86193,0,0,1-5.02013-5.67916,7.2261,7.2261,0,0,1,2.57424-6.77328A7.99114,7.99114,0,0,1,158.197,112.47905Z" transform="translate(-6.80245 -44.76155)"/><path class="cls-6" d="M194.44111,95.90411a7.92649,7.92649,0,0,0-3.59016-5.18789,6.03565,6.03565,0,0,0-6.17149-.00277,4.89352,4.89352,0,0,0-1.98163,5.66138A29.01372,29.01372,0,0,1,194.44111,95.90411Z" transform="translate(-6.80245 -44.76155)"/><path class="cls-17" d="M180.16647,71.047c-5.34681,3.62494-12.76111,20.59973-12.76111,20.59973-3.755-22.11267-21.11719-28.61035-21.11719-28.61035s.3338-6.92584-5.17352-7.25964-4.42255,5.09008-4.42255,5.09008c-12.6-1.16821-18.45349.09394-18.45349.09394s-4.24329-5.51783-8.41547-2.34693-.88519,7.2732-.88519,7.2732C95.83724,73.89767,95.54873,90.82272,95.54873,90.82272" transform="translate(-6.80245 -44.76155)"/><path class="cls-18" d="M72.98153,71.07722a26.68616,26.68616,0,0,0-3.966,14.03244c-1.06012-.1691-2.6394-.58871-3.154-1.53087a3.22191,3.22191,0,0,1-.12758-2.16045A16.53506,16.53506,0,0,1,72.98153,71.07722Z" transform="translate(-6.80245 -44.76155)"/><path class="cls-18" d="M99.05758,109.39866c.1649-8.5898.55231-17.27235,2.91055-25.53374S108.849,67.69969,115.877,62.75822l-4.15425,1.56417a8.00987,8.00987,0,0,1-.51311-6.34482,5.06256,5.06256,0,0,0-2.50822,8.165c-4.56182,2.21617-7.68983,6.72249-9.647,11.4013S94.968,91.64669,94.968,91.64669,97.82534,103.38061,99.05758,109.39866Z" transform="translate(-6.80245 -44.76155)"/><path class="cls-18" d="M140.29574,56.30656a3.35838,3.35838,0,0,0-3.34451,4.543,1.9485,1.9485,0,0,0,.24606.47208c.85392,1.15406,2.31684.868,2.54474-.31919C140.05571,59.36848,139.45282,57.94326,140.29574,56.30656Z" transform="translate(-6.80245 -44.76155)"/><path class="cls-18" d="M190.958,69.6926c-6.402,2.3325-11.5119,7.40588-15.14536,13.16994s-5.95211,12.24054-8.24234,18.65781a54.23075,54.23075,0,0,0-.654-10.84959,1.04172,1.04172,0,0,0,.972.35513,41.26109,41.26109,0,0,1,9.9094-17.27977,17.20087,17.20087,0,0,1,6.014-4.37448A7.9142,7.9142,0,0,1,190.958,69.6926Z" transform="translate(-6.80245 -44.76155)"/></g><g id="Layer_4" data-name="Layer 4"><path class="cls-17" d="M95.54876,90.82271s.2885-16.925,13.38921-24.93568c0,0-3.28705-4.10234.88516-7.27322s8.4155,2.34691,8.4155,2.34691,5.85343-1.26214,18.45348-.09392c0,0-1.08478-5.42386,4.42253-5.09009s5.17353,7.25964,5.17353,7.25964,17.3622,6.4977,21.11718,28.61037c0,0,7.41429-16.97479,12.7611-20.59975,4.9232-3.33776,14.93648-3.755,19.10868,7.51,0,0,2.0861,6.67552.33378,17.4398a40.05564,40.05564,0,0,1,23.53122,14.93648s12.09938,17.02259,16.52192,36.88227a34.681,34.681,0,0,0,8.09407-14.43582c2.50332-9.012-1.03473-14.78213-1-20.69412,0,0-1.00266.66755-2.755-.751S234.15474,90.15566,233.07,86.48412s-.751-4.67287.50066-5.50731,7.7603-4.1722,10.09673-5.17353,6.008-1.66888,6.92585-1.16821,8.59474,18.69146,9.67951,21.69545c0,0,10.76428-.33378,17.94047,14.102,0,0,8.85712,15.61955,0,38.28622s-26.6349,29.48148-26.6349,29.48148a107.18727,107.18727,0,0,1,5.25577,33.73156,26.3832,26.3832,0,0,1-16.43629,24.0592c-19.14042,7.88466-54.926,15.73721-95.36431-9.56579l-10.52356-3.25905s-36.66859,27.85789-90.1812,7.04059a26.113,26.113,0,0,1-16.14792-19.03725,64.09553,64.09553,0,0,1-.44615-23.43256s-3.062-4.28677-3.615-11.9366,2.02766-16.59,2.02766-16.59a90.45805,90.45805,0,0,1-6.9125-28.29516c-1.01383-15.39183,2.212-23.226,2.212-23.226s-4.1475-.46084-3.5945-6.45167,7.55767-4.424,8.295-2.85716c0,0,5.5698-9.97477,21.36432-14.79962,0,0-.166-3.17288,4.44234-4.00238s5.49413,3.09736,5.49413,3.09736,3.5382.22064,8.05437.958c0,0,.553-10.59916,10.507-13.54849S92.859,81.1146,95.54876,90.82271Z" transform="translate(-6.80245 -44.76155)"/><path class="cls-10" d="M104.94911,69.70292s7.35986-7.61024,17.71936-8.7422" transform="translate(-6.80245 -44.76155)"/><path class="cls-10" d="M131.77025,60.96072s9.95887.12863,18.20535,4.33017" transform="translate(-6.80245 -44.76155)"/><path class="cls-10" d="M113.17106,102.79232a5.31466,5.31466,0,0,1,.98231-6.93041" transform="translate(-6.80245 -44.76155)"/><path class="cls-10" d="M161.62483,96.54194a5.96127,5.96127,0,0,1,.31224,5.90846" transform="translate(-6.80245 -44.76155)"/><path class="cls-10" d="M145.237,81.061a13.93529,13.93529,0,0,1,14.785,9.83918" transform="translate(-6.80245 -44.76155)"/><circle cx="118.76697" cy="33.57992" r="1.91168"/><circle cx="141.55403" cy="33.47314" r="1.8049"/><path d="M147.1,84.53994c0,1.96961-2.81838,2.58753-6.295,2.58753s-6.295-.50206-6.295-2.58753,2.81838-2.5489,6.295-2.5489S147.1,82.57033,147.1,84.53994Z" transform="translate(-6.80245 -44.76155)"/><path class="cls-10" d="M118.27743,101.76369a2.84846,2.84846,0,0,1-.29267-3.7893c.90216-1.16134,2.72272-2.60763,6.39608-3.66981,7.19509-2.0805,17.35049-1.387,23.97564-.60681s12.69329,4.23237,8.09884,9.09455C152.24375,107.24931,124.65008,107.83926,118.27743,101.76369Z" transform="translate(-6.80245 -44.76155)"/><path class="cls-10" d="M121.64026,95.43732a5.43942,5.43942,0,0,0,8.79041.5224,5.19379,5.19379,0,0,0,8.2393-.27037,5.75367,5.75367,0,0,0,8.57318.08841,4.50814,4.50814,0,0,0,3.96623,2.12366c1.56314-.10629,3.0314-.61422,3.682-2.03951" transform="translate(-6.80245 -44.76155)"/><path class="cls-10" d="M120.65281,103.19731a5.66111,5.66111,0,0,1,9.77971-.04684,5.58306,5.58306,0,0,1,9.05.45572,4.63261,4.63261,0,0,1,3.62658-2.5903,4.95564,4.95564,0,0,1,4.30061,1.686,4.88031,4.88031,0,0,1,4.31109-1.999,4.8014,4.8014,0,0,1,3.83832,2.73117" transform="translate(-6.80245 -44.76155)"/><path class="cls-10" d="M41.16947,86.17964c5.71718-2.27417,15.19078-3.21037,21.312-2.58686,0,0,11.23,1.41554,19.81755,8.682s22.17679,27.83895,23.21485,30.38692c0,0,13.77792,5.94526,20.38377,15.854s4.71846,14.62724,4.71846,14.62724" transform="translate(-6.80245 -44.76155)"/><path class="cls-10" d="M58.9898,101.98573s6.70022-4.75986,17.08084-1.62045S87.01748,115.11211,86.64,118.27349" transform="translate(-6.80245 -44.76155)"/><path class="cls-10" d="M35.86932,107.37384a8.277,8.277,0,0,1,.56621-8.49323c2.92545-4.6241,9.5313-6.01513,12.45675-3.5266s5.19031,8.4338-1.2268,12.96353S36.43418,108.75444,35.86932,107.37384Z" transform="translate(-6.80245 -44.76155)"/><path class="cls-10" d="M62.42838,100.36528s-3.06111-.06688-3.43858-4.50337,3.586-6.13513,6.889-6.32386,8.682,1.72315,8.5876,5.816-2.73748,4.09924-2.73748,4.09924" transform="translate(-6.80245 -44.76155)"/><circle cx="35.29886" cy="52.83941" r="1.69303"/><circle cx="60.91672" cy="50.91951" r="1.66943"/><path d="M65.31242,101.18637a2.85519,2.85519,0,0,1,2.28877.62619,2.1789,2.1789,0,0,1,.02614,2.64491,5.43859,5.43859,0,0,1-2.26566,1.68809,22.44157,22.44157,0,0,1-3.488,1.32765,5.74637,5.74637,0,0,1-1.9278.28823c-1.454-.09294-2.80877-1.69638-1.851-3.07833a9.23235,9.23235,0,0,1,4.20767-2.85221A10.48539,10.48539,0,0,1,65.31242,101.18637Z" transform="translate(-6.80245 -44.76155)"/><path class="cls-10" d="M49.16743,114.73275s9.335.96719,17.54874-1.231,10.32393-6.12935,14.1927-3.10864,1.84645,20.43015-7.56167,27.816c0,0,3.86876,10.87558-4.748,14.93384S53.65168,142.6834,53.56375,141.941c0,0-8.6101-.39069-12.39428-11.82112S44.7726,114.52455,49.16743,114.73275Z" transform="translate(-6.80245 -44.76155)"/><path class="cls-10" d="M57.80677,131.98336a17.79083,17.79083,0,0,1,10.01013,8.155" transform="translate(-6.80245 -44.76155)"/><path class="cls-10" d="M45.7831,137.98762a17.87586,17.87586,0,0,1,12.70453-7.77982c8.52886-.87926,15.18189,5.72937,15.59225,11.34959" transform="translate(-6.80245 -44.76155)"/><path class="cls-10" d="M44.888,115.75386s2.96055,4.60618,7.97235,1.177c0,0,4.68327,3.69291,8.58441-.52756,0,0,7.23854,2.98133,7.94385-3.74095" transform="translate(-6.80245 -44.76155)"/><path class="cls-10" d="M46.52964,171.797s13.54067-13.45275,23.3005-12.13385S84.6897,173.29174,76.77633,184.986a35.57883,35.57883,0,0,1-28.13646,15.563c-19.51966.96719-23.916-23.12464-23.916-23.12464" transform="translate(-6.80245 -44.76155)"/><path class="cls-10" d="M73.97342,161.09615a7.37862,7.37862,0,0,0-3.86824,3.71964" transform="translate(-6.80245 -44.76155)"/><path class="cls-10" d="M78.69418,165.97585a14.55514,14.55514,0,0,0-3.0525,3.97907" transform="translate(-6.80245 -44.76155)"/><path class="cls-10" d="M102.36291,149.46369a40.38513,40.38513,0,0,0-6.50655,24.61939c1.143,13.9803,16.44224,17.67321,27.60889,2.9895" transform="translate(-6.80245 -44.76155)"/><path class="cls-10" d="M99.66766,182.87833a11.88333,11.88333,0,0,1,1.93161-7.01848" transform="translate(-6.80245 -44.76155)"/><path class="cls-10" d="M106.51368,186.31368a12.074,12.074,0,0,1,1.0404-6.60166" transform="translate(-6.80245 -44.76155)"/><path class="cls-10" d="M149.9756,174.61064s14.19958-10.02361,13.9358-19.69552-11.51836-14.59578-21.27819-10.19946-16.58814,11.31159-19.31386,21.88076,2.432,27.70974,30.21674,25.2478" transform="translate(-6.80245 -44.76155)"/><path class="cls-10" d="M135.11071,189.73042a59.07466,59.07466,0,0,1-5.85657,31.38623" transform="translate(-6.80245 -44.76155)"/><path class="cls-10" d="M131.08937,217.04912a47.73642,47.73642,0,0,1,3.29691,5.84494" transform="translate(-6.80245 -44.76155)"/><path class="cls-10" d="M148.0085,192.1729a121.168,121.168,0,0,0-2.97664,34.25244" transform="translate(-6.80245 -44.76155)"/><path class="cls-10" d="M159.61716,146.24622a7.28291,7.28291,0,0,0-4.43641,1.4439" transform="translate(-6.80245 -44.76155)"/><path class="cls-10" d="M162.785,150.84244a8.88932,8.88932,0,0,0-4.53964,4.139" transform="translate(-6.80245 -44.76155)"/><path class="cls-10" d="M151.48635,143.15683s-.33228-11.3429,1.57173-17.37224c0,0-5.2541-1.15974-4.92839-7.49363a6.743,6.743,0,0,1,1.712-4.31777c1.38261-1.46216,3.92626-2.75953,8.40367-1.30508,0,0,5.39051-8.6738,17.87232-14.17426s28.88825-1.51064,33.01.83327" transform="translate(-6.80245 -44.76155)"/><path class="cls-10" d="M165.78354,85.12007s2.16789,11.42187,1.47256,18.48612" transform="translate(-6.80245 -44.76155)"/><path class="cls-10" d="M182.60836,96.32666a4.78861,4.78861,0,0,1,2.19295-5.59333,6.30928,6.30928,0,0,1,6.232.22966,9.37118,9.37118,0,0,1,3.89016,5.085" transform="translate(-6.80245 -44.76155)"/><path class="cls-10" d="M182.253,83.67973a2.89223,2.89223,0,0,0,2.56264,1.35689,2.98861,2.98861,0,0,0,2.11343-1.30035,6.24638,6.24638,0,0,0,.63556-5.1476,2.9573,2.9573,0,0,0-4.77594-1.1359A5.91055,5.91055,0,0,0,182.253,83.67973Z" transform="translate(-6.80245 -44.76155)"/><path class="cls-10" d="M180.43044,75.42943a1.29568,1.29568,0,0,0,1.01866.89008,1.24166,1.24166,0,0,0,1.221-.56638,1.19217,1.19217,0,0,0-.08976-1.3359,1.28224,1.28224,0,0,0-.853-.44461A1.11091,1.11091,0,0,0,180.43044,75.42943Z" transform="translate(-6.80245 -44.76155)"/><path class="cls-10" d="M185.94285,73.54546a1.93643,1.93643,0,0,0-.09873,1.06307,1.16491,1.16491,0,0,0,1.28517.79067,1.33714,1.33714,0,0,0,1.05427-1.12893,1.57316,1.57316,0,0,0-.64484-1.43762C186.816,72.30674,186.16234,72.82747,185.94285,73.54546Z" transform="translate(-6.80245 -44.76155)"/><path class="cls-10" d="M190.07247,80.51434a1.51593,1.51593,0,0,0,1.63595-.07328,1.5704,1.5704,0,0,0,.60081-1.53074,1.40077,1.40077,0,0,0-2.142-.94418A1.50058,1.50058,0,0,0,190.07247,80.51434Z" transform="translate(-6.80245 -44.76155)"/><path class="cls-10" d="M93.17088,85.12007a275.26163,275.26163,0,0,1,6.71364,28.58909" transform="translate(-6.80245 -44.76155)"/><path class="cls-10" d="M75.1472,85.00814a3.5834,3.5834,0,1,0,5.9722-3.4456A3.58042,3.58042,0,0,0,75.1472,85.00814Z" transform="translate(-6.80245 -44.76155)"/><path class="cls-10" d="M70.22153,81.66914a1.38864,1.38864,0,1,0,2.38414-1.15909A1.39959,1.39959,0,0,0,70.22153,81.66914Z" transform="translate(-6.80245 -44.76155)"/><path class="cls-10" d="M75.22065,76.10834a1.50914,1.50914,0,0,0,.10893.95362,1.835,1.835,0,0,0,.89876.98989,1.49491,1.49491,0,0,0,1.80583-.55224,1.56133,1.56133,0,0,0-.22265-1.88975C77.12667,74.93342,75.50159,75.043,75.22065,76.10834Z" transform="translate(-6.80245 -44.76155)"/><path class="cls-10" d="M81.70674,78.87111a1.43081,1.43081,0,1,0,2.442-1.24468A1.43813,1.43813,0,0,0,81.70674,78.87111Z" transform="translate(-6.80245 -44.76155)"/><path class="cls-10" d="M200.46641,119.43937s11.21824-5.61791,19.77076.82425a17.92959,17.92959,0,0,1,7.44181,15.55" transform="translate(-6.80245 -44.76155)"/><path class="cls-10" d="M243.00687,160.80478s9.46826,17.88942,11.59717,28.8241" transform="translate(-6.80245 -44.76155)"/><path class="cls-10" d="M247.84637,117.86742s-2.63654-22.65682,16.31042-20.84873" transform="translate(-6.80245 -44.76155)"/><path class="cls-10" d="M252.59643,100.33789a9.46826,9.46826,0,0,1,3.03787,4.93947" transform="translate(-6.80245 -44.76155)"/><path class="cls-10" d="M258.6633,97.39267a7.20786,7.20786,0,0,1,3.82266,4.64452" transform="translate(-6.80245 -44.76155)"/><path class="cls-10" d="M236.73139,79.22041a3.975,3.975,0,0,0-.83311,3.501c.44429,2.22143,9.33,25.21327,10.2186,26.324a2.49387,2.49387,0,0,0,2.00676,1.01879" transform="translate(-6.80245 -44.76155)"/><path class="cls-10" d="M235.429,87.59722a.67973.67973,0,0,0,.80828.02684.75885.75885,0,0,0,.11162-.69181,4.90225,4.90225,0,0,0-.29895-.9805,1.14436,1.14436,0,0,0-.41708-.5661.65624.65624,0,0,0-.69779.02611C234.1265,85.98127,234.80168,87.21119,235.429,87.59722Z" transform="translate(-6.80245 -44.76155)"/><path class="cls-10" d="M236.89586,91.39662a.71458.71458,0,0,0,.41242.2511.50794.50794,0,0,0,.48669-.3504,1.22022,1.22022,0,0,0,.01788-.63688,2.08144,2.08144,0,0,0-.35765-.92059,1.017,1.017,0,0,0-.85675-.42463C235.23672,89.42923,236.484,90.97625,236.89586,91.39662Z" transform="translate(-6.80245 -44.76155)"/><path class="cls-10" d="M238.59021,84.092a2.498,2.498,0,0,0,2.1015,1.94253,2.31664,2.31664,0,0,0,2.28545-1.45651,2.53816,2.53816,0,0,0-.6246-2.6719,2.9416,2.9416,0,0,0-2.816-.65033C238.61607,81.64711,238.40022,83.253,238.59021,84.092Z" transform="translate(-6.80245 -44.76155)"/><path class="cls-10" d="M239.06322,91.30012q8.12673-2.9307,16.04525-6.40074" transform="translate(-6.80245 -44.76155)"/><path d="M239.83821,83.92634a1.25661,1.25661,0,0,0,1.48457.56935,1.21458,1.21458,0,0,0,.689-1.26479,1.60458,1.60458,0,0,0-.89976-1.1847C239.83735,81.41855,239.29038,82.99262,239.83821,83.92634Z" transform="translate(-6.80245 -44.76155)"/><path class="cls-10" d="M193.77117,141.54462s10.731-1.21026,16.29826-3.14669,9.68214-3.71149,11.53788-1.291-2.50122,13.23631-12.82883,14.6866-16.379-4.19762-17.26648-7.02158S193.77117,141.54462,193.77117,141.54462Z" transform="translate(-6.80245 -44.76155)"/><path class="cls-10" d="M191.28944,143.62093a6.167,6.167,0,0,0,8.87183-.61057,11.4353,11.4353,0,0,0,5.04949.78291,5.39278,5.39278,0,0,0,4.18608-2.83821,4.58717,4.58717,0,0,0,6.64-4.40822" transform="translate(-6.80245 -44.76155)"/><path class="cls-10" d="M195.18629,149.00542a10.24332,10.24332,0,0,1,15.3894,2.28811" transform="translate(-6.80245 -44.76155)"/><path d="M200.27406,121.89655a5.15777,5.15777,0,0,0-1.7078,1.959,2.26027,2.26027,0,0,0,.33283,2.452,2.77879,2.77879,0,0,0,2.32895.559,13.2575,13.2575,0,0,0,5.18146-2.27618,7.38536,7.38536,0,0,0,1.95409-1.56527,2.535,2.535,0,0,0,.52375-2.35225,2.43605,2.43605,0,0,0-1.924-1.45294C204.71116,118.84093,201.97246,120.59365,200.27406,121.89655Z" transform="translate(-6.80245 -44.76155)"/><ellipse cx="178.65822" cy="79.15352" rx="2.01711" ry="2.29951"/><ellipse cx="206.48404" cy="110.93148" rx="2.01711" ry="2.29951" transform="translate(52.30598 248.43864) rotate(-79.28877)"/><path class="cls-10" d="M52.83939,139.38482l1.23288,3.59005" transform="translate(-6.80245 -44.76155)"/></g></svg>